<?xml version="1.0" encoding="utf-8"?>
<!-- Generator: Adobe Illustrator 19.0.0, SVG Export Plug-In . SVG Version: 6.00 Build 0)  -->
<svg version="1.1" id="Layer_1" xmlns="http://www.w3.org/2000/svg" xmlns:xlink="http://www.w3.org/1999/xlink" x="0px" y="0px"
	 width="15.75px" height="15.6875px" viewBox="0 0 15.75 15.6875" style="enable-background:new 0 0 15.75 15.6875;"
	 xml:space="preserve">
<g id="XMLID_254_">
	<path id="XMLID_542_" style="fill:#7F7F7F;" d="M14.972044,1.2554675c0.5368528,0.5365456,0.5368528,1.4067065,0,1.943252
		l-0.6942263,0.6942267l-2.4043322-2.4043312l0.6942272-0.6942268c0.5368519-0.5366989,1.4070129-0.5366989,1.9437122,0
		L14.972044,1.2554675z"/>
	<path id="XMLID_541_" style="fill:#CECECE;" d="M14.2778177,3.8929462L7.9892826,10.181941H7.9888225L5.5844913,7.7776098
		l6.2889943-6.2889948L14.2778177,3.8929462z"/>
	<path id="XMLID_540_" style="fill:#CECECE;" d="M5.5844913,7.7776098l2.4043312,2.4043312l-0.0223942,0.0223942
		l-3.3254166,0.9212389L5.5620966,7.800004L5.5844913,7.7776098z"/>
	<g id="XMLID_255_">
		<g id="XMLID_579_">
			<path id="XMLID_586_" style="fill:#303030;" d="M14.551919,9.8438778c-0.2168884,0-0.3926687,0.1757803-0.3926687,0.3926687
				v3.4864721c-0.0007677,0.6503582-0.5276499,1.1772404-1.1780081,1.1780081H1.9633456
				c-0.6503583-0.0007677-1.1772405-0.5276499-1.1780074-1.1780081V3.4904604
				C0.7861052,2.8402555,1.3129873,2.31322,1.9633456,2.312453h3.4864726c0.216888,0,0.3926687-0.1757808,0.3926687-0.3926691
				S5.6667061,1.5271149,5.4498181,1.5271149H1.9633456C0.8795175,1.5283419,0.0012271,2.4066324,0,3.4904604v10.2325583
				c0.0012271,1.0838289,0.8795175,1.9621191,1.9633456,1.9633465h11.0178967
				c1.083828-0.0012274,1.9621191-0.8795176,1.9633455-1.9633465v-3.4864721
				C14.9445877,10.0196581,14.7688074,9.8438778,14.551919,9.8438778z"/>
			<path id="XMLID_580_" style="fill:#303030;" d="M14.7892075,0.5167588c-0.6906986-0.6890117-1.8085785-0.6890117-2.4991236,0
				L5.2844672,7.5223746c-0.0478563,0.0480099-0.082675,0.1075239-0.1007748,0.1727133l-0.9210849,3.3255696
				c-0.0378866,0.1363611,0.0006132,0.2823849,0.1006212,0.3825455c0.1001616,0.100008,0.2461853,0.1385088,0.3825455,0.1007757
				l3.3255701-0.9212389c0.0653429-0.0180998,0.1250105-0.0529184,0.1730204-0.1009283l0.0222406-0.0223942l6.9830685-6.9830685
				c0.6900854-0.6899319,0.6900854-1.8085787,0-2.4985106L14.7892075,0.5167588z M5.7705488,8.5189257l1.4769573,1.4771109
				l-2.0431066,0.5659962L5.7705488,8.5189257z M7.9891295,10.1820946v-0.0003071l0.2560019,0.2560024L7.9891295,10.1820946z
				 M7.9891295,9.6268358l-1.8492265-1.849226l5.7335825-5.733583l1.8490734,1.8489194L7.9891295,9.6268358z M14.6944151,2.9210901
				l-0.4165974,0.4165976l-1.8489199-1.8490728l0.4165974-0.4165975c0.3834658-0.382699,1.004528-0.382699,1.3881474,0
				l0.4607725,0.4612329C15.0778809,1.9164095,15.0778809,2.537931,14.6944151,2.9210901z"/>
		</g>
	</g>
</g>
</svg>
