<?xml version="1.0" encoding="utf-8"?>
<!-- Generator: Adobe Illustrator 19.0.0, SVG Export Plug-In . SVG Version: 6.00 Build 0)  -->
<svg version="1.1" id="Layer_1" xmlns="http://www.w3.org/2000/svg" xmlns:xlink="http://www.w3.org/1999/xlink" x="0px" y="0px"
	 width="182.5349426px" height="104.749527px" viewBox="0 0 182.5349426 104.749527"
	 style="enable-background:new 0 0 182.5349426 104.749527;" xml:space="preserve">
<g>
	<g>
		<path style="fill:#FFFFFF;" d="M170.3567352,82.2154388c-0.0007629-0.0223083-0.0014343-0.0447083-0.0018616-0.0671005
			c-0.0484161-2.3191147,1.7953339-4.3099976,4.1118164-4.4301682c2.5042877-0.1298904,4.5756226,1.8622589,4.5756226,4.3382187
			c0,0.0884857-0.0026245,0.1762924-0.0078735,0.2634201c-0.1139069,1.8942032,0.5378113,3.7529907,1.6755829,5.2717133
			c1.0184174,1.3593369,1.5863342,3.0755615,1.482132,4.9276733c-0.2169342,3.8566055-3.4054108,6.9549866-7.2664032,7.0692368
			c-4.2494812,0.1256714-7.733902-3.2816772-7.733902-7.5029373c0-1.6873169,0.5569153-3.2441559,1.4969177-4.4974365
			C169.8492584,86.0408554,170.426712,84.148262,170.3567352,82.2154388z"/>
		<path style="fill:#424242;" d="M169.2392578,97.7089386c-1.5336761-1.4889755-2.3784332-3.4861069-2.3784332-5.6233597
			c0-1.7090378,0.5406036-3.3328934,1.5630951-4.6960373c1.1004791-1.4670868,1.6694794-3.3004379,1.6021271-5.1620178
			l-0.0020294-0.0721741c-0.0521393-2.4996262,1.933075-4.6385651,4.4255219-4.7676926
			c1.2983246-0.0665131,2.5282745,0.3866272,3.4671783,1.2778702c0.9393311,0.8919144,1.4566193,2.0960083,1.4566193,3.3908615
			c0,0.0950775-0.0029602,0.189476-0.0085449,0.2831955c-0.1042023,1.7338028,0.4675903,3.5283661,1.6101685,5.0535965
			c1.1018372,1.4707184,1.651474,3.297821,1.5475311,5.1445236c-0.2259674,4.0201263-3.558609,7.2623444-7.5869293,7.3815002
			c-0.0800323,0.0023651-0.1599884,0.0036392-0.2396698,0.0036392
			C172.6448364,99.9228439,170.7151489,99.1419678,169.2392578,97.7089386z M174.4837646,78.0487747
			c-2.1390228,0.1107941-3.8427429,1.9469299-3.7980347,4.0932236l0.0018616,0.0607681c0,0.0001678,0,0.0004196,0,0.0005875
			c0.0728302,2.0126801-0.5430603,3.9956207-1.7341309,5.5834732c-0.9358673,1.2476959-1.430603,2.7341385-1.430603,4.2987518
			c0,1.9566574,0.7733612,3.7850189,2.1775818,5.1484146c1.4035339,1.3627243,3.2568359,2.0797043,5.2155151,2.023674
			c3.6878204-0.1092758,6.7387085-3.0771713,6.9456635-6.7570572c0.0951691-1.6912994-0.4079132-3.3643341-1.416626-4.7104874
			c-1.2362061-1.6504745-1.8545532-3.6003647-1.7409821-5.4900055c0.0048218-0.0805359,0.0073547-0.1620026,0.0073547-0.2437286
			c0-1.1114655-0.4441833-2.1451035-1.2504883-2.9107666c-0.7534943-0.7153702-1.7267914-1.1024246-2.760849-1.1024246
			C174.6282806,78.0431976,174.5561066,78.0451355,174.4837646,78.0487747z"/>
		<g>
			<line style="fill:#5E35B1;" x1="174.6980896" y1="88.6653061" x2="174.6980896" y2="104.4185028"/>
			<path style="fill:#424242;" d="M174.6980896,104.749527c0.1828766,0,0.3310242-0.1482315,0.3310242-0.3309402V88.66539
				c0-0.1827087-0.1481476-0.3309402-0.3310242-0.3309402c-0.1828003,0-0.3309479,0.1482315-0.3309479,0.3309402v15.7531967
				C174.3671417,104.6012955,174.5152893,104.749527,174.6980896,104.749527z"/>
		</g>
		<g>
			<line style="fill:#5E35B1;" x1="177.5941467" y1="93.376297" x2="174.6980896" y2="95.2850342"/>
			<path style="fill:#424242;" d="M174.6984253,95.6161423c0.0625305,0,0.1257477-0.017662,0.1818542-0.0547638l2.8960724-1.9087372
				c0.1525421-0.1003952,0.1947937-0.3057556,0.0941467-0.4583817c-0.1004028-0.1525345-0.306015-0.1949615-0.4585571-0.0941391
				l-2.8960571,1.9088211c-0.1525421,0.1003952-0.1947937,0.3057556-0.0941467,0.4582977
				C174.4852905,95.5637436,174.5909271,95.6161423,174.6984253,95.6161423z"/>
		</g>
		<g>
			<line style="fill:#FFC107;" x1="178.3389282" y1="104.4185028" x2="171.0572357" y2="104.4185028"/>
			<path style="fill:#424242;" d="M171.0572357,104.749527h7.2817841c0.182785,0,0.3309326-0.1482315,0.3309326-0.3309402
				c0-0.1827927-0.1481476-0.3310242-0.3309326-0.3310242h-7.2817841c-0.182785,0-0.3309326,0.1482315-0.3309326,0.3310242
				C170.7263031,104.6012955,170.8744507,104.749527,171.0572357,104.749527z"/>
		</g>
		<rect x="123.2387772" y="81.7027054" style="fill:#F8F9F9;" width="48.9175072" height="22.9595947"/>
		<path style="fill:#424242;" d="M122.9078369,104.0289993V81.0693207c0-0.1828003,0.1481476-0.3310242,0.3309402-0.3310242
			h48.9174271c0.1828613,0,0.3310242,0.1482239,0.3310242,0.3310242v22.9596786
			c0,0.1827087-0.1481628,0.3309402-0.3310242,0.3309402h-48.9174271
			C123.0559845,104.3599396,122.9078369,104.2117081,122.9078369,104.0289993z M171.8252563,81.4002609h-48.255455v22.2977142
			h48.255455V81.4002609z"/>
		<rect x="141.3978882" y="81.0693207" style="fill:#ECEFF1;" width="12.0663786" height="22.9595947"/>
		<path style="fill:#424242;" d="M141.066864,104.0289993V81.0693207c0-0.1828003,0.1481323-0.3310242,0.3310242-0.3310242
			h12.0663757c0.1828766,0,0.3310242,0.1482239,0.3310242,0.3310242v22.9596786
			c0,0.1827087-0.1481476,0.3309402-0.3310242,0.3309402h-12.0663757
			C141.2149963,104.3599396,141.066864,104.2117081,141.066864,104.0289993z M153.1332397,81.4002609h-11.4044342v22.2977142
			h11.4044342V81.4002609z"/>
		<path style="fill:#337D3E;" d="M143.3033295,95.2310333h0.4010773c0.2893219,0,0.52388-0.2345505,0.52388-0.52388v-3.117897
			c0-0.2893295-0.2345428-0.52388-0.52388-0.52388h-0.4010773c-0.2893372,0-0.52388,0.2345505-0.52388,0.52388v3.117897
			C142.7794495,94.9964828,143.0139923,95.2310333,143.3033295,95.2310333z"/>
		<path style="fill:#424242;" d="M142.4485016,94.5066147V91.789711c0-0.582016,0.4734344-1.0554428,1.0553589-1.0554428
			c0.5820313,0,1.0554504,0.4734268,1.0554504,1.0554428v2.7169037c0,0.582016-0.4734192,1.0554428-1.0554504,1.0554428
			C142.921936,95.5620575,142.4485016,95.0886307,142.4485016,94.5066147z M143.1104736,91.789711v2.7169037
			c0,0.2170181,0.1764526,0.3934784,0.3933868,0.3934784c0.2169495,0,0.3934784-0.1764603,0.3934784-0.3934784V91.789711
			c0-0.2169342-0.1765289-0.3934784-0.3934784-0.3934784C143.2869263,91.3962326,143.1104736,91.5727768,143.1104736,91.789711z"/>
		<g>
			<line style="fill:#5E35B1;" x1="174.6980896" y1="104.4185028" x2="120.5506821" y2="104.4185028"/>
			<path style="fill:#424242;" d="M120.5506821,104.749527h54.1474075c0.1828766,0,0.3310242-0.1482315,0.3310242-0.3309402
				c0-0.1827927-0.1481476-0.3310242-0.3310242-0.3310242h-54.1474075c-0.182785,0-0.330925,0.1482315-0.330925,0.3310242
				C120.2197571,104.6012955,120.367897,104.749527,120.5506821,104.749527z"/>
		</g>
		<rect x="123.2765579" y="60.3018227" style="fill:#9BBD37;" width="48.4855766" height="6.8916812"/>
		<path style="fill:#424242;" d="M122.9455338,67.1934204v-6.8916855c0-0.1827087,0.14814-0.3309364,0.3310242-0.3309364h48.4855728
			c0.1828003,0,0.3309479,0.1482277,0.3309479,0.3309364v6.8916855c0,0.1827927-0.1481476,0.3310242-0.3309479,0.3310242
			h-48.4855728C123.0936737,67.5244446,122.9455338,67.3762131,122.9455338,67.1934204z M171.4311066,60.6327629h-47.8236084
			v6.2297173h47.8236084V60.6327629z"/>
		<path style="fill:#424242;" d="M122.9078369,95.2310333V81.0693207c0-0.1828003,0.1481476-0.3310242,0.3309402-0.3310242
			h16.1281662c0.1828003,0,0.3309479,0.1482239,0.3309479,0.3310242v14.1617126
			c0,0.1827927-0.1481476,0.3310242-0.3309479,0.3310242h-16.1281662
			C123.0559845,95.5620575,122.9078369,95.413826,122.9078369,95.2310333z M139.0359192,81.4002609h-15.4661179v13.4998322
			h15.4661179V81.4002609z"/>
		<g>
			<path style="fill:#424242;" d="M122.9078369,95.2310333V81.0693207c0-0.1828003,0.1481476-0.3310242,0.3309402-0.3310242
				h16.1281662c0.1828003,0,0.3309479,0.1482239,0.3309479,0.3310242v14.1617126
				c0,0.1827927-0.1481476,0.3310242-0.3309479,0.3310242h-16.1281662
				C123.0559845,95.5620575,122.9078369,95.413826,122.9078369,95.2310333z M139.0359192,81.4002609h-15.4661179v13.4998322
				h15.4661179V81.4002609z"/>
		</g>
		<g>
			<line style="fill:#ECEFF1;" x1="131.3028564" y1="81.0693207" x2="131.3028564" y2="95.2310333"/>
			<path style="fill:#424242;" d="M131.3028564,95.5620575c0.1828003,0,0.3310242-0.1482315,0.3310242-0.3310242V81.0693207
				c0-0.1828003-0.1482239-0.3310242-0.3310242-0.3310242c-0.1828766,0-0.3310242,0.1482239-0.3310242,0.3310242v14.1617126
				C130.9718323,95.413826,131.1199799,95.5620575,131.3028564,95.5620575z"/>
		</g>
		<g>
			<path style="fill:#424242;" d="M155.6971741,95.2310333V81.0693207c0-0.1828003,0.1481323-0.3310242,0.3309479-0.3310242
				h16.1280823c0.1828613,0,0.3310242,0.1482239,0.3310242,0.3310242v14.1617126
				c0,0.1827927-0.1481628,0.3310242-0.3310242,0.3310242h-16.1280823
				C155.8453064,95.5620575,155.6971741,95.413826,155.6971741,95.2310333z M171.8252563,81.4002609h-15.4661255v13.4998322
				h15.4661255V81.4002609z"/>
		</g>
		<g>
			<line style="fill:#ECEFF1;" x1="164.0922089" y1="81.0693207" x2="164.0922089" y2="95.2310333"/>
			<path style="fill:#424242;" d="M164.0922089,95.5620575c0.182785,0,0.3309326-0.1482315,0.3309326-0.3310242V81.0693207
				c0-0.1828003-0.1481476-0.3310242-0.3309326-0.3310242c-0.1828918,0-0.3310242,0.1482239-0.3310242,0.3310242v14.1617126
				C163.7611847,95.413826,163.909317,95.5620575,164.0922089,95.5620575z"/>
		</g>
		<path style="fill:#337D3E;" d="M170.6436005,85.6908188h2.2370758c1.613739,0,2.9219513-1.3082047,2.9219513-2.9219589V71.8945236
			c0-0.5151825-0.4176331-0.9328156-0.9328156-0.9328156h-6.2153473c-0.5151825,0-0.9328308,0.4176331-0.9328308,0.9328156
			v10.8743362C167.7216339,84.3826141,169.0298462,85.6908188,170.6436005,85.6908188z"/>
		<path style="fill:#424242;" d="M167.3906097,81.6504059V70.9616241c0-0.1827164,0.1481476-0.3309402,0.3310242-0.3309402
			h8.0809937c0.1828003,0,0.3309326,0.1482239,0.3309326,0.3309402v10.6887817c0,2.4104691-1.9610443,4.3714371-4.3714294,4.3714371
			C169.3516541,86.021843,167.3906097,84.0608749,167.3906097,81.6504059z M168.0525818,71.2926483v10.3577576
			c0,2.0454712,1.6641541,3.7094727,3.709549,3.7094727s3.7094727-1.6640015,3.7094727-3.7094727V71.2926483H168.0525818z"/>
		<path style="fill:#9BBD37;" d="M162.5626678,85.6908188h2.2370453c1.613739,0,2.9219208-1.3081894,2.9219208-2.9219284V71.8740768
			c0-0.503891-0.4084778-0.9123688-0.9123688-0.9123688h-6.2561493c-0.503891,0-0.912384,0.4084778-0.912384,0.9123688v10.8948135
			C159.6407318,84.3826294,160.9489288,85.6908188,162.5626678,85.6908188z"/>
		<path style="fill:#424242;" d="M159.3097992,81.6504059V70.9616241c0-0.1827164,0.1481476-0.3309402,0.3309326-0.3309402
			h8.0809021c0.1828003,0,0.3309479,0.1482239,0.3309479,0.3309402v10.6887817c0,2.4104691-1.9610443,4.3714371-4.3713531,4.3714371
			C161.2708282,86.021843,159.3097992,84.0608749,159.3097992,81.6504059z M159.971756,71.2926483v10.3577576
			c0,2.0454712,1.664093,3.7094727,3.7094727,3.7094727c2.0453949,0,3.7093811-1.6640015,3.7093811-3.7094727V71.2926483H159.971756
			z"/>
		<path style="fill:#337D3E;" d="M154.4817505,85.6908188h2.2370605c1.613739,0,2.9219208-1.308197,2.9219208-2.9219284V71.9594269
			c0-0.5510254-0.4466858-0.9977188-0.9977112-0.9977188h-6.0854797c-0.5510254,0-0.9977112,0.4466934-0.9977112,0.9977188
			v10.8094559C151.5598297,84.3826218,152.8680267,85.6908188,154.4817505,85.6908188z"/>
		<path style="fill:#424242;" d="M151.2288055,81.6504059V70.9616241c0-0.1827164,0.1481476-0.3309402,0.3309479-0.3309402
			h8.0809784c0.1828918,0,0.3310242,0.1482239,0.3310242,0.3309402v10.6887817c0,2.4104691-1.9610443,4.3714371-4.371521,4.3714371
			C153.1898651,86.021843,151.2288055,84.0608749,151.2288055,81.6504059z M151.8907776,71.2926483v10.3577576
			c0,2.0454712,1.6640778,3.7094727,3.7094574,3.7094727c2.0454865,0,3.7095642-1.6640015,3.7095642-3.7094727V71.2926483
			H151.8907776z"/>
		<path style="fill:#9BBD37;" d="M146.4008026,85.6908188h2.2370758c1.613739,0,2.9219513-1.3082047,2.9219513-2.9219513V71.9556122
			c0-0.5489197-0.4449921-0.9939041-0.9939117-0.9939041h-6.0931549c-0.5489197,0-0.9939117,0.4449844-0.9939117,0.9939041
			v10.8132477C143.4788513,84.3826141,144.7870483,85.6908188,146.4008026,85.6908188z"/>
		<path style="fill:#424242;" d="M143.1478271,81.6504059V70.9616241c0-0.1827164,0.1481476-0.3309402,0.3310242-0.3309402
			h8.0809021c0.1828766,0,0.3310242,0.1482239,0.3310242,0.3309402v10.6887817c0,2.4104691-1.9610443,4.3714371-4.3714294,4.3714371
			C145.1088715,86.021843,143.1478271,84.0608749,143.1478271,81.6504059z M143.8097839,71.2926483v10.3577576
			c0,2.0454712,1.664093,3.7094727,3.7095642,3.7094727c2.0453796,0,3.7094574-1.6640015,3.7094574-3.7094727V71.2926483
			H143.8097839z"/>
		<path style="fill:#337D3E;" d="M138.31987,85.6908188h2.2370605c1.6137238,0,2.9219208-1.3081894,2.9219208-2.9219284V71.9466629
			c0-0.5439758-0.440979-0.9849548-0.9849548-0.9849548h-6.1109924c-0.5439758,0-0.9849548,0.440979-0.9849548,0.9849548v10.8222275
			C135.3979492,84.3826294,136.7061462,85.6908188,138.31987,85.6908188z"/>
		<path style="fill:#424242;" d="M135.0670166,81.6504059V70.9616241c0-0.1827164,0.1481323-0.3309402,0.3309326-0.3309402
			h8.0809021c0.1828003,0,0.3309326,0.1482239,0.3309326,0.3309402v10.6887817c0,2.4104691-1.9610443,4.3714371-4.3713379,4.3714371
			C137.0280609,86.021843,135.0670166,84.0608749,135.0670166,81.6504059z M135.7289734,71.2926483v10.3577576
			c0,2.0454712,1.6640778,3.7094727,3.7094727,3.7094727c2.0453796,0,3.7093811-1.6640015,3.7093811-3.7094727V71.2926483
			H135.7289734z"/>
		<path style="fill:#9BBD37;" d="M130.2389221,85.6908188h2.2370758c1.613739,0,2.9219513-1.3082123,2.9219513-2.9219589V71.8793564
			c0-0.5068054-0.4108429-0.9176483-0.9176483-0.9176483h-6.2456818c-0.506813,0-0.9176559,0.4108429-0.9176559,0.9176483
			v10.8895111C127.3169632,84.3826141,128.6251678,85.6908188,130.2389221,85.6908188z"/>
		<path style="fill:#424242;" d="M126.9860229,81.6504059V70.9616241c0-0.1827164,0.1481476-0.3309402,0.3309402-0.3309402h8.080986
			c0.1828766,0,0.3310242,0.1482239,0.3310242,0.3309402v10.6887817c0,2.4104691-1.9610443,4.3714371-4.371521,4.3714371
			C128.9470673,86.021843,126.9860229,84.0608749,126.9860229,81.6504059z M127.6479874,71.2926483v10.3577576
			c0,2.0454712,1.6640854,3.7094727,3.709465,3.7094727c2.0453949,0,3.7095642-1.6640015,3.7095642-3.7094727V71.2926483
			H127.6479874z"/>
		<path style="fill:#337D3E;" d="M122.1579895,85.6908188h2.2370529c1.6137314,0,2.9219208-1.3081894,2.9219208-2.9219284V71.740654
			c0-0.4301987-0.3487473-0.7789459-0.7789459-0.7789459h-6.5230103c-0.4301987,0-0.7789459,0.3487473-0.7789459,0.7789459
			v11.0282364C119.2360611,84.3826294,120.5442505,85.6908188,122.1579895,85.6908188z"/>
		<path style="fill:#424242;" d="M118.9050369,81.6504059V70.9616241c0-0.1827164,0.1481323-0.3309402,0.3310242-0.3309402
			h8.0809021c0.1828766,0,0.3310242,0.1482239,0.3310242,0.3309402v10.6887817c0,2.4104691-1.9610443,4.3714371-4.3714294,4.3714371
			C120.8660812,86.021843,118.9050369,84.0608749,118.9050369,81.6504059z M119.5669861,71.2926483v10.3577576
			c0,2.0454712,1.664093,3.7094727,3.7095718,3.7094727c2.0453873,0,3.709465-1.6640015,3.709465-3.7094727V71.2926483H119.5669861z
			"/>
		<polygon style="fill:#337D3E;" points="119.2360611,70.9617081 175.8026276,70.9617081 171.7621307,67.1935043 
			123.2765579,67.1935043 		"/>
		<path style="fill:#424242;" d="M118.928093,71.0829773c-0.0498581-0.1265106-0.0172272-0.2706833,0.0822449-0.3633041
			l4.0404892-3.7682037c0.0612717-0.0572968,0.1418915-0.0889893,0.2257309-0.0889893h48.4855728
			c0.0838318,0,0.1643677,0.0316925,0.2257233,0.0889893l4.0404968,3.7682037
			c0.0993805,0.0926208,0.1320953,0.2367935,0.0821381,0.3633041c-0.0497742,0.1265106-0.1718903,0.209671-0.3078613,0.209671
			h-56.5665665C119.1000824,71.2926483,118.9778824,71.2094879,118.928093,71.0829773z M171.6317291,67.5244446H123.406868
			l-3.3306122,3.1062393h54.8861771L171.6317291,67.5244446z"/>
	</g>
	<g>
		<path style="fill:#FFFFFF;" d="M12.1782017,82.2154388c0.000761-0.0223083,0.0014372-0.0447083,0.0018597-0.0671005
			c0.0484238-2.3191147-1.7953243-4.3099976-4.1118193-4.4301682c-2.5042763-0.1298904-4.5756087,1.8622589-4.5756087,4.3382187
			c0,0.0884857,0.0026197,0.1762924,0.0078595,0.2634201c0.113919,1.8942032-0.5378089,3.7529907-1.6755737,5.2717133
			c-1.0184264,1.3593369-1.5863315,3.0755615-1.482131,4.9276733c0.2169364,3.8566055,3.4054027,6.9549866,7.266397,7.0692368
			c4.249485,0.1256714,7.7339048-3.2816772,7.7339048-7.5029373c0-1.6873169-0.5569191-3.2441559-1.4969206-4.4974365
			C12.6856823,86.0408554,12.1082277,84.148262,12.1782017,82.2154388z"/>
		<path style="fill:#424242;" d="M7.8390517,99.9228439c-0.0796928,0-0.1596389-0.0012741-0.2396698-0.0036392
			c-4.0283237-0.1191559-7.3609633-3.3613739-7.5869317-7.3815002c-0.1039469-1.8467026,0.4456935-3.6738052,1.5475309-5.1445236
			c1.1425711-1.5252304,1.7143637-3.3197937,1.6101631-5.0535965c-0.0055776-0.0937195-0.0085354-0.188118-0.0085354-0.2831955
			c0-1.2948532,0.5172839-2.4989471,1.45662-3.3908615c0.9389024-0.891243,2.1688461-1.3443832,3.4671688-1.2778702
			c2.4924545,0.1291275,4.4776611,2.2680664,4.425519,4.7676926l-0.002018,0.0721741
			c-0.0673647,1.8615799,0.5016394,3.694931,1.6021242,5.1620178c1.0224829,1.3631439,1.5630913,2.9869995,1.5630913,4.6960373
			c0,2.1372528-0.844759,4.1343842-2.3784294,5.6233597C11.8197966,99.1419678,9.8901014,99.9228439,7.8390517,99.9228439z
			 M7.8349104,78.0431976c-1.0340605,0-2.0073481,0.3870544-2.7608471,1.1024246
			c-0.8063068,0.7656631-1.25049,1.7993011-1.25049,2.9107666c0,0.0817261,0.0025353,0.1631927,0.0073524,0.2437286
			c0.1135809,1.8896408-0.5047765,3.8395309-1.7409842,5.4900055c-1.0087078,1.3461533-1.511794,3.0191879-1.4166254,4.7104874
			c0.2069536,3.6798859,3.2578487,6.6477814,6.945672,6.7570572c1.9586811,0.0560303,3.8119793-0.6609497,5.2155161-2.023674
			c1.404213-1.3633957,2.1775723-3.1917572,2.1775723-5.1484146c0-1.5646133-0.4947309-3.0510559-1.4305916-4.2987518
			c-1.1910791-1.5878525-1.8069744-3.5707932-1.7341385-5.5834732c0-0.0001678,0-0.0004196,0-0.0005875l0.0018597-0.0607681
			c0.0447054-2.1462936-1.6590099-3.9824295-3.7980347-4.0932236C7.9788303,78.0451355,7.9066591,78.0431976,7.8349104,78.0431976z"
			/>
		<g>
			<line style="fill:#5E35B1;" x1="7.8368545" y1="88.6653061" x2="7.8368545" y2="104.4185028"/>
			<path style="fill:#424242;" d="M7.8368545,104.749527c-0.182879,0-0.3310246-0.1482315-0.3310246-0.3309402V88.66539
				c0-0.1827087,0.1481457-0.3309402,0.3310246-0.3309402c0.1827941,0,0.3309398,0.1482315,0.3309398,0.3309402v15.7531967
				C8.1677942,104.6012955,8.0196486,104.749527,7.8368545,104.749527z"/>
		</g>
		<g>
			<line style="fill:#5E35B1;" x1="4.9407916" y1="93.376297" x2="7.8368545" y2="95.2850342"/>
			<path style="fill:#424242;" d="M7.8365164,95.6161423c-0.0625372,0-0.1257505-0.017662-0.1818542-0.0547638l-2.8960733-1.9087372
				c-0.1525402-0.1003952-0.1947951-0.3057556-0.0941439-0.4583817c0.1003976-0.1525345,0.3060093-0.1949615,0.4585495-0.0941391
				l2.8960629,1.9088211c0.1525402,0.1003952,0.1947947,0.3057556,0.0941439,0.4582977
				C8.0496492,95.5637436,7.9440126,95.6161423,7.8365164,95.6161423z"/>
		</g>
		<g>
			<line style="fill:#FFC107;" x1="4.1960077" y1="104.4185028" x2="11.4777012" y2="104.4185028"/>
			<path style="fill:#424242;" d="M11.4777012,104.749527H4.1959229c-0.1827836,0-0.3309398-0.1482315-0.3309398-0.3309402
				c0-0.1827927,0.1481562-0.3310242,0.3309398-0.3310242h7.2817783c0.1827946,0,0.3309393,0.1482315,0.3309393,0.3310242
				C11.8086405,104.6012955,11.6604958,104.749527,11.4777012,104.749527z"/>
		</g>
		<rect x="10.3786526" y="81.7027054" style="fill:#F8F9F9;" width="48.9175072" height="22.9595947"/>
		<path style="fill:#424242;" d="M59.2961578,104.3599396H10.3787365c-0.182868,0-0.3310242-0.1482315-0.3310242-0.3309402
			V81.0693207c0-0.1828003,0.1481562-0.3310242,0.3310242-0.3310242h48.9174194
			c0.1827965,0,0.3309402,0.1482239,0.3309402,0.3310242v22.9596786
			C59.6270981,104.2117081,59.4789543,104.3599396,59.2961578,104.3599396z M10.7096882,103.6979752h48.2554474V81.4002609
			H10.7096882V103.6979752z"/>
		<rect x="29.0706749" y="81.0693207" style="fill:#ECEFF1;" width="12.0663786" height="22.9595947"/>
		<path style="fill:#424242;" d="M41.1370544,104.3599396H29.0706749c-0.1828785,0-0.3310242-0.1482315-0.3310242-0.3309402
			V81.0693207c0-0.1828003,0.1481457-0.3310242,0.3310242-0.3310242h12.0663795
			c0.1828918,0,0.3310242,0.1482239,0.3310242,0.3310242v22.9596786
			C41.4680786,104.2117081,41.3199463,104.3599396,41.1370544,104.3599396z M29.401701,103.6979752h11.4044247V81.4002609H29.401701
			V103.6979752z"/>
		<path style="fill:#337D3E;" d="M39.2316132,95.2310333h-0.4010811c-0.2893295,0-0.5238762-0.2345505-0.5238762-0.52388v-3.117897
			c0-0.2893295,0.2345467-0.52388,0.5238762-0.52388h0.4010811c0.2893295,0,0.5238762,0.2345505,0.5238762,0.52388v3.117897
			C39.7554893,94.9964828,39.5209427,95.2310333,39.2316132,95.2310333z"/>
		<path style="fill:#424242;" d="M39.0310745,95.5620575c-0.5820198,0-1.0554428-0.4734268-1.0554428-1.0554428V91.789711
			c0-0.582016,0.473423-1.0554428,1.0554428-1.0554428c0.5819321,0,1.0553551,0.4734268,1.0553551,1.0554428v2.7169037
			C40.0864296,95.0886307,39.6130066,95.5620575,39.0310745,95.5620575z M39.0310745,91.3962326
			c-0.216938,0-0.3934669,0.1765442-0.3934669,0.3934784v2.7169037c0,0.2170181,0.1765289,0.3934784,0.3934669,0.3934784
			c0.2169342,0,0.3933907-0.1764603,0.3933907-0.3934784V91.789711
			C39.4244652,91.5727768,39.2480087,91.3962326,39.0310745,91.3962326z"/>
		<g>
			<line style="fill:#5E35B1;" x1="7.8368545" y1="104.4185028" x2="61.9842567" y2="104.4185028"/>
			<path style="fill:#424242;" d="M61.9842567,104.749527H7.8368545c-0.182879,0-0.3310246-0.1482315-0.3310246-0.3309402
				c0-0.1827927,0.1481457-0.3310242,0.3310246-0.3310242h54.1474037c0.1827812,0,0.3309288,0.1482315,0.3309288,0.3310242
				C62.3151855,104.6012955,62.167038,104.749527,61.9842567,104.749527z"/>
		</g>
		<rect x="10.7728052" y="60.3018227" style="fill:#9BBD37;" width="48.4855766" height="6.8916812"/>
		<path style="fill:#424242;" d="M59.2583847,67.5244446H10.7728052c-0.1827946,0-0.3309393-0.1482315-0.3309393-0.3310242
			v-6.8916855c0-0.1827087,0.1481447-0.3309364,0.3309393-0.3309364h48.4855804
			c0.1828766,0,0.3310242,0.1482277,0.3310242,0.3309364v6.8916855
			C59.5894089,67.3762131,59.4412613,67.5244446,59.2583847,67.5244446z M11.1038303,66.8624802h47.823616v-6.2297173h-47.823616
			V66.8624802z"/>
		<path style="fill:#424242;" d="M59.2961578,95.5620575H43.1679916c-0.1827965,0-0.3309402-0.1482315-0.3309402-0.3310242
			V81.0693207c0-0.1828003,0.1481438-0.3310242,0.3309402-0.3310242h16.1281662
			c0.1827965,0,0.3309402,0.1482239,0.3309402,0.3310242v14.1617126
			C59.6270981,95.413826,59.4789543,95.5620575,59.2961578,95.5620575z M43.4990158,94.9000931h15.4661179V81.4002609H43.4990158
			V94.9000931z"/>
		<g>
			<path style="fill:#424242;" d="M59.2961578,95.5620575H43.1679916c-0.1827965,0-0.3309402-0.1482315-0.3309402-0.3310242
				V81.0693207c0-0.1828003,0.1481438-0.3310242,0.3309402-0.3310242h16.1281662
				c0.1827965,0,0.3309402,0.1482239,0.3309402,0.3310242v14.1617126
				C59.6270981,95.413826,59.4789543,95.5620575,59.2961578,95.5620575z M43.4990158,94.9000931h15.4661179V81.4002609H43.4990158
				V94.9000931z"/>
		</g>
		<g>
			<line style="fill:#ECEFF1;" x1="51.2320862" y1="81.0693207" x2="51.2320862" y2="95.2310333"/>
			<path style="fill:#424242;" d="M51.2320862,95.5620575c-0.1828041,0-0.3310356-0.1482315-0.3310356-0.3310242V81.0693207
				c0-0.1828003,0.1482315-0.3310242,0.3310356-0.3310242c0.182869,0,0.3310127,0.1482239,0.3310127,0.3310242v14.1617126
				C51.5630989,95.413826,51.4149551,95.5620575,51.2320862,95.5620575z"/>
		</g>
		<g>
			<path style="fill:#424242;" d="M26.5068207,95.5620575H10.3787365c-0.182868,0-0.3310242-0.1482315-0.3310242-0.3310242
				V81.0693207c0-0.1828003,0.1481562-0.3310242,0.3310242-0.3310242h16.1280842
				c0.182806,0,0.3309402,0.1482239,0.3309402,0.3310242v14.1617126
				C26.8377609,95.413826,26.6896267,95.5620575,26.5068207,95.5620575z M10.7096882,94.9000931H26.175808V81.4002609H10.7096882
				V94.9000931z"/>
		</g>
		<g>
			<line style="fill:#ECEFF1;" x1="18.4427357" y1="81.0693207" x2="18.4427357" y2="95.2310333"/>
			<path style="fill:#424242;" d="M18.4427357,95.5620575c-0.1827946,0-0.3309383-0.1482315-0.3309383-0.3310242V81.0693207
				c0-0.1828003,0.1481438-0.3310242,0.3309383-0.3310242c0.1828804,0,0.3310261,0.1482239,0.3310261,0.3310242v14.1617126
				C18.7737617,95.413826,18.6256161,95.5620575,18.4427357,95.5620575z"/>
		</g>
		<path style="fill:#337D3E;" d="M11.8913431,85.6908188H9.6542673c-1.6137505,0-2.9219546-1.3082047-2.9219546-2.9219589
			V71.8945236c0-0.5151825,0.4176373-0.9328156,0.9328194-0.9328156h6.2153468c0.5151825,0,0.9328194,0.4176331,0.9328194,0.9328156
			v10.8743362C14.8132982,84.3826141,13.5050945,85.6908188,11.8913431,85.6908188z"/>
		<path style="fill:#424242;" d="M10.7728052,86.021843c-2.4103851,0-4.3714218-1.960968-4.3714218-4.3714371V70.9616241
			c0-0.1827164,0.1481347-0.3309402,0.3309293-0.3309402h8.080986c0.1828794,0,0.3310251,0.1482239,0.3310251,0.3309402v10.6887817
			C15.1443233,84.0608749,13.1832867,86.021843,10.7728052,86.021843z M7.0633368,71.2926483v10.3577576
			c0,2.0454712,1.6640801,3.7094727,3.7094684,3.7094727c2.0453997,0,3.7095537-1.6640015,3.7095537-3.7094727V71.2926483H7.0633368
			z"/>
		<path style="fill:#9BBD37;" d="M19.9722748,85.6908188h-2.237051c-1.6137352,0-2.9219255-1.3081894-2.9219255-2.9219284
			V71.8740768c0-0.503891,0.4084835-0.9123688,0.9123726-0.9123688h6.256156c0.503891,0,0.9123726,0.4084778,0.9123726,0.9123688
			v10.8948135C22.8941994,84.3826294,21.58601,85.6908188,19.9722748,85.6908188z"/>
		<path style="fill:#424242;" d="M18.8537064,86.021843c-2.4103012,0-4.3713474-1.960968-4.3713474-4.3714371V70.9616241
			c0-0.1827164,0.1481447-0.3309402,0.3309393-0.3309402h8.0809011c0.1827946,0,0.3309402,0.1482239,0.3309402,0.3309402v10.6887817
			C23.2251396,84.0608749,21.2641029,86.021843,18.8537064,86.021843z M15.1443233,71.2926483v10.3577576
			c0,2.0454712,1.6639957,3.7094727,3.709383,3.7094727s3.7094688-1.6640015,3.7094688-3.7094727V71.2926483H15.1443233z"/>
		<path style="fill:#337D3E;" d="M28.0531807,85.6908188h-2.2370548c-1.6137352,0-2.9219265-1.308197-2.9219265-2.9219284
			V71.9594269c0-0.5510254,0.4466953-0.9977188,0.9977226-0.9977188h6.0854702c0.5510254,0,0.9977207,0.4466934,0.9977207,0.9977188
			v10.8094559C30.9751129,84.3826218,29.6669197,85.6908188,28.0531807,85.6908188z"/>
		<path style="fill:#424242;" d="M26.9347038,86.021843c-2.4104805,0-4.3715286-1.960968-4.3715286-4.3714371V70.9616241
			c0-0.1827164,0.1481457-0.3309402,0.3310242-0.3309402h8.080986c0.1827946,0,0.3309402,0.1482239,0.3309402,0.3309402v10.6887817
			C31.3061256,84.0608749,29.3450794,86.021843,26.9347038,86.021843z M23.2251396,71.2926483v10.3577576
			c0,2.0454712,1.6640816,3.7094727,3.7095642,3.7094727c2.0453777,0,3.7094574-1.6640015,3.7094574-3.7094727V71.2926483
			H23.2251396z"/>
		<path style="fill:#9BBD37;" d="M36.1341324,85.6908188h-2.237072c-1.6137466,0-2.9219475-1.3082047-2.9219475-2.9219513
			V71.9556122c0-0.5489197,0.4449883-0.9939041,0.9939098-0.9939041h6.093153c0.5489235,0,0.9939117,0.4449844,0.9939117,0.9939041
			v10.8132477C39.0560875,84.3826141,37.7478828,85.6908188,36.1341324,85.6908188z"/>
		<path style="fill:#424242;" d="M35.0155945,86.021843c-2.4103851,0-4.3714333-1.960968-4.3714333-4.3714371V70.9616241
			c0-0.1827164,0.1481457-0.3309402,0.3310242-0.3309402h8.0809021c0.1828804,0,0.3310242,0.1482239,0.3310242,0.3309402v10.6887817
			C39.3871117,84.0608749,37.4260635,86.021843,35.0155945,86.021843z M31.3061256,71.2926483v10.3577576
			c0,2.0454712,1.6640816,3.7094727,3.7094688,3.7094727c2.0454712,0,3.7095528-1.6640015,3.7095528-3.7094727V71.2926483
			H31.3061256z"/>
		<path style="fill:#337D3E;" d="M44.215065,85.6908188h-2.2370529c-1.6137352,0-2.9219246-1.3081894-2.9219246-2.9219284
			V71.9466629c0-0.5439758,0.440979-0.9849548,0.9849548-0.9849548h6.1109924c0.5439758,0,0.9849548,0.440979,0.9849548,0.9849548
			v10.8222275C47.1369896,84.3826294,45.8288002,85.6908188,44.215065,85.6908188z"/>
		<path style="fill:#424242;" d="M43.0964966,86.021843c-2.4103012,0-4.3713493-1.960968-4.3713493-4.3714371V70.9616241
			c0-0.1827164,0.1481476-0.3309402,0.3309402-0.3309402h8.0809021c0.1827927,0,0.3309402,0.1482239,0.3309402,0.3309402v10.6887817
			C47.4679298,84.0608749,45.5068817,86.021843,43.0964966,86.021843z M39.3871117,71.2926483v10.3577576
			c0,2.0454712,1.6639977,3.7094727,3.7093849,3.7094727s3.7094688-1.6640015,3.7094688-3.7094727V71.2926483H39.3871117z"/>
		<path style="fill:#9BBD37;" d="M52.2960243,85.6908188h-2.2370758c-1.6137543,0-2.9219589-1.3082047-2.9219589-2.9219589
			V71.8793564c0-0.5068054,0.4108467-0.9176483,0.9176483-0.9176483h6.2456894c0.5068016,0,0.9176483,0.4108429,0.9176483,0.9176483
			v10.8895111C55.2179756,84.3826141,53.9097748,85.6908188,52.2960243,85.6908188z"/>
		<path style="fill:#424242;" d="M51.1774826,86.021843c-2.4104691,0-4.3715172-1.960968-4.3715172-4.3714371V70.9616241
			c0-0.1827164,0.1481438-0.3309402,0.3310242-0.3309402h8.080986c0.1827927,0,0.3309402,0.1482239,0.3309402,0.3309402v10.6887817
			C55.5489159,84.0608749,53.5878677,86.021843,51.1774826,86.021843z M47.4679298,71.2926483v10.3577576
			c0,2.0454712,1.6641655,3.7094727,3.7095528,3.7094727s3.7094688-1.6640015,3.7094688-3.7094727V71.2926483H47.4679298z"/>
		<path style="fill:#337D3E;" d="M60.3769531,85.6908188h-2.2370529c-1.6137352,0-2.9219246-1.3081894-2.9219246-2.9219284
			V71.740654c0-0.4301987,0.3487473-0.7789459,0.7789459-0.7789459h6.5230064c0.4302025,0,0.7789497,0.3487473,0.7789497,0.7789459
			v11.0282364C63.2988777,84.3826294,61.9906883,85.6908188,60.3769531,85.6908188z"/>
		<path style="fill:#424242;" d="M59.2583847,86.021843c-2.4103851,0-4.3714333-1.960968-4.3714333-4.3714371V70.9616241
			c0-0.1827164,0.1481438-0.3309402,0.3310242-0.3309402h8.0809021c0.1828918,0,0.3310242,0.1482239,0.3310242,0.3309402v10.6887817
			C63.6299019,84.0608749,61.6688538,86.021843,59.2583847,86.021843z M55.5489159,71.2926483v10.3577576
			c0,2.0454712,1.6640816,3.7094727,3.7094688,3.7094727c2.0454712,0,3.7095642-1.6640015,3.7095642-3.7094727V71.2926483
			H55.5489159z"/>
		<polygon style="fill:#337D3E;" points="63.2988777,70.9617081 6.7323127,70.9617081 10.7728052,67.1935043 59.2583847,67.1935043 
					"/>
		<path style="fill:#424242;" d="M63.2988777,71.2926483H6.7323127c-0.1359763,0-0.2580929-0.0831604-0.307869-0.209671
			c-0.0499454-0.1265106-0.01724-0.2706833,0.0821433-0.3633041l4.040493-3.7682037
			c0.0613537-0.0572968,0.1418915-0.0889893,0.2257252-0.0889893h48.4855804c0.0838318,0,0.1644554,0.0316925,0.2257233,0.0889893
			l4.040493,3.7682037c0.0994682,0.0926208,0.132103,0.2367935,0.0822411,0.3633041
			C63.5570526,71.2094879,63.4348526,71.2926483,63.2988777,71.2926483z M7.5725079,70.6306839H62.458683l-3.3306122-3.1062393
			H10.9032154L7.5725079,70.6306839z"/>
	</g>
	<rect x="58.8528519" y="39.6412697" style="fill:#F8F9F9;" width="64.6706314" height="64.6706314"/>
	<path style="fill:#424242;" d="M123.5234833,104.749527H58.8528519c-0.2416611,0-0.4375153-0.1959686-0.4375153-0.4375153
		V39.6411591c0-0.2415466,0.1958542-0.4375153,0.4375153-0.4375153h64.6706314c0.2417679,0,0.4376221,0.1959686,0.4376221,0.4375153
		v64.6708527C123.9611053,104.5535583,123.7652512,104.749527,123.5234833,104.749527z M59.2904778,103.8743896h63.7954903
		V40.0787849H59.2904778V103.8743896z"/>
	<path style="fill:#424242;" d="M99.5165176,104.749527H83.5644608c-0.2417755,0-0.4376221-0.1959686-0.4376221-0.4375153
		V76.3762512c0-0.2415466,0.1958466-0.4375153,0.4376221-0.4375153h15.9520569c0.2416611,0,0.4375153,0.1959686,0.4375153,0.4375153
		v27.9357605C99.9540329,104.5535583,99.7581787,104.749527,99.5165176,104.749527z M84.001976,103.8743896h15.0769196V76.8138733
		H84.001976V103.8743896z"/>
	<path style="fill:#9BBD37;" d="M96.9974594,93.9868622h-0.5302429c-0.3824921,0-0.6925659-0.3100739-0.6925659-0.6925659
		v-4.1220016c0-0.3824997,0.3100739-0.6925659,0.6925659-0.6925659h0.5302429c0.3824997,0,0.6925812,0.3100739,0.6925812,0.6925812
		v4.1219711C97.6900406,93.6767807,97.3799591,93.9868622,96.9974594,93.9868622z"/>
	<path style="fill:#424242;" d="M96.732338,94.4243774c-0.7694473,0-1.3953323-0.625885-1.3953323-1.3951111v-3.5917282
		c0-0.7695541,0.625885-1.3954391,1.3953323-1.3954391s1.3953323,0.625885,1.3953323,1.3954391v3.5917282
		C98.1276703,93.7984924,97.5017853,94.4243774,96.732338,94.4243774z M96.732338,88.9173508
		c-0.286911,0-0.5201874,0.233284-0.5201874,0.5201874v3.5917282c0,0.2865753,0.2332764,0.5198593,0.5201874,0.5198593
		c0.2869263,0,0.5201874-0.233284,0.5201874-0.5198593v-3.5917282
		C97.2525253,89.1506348,97.0192642,88.9173508,96.732338,88.9173508z"/>
	<g>
		<line style="fill:#5E35B1;" x1="55.4925079" y1="104.3119049" x2="127.0771103" y2="104.3119049"/>
		<path style="fill:#424242;" d="M127.0771103,104.749527H55.4923935c-0.2416573,0-0.4375114-0.1959686-0.4375114-0.4375153
			c0-0.2416611,0.1958542-0.4376221,0.4375114-0.4376221h71.5847168c0.2417679,0,0.4376221,0.195961,0.4376221,0.4376221
			C127.5147324,104.5535583,127.3188782,104.749527,127.0771103,104.749527z"/>
	</g>
	<rect x="59.3739357" y="25.4993782" style="fill:#9BBD37;" width="64.0996017" height="9.1111517"/>
	<path style="fill:#424242;" d="M123.4735413,35.0480461H59.3739357c-0.2417717,0-0.4376259-0.1959686-0.4376259-0.4376259
		v-9.111042c0-0.2415485,0.1958542-0.4375134,0.4376259-0.4375134h64.0996094c0.2416611,0,0.4375153,0.1959648,0.4375153,0.4375134
		v9.111042C123.9110565,34.8520775,123.7152023,35.0480461,123.4735413,35.0480461z M59.811451,34.172905h63.2244606v-8.2359009
		H59.811451V34.172905z"/>
	<g>
		<path style="fill:#424242;" d="M123.5234833,72.1147308h-21.3219986c-0.2417526,0-0.4376221-0.195961-0.4376221-0.4376221
			v-18.722271c0-0.2416611,0.1958694-0.4376259,0.4376221-0.4376259h21.3219986
			c0.2417679,0,0.4376221,0.1959648,0.4376221,0.4376259v18.722271
			C123.9611053,71.9187698,123.7652512,72.1147308,123.5234833,72.1147308z M102.6390228,71.2395935h20.4469452V53.3923492
			h-20.4469452V71.2395935z"/>
	</g>
	<g>
		<line style="fill:#ECEFF1;" x1="112.8624802" y1="52.9548378" x2="112.8624802" y2="71.6769943"/>
		<path style="fill:#424242;" d="M112.8624802,72.1147308c-0.2417679,0-0.4376221-0.195961-0.4376221-0.4376221v-18.722271
			c0-0.2416611,0.1958542-0.4376259,0.4376221-0.4376259c0.2416611,0,0.4375153,0.1959648,0.4375153,0.4376259v18.722271
			C113.2999954,71.9187698,113.1041412,72.1147308,112.8624802,72.1147308z"/>
	</g>
	<g>
		<path style="fill:#424242;" d="M123.5234833,95.5359268h-21.3219986c-0.2417526,0-0.4376221-0.1959686-0.4376221-0.4375153
			V76.3762512c0-0.2415466,0.1958694-0.4375153,0.4376221-0.4375153h21.3219986
			c0.2417679,0,0.4376221,0.1959686,0.4376221,0.4375153v18.7221603
			C123.9611053,95.3399582,123.7652512,95.5359268,123.5234833,95.5359268z M102.6390228,94.6607819h20.4469452V76.8138733
			h-20.4469452V94.6607819z"/>
	</g>
	<g>
		<line style="fill:#ECEFF1;" x1="112.8624802" y1="76.3762512" x2="112.8624802" y2="95.0984116"/>
		<path style="fill:#424242;" d="M112.8624802,95.5359268c-0.2417679,0-0.4376221-0.1959686-0.4376221-0.4375153V76.3762512
			c0-0.2415466,0.1958542-0.4375153,0.4376221-0.4375153c0.2416611,0,0.4375153,0.1959686,0.4375153,0.4375153v18.7221603
			C113.2999954,95.3399582,113.1041412,95.5359268,112.8624802,95.5359268z"/>
	</g>
	<g>
		<path style="fill:#424242;" d="M80.1749573,72.1147308H58.8528519c-0.2416611,0-0.4375153-0.195961-0.4375153-0.4376221
			v-18.722271c0-0.2416611,0.1958542-0.4376259,0.4375153-0.4376259h21.3221054
			c0.2416611,0,0.4375305,0.1959648,0.4375305,0.4376259v18.722271
			C80.6124878,71.9187698,80.4166183,72.1147308,80.1749573,72.1147308z M59.2904778,71.2395935h20.4468498V53.3923492H59.2904778
			V71.2395935z"/>
	</g>
	<g>
		<line style="fill:#ECEFF1;" x1="69.5138474" y1="52.9548378" x2="69.5138474" y2="71.6769943"/>
		<path style="fill:#424242;" d="M69.5138474,72.1147308c-0.2417679,0-0.4376221-0.195961-0.4376221-0.4376221v-18.722271
			c0-0.2416611,0.1958542-0.4376259,0.4376221-0.4376259c0.2416611,0,0.4375153,0.1959648,0.4375153,0.4376259v18.722271
			C69.9513626,71.9187698,69.7555084,72.1147308,69.5138474,72.1147308z"/>
	</g>
	<g>
		<path style="fill:#424242;" d="M80.1749573,95.5359268H58.8528519c-0.2416611,0-0.4375153-0.1959686-0.4375153-0.4375153
			V76.3762512c0-0.2415466,0.1958542-0.4375153,0.4375153-0.4375153h21.3221054
			c0.2416611,0,0.4375305,0.1959686,0.4375305,0.4375153v18.7221603
			C80.6124878,95.3399582,80.4166183,95.5359268,80.1749573,95.5359268z M59.2904778,94.6607819h20.4468498V76.8138733H59.2904778
			V94.6607819z"/>
	</g>
	<g>
		<line style="fill:#ECEFF1;" x1="69.5138474" y1="76.3762512" x2="69.5138474" y2="95.0984116"/>
		<path style="fill:#424242;" d="M69.5138474,95.5359268c-0.2417679,0-0.4376221-0.1959686-0.4376221-0.4375153V76.3762512
			c0-0.2415466,0.1958542-0.4375153,0.4376221-0.4375153c0.2416611,0,0.4375153,0.1959686,0.4375153,0.4375153v18.7221603
			C69.9513626,95.3399582,69.7555084,95.5359268,69.5138474,95.5359268z"/>
	</g>
	<path style="fill:#337D3E;" d="M60.8526115,59.0646172l-2.9574623-0.0000038c-2.1334114,0-3.8628845-1.7294693-3.8628845-3.8628845
		V40.7751045c0-0.653286,0.5295944-1.1828804,1.1828804-1.1828804h8.3174706c0.6532822,0,1.1828766,0.5295944,1.1828766,1.1828804
		v14.4266243C64.7154922,57.335144,62.9860229,59.0646172,60.8526115,59.0646172z"/>
	<path style="fill:#424242;" d="M59.3739357,59.502243c-3.1867065,0-5.7792969-2.5926857-5.7792969-5.7794113V39.5922241
		c0-0.2416611,0.1958542-0.4376259,0.4376259-0.4376259h10.683342c0.2416611,0,0.4375305,0.1959648,0.4375305,0.4376259v14.1306076
		C65.1531372,56.9095573,62.5605469,59.502243,59.3739357,59.502243z M54.46978,40.0297394v13.6930923
		c0,2.7040749,2.2000999,4.9042702,4.9041557,4.9042702c2.7040749,0,4.9040413-2.2001953,4.9040413-4.9042702V40.0297394H54.46978z"
		/>
	<path style="fill:#9BBD37;" d="M71.5359192,59.0646133l-2.9574966,0.0000038c-2.1334381,0-3.8629303-1.729496-3.8629303-3.8629341
		V40.7988319c0-0.6663933,0.5402145-1.2066078,1.2066116-1.2066078h8.2701263c0.6663895,0,1.206604,0.5402145,1.206604,1.2066078
		v14.4028625C75.3988342,57.3351288,73.6693497,59.0646133,71.5359192,59.0646133z"/>
	<path style="fill:#424242;" d="M70.0572739,59.502243c-3.1867218,0-5.7792969-2.5926857-5.7792969-5.7794113V39.5922241
		c0-0.2416611,0.1958771-0.4376259,0.4376297-0.4376259h10.6832275c0.2417755,0,0.4376297,0.1959648,0.4376297,0.4376259v14.1306076
		C75.8364639,56.9095573,73.2438889,59.502243,70.0572739,59.502243z M65.1531372,40.0297394v13.6930923
		c0,2.7040749,2.1999512,4.9042702,4.9041367,4.9042702c2.7040787,0,4.9040451-2.2001953,4.9040451-4.9042702V40.0297394H65.1531372
		z"/>
	<path style="fill:#337D3E;" d="M82.2191849,59.0646133l-2.9574661,0.0000038c-2.1334076,0-3.8628845-1.7294731-3.8628845-3.8628845
		V40.8362808c0-0.6870728,0.5569839-1.2440567,1.2440567-1.2440567h8.1951218c0.6870728,0,1.2440567,0.5569839,1.2440567,1.2440567
		v14.365448C86.0820694,57.335144,84.3525925,59.0646133,82.2191849,59.0646133z"/>
	<path style="fill:#424242;" d="M80.7403946,59.502243c-3.1865005,0-5.7790756-2.5926857-5.7790756-5.7794113V39.5922241
		c0-0.2416611,0.1958542-0.4376259,0.4375153-0.4376259h10.6832352c0.2416611,0,0.4376221,0.1959648,0.4376221,0.4376259v14.1306076
		C86.5196915,56.9095573,83.9271164,59.502243,80.7403946,59.502243z M75.8364639,40.0297394v13.6930923
		c0,2.7040749,2.1998596,4.9042702,4.9039307,4.9042702s4.9040451-2.2001953,4.9040451-4.9042702V40.0297394H75.8364639z"/>
	<path style="fill:#9BBD37;" d="M92.9024811,59.0646172l-2.957489-0.0000038c-2.1334381,0-3.8629227-1.7294884-3.8629227-3.8629227
		V40.8554802c0-0.6976776,0.5655746-1.2632561,1.2632523-1.2632561h8.1568298c0.6976776,0,1.2632599,0.5655785,1.2632599,1.2632561
		v14.3462105C96.7654114,57.335125,95.0359192,59.0646172,92.9024811,59.0646172z"/>
	<path style="fill:#424242;" d="M91.4237366,59.502243c-3.1867218,0-5.7792969-2.5926857-5.7792969-5.7794113V39.5922241
		c0-0.2416611,0.1958542-0.4376259,0.4376297-0.4376259h10.683342c0.2416534,0,0.4375076,0.1959648,0.4375076,0.4376259v14.1306076
		C97.202919,56.9095573,94.6103516,59.502243,91.4237366,59.502243z M86.5196915,40.0297394v13.6930923
		c0,2.7040749,2.1999741,4.9042702,4.9040451,4.9042702c2.7040939,0,4.9040451-2.2001953,4.9040451-4.9042702V40.0297394H86.5196915
		z"/>
	<path style="fill:#337D3E;" d="M103.5857544,59.0646172l-2.9574585-0.0000038
		c-2.1334152,0-3.8628845-1.7294693-3.8628845-3.8628845V40.867485c0-0.7043076,0.5709534-1.2752609,1.2752533-1.2752609h8.1327133
		c0.7043076,0,1.2752609,0.5709534,1.2752609,1.2752609v14.3342438
		C107.4486389,57.335144,105.719162,59.0646172,103.5857544,59.0646172z"/>
	<path style="fill:#424242;" d="M102.1070786,59.502243c-3.1867218,0-5.7792969-2.5926857-5.7792969-5.7794113V39.5922241
		c0-0.2416611,0.1958542-0.4376259,0.4376297-0.4376259h10.6833572c0.2416382,0,0.4374924,0.1959648,0.4374924,0.4376259v14.1306076
		C107.886261,56.9095573,105.2936935,59.502243,102.1070786,59.502243z M97.202919,40.0297394v13.6930923
		c0,2.7040749,2.1999741,4.9042702,4.9041595,4.9042702c2.704071,0,4.9040451-2.2001953,4.9040451-4.9042702V40.0297394H97.202919z"
		/>
	<path style="fill:#9BBD37;" d="M114.2689972,59.0646133l-2.9574661,0.0000038
		c-2.1334152,0-3.8628922-1.7294769-3.8628922-3.8628922V40.8129654c0-0.6741982,0.5465393-1.2207413,1.2207413-1.2207413h8.2417679
		c0.6741943,0,1.2207413,0.5465431,1.2207413,1.2207413v14.3887558
		C118.1318893,57.3351402,116.4024124,59.0646133,114.2689972,59.0646133z"/>
	<path style="fill:#424242;" d="M112.7901993,59.502243c-3.1865005,0-5.7790756-2.5926857-5.7790756-5.7794113V39.5922241
		c0-0.2416611,0.1958542-0.4376259,0.437645-0.4376259h10.6831207c0.2417526,0,0.4376068,0.1959648,0.4376068,0.4376259v14.1306076
		C118.5694962,56.9095573,115.9769211,59.502243,112.7901993,59.502243z M107.886261,40.0297394v13.6930923
		c0,2.7040749,2.1998596,4.9042702,4.9039383,4.9042702c2.704071,0,4.9040451-2.2001953,4.9040451-4.9042702V40.0297394H107.886261z
		"/>
	<path style="fill:#337D3E;" d="M124.9522858,59.0646172l-2.957489-0.0000038c-2.1334229,0-3.8629074-1.7294846-3.8629074-3.8629112
		V40.9180069c0-0.7322121,0.5935745-1.3257828,1.3257828-1.3257828h8.0317535c0.7322083,0,1.3257904,0.5935707,1.3257904,1.3257828
		v14.2836838C128.8152161,57.335125,127.0857162,59.0646172,124.9522858,59.0646172z"/>
	<path style="fill:#424242;" d="M123.4735413,59.502243c-3.1867294,0-5.7792969-2.5926857-5.7792969-5.7794113V39.5922241
		c0-0.2416611,0.1958542-0.4376259,0.437645-0.4376259h10.6833267c0.2416534,0,0.4375,0.1959648,0.4375,0.4376259v14.1306076
		C129.2527161,56.9095573,126.6601486,59.502243,123.4735413,59.502243z M118.5694962,40.0297394v13.6930923
		c0,2.7040749,2.1999664,4.9042702,4.9040451,4.9042702c2.704071,0,4.9040375-2.2001953,4.9040375-4.9042702V40.0297394H118.5694962
		z"/>
	<polygon style="fill:#337D3E;" points="128.8152161,39.5922241 54.0322647,39.5922241 59.3739357,34.6105309 
		123.4735413,34.6105309 	"/>
	<path style="fill:#424242;" d="M128.8152161,40.0297394H54.0322647c-0.1797638,0-0.34132-0.1099396-0.4071236-0.2771912
		c-0.065918-0.1672516-0.0227928-0.3578529,0.1087074-0.4803047l5.341671-4.9816933
		c0.0810013-0.0757484,0.1875839-0.1176453,0.2984161-0.1176453h64.0996094c0.1108322,0,0.2173004,0.0418968,0.2984161,0.1176453
		l5.3416748,4.9816933c0.1313782,0.1224518,0.1746216,0.3130531,0.1087036,0.4803047S128.9949799,40.0297394,128.8152161,40.0297394
		z M55.1430321,39.1545982h72.5614319l-4.4033127-4.1065521H59.5462151L55.1430321,39.1545982z"/>
	<g>
		<path style="fill:#FFFFFF;" d="M54.3053513,10.5007839c0.0197754-0.2483644,0.0327339-0.4987392,0.0327339-0.752243
			c0-5.1611238-4.1838493-9.3449907-9.3448792-9.3449907c-4.1323624,0-7.6359215,2.6834047-8.8692665,6.4019389
			c-0.1575317-0.0120664-0.3150635-0.0240211-0.4756126-0.0240211c-3.3998947,0-6.1560326,2.7561378-6.1560326,6.1560326
			c0,3.3997841,2.7561378,6.15592,6.1560326,6.15592h14.5992928c2.9019547,0,5.2544136-2.3524742,5.2544136-5.2544127
			C55.5020332,12.5712662,55.0529022,11.4085474,54.3053513,10.5007839z"/>
		<path style="fill:#424242;" d="M50.2477341,19.4969711H35.6482162c-3.616848,0-6.5593586-2.942606-6.5593586-6.5594711
			c0-3.6169758,2.9425106-6.5595822,6.5593586-6.5595822c0.0664749,0,0.1319466,0.0018992,0.1960754,0.0046926
			C37.2512436,2.5521281,40.8889046,0,44.993206,0c5.3753014,0,9.7483177,4.3731294,9.7483177,9.7484293
			c0,0.1941776-0.0072632,0.3995275-0.0222168,0.6242065c0.7660789,0.9878693,1.1862755,2.2122612,1.1862755,3.4663715
			C55.9055824,16.9589195,53.3674393,19.4969711,50.2477341,19.4969711z M35.6482162,7.1849055
			c-3.1718674,0-5.7523708,2.5806174-5.7523708,5.7525945c0,3.1718655,2.5805035,5.7524834,5.7523708,5.7524834h14.5995178
			c2.6748009,0,4.8508606-2.1760635,4.8508606-4.850976c0-1.1221638-0.3923759-2.216507-1.1047325-3.0818157
			c-0.0664749-0.0806646-0.098877-0.1841221-0.0906067-0.2881374c0.0211143-0.2669106,0.0313911-0.5025377,0.0313911-0.7206249
			c0-4.9303002-4.0111389-8.9415531-8.9414406-8.9415531c-3.8607445,0-7.2710457,2.4618545-8.4862747,6.1258669
			c-0.0584297,0.1759663-0.2311401,0.2920485-0.413826,0.2749543C35.9390335,7.1961899,35.793457,7.1849055,35.6482162,7.1849055z"
			/>
	</g>
	<g>
		<path style="fill:#FFFFFF;" d="M34.9118347,40.7554207c-0.1812172,0-0.3598518,0.0102806-0.5367241,0.0270386
			c-1.1792564-3.1336555-4.1958237-5.3673668-7.7418556-5.3673668s-6.5625973,2.2337112-7.7419643,5.3673668
			c-0.1767483-0.016758-0.3555088-0.0270386-0.536726-0.0270386c-3.0974417,0-5.608469,2.511013-5.608469,5.6084709
			s2.5110273,5.6084709,5.608469,5.6084709h16.5572701c3.0974541,0,5.6084824-2.511013,5.6084824-5.6084709
			S38.0092888,40.7554207,34.9118347,40.7554207z"/>
		<path style="fill:#424242;" d="M34.9118347,52.5526581H18.3545647c-3.4122963,0-6.1886559-2.7762451-6.1886559-6.1886559
			c0-3.4124069,2.7763596-6.1886559,6.1886559-6.1886559c0.0513935,0,0.1033459,0.000782,0.1558571,0.0022354
			c1.3932076-3.2128677,4.6043015-5.3425636,8.1228333-5.3425636c3.5185471,0,6.7295151,2.1296959,8.1228333,5.3425636
			c0.0525131-0.0014534,0.1044655-0.0022354,0.1557465-0.0022354c3.4124069,0,6.1886559,2.7762489,6.1886559,6.1886559
			C41.1004906,49.776413,38.3242416,52.5526581,34.9118347,52.5526581z M18.3545647,41.3357201
			c-2.7726717,0-5.0282822,2.255722-5.0282822,5.0282822c0,2.7725639,2.2556105,5.028286,5.0282822,5.028286h16.5572701
			c2.7727852,0,5.0282822-2.255722,5.0282822-5.028286c0-2.7725601-2.255497-5.0282822-5.0282822-5.0282822
			c-0.1628952,0-0.3234444,0.0093842-0.4823151,0.0241318c-0.2638931,0.0261459-0.5052185-0.1283722-0.597393-0.3731613
			c-1.1235046-2.985508-4.0165043-4.9912987-7.1988716-4.9912987s-6.075367,2.0057907-7.1988697,4.9912987
			c-0.0921745,0.2451248-0.3385258,0.3988609-0.5971699,0.3731613
			C18.678009,41.3451042,18.5174599,41.3357201,18.3545647,41.3357201z"/>
	</g>
	<g>
		<path style="fill:#FFFFFF;" d="M167.348877,42.3204422c0.0197754-0.2483635,0.0327301-0.4987411,0.0327301-0.752243
			c0-5.1611252-4.1838531-9.3449898-9.3448792-9.3449898c-4.1323547,0-7.6359253,2.683403-8.8692627,6.4019356
			c-0.1575317-0.0120659-0.3150635-0.0240211-0.4756165-0.0240211c-3.3999023,0-6.1560364,2.7561378-6.1560364,6.1560326
			c0,3.3997841,2.756134,6.1559219,6.1560364,6.1559219h14.5992889c2.9019623,0,5.254425-2.3524742,5.254425-5.2544136
			C168.5455627,44.3909225,168.0964203,43.2282066,167.348877,42.3204422z"/>
		<path style="fill:#424242;" d="M163.2912598,51.3166275h-14.5995178c-3.6168518,0-6.5593567-2.9426041-6.5593567-6.5594711
			c0-3.6169739,2.9425049-6.5595818,6.5593567-6.5595818c0.0664673,0,0.1319427,0.0018997,0.1960754,0.0046921
			c1.4069519-3.8304825,5.0446014-6.3826084,9.1489105-6.3826084c5.3753052,0,9.7483215,4.3731289,9.7483215,9.7484303
			c0,0.1941757-0.0072632,0.3995247-0.0222168,0.6242065c0.7660828,0.9878693,1.1862793,2.2122612,1.1862793,3.4663696
			C168.9491119,48.7785797,166.410965,51.3166275,163.2912598,51.3166275z M148.6917419,39.0045624
			c-3.171875,0-5.7523804,2.5806198-5.7523804,5.752594c0,3.1718674,2.5805054,5.7524834,5.7523804,5.7524834h14.5995178
			c2.6747894,0,4.8508606-2.1760597,4.8508606-4.850975c0-1.1221619-0.3923798-2.216507-1.1047363-3.0818138
			c-0.0664825-0.0806656-0.098877-0.184124-0.0906067-0.2881393c0.0211182-0.2669106,0.0313873-0.5025368,0.0313873-0.720623
			c0-4.9303017-4.0111389-8.941555-8.9414368-8.941555c-3.8607483,0-7.2710419,2.461853-8.4862671,6.1258659
			c-0.0584412,0.1759682-0.2311554,0.2920494-0.4138336,0.2749557
			C148.9825592,39.0158463,148.8369751,39.0045624,148.6917419,39.0045624z"/>
	</g>
	<g>
		<path style="fill:#FFFFFF;" d="M135.5292206,11.3381433c0.0197754-0.2483644,0.0327301-0.4987392,0.0327301-0.752243
			c0-5.1611238-4.1838531-9.3449917-9.3448792-9.3449917c-4.1323624,0-7.6359253,2.6834047-8.8692703,6.4019389
			c-0.1575317-0.0120664-0.3150635-0.0240211-0.4756088-0.0240211c-3.3998947,0-6.1560364,2.7561378-6.1560364,6.1560326
			c0,3.3997831,2.7561417,6.155921,6.1560364,6.155921h14.5992889c2.9019623,0,5.2544098-2.3524761,5.2544098-5.2544136
			C136.7258911,13.4086256,136.2767639,12.2459068,135.5292206,11.3381433z"/>
		<path style="fill:#424242;" d="M131.4716034,20.3343296h-14.5995255c-3.6168442,0-6.5593567-2.942606-6.5593567-6.5594702
			c0-3.6169767,2.9425125-6.5595822,6.5593567-6.5595822c0.0664749,0,0.1319504,0.0018992,0.1960754,0.0046926
			c1.4069519-3.8304822,5.0446167-6.3826103,9.1489182-6.3826103c5.3753052,0,9.7483215,4.3731294,9.7483215,9.7484293
			c0,0.1941776-0.0072632,0.3995275-0.0222168,0.6242065c0.7660675,0.9878693,1.186264,2.2122612,1.186264,3.4663715
			C137.1294403,17.7962799,134.5913086,20.3343296,131.4716034,20.3343296z M116.8720779,8.0222654
			c-3.1718674,0-5.7523727,2.580617-5.7523727,5.752594c0,3.1718645,2.5805054,5.7524824,5.7523727,5.7524824h14.5995255
			c2.6747894,0,4.8508606-2.1760616,4.8508606-4.850975c0-1.1221638-0.3923798-2.216507-1.1047363-3.0818157
			c-0.0664825-0.0806646-0.098877-0.1841221-0.0906067-0.2881374c0.0211182-0.2669106,0.0313873-0.5025377,0.0313873-0.7206249
			c0-4.9303002-4.0111389-8.9415531-8.9414368-8.9415531c-3.8607483,0-7.2710495,2.4618542-8.4862747,6.1258669
			c-0.0584335,0.1759663-0.2311401,0.2920485-0.413826,0.2749548
			C117.1628952,8.0335493,117.0173187,8.0222654,116.8720779,8.0222654z"/>
	</g>
</g>
</svg>
