<?xml version="1.0" encoding="utf-8"?>
<!-- Generator: Adobe Illustrator 19.0.0, SVG Export Plug-In . SVG Version: 6.00 Build 0)  -->
<svg version="1.1" id="Layer_1" xmlns="http://www.w3.org/2000/svg" xmlns:xlink="http://www.w3.org/1999/xlink" x="0px" y="0px"
	 width="22.0378551px" height="22.0748692px" viewBox="0 0 22.0378551 22.0748692"
	 style="enable-background:new 0 0 22.0378551 22.0748692;" xml:space="preserve">
<g>
	<g>
		<path style="fill:#283238;" d="M14.9897032,4.1377611c0.0852442,0.0852442,0.2018938,0.1301093,0.3140574,0.1301093
			s0.2288141-0.0448651,0.3140574-0.1301093c0.1749744-0.1749749,0.1749744-0.45314,0-0.6281149L14.689105,2.5809336h3.0912218
			c1.8574257,0,3.3693867,1.5119619,3.3693867,3.3693871v1.9920211c0,0.2467594,0.1974087,0.4441662,0.4441681,0.4441662
			s0.4441662-0.1974068,0.4441662-0.4441662V5.9458342c0-2.3464575-1.9112644-4.2577209-4.2577209-4.2577209H14.689105
			l0.9287128-0.9287126c0.1749744-0.1749748,0.1749744-0.45314,0-0.6281148s-0.4531403-0.1749748-0.6281147,0l-1.6869373,1.6869369
			c-0.1749744,0.1749749-0.1749744,0.45314,0,0.6281147L14.9897032,4.1377611z"/>
		<path style="fill:#283238;" d="M11.79529,22.0749245h9.7537251c0.2467594,0,0.4441662-0.1974068,0.4441662-0.4441662v-9.7582121
			c0-0.2467594-0.1974068-0.4441671-0.4441662-0.4441671H11.79529c-0.2467594,0-0.4441662,0.1974077-0.4441662,0.4441671v9.7537241
			C11.3511238,21.8730297,11.5485306,22.0749245,11.79529,22.0749245z M12.2394581,12.3167124h8.8653927v8.8653917h-8.8653927
			V12.3167124z"/>
		<path style="fill:#283238;" d="M0.4443594,13.6895924c-0.2467594,0-0.4441669,0.1974077-0.4441669,0.4441671v1.9965067
			c0,2.3464565,1.9112636,4.2577209,4.2577209,4.2577209h3.0912228L6.4204235,21.3167
			c-0.1749744,0.1749744-0.1749744,0.4531403,0,0.6281147c0.0852442,0.0852451,0.2018943,0.1301098,0.3140574,0.1301098
			c0.1121635,0,0.2288136-0.0448647,0.3140578-0.1301098l1.6869359-1.6869373c0.1749744-0.1749744,0.1749744-0.4531403,0-0.6281147
			l-1.6869369-1.6869354c-0.1749744-0.1749763-0.4531403-0.1749763-0.6281147,0
			c-0.1749744,0.1749744-0.1749744,0.4531403,0,0.6281147l0.9287124,0.9287128H4.2579131
			c-1.857425,0-3.3693869-1.5119629-3.3693869-3.3693886v-1.9965067
			C0.8885263,13.8870001,0.6911188,13.6895924,0.4443594,13.6895924z"/>
		<path style="fill:#283238;" d="M0.0450579,0.4453435v9.7537251c0,0.2467594,0.1974075,0.4441662,0.4441669,0.4441662h9.753726
			c0.2467594,0,0.4441662-0.1974068,0.4441662-0.4441662V0.4453435c0-0.2467594-0.1974068-0.4441669-0.4441662-0.4441669H0.4892249
			C0.2424654,0.0011766,0.0450579,0.2030706,0.0450579,0.4453435z M0.9333916,0.8895104h8.8653917v8.8653917H0.9333915
			L0.9333916,0.8895104z"/>
	</g>
</g>
</svg>
