<?xml version="1.0" encoding="utf-8"?>
<!-- Generator: Adobe Illustrator 19.0.0, SVG Export Plug-In . SVG Version: 6.00 Build 0)  -->
<svg version="1.1" id="Layer_1" xmlns="http://www.w3.org/2000/svg" xmlns:xlink="http://www.w3.org/1999/xlink" x="0px" y="0px"
	 width="84.1657181px" height="21.5090237px" viewBox="0 0 84.1657181 21.5090237"
	 style="enable-background:new 0 0 84.1657181 21.5090237;" xml:space="preserve">
<g id="XMLID_1233_">
	<path id="XMLID_1266_" style="fill:#FFFFFF;" d="M65.0614319,5.6108441h-4.5422783
		c-0.2671967,0-0.5343895,0.2671938-0.667984,0.5343852l-1.8703499,11.7564812c0,0.2671928,0.1335945,0.4007874,0.4007874,0.4007874
		h2.4047394c0.2671928,0,0.4007874-0.1335945,0.4007874-0.4007874L61.7215233,14.5618
		c0-0.2671938,0.2671928-0.5343866,0.6679802-0.5343866h1.4695587c3.0727158,0,4.8094711-1.4695587,5.2102585-4.40868
		c0.2671967-1.2023668,0-2.2711396-0.5343857-2.9391217C67.7333603,6.0116348,66.5309906,5.6108441,65.0614319,5.6108441
		 M65.5958176,10.0195265c-0.2671967,1.603158-1.4695587,1.603158-2.6719322,1.603158h-0.8015747l0.5343857-3.0727158
		c0-0.1335974,0.1335945-0.2671938,0.4007874-0.2671938h0.2671967c0.8015785,0,1.6031532,0,2.0039482,0.5343847
		C65.5958176,8.9507542,65.5958176,9.3515444,65.5958176,10.0195265"/>
	<g id="XMLID_1259_">
		<path id="XMLID_1263_" style="fill:#FFFFFF;" d="M32.3303185,5.6108441h-4.5422783
			c-0.2671928,0-0.5343838,0.2671938-0.6679821,0.5343852l-1.870348,11.7564812
			c0,0.2671928,0.1335964,0.4007874,0.4007874,0.4007874h2.1375427c0.2671947,0,0.5343857-0.2671928,0.6679821-0.5343876
			l0.5343857-3.206315c0-0.2671938,0.2671928-0.5343876,0.6679821-0.5343876h1.4695606
			c3.0727139,0,4.8094692-1.4695578,5.2102566-4.408679c0.2671967-1.2023678,0-2.2711401-0.5343819-2.9391217
			C35.0022469,6.0116348,33.9334717,5.6108441,32.3303185,5.6108441 M32.8647041,10.0195265
			c-0.2671967,1.603158-1.4695625,1.603158-2.6719284,1.603158h-0.6679821l0.5343838-3.0727158
			c0-0.1335974,0.1335983-0.2671938,0.4007893-0.2671938h0.2671928c0.8015785,0,1.603159,0,2.0039463,0.5343847
			C32.8647041,8.9507542,32.9982986,9.3515444,32.8647041,10.0195265"/>
		<path id="XMLID_1260_" style="fill:#FFFFFF;" d="M46.090744,9.8859301h-2.1375389
			c-0.1335945,0-0.4007912,0.1335964-0.4007912,0.2671938l-0.1335945,0.6679811l-0.1335907-0.2671938
			c-0.5343895-0.6679811-1.4695625-0.9351749-2.5383339-0.9351749c-2.4047318,0-4.5422745,1.870348-4.9430656,4.4086819
			c-0.2671928,1.3359632,0.1335983,2.5383339,0.8015785,3.3399086c0.6679802,0.8015766,1.603157,1.0687714,2.8055229,1.0687714
			c2.0039482,0,3.0727158-1.2023697,3.0727158-1.2023697l-0.1335945,0.6679821c0,0.2671928,0.1335945,0.4007874,0.4007874,0.4007874
			h2.0039444c0.2671967,0,0.5343895-0.2671928,0.667984-0.5343876l1.2023697-7.4813976
			C46.4915314,10.153121,46.2243385,9.8859301,46.090744,9.8859301 M43.0180283,14.1610126
			c-0.2671928,1.2023687-1.2023659,2.1375389-2.5383301,2.1375389c-0.667984,0-1.2023697-0.2671928-1.4695625-0.5343866
			c-0.2671928-0.4007883-0.4007874-0.9351759-0.4007874-1.603158c0.1335983-1.2023687,1.2023659-2.1375399,2.4047356-2.1375399
			c0.6679802,0,1.0687675,0.2671938,1.4695587,0.5343876C42.8844299,12.9586477,43.0180283,13.6266298,43.0180283,14.1610126"/>
	</g>
	<path id="XMLID_1256_" style="fill:#FFFFFF;" d="M78.6882629,9.8859301h-2.1375427
		c-0.1335907,0-0.4007874,0.1335964-0.4007874,0.2671938l-0.1335907,0.6679811l-0.1335983-0.2671938
		c-0.5343857-0.6679811-1.4695587-0.9351749-2.5383301-0.9351749c-2.4047318,0-4.5422821,1.870348-4.9430695,4.4086819
		c-0.267189,1.3359632,0.1335983,2.5383339,0.8015747,3.3399086c0.667984,0.8015766,1.603157,1.0687714,2.8055267,1.0687714
		c2.0039444,0,3.0727158-1.2023697,3.0727158-1.2023697l-0.1335983,0.6679821c0,0.2671928,0.1335983,0.4007874,0.4007874,0.4007874
		h2.003952c0.267189,0,0.5343857-0.2671928,0.6679764-0.5343876l1.2023697-7.4813976
		C79.0890503,10.153121,78.955452,9.8859301,78.6882629,9.8859301 M75.6155396,14.1610126
		c-0.267189,1.2023687-1.2023697,2.1375389-2.5383301,2.1375389c-0.667984,0-1.2023697-0.2671928-1.4695587-0.5343866
		c-0.2671967-0.4007883-0.4007874-0.9351759-0.4007874-1.603158c0.1335907-1.2023687,1.2023697-2.1375399,2.4047318-2.1375399
		c0.667984,0,1.0687714,0.2671938,1.4695587,0.5343876C75.6155396,12.9586477,75.7491455,13.6266298,75.6155396,14.1610126"/>
	<path id="XMLID_1255_" style="fill:#FFFFFF;" d="M57.7136307,9.8859301h-2.2711411
		c-0.2671928,0-0.4007874,0.1335964-0.5343857,0.2671938l-2.9391212,4.5422764l-1.3359642-4.2750854
		c-0.1335945-0.2671938-0.2671928-0.4007883-0.667984-0.4007883h-2.1375389c-0.2671928,0-0.4007874,0.2671938-0.4007874,0.5343847
		l2.4047318,7.0806103l-2.2711372,3.206316c-0.1335945,0.2671928,0,0.6679802,0.2671928,0.6679802h2.1375389
		c0.2671967,0,0.4007912-0.1335926,0.5343895-0.2671928l7.3478012-10.5541143
		C58.2480125,10.2867174,57.9808235,9.8859301,57.7136307,9.8859301"/>
	<path id="XMLID_1254_" style="fill:#FFFFFF;" d="M81.226593,6.0116348l-1.8703537,12.023674
		c0,0.2671947,0.1335983,0.4007893,0.4007874,0.4007893h1.8703537c0.2671967,0,0.5343857-0.2671947,0.667984-0.5343876
		l1.8703461-11.7564812c0-0.2671938-0.1335907-0.4007883-0.4007874-0.4007883H81.627388
		C81.493782,5.6108441,81.3601913,5.744441,81.226593,6.0116348"/>
	<path id="XMLID_1253_" style="fill:#FFFFFF;" d="M15.3635759,1.6029528
		c-0.9351749-1.0687701-2.6719275-1.6031576-5.076663-1.6031576H3.6070938c-0.400789,0-0.8015783,0.4007881-0.9351747,0.8015788
		l-2.6719275,17.5011292c0,0.4007874,0.2671928,0.6679821,0.5343855,0.6679821h4.1414881l1.0687714-6.5462255v0.2671938
		c0.1335959-0.4007883,0.5343857-0.8015757,0.9351745-0.8015757h2.0039458c3.8742943,0,6.8134155-1.603158,7.7485895-6.0118375
		c0-0.1335969,0-0.2671938,0-0.4007883c-0.1335964,0-0.1335964,0,0,0
		C16.5659428,3.7404954,16.2987499,2.6717255,15.3635759,1.6029528"/>
	<path id="XMLID_1235_" style="fill:#FFFFFF;" d="M16.2987499,5.4772472L16.2987499,5.4772472c0,0.1335969,0,0.2671938,0,0.4007883
		c-0.935174,4.5422764-3.8742952,6.011837-7.7485905,6.011837H6.5462141c-0.4007897,0-0.8015785,0.4007883-0.9351745,0.8015766
		L4.2750759,20.840826c0,0.2671947,0.1335959,0.5343876,0.5343857,0.5343876h3.473506
		c0.4007893,0,0.8015776-0.2671928,0.8015776-0.6679821V20.573637l0.6679821-4.1414852V16.164959
		c0-0.4007893,0.4007893-0.6679831,0.8015785-0.6679831h0.5343847c3.3399096,0,6.011838-1.3359632,6.6798201-5.3438549
		c0.2671909-1.603158,0.1335964-3.0727158-0.6679821-4.0078917C16.966732,5.8780379,16.6995392,5.6108441,16.2987499,5.4772472"/>
	<path id="XMLID_1234_" style="fill:#FFFFFF;" d="M15.3635759,5.0764594c-0.1335974,0-0.2671928-0.1335969-0.4007893-0.1335969
		c-0.1335974,0-0.2671928,0-0.4007893-0.1335969c-0.5343857-0.1335969-1.0687714-0.1335969-1.7367535-0.1335969H7.6149855
		c-0.1335964,0-0.2671928,0-0.4007897,0.1335969C6.9470034,4.9428625,6.8134065,5.2100534,6.8134065,5.4772472l-1.0687699,6.9470129
		v0.2671938c0.1335959-0.4007883,0.5343857-0.8015757,0.9351745-0.8015757h2.0039458
		c3.8742943,0,6.8134155-1.603158,7.7485895-6.0118375c0-0.1335969,0-0.2671938,0.1335983-0.4007883
		c-0.2671928-0.1335969-0.4007893-0.2671938-0.6679831-0.2671938C15.4971724,5.0764594,15.4971724,5.0764594,15.3635759,5.0764594"
		/>
</g>
</svg>
