<?xml version="1.0" encoding="utf-8"?>
<!-- Generator: Adobe Illustrator 19.0.0, SVG Export Plug-In . SVG Version: 6.00 Build 0)  -->
<svg version="1.1" id="Layer_1" xmlns="http://www.w3.org/2000/svg" xmlns:xlink="http://www.w3.org/1999/xlink" x="0px" y="0px"
	 width="17.6571369px" height="17.6578827px" viewBox="0 0 17.6571369 17.6578827"
	 style="enable-background:new 0 0 17.6571369 17.6578827;" xml:space="preserve">
<g id="XMLID_119_">
	<circle id="XMLID_162_" style="fill:#27ADE4;" cx="8.8486433" cy="8.84939" r="8.8084936"/>
	<path id="XMLID_152_" style="fill:#2D78BC;" d="M3.045788,7.2797923L2.7708313,6.6008954L2.4975107,7.2797933 M9.0998106,7.009408
		C9.044611,7.0434947,8.9793749,7.0446095,8.9012041,7.0446095H8.4132929v-0.378181h0.4944534
		c0.0699558,0,0.1429977,0.0029364,0.1903915,0.0304432c0.052002,0.0250535,0.0841551,0.0778742,0.0841551,0.1507668
		C9.1824427,6.9219065,9.1517019,6.9818645,9.0998106,7.009408 M12.5793457,7.2797923l-0.2777452-0.6788969l-0.2762203,0.6788979
		L12.5793457,7.2797923L12.5793457,7.2797923z M6.0931692,8.0145588H5.6814594L5.679935,6.6807394L5.0977206,8.0145588H4.7451506
		l-0.58359-1.3349347v1.3349347H3.3448315L3.1905701,7.6347046H2.3546982L2.1987643,8.0145588H1.7627445l0.7189311-1.7029681
		h0.5966744L3.7611132,7.923861V6.3115911h0.6552191l0.5254545,1.1552482l0.4826322-1.1552482h0.6687126v1.7029676H6.0931692
		L6.0931692,8.0145588z M7.7336893,8.0145588H6.3923612V6.3115907h1.3413653v0.3548002H6.7940717V6.973352h0.9171286v0.349113
		H6.7940717v0.3396344h0.9396539L7.7336893,8.0145588L7.7336893,8.0145588z M9.624855,6.7704334
		c0,0.2712026-0.1788683,0.4118214-0.2830219,0.4537134c0.0879097,0.0340862,0.1629953,0.0938945,0.1986065,0.1436672
		C9.5972004,7.45223,9.6070499,7.52806,9.6070499,7.6799045v0.3346543H9.2020311l-0.001524-0.2147388
		c0-0.1025186,0.0095901-0.2500887-0.0634136-0.3318658C9.0783997,7.4081459,8.9891138,7.3950615,8.8444433,7.3950615H8.4132929
		v0.6194973H8.0117674V6.3115911h0.9236708c0.2052975,0,0.356473,0.0054269,0.4860897,0.0815167
		C9.5486546,6.4694571,9.624855,6.5803018,9.624855,6.7704334 M10.267437,8.0145588H9.8578091V6.3117394h0.4096279V8.0145588z
		 M15.0201645,8.0145588h-0.5691309l-0.7609348-1.2782116v1.2782106h-0.8178444l-0.156045-0.3798537H11.882122l-0.1517334,0.3798537
		h-0.4698467c-0.1950006,0-0.4423018-0.0438251-0.5822144-0.1884589c-0.1411772-0.1445222-0.2144785-0.3403411-0.2144785-0.6500897
		c0-0.2523189,0.0436754-0.4835987,0.2165594-0.6656647c0.1297655-0.1360097,0.3330927-0.1987548,0.6097593-0.1987548h0.3885889
		v0.3648367h-0.3805218c-0.1464548,0-0.2290869,0.0221171-0.3088932,0.1009941
		c-0.0684328,0.0718899-0.1154547,0.2073789-0.1154547,0.385839c0,0.1823254,0.0358706,0.3139124,0.1105852,0.3997407
		c0.0616302,0.0674658,0.1739988,0.0879102,0.2797146,0.0879102h0.1802435l0.5659342-1.3391347h0.6016932l0.6797152,1.6107454
		V6.3117752h0.6114321l0.7057343,1.1858401V6.3117752h0.4112625L15.0201645,8.0145588L15.0201645,8.0145588z M1.7581353,8.3490629
		h0.6859598l0.1546702-0.3783298H2.944942l0.1542611,0.3783298h1.3498402V8.059907l0.120584,0.2902708h0.7005682
		l0.1204357-0.2945824v0.2934675H8.745122L8.7434492,7.7280416h0.0649385
		C8.8538847,7.7297139,8.8670807,7.734026,8.8670807,7.8101153v0.5389476h1.734972V8.2045403
		c0.1400623,0.0760899,0.3577366,0.1445227,0.6442537,0.1445227h0.729785l0.1561937-0.3783302H12.47861l0.1527004,0.3783302
		h1.4064522V7.9896526l0.2130661,0.3594103h1.1271467V5.9740367H14.262351v0.2805319l-0.156045-0.2805319h-1.1446915v0.2805319
		l-0.143259-0.2805319h-1.5461397c-0.258564,0-0.4860897,0.0367255-0.6699762,0.1386867V5.9740367H9.5353107v0.1386867
		C9.4184809,6.0075655,9.2592392,5.9740367,9.0818949,5.9740367H5.1839952L4.9224949,6.5874009L4.6539316,5.9740362h-1.227881
		v0.2805319L3.2911189,5.9740362H2.2442622l-0.486387,1.1292281L1.2002678,8.3490629H1.7581353z"/>
	<path id="XMLID_142_" style="fill:#FFFFFF;" d="M3.045788,7.4188504L2.7708313,6.7399535L2.4975107,7.4188509 M9.0998106,7.1484661
		C9.044611,7.1825523,8.9793749,7.1836677,8.9012041,7.1836677H8.4132929V6.8054862h0.4944534
		c0.0699558,0,0.1429977,0.0029364,0.1903915,0.0304437c0.052002,0.025053,0.0841551,0.0778737,0.0841551,0.1507668
		C9.1824427,7.0610018,9.1517019,7.1209588,9.0998106,7.1484661 M12.5793457,7.4188504l-0.2777452-0.6788969l-0.2762203,0.6788974
		L12.5793457,7.4188504L12.5793457,7.4188504z M6.0931692,8.1536541H5.6814594L5.679935,6.8198347L5.0977206,8.1536541H4.7451506
		l-0.58359-1.3349347v1.3349347H3.3448315L3.1905701,7.7737999H2.3546982L2.1987643,8.1536541H1.7627445L2.4816756,6.450686
		h0.5966744l0.6827631,1.6122699V6.4506865h0.6552191l0.5254545,1.1552482l0.4826322-1.1552482h0.6687126v1.7029676H6.0931692
		L6.0931692,8.1536541z M7.7336893,8.1536541H6.3923612V6.450686h1.3413653v0.3548002H6.7940717v0.3069611h0.9171286v0.349113
		H6.7940717v0.3396344h0.9396539L7.7336893,8.1536541L7.7336893,8.1536541z M9.624855,6.9095287
		c0,0.2712026-0.1788683,0.4118214-0.2830219,0.4537134c0.0879097,0.0340862,0.1629953,0.093895,0.1986065,0.1436672
		c0.0567608,0.0844159,0.0666103,0.1602459,0.0666103,0.3120904v0.3346543H9.2020311l-0.001524-0.2147388
		c0-0.1025186,0.0095901-0.2500887-0.0634136-0.3318658C9.0783997,7.5472412,8.9891138,7.5341568,8.8444433,7.5341568H8.4132929
		v0.6194973H8.0117674V6.4506865h0.9236708c0.2052975,0,0.356473,0.0054269,0.4860897,0.0815167
		C9.5486546,6.6085525,9.624855,6.7193971,9.624855,6.9095287 M10.267437,8.1536541H9.8578091V6.4508348h0.4096279V8.1536541z
		 M15.0201645,8.1536541h-0.5691309l-0.7609348-1.2782116v1.2782106h-0.8178444l-0.156045-0.3798537H11.882122l-0.1517334,0.3798537
		h-0.4698467c-0.1950006,0-0.4423018-0.0438251-0.5822144-0.1884589c-0.1411772-0.1445222-0.2144785-0.3403411-0.2144785-0.6500897
		c0-0.2523189,0.0436754-0.4835987,0.2165594-0.6656647c0.1297655-0.1360097,0.3330927-0.1987548,0.6097593-0.1987548h0.3885889
		v0.3648367h-0.3805218c-0.1464548,0-0.2290869,0.0221171-0.3088932,0.1009941
		c-0.0684328,0.0718899-0.1154547,0.2073789-0.1154547,0.385839c0,0.1823254,0.0358706,0.3139124,0.1105852,0.3997407
		c0.0616302,0.0674658,0.1739988,0.0879102,0.2797146,0.0879102h0.1802435l0.5659342-1.3391347h0.6016932l0.6797152,1.6107459
		V6.4508705h0.6114321l0.7057343,1.1858401V6.4508705h0.4112625L15.0201645,8.1536541L15.0201645,8.1536541z M1.7581353,8.4881582
		h0.6859598l0.1546702-0.3783293H2.944942l0.1542611,0.3783293h1.3498402v-0.289156l0.120584,0.2902708h0.7005682
		l0.1204357-0.2945824v0.2934675H8.745122L8.7434492,7.867137h0.0649385
		c0.0454969,0.0016723,0.0586929,0.0059843,0.0586929,0.0820737v0.5389476h1.734972V8.3436356
		c0.1400623,0.0760899,0.3577366,0.1445227,0.6442537,0.1445227h0.729785l0.1561937-0.3783302H12.47861l0.1527004,0.3783302
		h1.4064522V8.1287479l0.2130661,0.3594103h1.1271467V6.113132H14.262351v0.2805324l-0.156045-0.2805324h-1.1446915v0.2805324
		l-0.143259-0.2805324h-1.5461397c-0.258564,0-0.4860897,0.0367255-0.6699762,0.1386867V6.113132H9.5353107v0.1386867
		C9.4184809,6.1466608,9.2592392,6.113132,9.0818949,6.113132H5.1839952L4.9224949,6.7264962L4.6539316,6.1131315h-1.227881
		v0.2805319L3.2911189,6.1131315H2.2442622l-0.486387,1.1292281L1.2002678,8.4881582H1.7581353z"/>
	<path id="XMLID_131_" style="fill:#2D78BC;" d="M16.2787495,9.9548292V8.8652248h-0.2778931l0,0H15.272892
		c-0.224329,0-0.3875113,0.0543814-0.50278,0.1387978V8.8652248h-1.0996017c-0.1758204,0-0.3823442,0.0439367-0.4796963,0.1387978
		V8.8652248h-1.9639473v0.1387978c-0.1561937-0.1140413-0.4200354-0.1387978-0.5415869-0.1387978h-1.29531v0.1387978
		c-0.1236315-0.1211414-0.3984766-0.1387978-0.566082-0.1387978H7.3743167L7.0426002,9.2286491L6.731885,8.8652248H4.5664682
		v2.3747654h2.1245279l0.3418651-0.3691492l0.3218298,0.3691492l1.3097692,0.0013742v-0.5588341h0.1286497
		c0.1737022,0.0027885,0.3785906-0.0043116,0.559392-0.0834494v0.6407604h1.0802736v-0.6190891h0.0523005
		c0.0664997,0,0.0728922,0.0029373,0.0728922,0.0701046v0.5489845h3.2813377c0.2084951,0,0.4263182-0.054121,0.5470142-0.1518822
		v0.1518822h1.0406485c0.2167091,0,0.4282513-0.0307407,0.5891657-0.1094704v-0.00249
		c0.2350731-0.1516218,0.3913765-0.4172478,0.3913765-0.7204542C16.4078083,10.2410479,16.3602657,10.085969,16.2787495,9.9548292z
		 M8.8110638,10.334794h-0.501256v0.5709505H7.529098l-0.4947138-0.563591l-0.5139313,0.563591H4.9291849V9.2036324h1.6157641
		l0.4941559,0.5578671l0.5109944-0.5578671h1.283638c0.3186331,0,0.6767788,0.0894346,0.6767788,0.5606556
		C9.5105162,10.2372942,9.1621094,10.334794,8.8110638,10.334794z M11.2285385,10.2576265
		c0.0567608,0.0830412,0.0649385,0.1605053,0.0666113,0.3107157v0.3374414h-0.4030857v-0.2129545
		c0-0.1023703,0.0095892-0.2539549-0.0650873-0.3332415c-0.0588427-0.0609236-0.1479788-0.0756807-0.2947311-0.0756807h-0.4293661
		v0.6218395H9.6993837V9.2036324h0.9274254c0.2033281,0,0.3513441,0.0090322,0.4833393,0.0804014
		c0.1268654,0.0774651,0.2065611,0.183589,0.2065611,0.3778839c0,0.2716484-0.1790171,0.4104452-0.2846956,0.4528589
		C11.1210022,10.1481562,11.1943045,10.2079659,11.2285385,10.2576265z M12.8799124,9.5557938h-0.9407692v0.3094521h0.9178343
		v0.347291h-0.9178343v0.3386679l0.9407692,0.0016737v0.3531275h-1.3406582V9.2036324h1.3406601L12.8799124,9.5557938
		L12.8799124,9.5557938z M13.9028692,10.9058943h-0.7823458v-0.3650961h0.7794456
		c0.0762014,0,0.1301746-0.0099993,0.1641121-0.042264c0.0273952-0.0261316,0.047431-0.0645285,0.047431-0.1106958
		c0-0.0496607-0.0214109-0.0891371-0.0491037-0.1128149c-0.0308895-0.0261316-0.0730047-0.0376921-0.1429977-0.0376921
		c-0.3756905-0.0127869-0.8462057,0.0116711-0.8462057-0.5270157c0-0.246892,0.1532574-0.5066824,0.5742979-0.5066824h0.8054667
		v0.3623085h-0.7368851c-0.0730047,0-0.1205835,0.0027885-0.1610641,0.030592
		c-0.0438242,0.0276928-0.0603657,0.0684328-0.0603657,0.1226654c0,0.0641203,0.0375433,0.1077967,0.0879097,0.1268654
		c0.0425606,0.0147572,0.0879097,0.0190687,0.1563425,0.0190687l0.2164116,0.0062447
		c0.2179356,0.0051298,0.3677359,0.0435276,0.4586935,0.1367168c0.0783205,0.0817776,0.1200266,0.1852617,0.1200266,0.3603764
		C14.533926,10.7348318,14.3081846,10.9058943,13.9028692,10.9058943z M15.9704123,10.7414856
		c-0.1058264,0.1083546-0.2765169,0.1644087-0.4991732,0.1644087h-0.7758408v-0.3650961h0.7726068
		c0.0767584,0,0.1304712-0.0099993,0.1627359-0.042264c0.0279531-0.0261316,0.04743-0.0645285,0.04743-0.1106958
		c0-0.0496607-0.0194769-0.0891371-0.0491037-0.1128149c-0.029068-0.0261316-0.0714808-0.0376921-0.1415854-0.0376921
		c-0.3772154-0.0127869-0.8477297,0.0116711-0.8477297-0.5270157c0-0.246892,0.1546707-0.5066824,0.5763798-0.5066824h0.784873
		v0.3621979h-0.7167015c-0.0728931,0-0.1215496,0.0029364-0.1625872,0.0307398
		c-0.0424118,0.027544-0.0586939,0.0684328-0.0586939,0.122406c0,0.0643797,0.035759,0.1077967,0.0879097,0.1268654
		c0.0425606,0.0150166,0.0879097,0.0193281,0.1546707,0.0193281l0.2176743,0.0059853
		c0.2197571,0.0054274,0.3665094,0.0436764,0.4556465,0.1370134c0.0162802,0.0129356,0.0261307,0.027544,0.0375443,0.0420046
		c-0.0045719-0.0059853-0.0090332-0.011672-0.0137539-0.0176573c0.0695477,0.0931883,0.1114025,0.2090521,0.1114025,0.3349142
		C16.1140804,10.5117292,16.0591412,10.6426096,15.9704123,10.7414856z M6.3364553,9.5557938l0.4395142,0.4959764
		l-0.458992,0.4993238H5.3291864v-0.3386679h0.8819642V9.8651342H5.3291864V9.5557947L6.3364553,9.5557938L6.3364553,9.5557938z
		 M7.293097,10.0576067l0.6168585-0.6710911v1.3645601L7.293097,10.0576067z M9.0795145,9.7643995
		c0,0.1475697-0.0961246,0.2247744-0.2504969,0.2247744H8.3099566V9.5557938h0.5239296
		C8.9786692,9.5557938,9.0795145,9.6154547,9.0795145,9.7643995z M10.8723259,9.7396441
		c0,0.0727444-0.0311508,0.1314383-0.0833015,0.1632938c-0.0536747,0.0322647-0.1201744,0.0350523-0.1981974,0.0350523h-0.4882088
		V9.5557947h0.4946022c0.0716295,0,0.1432581,0.001524,0.1918039,0.0307407
		C10.8413248,9.6139297,10.8723259,9.6666384,10.8723259,9.7396441z"/>
	<path id="XMLID_120_" style="fill:#FFFFFF;" d="M16.2787495,10.0939226V9.0043192h-0.2778931l0,0H15.272892
		c-0.224329,0-0.3875113,0.0543814-0.50278,0.1387978V9.0043192h-1.0996017c-0.1758204,0-0.3823442,0.0439367-0.4796963,0.1387978
		V9.0043192h-1.9639473V9.143117c-0.1561937-0.1140413-0.4200354-0.1387978-0.5415869-0.1387978h-1.29531V9.143117
		c-0.1236315-0.1211414-0.3984766-0.1387978-0.566082-0.1387978H7.3743167L7.0426002,9.3677435L6.731885,9.0043182H4.5664682
		v2.3747654h2.1245279l0.3418651-0.3691483l0.3218298,0.3691483l1.3097692,0.0013752v-0.5588341h0.1286497
		c0.1737022,0.0027885,0.3785906-0.0043116,0.559392-0.0834494v0.6407604h1.0802736v-0.6190891h0.0523005
		c0.0664997,0,0.0728922,0.0029373,0.0728922,0.0701046v0.5489845h3.2813377c0.2084951,0,0.4263182-0.054122,0.5470142-0.1518822
		v0.1518822h1.0406485c0.2167091,0,0.4282513-0.0307407,0.5891657-0.1094704v-0.00249
		c0.2350731-0.1516218,0.3913765-0.4172487,0.3913765-0.7204542C16.4078083,10.3801432,16.3602657,10.2250643,16.2787495,10.0939226
		z M8.8110638,10.4738894h-0.501256v0.5709505H7.529098l-0.4947138-0.563591l-0.5139313,0.563591H4.9291849V9.3426905h1.6157641
		l0.4941559,0.5578671l0.5109944-0.5578671h1.283638c0.3186331,0,0.6767788,0.0894346,0.6767788,0.5606556
		C9.5105162,10.3763876,9.1621094,10.4738894,8.8110638,10.4738894z M11.2285385,10.3966846
		c0.0567608,0.0830412,0.0649385,0.1605053,0.0666113,0.3107157v0.3374414h-0.4030857v-0.2129555
		c0-0.1023693,0.0095892-0.2539539-0.0650873-0.3332405c-0.0588427-0.0609245-0.1479788-0.0756817-0.2947311-0.0756817h-0.4293661
		v0.6218395H9.6993837V9.3426533h0.9274254c0.2033281,0,0.3513441,0.0090332,0.4833393,0.0804014
		c0.1268654,0.0774651,0.2065611,0.1835899,0.2065611,0.3778839c0,0.2716494-0.1790171,0.4104462-0.2846956,0.4528589
		C11.1210022,10.2872515,11.1943045,10.3470592,11.2285385,10.3966846z M12.8799124,9.6948891h-0.9407692v0.3094521h0.9178343
		v0.347291h-0.9178343V10.6903l0.9407692,0.0016737v0.3531275h-1.3406582V9.3426914h1.3406601L12.8799124,9.6948891
		L12.8799124,9.6948891z M13.9028692,11.0449886h-0.7823458v-0.3650961h0.7794456
		c0.0762014,0,0.1301746-0.0100002,0.1641121-0.042264c0.0273952-0.0261316,0.047431-0.0645294,0.047431-0.1106958
		c0-0.0496607-0.0214109-0.0891371-0.0491037-0.1128149c-0.0308895-0.0261316-0.0730047-0.0376921-0.1429977-0.0376921
		c-0.3756905-0.0127869-0.8462057,0.0116711-0.8462057-0.5270157c0-0.246892,0.1532574-0.5066824,0.5742979-0.5066824h0.8054667
		v0.3623085h-0.7368851c-0.0730047,0-0.1205835,0.0027885-0.1610641,0.030592
		c-0.0438242,0.0276928-0.0603657,0.0684328-0.0603657,0.1226654c0,0.0641203,0.0375433,0.1077967,0.0879097,0.1268654
		c0.0425606,0.0147572,0.0879097,0.0190687,0.1563425,0.0190687l0.2164116,0.0062447
		c0.2179356,0.0051298,0.3677359,0.0435276,0.4586935,0.1367168c0.0783205,0.0817776,0.1200266,0.1852617,0.1200266,0.3603764
		C14.533926,10.873889,14.3081846,11.0449886,13.9028692,11.0449886z M15.9704123,10.8805809
		c-0.1058264,0.1083546-0.2765169,0.1644087-0.4991732,0.1644087h-0.7758408v-0.3650961h0.7726068
		c0.0767584,0,0.1304712-0.0099993,0.1627359-0.042264c0.0279531-0.0261316,0.04743-0.0645285,0.04743-0.1106958
		c0-0.0496607-0.0194769-0.0891371-0.0491037-0.1128149c-0.029068-0.0261316-0.0714808-0.0376921-0.1415854-0.0376921
		c-0.3772154-0.0127869-0.8477297,0.0116711-0.8477297-0.5270157c0-0.246892,0.1546707-0.5066824,0.5763798-0.5066824h0.784873
		v0.3621979h-0.7167015c-0.0728931,0-0.1215496,0.0029364-0.1625872,0.0307398
		c-0.0424118,0.027544-0.0586939,0.0684328-0.0586939,0.122406c0,0.0643797,0.035759,0.1077967,0.0879097,0.1268654
		c0.0425606,0.0150166,0.0879097,0.0193281,0.1546707,0.0193281l0.2176743,0.0059853
		c0.2197571,0.0054274,0.3665094,0.0436764,0.4556465,0.1370134c0.0162802,0.0129356,0.0261307,0.027544,0.0375443,0.0420046
		c-0.0045719-0.0059853-0.0090332-0.011672-0.0137539-0.0176573c0.0695477,0.0931883,0.1114025,0.2090521,0.1114025,0.3349142
		C16.1140804,10.6508245,16.0591412,10.7817049,15.9704123,10.8805809z M6.3364553,9.6948891l0.4395142,0.4959764
		l-0.458992,0.4993238H5.3291864v-0.3386679h0.8819642v-0.3472919H5.3291864V9.69489L6.3364553,9.6948891L6.3364553,9.6948891z
		 M7.293097,10.196702l0.6168585-0.6710911v1.3645601L7.293097,10.196702z M9.0795145,9.9034948
		c0,0.1475706-0.0961246,0.2247753-0.2504969,0.2247753H8.3099566V9.6948891h0.5239296
		C8.9786692,9.6948891,9.0795145,9.75455,9.0795145,9.9034948z M10.8723259,9.8787384
		c0,0.0727444-0.0311508,0.1314383-0.0833015,0.1632938c-0.0536747,0.0322647-0.1201744,0.0350523-0.1981974,0.0350523h-0.4882088
		V9.6948881h0.4946022c0.0716295,0,0.1432581,0.001523,0.1918039,0.0307407
		C10.8413248,9.7530251,10.8723259,9.8057337,10.8723259,9.8787384z"/>
</g>
</svg>
