<?xml version="1.0" encoding="utf-8"?>
<!-- Generator: Adobe Illustrator 19.0.0, SVG Export Plug-In . SVG Version: 6.00 Build 0)  -->
<svg version="1.1" id="Layer_1" xmlns="http://www.w3.org/2000/svg" xmlns:xlink="http://www.w3.org/1999/xlink" x="0px" y="0px"
	 width="29.4419365px" height="17.665163px" viewBox="0 0 29.4419365 17.665163"
	 style="enable-background:new 0 0 29.4419365 17.665163;" xml:space="preserve">
<g id="XMLID_119_">
	<path id="XMLID_163_" style="fill:#FFB600;" d="M29.441927,8.832818c0,4.8602571-3.9255924,8.8325815-8.8325825,8.8325815
		c-4.8602571,0-8.8325815-3.9723244-8.8325815-8.8325806l0,0c0-4.8602557,3.9255915-8.8325806,8.7858496-8.8325806
		C25.5163345,0.0002375,29.441927,3.9725623,29.441927,8.832818L29.441927,8.832818z"/>
	<path id="XMLID_162_" style="fill:#F7981D;" d="M20.6093445,0.0002375c4.8602562,0,8.8325825,3.9723248,8.8325825,8.8325806l0,0
		c0,4.8602571-3.9255924,8.8325815-8.8325825,8.8325815c-4.8602571,0-8.8325815-3.9723244-8.8325815-8.8325806"/>
	<path id="XMLID_161_" style="fill:#FF8500;" d="M20.6093445,0.0002375c4.8602562,0,8.8325825,3.9723248,8.8325825,8.8325806l0,0
		c0,4.8602571-3.9255924,8.8325815-8.8325825,8.8325815"/>
	<path id="XMLID_160_" style="fill:#FF5050;" d="M8.7391043,0.0002375C3.9255805,0.0469705-0.0000109,3.9725623-0.0000109,8.832818
		s3.9255915,8.8325815,8.8325806,8.8325815c2.2899284,0,4.3461914-0.8879318,5.9351196-2.2899284l0,0l0,0
		c0.3271332-0.2803984,0.6075325-0.6075315,0.8879328-0.9346647h-1.8225965
		c-0.2336655-0.2803984-0.4673319-0.6075315-0.6542645-0.8879318h3.1311274
		c0.1869335-0.2803993,0.3738651-0.6075315,0.5140648-0.9346647h-4.1592579
		c-0.1401997-0.2803993-0.2804003-0.6075315-0.3738661-0.9346647h4.8602571
		c0.2803974-0.8879318,0.4673309-1.8225965,0.4673309-2.8039942c0-0.6542654-0.0934658-1.2617974-0.1869335-1.8693295h-5.4210548
		c0.0467339-0.3271327,0.1401997-0.6075315,0.2336664-0.9346647h4.8602552
		c-0.0934658-0.3271327-0.2336655-0.6542649-0.3738651-0.9346642h-4.112524
		c0.1401997-0.3271332,0.3271332-0.607532,0.5140657-0.9346647h3.1311255
		c-0.1869335-0.3271332-0.420599-0.6542652-0.7009974-0.9346647H13.833025
		c0.2804003-0.3271332,0.5607996-0.6075318,0.8879318-0.8879313c-1.5421963-1.4487305-3.6451931-2.2899282-5.9351206-2.2899282
		C8.7858362,0.0002375,8.7858362,0.0002375,8.7391043,0.0002375z"/>
	<path id="XMLID_159_" style="fill:#E52836;" d="M-0.0000109,8.832818c0,4.8602571,3.9255915,8.8325815,8.8325806,8.8325815
		c2.2899284,0,4.3461914-0.8879318,5.9351196-2.2899284l0,0l0,0c0.3271332-0.2803984,0.6075325-0.6075315,0.8879328-0.9346647
		h-1.8225965c-0.2336655-0.2803984-0.4673319-0.6075315-0.6542645-0.8879318h3.1311274
		c0.1869335-0.2803993,0.3738651-0.6075315,0.5140648-0.9346647h-4.1592579
		c-0.1401997-0.2803993-0.2804003-0.6075315-0.3738661-0.9346647h4.8602571
		c0.2803974-0.8879318,0.4673309-1.8225965,0.4673309-2.8039942c0-0.6542654-0.0934658-1.2617974-0.1869335-1.8693295h-5.4210548
		c0.0467339-0.3271327,0.1401997-0.6075315,0.2336664-0.9346647h4.8602552
		c-0.0934658-0.3271327-0.2336655-0.6542649-0.3738651-0.9346642h-4.112524
		c0.1401997-0.3271332,0.3271332-0.607532,0.5140657-0.9346647h3.1311255
		c-0.1869335-0.3271332-0.420599-0.6542652-0.7009974-0.9346647H13.833025
		c0.2804003-0.3271332,0.5607996-0.6075318,0.8879318-0.8879313c-1.5421963-1.4487305-3.6451931-2.2899282-5.9351206-2.2899282
		H8.7391033"/>
	<path id="XMLID_158_" style="fill:#CB2026;" d="M8.8325701,17.6653996c2.2899284,0,4.3461914-0.8879318,5.9351196-2.2899284l0,0
		l0,0c0.3271332-0.2803984,0.6075325-0.6075315,0.8879328-0.9346647h-1.8225965
		c-0.2336655-0.2803984-0.4673319-0.6075315-0.6542645-0.8879318h3.1311274
		c0.1869335-0.2803993,0.3738651-0.6075315,0.5140648-0.9346647h-4.1592579
		c-0.1401997-0.2803993-0.2804003-0.6075315-0.3738661-0.9346647h4.8602571
		c0.2803974-0.8879318,0.4673309-1.8225965,0.4673309-2.8039942c0-0.6542654-0.0934658-1.2617974-0.1869335-1.8693295h-5.4210548
		c0.0467339-0.3271327,0.1401997-0.6075315,0.2336664-0.9346647h4.8602552
		c-0.0934658-0.3271327-0.2336655-0.6542649-0.3738651-0.9346642h-4.112524
		c0.1401997-0.3271332,0.3271332-0.607532,0.5140657-0.9346647h3.1311255
		c-0.1869335-0.3271332-0.420599-0.6542652-0.7009974-0.9346647H13.833025
		c0.2804003-0.3271332,0.5607996-0.6075318,0.8879318-0.8879313c-1.5421963-1.4487305-3.6451931-2.2899282-5.9351206-2.2899282
		H8.7391033"/>
	<g id="XMLID_139_">
		<path id="XMLID_157_" style="fill:#FFFFFF;" d="M11.9636974,11.0760136l0.1401987-0.794466
			c-0.0467329,0-0.1401987,0.0467329-0.2336664,0.0467329c-0.3271322,0-0.3738651-0.1869335-0.3271322-0.2803984l0.2803993-1.635663
			h0.5140657l0.1401997-0.8879318h-0.4673328l0.0934668-0.5607991h-0.9346647c0,0-0.5607986,3.084394-0.5607986,3.4582591
			c0,0.5607996,0.3271332,0.7944651,0.7477312,0.7944651C11.6365643,11.2162123,11.8702297,11.1227474,11.9636974,11.0760136z"/>
		<path id="XMLID_154_" style="fill:#FFFFFF;" d="M12.2908287,9.5805492c0,1.3085308,0.8879318,1.635663,1.635664,1.635663
			c0.7009983,0,0.9813976-0.1401987,0.9813976-0.1401987l0.1869326-0.8879328c0,0-0.5140657,0.2336664-0.9813976,0.2336664
			c-1.0281315,0-0.841198-0.7477312-0.841198-0.7477312h1.9160624c0,0,0.1401997-0.6075315,0.1401997-0.841198
			c0-0.6075315-0.3271332-1.3552632-1.3552637-1.3552632C12.991828,7.384088,12.2908287,8.41222,12.2908287,9.5805492z
			 M13.9264927,8.2252865c0.5140657,0,0.420598,0.6075315,0.420598,0.6542654h-1.0281305
			C13.3189602,8.832818,13.4124269,8.2252865,13.9264927,8.2252865z"/>
		<path id="XMLID_153_" style="fill:#FFFFFF;" d="M19.8616123,11.0760136l0.1869354-1.0281315
			c0,0-0.4673328,0.2336655-0.794466,0.2336655c-0.6542664,0-0.9346657-0.5140648-0.9346657-1.0748634
			c0-1.1215973,0.5608006-1.7291303,1.215065-1.7291303c0.4673309,0,0.841198,0.2803998,0.841198,0.2803998l0.1401978-0.9813981
			c0,0-0.5607986-0.2336664-1.0748634-0.2336664c-1.0748634,0-2.1497288,0.9346647-2.1497288,2.7105269
			c0,1.1683311,0.5608006,1.9627962,1.6823959,1.9627962C19.3475475,11.2162123,19.8616123,11.0760136,19.8616123,11.0760136z"/>
		<path id="XMLID_150_" style="fill:#FFFFFF;" d="M6.8230414,7.384088c-0.6542654,0-1.1215978,0.1869326-1.1215978,0.1869326
			L5.5612435,8.3654861c0,0,0.420599-0.1869326,1.028131-0.1869326c0.3271327,0,0.6075325,0.0467329,0.6075325,0.3271332
			c0,0.1869326-0.0467339,0.2336655-0.0467339,0.2336655s-0.2803993,0-0.4205985,0
			c-0.7944651,0-1.6823969,0.3271322-1.6823969,1.4019985c0,0.841198,0.5607986,1.0281315,0.8879313,1.0281315
			c0.6542649,0,0.9346647-0.4205999,0.9813981-0.4205999l-0.0467334,0.3738651h0.8411989l0.3738651-2.5703278
			C8.0848379,7.4308214,7.1501737,7.384088,6.8230414,7.384088z M7.009974,9.4870844
			c0,0.1401997-0.0934663,0.8879318-0.6542649,0.8879318c-0.2803998,0-0.3738661-0.2336655-0.3738661-0.3738651
			c0-0.2336664,0.1401997-0.5607996,0.8411984-0.5607996C6.9632406,9.4870844,7.009974,9.4870844,7.009974,9.4870844z"/>
		<path id="XMLID_149_" style="fill:#FFFFFF;" d="M8.9727707,11.1694803c0.2336655,0,1.4019966,0.0467319,1.4019966-1.2150631
			c0-1.1683311-1.1215973-0.9346647-1.1215973-1.4019976c0-0.2336664,0.1869326-0.3271332,0.5140657-0.3271332
			c0.1401987,0,0.6542645,0.0467339,0.6542645,0.0467339l0.1401997-0.841198c0,0-0.3271332-0.0934668-0.8879309-0.0934668
			c-0.7009983,0-1.4019976,0.2803993-1.4019976,1.215064c0,1.0748644,1.1683311,0.9813976,1.1683311,1.4019976
			c0,0.2803984-0.3271332,0.3271322-0.5607996,0.3271322c-0.420598,0-0.841197-0.1401987-0.841197-0.1401987l-0.1401997,0.841198
			C7.9446387,11.0760136,8.1783047,11.1694803,8.9727707,11.1694803z"/>
		<path id="XMLID_146_" style="fill:#FFFFFF;" d="M27.6193295,6.6363564l-0.1869335,1.2617974
			c0,0-0.3738651-0.4673324-0.8879318-0.4673324c-0.841198,0-1.588932,1.0281315-1.588932,2.2431946
			c0,0.7477312,0.373867,1.5421963,1.1683311,1.5421963c0.5608006,0,0.8879318-0.3738651,0.8879318-0.3738651l-0.0467319,0.3271332
			h0.9346657l0.7009983-4.4863906L27.6193295,6.6363564z M27.1987305,9.1132174
			c0,0.5140648-0.2336655,1.1683302-0.7477303,1.1683302c-0.3271332,0-0.5140648-0.2803984-0.5140648-0.7477303
			c0-0.7477322,0.3271332-1.215065,0.7477303-1.215065C27.011797,8.3187523,27.1987305,8.5524187,27.1987305,9.1132174z"/>
		<path id="XMLID_145_" style="fill:#FFFFFF;" d="M1.7291187,11.1227474l0.5607988-3.3647928l0.0934665,3.3647928h0.6542652
			l1.2150645-3.3647928l-0.514066,3.3647928H4.720046l0.7477317-4.4863906H3.9255805L2.9909158,9.3936176L2.9441826,6.6363568
			H1.588919l-0.7477317,4.4863906H1.7291187z"/>
		<path id="XMLID_144_" style="fill:#FFFFFF;" d="M16.2164211,11.1227474
			c0.2803993-1.5421963,0.3271332-2.8039942,0.9813976-2.5703278c0.0934658-0.6075315,0.2336655-0.841198,0.3271332-1.0748639
			c0,0-0.0467319,0-0.1869335,0c-0.4206009,0-0.7477322,0.5607991-0.7477322,0.5607991l0.0934677-0.5140657h-0.8879328
			l-0.6075315,3.6451912h1.0281315V11.1227474z"/>
		<path id="XMLID_141_" style="fill:#FFFFFF;" d="M22.0113411,7.384088c-0.6542664,0-1.1215973,0.1869326-1.1215973,0.1869326
			l-0.1401997,0.7944655c0,0,0.420599-0.1869326,1.0281315-0.1869326c0.3271332,0,0.6075306,0.0467329,0.6075306,0.3271332
			c0,0.1869326-0.0467319,0.2336655-0.0467319,0.2336655s-0.2803993,0-0.420599,0
			c-0.794466,0-1.6823959,0.3271322-1.6823959,1.4019985c0,0.841198,0.5607986,1.0281315,0.8879318,1.0281315
			c0.6542664,0,0.9346638-0.4205999,0.9813976-0.4205999l-0.0467339,0.3738651h0.841198l0.3738651-2.5703278
			C23.3198738,7.4308214,22.3384743,7.384088,22.0113411,7.384088z M22.2450066,9.4870844
			c0,0.1401997-0.0934658,0.8879318-0.6542645,0.8879318c-0.2803993,0-0.373867-0.2336655-0.373867-0.3738651
			c0-0.2336664,0.1401997-0.5607996,0.841198-0.5607996C22.1982746,9.4870844,22.1982746,9.4870844,22.2450066,9.4870844z"/>
		<path id="XMLID_140_" style="fill:#FFFFFF;" d="M24.0676041,11.1227474
			c0.2803993-1.5421963,0.3271332-2.8039942,0.9813976-2.5703278c0.0934658-0.6075315,0.2336655-0.841198,0.3271332-1.0748639
			c0,0-0.0467339,0-0.1869335,0c-0.4206009,0-0.7477322,0.5607991-0.7477322,0.5607991l0.0934677-0.5140657h-0.8879318
			l-0.6075325,3.6451912h1.0281315V11.1227474z"/>
	</g>
	<g id="XMLID_120_">
		<path id="XMLID_138_" style="fill:#DCE5E5;" d="M10.514967,10.4217491c0,0.5607996,0.3271322,0.7944651,0.7477312,0.7944651
			c0.3271332,0,0.6075315-0.0934668,0.7009993-0.1401987l0.1401987-0.794466c-0.0467329,0-0.1401987,0.0467329-0.2336664,0.0467329
			c-0.3271322,0-0.3738651-0.1869335-0.3271322-0.2803984l0.2803993-1.635664h0.5140657l0.1401997-0.8879309h-0.4673328
			L12.1038961,6.96349"/>
		<path id="XMLID_135_" style="fill:#DCE5E5;" d="M12.7581615,9.5805492c0,1.3085308,0.420599,1.635663,1.1683311,1.635663
			c0.7009983,0,0.9813976-0.1401987,0.9813976-0.1401987l0.1869326-0.8879328c0,0-0.5140657,0.2336664-0.9813976,0.2336664
			c-1.0281315,0-0.841198-0.7477312-0.841198-0.7477312h1.9160624c0,0,0.1401997-0.6075315,0.1401997-0.841198
			c0-0.6075315-0.3271332-1.3552632-1.3552637-1.3552632C12.991828,7.384088,12.7581615,8.41222,12.7581615,9.5805492z
			 M13.9264927,8.2252865c0.5140657,0,0.6075315,0.6075315,0.6075315,0.6542654h-1.215064
			C13.3189602,8.832818,13.4124269,8.2252865,13.9264927,8.2252865z"/>
		<path id="XMLID_134_" style="fill:#DCE5E5;" d="M19.8616123,11.0760136l0.1869354-1.0281315
			c0,0-0.4673328,0.2336655-0.794466,0.2336655c-0.6542664,0-0.9346657-0.5140648-0.9346657-1.0748634
			c0-1.1215973,0.5608006-1.7291303,1.215065-1.7291303c0.4673309,0,0.841198,0.2803998,0.841198,0.2803998l0.1401978-0.9813981
			c0,0-0.5607986-0.2336664-1.0748634-0.2336664c-1.0748634,0-1.6823959,0.9346647-1.6823959,2.7105269
			c0,1.1683311,0.0934677,1.9627962,1.2150631,1.9627962C19.3475475,11.2162123,19.8616123,11.0760136,19.8616123,11.0760136z"/>
		<path id="XMLID_131_" style="fill:#DCE5E5;" d="M5.5612435,8.41222c0,0,0.420599-0.1869335,1.028131-0.1869335
			c0.3271327,0,0.6075325,0.0467339,0.6075325,0.3271332c0,0.1869326-0.0467339,0.2336664-0.0467339,0.2336664
			s-0.2803993,0-0.4205985,0c-0.7944651,0-1.6823969,0.3271332-1.6823969,1.4019966
			c0,0.841198,0.5607986,1.0281315,0.8879313,1.0281315c0.6542649,0,0.9346647-0.4205999,0.9813981-0.4205999l-0.0467334,0.3738661
			h0.8411989l0.3738651-2.5703278c0-1.0748644-0.9346647-1.1215978-1.3085303-1.1215978 M7.4773064,9.4870844
			c0,0.1401997-0.5607986,0.8879318-1.1215973,0.8879318c-0.2803998,0-0.3738661-0.2336655-0.3738661-0.3738651
			c0-0.2336664,0.1401997-0.5607996,0.8411984-0.5607996C6.9632406,9.4870844,7.4773064,9.4870844,7.4773064,9.4870844z"/>
		<path id="XMLID_130_" style="fill:#DCE5E5;" d="M7.9446387,11.0760136c0,0,0.2803998,0.0934668,1.0748639,0.0934668
			c0.2336664,0,1.4019976,0.0467319,1.4019976-1.2150631c0-1.1683311-1.1215982-0.9346647-1.1215982-1.4019976
			c0-0.2336664,0.1869335-0.3271332,0.5140657-0.3271332c0.1401997,0,0.6542654,0.0467339,0.6542654,0.0467339l0.1401997-0.841198
			c0,0-0.3271332-0.0934668-0.8879318-0.0934668c-0.7009983,0-0.9346647,0.2803993-0.9346647,1.215064
			c0,1.0748644,0.7009993,0.9813976,0.7009993,1.4019976c0,0.2803984-0.3271332,0.3271322-0.5607996,0.3271322"/>
		<path id="XMLID_127_" style="fill:#DCE5E5;" d="M27.4323978,7.8981538c0,0-0.3738651-0.4673324-0.8879318-0.4673324
			c-0.841198,0-1.1215992,1.0281315-1.1215992,2.2431946c0,0.7477312-0.0934658,1.5421963,0.7009983,1.5421963
			c0.5607986,0,0.8879318-0.3738651,0.8879318-0.3738651l-0.0467319,0.3271332h0.9346657l0.7009983-4.4863906 M27.385664,9.1132174
			c0,0.5140648-0.4206009,1.1683302-0.9346657,1.1683302c-0.3271332,0-0.5140648-0.2803984-0.5140648-0.7477303
			c0-0.7477322,0.3271332-1.215065,0.7477303-1.215065C27.011797,8.3187523,27.385664,8.5524187,27.385664,9.1132174z"/>
		<path id="XMLID_126_" style="fill:#DCE5E5;" d="M1.7291187,11.1227474l0.5607988-3.3647928l0.0934665,3.3647928h0.6542652
			l1.2150645-3.3647928l-0.514066,3.3647928H4.720046l0.7477317-4.4863906H4.2994471L2.9909163,9.3936176L2.9441831,6.6363568
			H2.4301176l-1.5889301,4.4863906H1.7291187z"/>
		<path id="XMLID_125_" style="fill:#DCE5E5;" d="M15.2350225,11.1227474h0.9813967
			c0.2803993-1.5421963,0.3271332-2.8039942,0.9813976-2.5703278c0.0934677-0.6075315,0.2336655-0.841198,0.3271332-1.0748639
			c0,0-0.0467319,0-0.1869335,0c-0.4206009,0-0.7477322,0.5607991-0.7477322,0.5607991l0.0934677-0.5140657"/>
		<path id="XMLID_122_" style="fill:#DCE5E5;" d="M20.7495461,8.41222c0,0,0.420599-0.1869335,1.0281315-0.1869335
			c0.3271332,0,0.6075306,0.0467339,0.6075306,0.3271332c0,0.1869326-0.0467319,0.2336664-0.0467319,0.2336664
			s-0.2803993,0-0.420599,0c-0.794466,0-1.6823959,0.3271332-1.6823959,1.4019966
			c0,0.841198,0.5607986,1.0281315,0.8879318,1.0281315c0.6542664,0,0.9346638-0.4205999,0.9813976-0.4205999l-0.0467339,0.3738661
			h0.8411961l0.3738651-2.5703278c0-1.0748644-0.9346638-1.1215978-1.3085289-1.1215978 M22.6656075,9.4870844
			c0,0.1401997-0.5607986,0.8879318-1.1215992,0.8879318c-0.2803974,0-0.3738651-0.2336655-0.3738651-0.3738651
			c0-0.2336664,0.1401997-0.5607996,0.841198-0.5607996C22.1982746,9.4870844,22.6656075,9.4870844,22.6656075,9.4870844z"/>
		<path id="XMLID_121_" style="fill:#DCE5E5;" d="M23.0862064,11.1227474h0.9813976
			c0.2803993-1.5421963,0.3271332-2.8039942,0.9813976-2.5703278c0.0934658-0.6075315,0.2336655-0.841198,0.3271332-1.0748639
			c0,0-0.0467339,0-0.1869335,0c-0.4206009,0-0.7477322,0.5607991-0.7477322,0.5607991l0.0934677-0.5140657"/>
	</g>
</g>
</svg>
