<?xml version="1.0" encoding="utf-8"?>
<!-- Generator: Adobe Illustrator 19.0.0, SVG Export Plug-In . SVG Version: 6.00 Build 0)  -->
<svg version="1.1" id="Layer_1" xmlns="http://www.w3.org/2000/svg" xmlns:xlink="http://www.w3.org/1999/xlink" x="0px" y="0px"
	 width="70px" height="70.0094604px" viewBox="0 0 70 70.0094604" style="enable-background:new 0 0 70 70.0094604;"
	 xml:space="preserve">
<g id="XMLID_159_">
	<path id="XMLID_161_" style="fill:#FFFFFF;" d="M69.8498917,31.7862911
		C68.1874313,13.7814074,53.0859489,0.0056949,35.0046654-0.0000017c-19.3324013,0-35.0047302,15.6723585-35.0047302,35.0047264
		s15.672328,35.004734,35.0047302,35.004734c1.0545845,0,2.1051331-0.0472946,3.1506996-0.1412888
		c0.9719849-0.0871735,1.9354248-0.2205124,2.8912697-0.3874283l0.3676682-0.064949
		C59.1884422,66.0987625,71.512352,49.7911453,69.8498917,31.7862911z M58.3410721,57.8478127V50.173439
		c-0.0097313-8.373455-6.7951088-15.159008-15.1686516-15.1687126H26.8369102
		C18.4633656,35.014431,11.677989,41.799984,11.6682577,50.173439v7.6743736
		c-12.5674381-12.8265114-12.4271584-33.3912201,0.3133135-46.045681c12.7404728-12.6538954,33.3057137-12.6538954,46.0461884,0
		C70.7682266,24.4565907,70.9085083,45.0213013,58.3410721,57.8478127z"/>
	<path id="XMLID_160_" style="fill:#FFFFFF;" d="M35.0046654,9.334609c-6.4442921,0-11.6683235,5.2239113-11.6683235,11.6682329
		s5.2240314,11.668232,11.6683235,11.668232s11.6683197-5.2239113,11.6683197-11.668232
		C46.6661034,14.5613689,41.4461098,9.3414326,35.0046654,9.334609z"/>
</g>
</svg>
