<?xml version="1.0" encoding="utf-8"?>
<!-- Generator: Adobe Illustrator 19.0.0, SVG Export Plug-In . SVG Version: 6.00 Build 0)  -->
<svg version="1.1" id="Layer_1" xmlns="http://www.w3.org/2000/svg" xmlns:xlink="http://www.w3.org/1999/xlink" x="0px" y="0px"
	 width="185.478302px" height="47.4000244px" viewBox="0 0 185.478302 47.4000244"
	 style="enable-background:new 0 0 185.478302 47.4000244;" xml:space="preserve">
<g id="XMLID_253_">
	<path id="XMLID_411_" style="fill:#787878;" d="M143.3777771,12.365077h-10.0099487
		c-0.5888214,0-1.1776428,0.5888224-1.4720459,1.177639l-4.1217422,25.9080772c0,0.5888214,0.2944107,0.8832283,0.8832321,0.8832283
		h5.2993774c0.5888214,0,0.8832397-0.2944069,0.8832397-0.8832283l1.1776428-7.3602486
		c0-0.5888233,0.5888214-1.1776447,1.4720459-1.1776447h3.2385101c6.7714233,0,10.5987549-3.2385063,11.4819946-9.7155285
		c0.5888214-2.6496887,0-5.0049725-1.1776428-6.4770231C149.265976,13.2483101,146.6162872,12.365077,143.3777771,12.365077
		 M144.5554047,22.0806103c-0.5888214,3.5329227-3.2384949,3.5329227-5.8881989,3.5329227h-1.766449l1.1776428-6.7714272
		c0-0.2944126,0.2944031-0.5888233,0.8832245-0.5888233h0.5888214c1.7664642,0,3.5329285,0,4.416153,1.177639
		C144.5554047,19.7253265,144.5554047,20.6085606,144.5554047,22.0806103"/>
	<g id="XMLID_404_">
		<path id="XMLID_408_" style="fill:#3C3C3C;" d="M71.2473221,12.365077H61.2373848
			c-0.5888214,0-1.177639,0.5888224-1.4720497,1.177639l-4.1217384,25.9080772c0,0.5888214,0.2944107,0.8832283,0.8832283,0.8832283
			h4.7105598c0.5888214,0,1.177639-0.5888214,1.4720497-1.1776428l1.177639-7.0658455
			c0-0.5888233,0.5888252-1.1776447,1.4720497-1.1776447h3.2385101c6.771431,0,10.5987625-3.2385063,11.4819946-9.7155285
			c0.5888214-2.6496887,0-5.0049725-1.1776428-6.4770231C77.1355286,13.2483101,74.7802429,12.365077,71.2473221,12.365077
			 M72.4249649,22.0806103c-0.5888214,3.5329227-3.2385101,3.5329227-5.8881989,3.5329227h-1.4720535l1.1776428-6.7714272
			c0-0.2944126,0.2944107-0.5888233,0.8832245-0.5888233h0.5888214c1.7664642,0,3.5329208,0,4.416153,1.177639
			C72.4249649,19.7253265,72.7193756,20.6085606,72.4249649,22.0806103"/>
		<path id="XMLID_405_" style="fill:#3C3C3C;" d="M101.5715561,21.7861996h-4.710556
			c-0.2944107,0-0.8832321,0.2944107-0.8832321,0.5888233l-0.2944031,1.4720497l-0.2944031-0.5888233
			c-1.1776505-1.4720497-3.2385101-2.0608711-5.5937881-2.0608711c-5.2993851,0-10.0099411,4.1217384-10.8931732,9.7155323
			c-0.5888214,2.9440994,0.2944107,5.5937958,1.7664566,7.3602524c1.4720535,1.7664528,3.5329208,2.355278,6.1826096,2.355278
			c4.416153,0,6.771431-2.6496964,6.771431-2.6496964l-0.2944107,1.4720497c0,0.5888214,0.2944107,0.8832283,0.8832245,0.8832283
			h4.416153c0.5888214,0,1.1776428-0.5888214,1.4720535-1.1776428l2.6496887-16.4869633
			C102.4547806,22.3750172,101.8659592,21.7861996,101.5715561,21.7861996 M94.8001251,31.2073174
			c-0.5888214,2.6496925-2.6496887,4.710556-5.5937881,4.710556c-1.4720535,0-2.6496887-0.5888214-3.2385101-1.1776466
			c-0.5888214-0.8832283-0.8832321-2.0608711-0.8832321-3.5329208c0.2944107-2.6496944,2.6496887-4.710556,5.2993774-4.710556
			c1.4720535,0,2.355278,0.5888214,3.2385178,1.1776447C94.5057068,28.5576324,94.8001251,30.0296841,94.8001251,31.2073174"/>
	</g>
	<path id="XMLID_357_" style="fill:#787878;" d="M173.407608,21.7861996h-4.710556
		c-0.2944183,0-0.8832397,0.2944107-0.8832397,0.5888233l-0.2944031,1.4720497l-0.2944031-0.5888233
		c-1.1776428-1.4720497-3.2385101-2.0608711-5.5937958-2.0608711c-5.2993774,0-10.0099487,4.1217384-10.8931732,9.7155323
		c-0.5888214,2.9440994,0.2944031,5.5937958,1.7664642,7.3602524c1.4720459,1.7664528,3.5329132,2.355278,6.1826019,2.355278
		c4.416153,0,6.7714233-2.6496964,6.7714233-2.6496964l-0.2944031,1.4720497c0,0.5888214,0.2944031,0.8832283,0.8832245,0.8832283
		h4.416153c0.5888214,0,1.1776428-0.5888214,1.4720459-1.1776428l2.649704-16.4869633
		C174.2908325,22.3750172,173.9964142,21.7861996,173.407608,21.7861996 M166.6361694,31.2073174
		c-0.5888367,2.6496925-2.649704,4.710556-5.5937958,4.710556c-1.4720612,0-2.649704-0.5888214-3.2385101-1.1776466
		c-0.5888214-0.8832283-0.8832245-2.0608711-0.8832245-3.5329208c0.2944031-2.6496944,2.6496887-4.710556,5.2993774-4.710556
		c1.4720459,0,2.3552704,0.5888214,3.2384949,1.1776447C166.6361694,28.5576324,166.9305725,30.0296841,166.6361694,31.2073174"/>
	<path id="XMLID_348_" style="fill:#3C3C3C;" d="M127.1852264,21.7861996h-5.0049744
		c-0.5888214,0-0.8832245,0.2944107-1.1776428,0.5888233l-6.4770203,10.0099373l-2.9440994-9.4211216
		c-0.2944107-0.5888214-0.5888214-0.8832283-1.4720535-0.8832283h-4.710556c-0.5888214,0-0.8832245,0.5888233-0.8832245,1.177639
		l5.2993774,15.603735l-5.0049744,7.0658455c-0.2944031,0.5888214,0,1.4720497,0.5888214,1.4720497h4.710556
		c0.5888214,0,0.8832321-0.2944069,1.1776428-0.5888214l16.1925507-23.2583923
		C128.362854,22.6694279,127.7740479,21.7861996,127.1852264,21.7861996"/>
	<path id="XMLID_347_" style="fill:#787878;" d="M179.0013885,13.2483101l-4.1217499,26.4969025
		c0,0.5888214,0.2944031,0.8832283,0.8832245,0.8832283h4.1217499c0.5888214,0,1.1776428-0.5888252,1.4720459-1.1776466
		l4.1217499-25.9080772c0-0.5888224-0.2944031-0.8832283-0.8832245-0.8832283h-4.710556
		C179.59021,12.365077,179.2958069,12.6594877,179.0013885,13.2483101"/>
	<path id="XMLID_295_" style="fill:#3C3C3C;" d="M33.8572502,3.5327766
		c-2.0608692-2.3552778-5.8881989-3.5329223-11.1875801-3.5329223H7.9491692c-0.8832297,0-1.7664595,0.8832278-2.0608702,1.7664613
		L0.0000995,40.334034c0,0.8832283,0.58882,1.4720497,1.1776401,1.4720497H10.30445l2.3552809-14.4260941v0.5888214
		c0.2944098-0.8832283,1.17764-1.7664547,2.0608692-1.7664547h4.416151c8.5378876,0,15.0149097-3.5329227,17.0757809-13.2484512
		c0-0.2944117,0-0.5888224,0-0.8832283c-0.2944107,0-0.2944107,0,0,0
		C36.5069389,8.2433376,35.9181213,5.8880601,33.8572502,3.5327766"/>
	<path id="XMLID_294_" style="fill:#787878;" d="M35.9181213,12.0706663L35.9181213,12.0706663c0,0.2944107,0,0.5888214,0,0.8832273
		c-2.0608711,10.0099392-8.5378933,13.2484512-17.0757828,13.2484512h-4.4161491
		c-0.8832312,0-1.7664604,0.8832264-2.0608702,1.7664547L9.4212198,45.9278069c0,0.5888214,0.2944088,1.1776428,1.17764,1.1776428
		h7.6546593c0.8832321,0,1.7664604-0.5888214,1.7664604-1.4720497v-0.2944031l1.4720497-9.126709v-0.5888214
		c0-0.8832283,0.8832302-1.4720497,1.7664604-1.4720497h1.177639c7.3602505,0,13.2484493-2.9440994,14.720499-11.7763996
		c0.5888214-3.5329227,0.2944107-6.7714291-1.4720497-8.8323011C37.3901711,12.9538994,36.8013496,12.365077,35.9181213,12.0706663"
		/>
	<path id="XMLID_285_" style="fill:#303030;" d="M33.8572502,11.187438c-0.2944107,0-0.5888176-0.2944107-0.8832283-0.2944107
		c-0.2944145,0-0.5888214,0-0.8832321-0.2944117c-1.177639-0.2944107-2.3552799-0.2944107-3.8273315-0.2944107H16.7814693
		c-0.2944088,0-0.5888195,0-0.8832302,0.2944107c-0.5888195,0.2944117-0.8832302,0.8832283-0.8832302,1.4720507
		l-2.355278,15.3093233v0.5888214c0.2944098-0.8832283,1.17764-1.7664547,2.0608692-1.7664547h4.416151
		c8.5378876,0,15.0149097-3.5329227,17.0757809-13.2484512c0-0.2944117,0-0.5888224,0.2944107-0.8832283
		c-0.5888176-0.2944107-0.8832321-0.5888224-1.4720497-0.5888224C34.1516609,11.187438,34.1516609,11.187438,33.8572502,11.187438"
		/>
</g>
</svg>
