<?xml version="1.0" encoding="utf-8"?>
<!-- Generator: Adobe Illustrator 19.0.0, SVG Export Plug-In . SVG Version: 6.00 Build 0)  -->
<svg version="1.1" id="Layer_1" xmlns="http://www.w3.org/2000/svg" xmlns:xlink="http://www.w3.org/1999/xlink" x="0px" y="0px"
	 width="288.3305664px" height="169.018158px" viewBox="0 0 288.3305664 169.018158"
	 style="enable-background:new 0 0 288.3305664 169.018158;" xml:space="preserve">
<g id="XMLID_253_">
	<path id="XMLID_413_" style="fill:#CCCCCC;" d="M288.3305054,20.1660881V153.822998
		c0,8.4011993-6.8104248,15.1952362-15.1950684,15.1952362H25.6895504c-8.4011974,0-15.1950645-6.7940369-15.1950645-15.1952362
		V20.1660881c0-8.4011965,6.7938671-15.1948986,15.1950645-15.1948986H273.135437
		C281.5200806,4.97119,288.3305054,11.7648916,288.3305054,20.1660881z"/>
	<path id="XMLID_412_" style="fill:#FFFFFF;" d="M277.835968,15.1949663v133.6569214
		c0,8.4011841-6.8104248,15.1952209-15.1950684,15.1952209H15.195014c-8.4013624,0-15.1950636-6.7940369-15.1950636-15.1952209
		V15.1949663c0-8.4011974,6.7937012-15.1948986,15.1950636-15.1948986h247.4458923
		C271.0255432,0.0000678,277.835968,6.7937694,277.835968,15.1949663z"/>
	<path id="XMLID_411_" style="opacity:0.2;fill:#0071BC;" d="M277.835968,80.9297714v67.9221115
		c0,8.4011841-6.8104248,15.1952209-15.1950684,15.1952209H124.5429688
		c-0.1821136-2.3695679-0.2649612-4.7557068-0.2649612-7.1751556c0-52.7765808,42.7847977-95.5613708,95.5615311-95.5613708
		C241.6627655,61.3105774,261.7625122,68.6345291,277.835968,80.9297714z"/>
	<path id="XMLID_410_" style="opacity:0.2;fill:#0071BC;" d="M54.1354713,21.5415974
		c0,21.6575222-17.5646324,39.2219925-39.2221527,39.2219925c-5.2859602,0-10.3233643-1.0439377-14.9133663-2.9493675V15.1949663
		c0-8.4011974,6.7937012-15.1948986,15.1950636-15.1948986h32.4945679
		C51.7659035,6.1806641,54.1354713,13.5878019,54.1354713,21.5415974z"/>
	<g id="XMLID_406_">
		<g id="XMLID_407_">
			<circle id="XMLID_409_" style="fill:#F15A24;" cx="203.5861359" cy="126.5762787" r="16.2449646"/>
			<circle id="XMLID_408_" style="fill:#FBB03B;" cx="239.6860046" cy="126.5762787" r="16.2450466"/>
		</g>
	</g>
	
		<text id="XMLID_405_" transform="matrix(1 0 0 1 21.8991966 94.0392151)" style="fill:#0071BC; font-family:'Gibson-Regular'; font-size:18.7307301px;">00  000   00000   000  00000</text>
	
		<text id="XMLID_404_" transform="matrix(1 0 0 1 21.8982201 106.0880432)" style="fill:#0071BC; font-family:'Gibson-Regular'; font-size:8.0539503px;">12  345   6789   1111  223344</text>
	<rect id="XMLID_403_" x="21.8990688" y="114.2323151" style="fill:#0071BC;" width="88.65168" height="15.5347576"/>
	<rect id="XMLID_402_" x="21.8990688" y="136.6073456" style="fill:#FFFFFF;" width="52.611042" height="6.213903"/>
	<g id="XMLID_294_">
		<path id="XMLID_357_" style="fill:#FFD13A;" d="M67.4744797,37.6977463v21.9557915
			c0,3.4300728-2.7838211,6.2139015-6.2138977,6.2139015H28.1197662c-3.4464798,0-6.2139034-2.7838287-6.2139034-6.2139015
			V37.6977463c0-3.4302406,2.7674236-6.2139034,6.2139034-6.2139034H61.260582
			C64.6906586,31.4838428,67.4744797,34.2675056,67.4744797,37.6977463z"/>
		<g id="XMLID_295_">
			<rect id="XMLID_348_" x="56.7535973" y="54.0693092" style="fill:#FCE4A2;" width="10.7208881" height="1.3751781"/>
			<polygon id="XMLID_347_" style="fill:#FCE4A2;" points="42.1219254,31.4838428 42.1219254,65.8674393 40.730011,65.8674393 
				40.730011,55.4444885 21.9058628,55.4444885 21.9058628,54.0527382 40.730011,54.0527382 40.730011,43.2819748 
				21.9058628,43.2819748 21.9058628,41.9064636 40.730011,41.9064636 40.730011,31.4838428 			"/>
		</g>
	</g>
	<rect id="XMLID_285_" x="167.7753296" y="21.9558582" style="fill:#FFFFFF;" width="25.6841316" height="25.6841316"/>
	<rect id="XMLID_254_" x="197.5203705" y="21.9558582" style="fill:#FFFFFF;" width="58.4106865" height="25.6841316"/>
</g>
</svg>
