<svg xmlns="http://www.w3.org/2000/svg" viewBox="0 0 17.71 18.08"><defs><style>.cls-1{fill:#c7eaff;}.cls-2{fill:#ffbc53;}.cls-3{fill:#fff;}.cls-4{fill:#696969;}.cls-5{fill:#434343;}</style></defs><title>Asset 26</title><g id="Layer_2" data-name="Layer 2"><g id="Layer_1-2" data-name="Layer 1"><path class="cls-1" d="M15.3,13.63v2.49H2V13.63c0-1.2.89-1.83,1.78-2.49S5.61,9.81,5.61,8.52L5.67,7a.63.63,0,0,1,.53-.6l.23,0,.84-.1V8a.88.88,0,0,0,.87.88h1A.88.88,0,0,0,10.07,8V6.31c.35,0,.71.08,1.06.13a.63.63,0,0,1,.53.6l.07,1.48C11.73,11.09,15.3,11.24,15.3,13.63Z"/><path class="cls-2" d="M16,16.56v.81a.44.44,0,0,1-.44.44H1.78a.44.44,0,0,1-.43-.44v-.81a.43.43,0,0,1,.43-.44H15.55A.44.44,0,0,1,16,16.56Z"/><path class="cls-2" d="M11.61,12.46A2.94,2.94,0,1,1,8.67,9.52,2.94,2.94,0,0,1,11.61,12.46Z"/><path class="cls-3" d="M9.94,12.46a1.27,1.27,0,1,1-1.27-1.27A1.27,1.27,0,0,1,9.94,12.46Z"/><path class="cls-4" d="M12.12,3.42,10.71,4.79l-.57-.37-.32-.71a.64.64,0,0,0-.72-.35c-.35.09-.7.18-1,.29L7.51,2.31l1-.4Z"/><path class="cls-1" d="M13.89,4.54l-2.34,1a.88.88,0,0,1-1.12-.44l-.29-.64-.32-.71a.64.64,0,0,0-.72-.35c-.35.09-.7.18-1,.29A15.88,15.88,0,0,0,4.54,5.23.64.64,0,0,0,4.27,6l.5,1.39a.87.87,0,0,1-.48,1.1L2,9.44A.86.86,0,0,1,.78,8.83l-.44-2A2.79,2.79,0,0,1,1.73,3.81,42.24,42.24,0,0,1,10.09.38a2.8,2.8,0,0,1,3.15,1.2l1.06,1.7A.87.87,0,0,1,13.89,4.54Z"/><path class="cls-3" d="M13.89,4.54l-2.34,1a.87.87,0,0,1-1.11-.44l-.37-.8,3.85-1.58.38.6A.87.87,0,0,1,13.89,4.54Z"/><path class="cls-3" d="M4.29,8.48,2,9.44A.86.86,0,0,1,.78,8.83L.62,8.14,4.48,6.56l.29.82A.87.87,0,0,1,4.29,8.48Z"/><path class="cls-5" d="M15.56,15.85V14.16a.27.27,0,1,0-.53,0v1.69H2.31V13.63c0-1,.75-1.59,1.62-2.23l0,0c.89-.65,1.89-1.39,1.9-2.84l.06-1.47a.34.34,0,0,1,.3-.34c.25,0,.51-.08.76-.1V8A1.15,1.15,0,0,0,8.14,9.11h1A1.16,1.16,0,0,0,10.34,8V6.61c.25,0,.5.06.75.1a.36.36,0,0,1,.31.34l.06,1.47c0,1.45,1,2.21,1.94,2.88A3.52,3.52,0,0,1,15,13.16a.27.27,0,0,0,.33.19.26.26,0,0,0,.19-.33A4,4,0,0,0,13.72,11C12.83,10.31,12,9.69,12,8.52h0L11.93,7a.9.9,0,0,0-.76-.86c-.36,0-.72-.1-1.08-.13a.29.29,0,0,0-.2.07.27.27,0,0,0-.09.2V8a.61.61,0,0,1-.61.61h-1A.62.62,0,0,1,7.53,8V6.31a.3.3,0,0,0-.08-.2A.31.31,0,0,0,7.24,6l-1.08.13A.92.92,0,0,0,5.4,7L5.34,8.51h0c0,1.17-.85,1.8-1.68,2.41l-.05,0c-.9.67-1.84,1.36-1.84,2.67v2.22a.71.71,0,0,0-.69.71v.81a.7.7,0,0,0,.7.71H15.55a.71.71,0,0,0,.71-.71v-.81A.71.71,0,0,0,15.56,15.85Zm.16,1.52a.17.17,0,0,1-.17.17H1.78a.16.16,0,0,1-.16-.17v-.81a.16.16,0,0,1,.16-.17H15.55a.17.17,0,0,1,.17.17Z"/><path class="cls-5" d="M8.67,9.25a3.21,3.21,0,1,0,3.21,3.21A3.21,3.21,0,0,0,8.67,9.25Zm0,5.88a2.67,2.67,0,1,1,2.67-2.67A2.67,2.67,0,0,1,8.67,15.13Z"/><path class="cls-5" d="M8.67,10.92a1.54,1.54,0,1,0,1.54,1.54A1.54,1.54,0,0,0,8.67,10.92Zm0,2.54a1,1,0,1,1,1-1A1,1,0,0,1,8.67,13.46Z"/><path class="cls-5" d="M1.62,9.77a1.26,1.26,0,0,0,.43-.08l2.34-1A1.14,1.14,0,0,0,5,7.29L4.52,5.9a.37.37,0,0,1,.16-.44A15.8,15.8,0,0,1,9.16,3.62a.36.36,0,0,1,.41.21l.62,1.34a1.14,1.14,0,0,0,1.46.58l2.34-1a1.1,1.1,0,0,0,.65-.7,1.14,1.14,0,0,0-.12-1L13.46,1.44A3.07,3.07,0,0,0,10,.12a42.59,42.59,0,0,0-7.93,3.2.27.27,0,1,0,.25.47A41.76,41.76,0,0,1,10.16.64,2.54,2.54,0,0,1,13,1.72l.52.83L10.2,3.91l-.14-.31a.9.9,0,0,0-1-.5A16.27,16.27,0,0,0,4.4,5,.9.9,0,0,0,4,6.08l.11.33L.81,7.77.6,6.82a2.5,2.5,0,0,1,.86-2.5.27.27,0,0,0,0-.38.26.26,0,0,0-.37,0,3,3,0,0,0-1,3l.43,2a1.14,1.14,0,0,0,.59.75A1.06,1.06,0,0,0,1.62,9.77ZM13.81,3l.26.41a.62.62,0,0,1,.06.5.59.59,0,0,1-.34.37l-.15.06-.12-.3a.27.27,0,0,0-.35-.15.28.28,0,0,0-.15.36l.13.29-.33.13-.12-.29a.28.28,0,0,0-.35-.15.27.27,0,0,0-.15.35l.12.3L12,5l-.13-.29a.26.26,0,0,0-.35-.15.27.27,0,0,0-.14.35l.12.3-.05,0a.6.6,0,0,1-.77-.3l-.25-.55ZM.93,8.3,4.32,6.91l.2.56a.6.6,0,0,1-.33.76l-.41.16L3.66,8.1A.27.27,0,0,0,3.31,8a.28.28,0,0,0-.15.35l.13.3-.51.2-.12-.29a.27.27,0,0,0-.35-.15.28.28,0,0,0-.15.35l.12.3-.43.18a.61.61,0,0,1-.51,0,.64.64,0,0,1-.3-.4Z"/><path class="cls-5" d="M14,9.6a.26.26,0,0,0,.19.08.27.27,0,0,0,.2-.08,2.41,2.41,0,0,0,0-3.41.27.27,0,0,0-.39,0,.28.28,0,0,0,0,.38,1.86,1.86,0,0,1,0,2.65A.28.28,0,0,0,14,9.6Z"/><path class="cls-5" d="M15.87,7.9a3.21,3.21,0,0,1-.94,2.26.28.28,0,0,0,0,.38.27.27,0,0,0,.38,0,3.73,3.73,0,0,0,0-5.29.27.27,0,0,0-.38.38A3.22,3.22,0,0,1,15.87,7.9Z"/><path class="cls-5" d="M15.86,11.08a.27.27,0,0,0,0,.39.26.26,0,0,0,.19.07.28.28,0,0,0,.19-.07,5.05,5.05,0,0,0,0-7.14.27.27,0,1,0-.38.38A4.52,4.52,0,0,1,15.86,11.08Z"/></g></g></svg>