<svg xmlns="http://www.w3.org/2000/svg" viewBox="0 0 15.87 16.02"><defs><style>.cls-1{fill:#383838;}.cls-2{fill:#434343;}.cls-3{fill:#c7eaff;}.cls-4{fill:#fff;}.cls-5{fill:#ffbc53;}</style></defs><title>Asset 21</title><g id="Layer_2" data-name="Layer 2"><g id="Layer_1-2" data-name="Layer 1"><path class="cls-1" d="M7.93,15.89H.5a.38.38,0,0,1-.37-.37V6.85A.37.37,0,0,1,.5,6.48H7.93Z"/><path class="cls-1" d="M15.37,15.89H7.93V6.48h7.44a.36.36,0,0,1,.36.37v8.67A.37.37,0,0,1,15.37,15.89Z"/><path class="cls-2" d="M7.93,16H.5a.5.5,0,0,1-.5-.5V6.85a.5.5,0,0,1,.5-.5H7.93a.13.13,0,0,1,.13.13v9.41A.13.13,0,0,1,7.93,16ZM.5,6.61a.23.23,0,0,0-.23.24v8.67a.23.23,0,0,0,.23.23H7.8V6.61Z"/><path class="cls-2" d="M15.37,16H7.93a.13.13,0,0,1-.13-.13V6.48a.13.13,0,0,1,.13-.13h7.44a.5.5,0,0,1,.5.5v8.67A.51.51,0,0,1,15.37,16Zm-7.3-.27h7.3a.23.23,0,0,0,.23-.23V6.85a.23.23,0,0,0-.23-.24H8.07Z"/><path class="cls-3" d="M.93,14.51s7.18-2.84,7,.72h-7Z"/><path class="cls-3" d="M7.93,7.08V7h0c-.42-2.89-7-.3-7-.3v7.83s6.73-2.66,7,.4V7.4h0A1.71,1.71,0,0,0,7.93,7.08Z"/><path class="cls-3" d="M15,14.51v.72h-7C7.77,11.67,15,14.51,15,14.51Z"/><path class="cls-3" d="M8,7.08V7H8c.42-2.89,7-.3,7-.3v7.83s-6.73-2.66-7,.4V7.4h0A1.69,1.69,0,0,1,8,7.08Z"/><path class="cls-1" d="M7.93,15.36h-7a.13.13,0,0,1-.14-.13v-.72a.14.14,0,0,1,.09-.13c.19-.07,4.83-1.88,6.55-.65a1.66,1.66,0,0,1,.64,1.5A.14.14,0,0,1,7.93,15.36ZM1.06,15.1H7.8A1.29,1.29,0,0,0,7.27,14c-1.48-1.07-5.57.41-6.21.65Z"/><path class="cls-1" d="M7.93,15a.12.12,0,0,1-.13-.12,1.23,1.23,0,0,0-.61-1c-1.68-1-6.17.71-6.21.73a.15.15,0,0,1-.13,0,.17.17,0,0,1-.06-.11V6.68a.13.13,0,0,1,.09-.12c.19-.08,4.59-1.8,6.41-.74A1.52,1.52,0,0,1,8,6.9a.19.19,0,0,1,0,.08v.1c0,.1,0,.21,0,.33s0,0,0,0v7.47a.13.13,0,0,1-.13.13ZM1.06,6.77v7.54c.88-.33,4.66-1.63,6.27-.64a1.52,1.52,0,0,1,.47.44V7.36a2.43,2.43,0,0,0,0-.27h0V7l0,0a1.22,1.22,0,0,0-.62-.94C5.58,5.13,1.68,6.54,1.06,6.77Zm6.87.63Z"/><path class="cls-1" d="M15,15.36h-7a.13.13,0,0,1-.13-.13,1.65,1.65,0,0,1,.63-1.5c1.73-1.23,6.36.58,6.56.65a.13.13,0,0,1,.08.13v.72A.13.13,0,0,1,15,15.36ZM8.07,15.1h6.74v-.5c-.63-.24-4.72-1.72-6.21-.65A1.32,1.32,0,0,0,8.07,15.1Z"/><path class="cls-1" d="M8,15h0a.13.13,0,0,1-.13-.13V7.41a1.82,1.82,0,0,1,0-.33V7a.11.11,0,0,1,0-.08,1.48,1.48,0,0,1,.74-1.08c1.82-1.06,6.23.66,6.42.74a.12.12,0,0,1,.08.12v7.83a.14.14,0,0,1-.06.11.13.13,0,0,1-.12,0c-.05,0-4.54-1.77-6.22-.73a1.25,1.25,0,0,0-.6,1A.14.14,0,0,1,8,15Zm2.24-1.74a15.33,15.33,0,0,1,4.62,1V6.77c-.62-.23-4.52-1.64-6.09-.72A1.23,1.23,0,0,0,8.09,7s0,0,0,0v0h0a2.44,2.44,0,0,0,0,.27.06.06,0,0,1,0,0v6.71a1.49,1.49,0,0,1,.46-.44A3.13,3.13,0,0,1,10.19,13.3ZM8,7.08Z"/><path class="cls-4" d="M1.91,8.45a.23.23,0,0,1-.22-.15A.24.24,0,0,1,1.83,8c1.71-.58,4-1.14,5.33-.51a.23.23,0,0,1,.11.31A.22.22,0,0,1,7,7.91c-1.24-.6-3.65.07-5,.53Z"/><path class="cls-4" d="M1.91,9.83a.23.23,0,0,1-.08-.44c1.71-.59,4-1.15,5.33-.51a.22.22,0,0,1,.11.31.23.23,0,0,1-.31.1c-1.24-.59-3.65.08-5,.53Z"/><path class="cls-4" d="M1.91,11.22a.23.23,0,0,1-.08-.45c1.71-.58,4-1.15,5.33-.51a.23.23,0,0,1,.11.31.24.24,0,0,1-.31.11c-1.24-.6-3.65.07-5,.53Z"/><path class="cls-4" d="M1.91,12.6a.23.23,0,0,1-.22-.15.24.24,0,0,1,.14-.3c1.71-.58,4-1.14,5.33-.51a.23.23,0,0,1,.11.31.22.22,0,0,1-.31.11c-1.24-.6-3.65.08-5,.53Z"/><path class="cls-4" d="M14,8.45H13.9c-1.33-.46-3.74-1.13-5-.53a.24.24,0,0,1-.32-.11.25.25,0,0,1,.11-.31c1.32-.63,3.63-.07,5.33.51a.24.24,0,0,1,.15.3A.25.25,0,0,1,14,8.45Z"/><path class="cls-4" d="M14,9.83H13.9c-1.33-.45-3.74-1.12-5-.53a.23.23,0,1,1-.21-.41c1.32-.64,3.63-.08,5.33.51a.23.23,0,0,1,.15.29A.25.25,0,0,1,14,9.83Z"/><path class="cls-4" d="M14,11.22H13.9c-1.33-.46-3.74-1.13-5-.53a.26.26,0,0,1-.32-.11.25.25,0,0,1,.11-.31c1.32-.64,3.63-.07,5.33.51a.23.23,0,0,1,.15.29A.25.25,0,0,1,14,11.22Z"/><path class="cls-4" d="M14,12.6H13.9c-1.33-.46-3.74-1.13-5-.53A.24.24,0,0,1,8.61,12a.25.25,0,0,1,.11-.31c1.32-.63,3.63-.07,5.33.51a.24.24,0,0,1,.15.3A.25.25,0,0,1,14,12.6Z"/><path class="cls-5" d="M9.76,6.85a2.45,2.45,0,0,0,.65-1.68,2.48,2.48,0,0,0-5,0A2.45,2.45,0,0,0,6.1,6.85h0a2.76,2.76,0,0,1,.66,1.8v.12H9.11V8.65a2.76,2.76,0,0,1,.66-1.8Z"/><path class="cls-4" d="M8.67,6.41a.74.74,0,0,0-.74-.74.74.74,0,0,0-.19,1.46V8.94h.37V7.13A.73.73,0,0,0,8.67,6.41Zm-.74.44a.44.44,0,0,1-.44-.44A.44.44,0,0,1,7.93,6a.43.43,0,0,1,.43.43A.44.44,0,0,1,7.93,6.85Z"/><path class="cls-5" d="M9.71,2.59h0a.36.36,0,0,0,.52,0l.8-.8a.36.36,0,0,0,0-.51h0a.36.36,0,0,0-.52,0l-.8.8A.36.36,0,0,0,9.71,2.59Z"/><path class="cls-5" d="M7.88,1.87h0A.38.38,0,0,1,7.5,1.5V.37A.37.37,0,0,1,7.87,0h0a.37.37,0,0,1,.37.37V1.5A.38.38,0,0,1,7.88,1.87Z"/><path class="cls-5" d="M6.07,2.59h0a.36.36,0,0,1-.52,0l-.8-.8a.36.36,0,0,1,0-.51h0a.36.36,0,0,1,.52,0l.8.8A.36.36,0,0,1,6.07,2.59Z"/><path class="cls-5" d="M10.54,3.67h0a.38.38,0,0,1,.37-.37H12a.38.38,0,0,1,.37.37h0A.38.38,0,0,1,12,4H10.91A.38.38,0,0,1,10.54,3.67Z"/><path class="cls-5" d="M3.34,3.67h0a.38.38,0,0,1,.37-.37H4.84a.37.37,0,0,1,.36.37h0A.37.37,0,0,1,4.84,4H3.71A.38.38,0,0,1,3.34,3.67Z"/><path class="cls-3" d="M9.16,9.52H6.7a.14.14,0,0,1-.14-.14V8.91a.14.14,0,0,1,.14-.14H9.16a.14.14,0,0,1,.14.14v.47A.14.14,0,0,1,9.16,9.52Z"/><path class="cls-3" d="M9,10.26H7a.21.21,0,0,1-.22-.21V9.52H9.17v.53A.21.21,0,0,1,9,10.26Z"/><path class="cls-3" d="M8.18,11.26h-.5a.75.75,0,0,1-.74-.75v-.25h2v.25A.75.75,0,0,1,8.18,11.26Z"/><path class="cls-1" d="M9.11,8.9H6.75a.13.13,0,0,1-.1,0,.1.1,0,0,1,0-.09V8.65A2.64,2.64,0,0,0,6,6.93l0,0a2.62,2.62,0,1,1,3.92,0l0,0a2.7,2.7,0,0,0-.63,1.72.49.49,0,0,0,0,.12.15.15,0,0,1,0,.09A.13.13,0,0,1,9.11,8.9ZM6.88,8.64H9a3,3,0,0,1,.66-1.85l0,0a2.35,2.35,0,1,0-3.46,0l0,0A2.91,2.91,0,0,1,6.88,8.64Z"/><path class="cls-1" d="M9.16,9.65H6.7a.27.27,0,0,1-.27-.27V8.91a.27.27,0,0,1,.27-.27H9.16a.27.27,0,0,1,.27.27v.47A.27.27,0,0,1,9.16,9.65ZM6.7,8.9v.48H9.16V8.91Z"/><path class="cls-1" d="M9,10.39H7a.34.34,0,0,1-.35-.34V9.52a.13.13,0,0,1,.13-.14H9.17a.13.13,0,0,1,.13.14v.53A.34.34,0,0,1,9,10.39ZM6.88,9.65v.4a.09.09,0,0,0,.09.08H9A.09.09,0,0,0,9,10.05v-.4Z"/><path class="cls-1" d="M8.18,11.39h-.5a.89.89,0,0,1-.88-.88v-.25a.13.13,0,0,1,.14-.13h2a.13.13,0,0,1,.14.13v.25A.89.89,0,0,1,8.18,11.39Zm-1.11-1v.12a.61.61,0,0,0,.61.61h.5a.61.61,0,0,0,.61-.61v-.12Z"/></g></g></svg>