<svg xmlns="http://www.w3.org/2000/svg" viewBox="0 0 18.55 18.55"><defs><style>.cls-1{fill:#e2e2e2;}.cls-2{fill:#383838;}.cls-3{fill:#c5c5c5;}</style></defs><title>Asset 19</title><g id="Layer_2" data-name="Layer 2"><g id="Layer_1-2" data-name="Layer 1"><path class="cls-1" d="M10.36,6.66H2.54A2.19,2.19,0,0,0,.36,8.84v5.58a2.18,2.18,0,0,0,2.18,2.17H4.86l1.59,1.59V16.59h3.91a2.17,2.17,0,0,0,2.17-2.17V8.84A2.18,2.18,0,0,0,10.36,6.66Z"/><path class="cls-2" d="M6.45,18.55a.36.36,0,0,1-.26-.11L4.7,17H2.54A2.54,2.54,0,0,1,0,14.42V8.84A2.54,2.54,0,0,1,2.54,6.3H6.19a.37.37,0,0,1,.37.36A.38.38,0,0,1,6.19,7H2.54A1.82,1.82,0,0,0,.72,8.84v5.58a1.82,1.82,0,0,0,1.82,1.81H4.89a.36.36,0,0,1,.33.21l.87.87v-.72a.36.36,0,0,1,.36-.36h3.91a1.82,1.82,0,0,0,1.81-1.81v-2.5a.36.36,0,1,1,.72,0v2.5A2.53,2.53,0,0,1,10.36,17H6.81v1.23a.38.38,0,0,1-.22.34Z"/><path class="cls-3" d="M13.28.36h-.92a4.91,4.91,0,0,0-4.9,4.9h0a4.91,4.91,0,0,0,4.9,4.91h.92A4.87,4.87,0,0,0,14.72,10l1.51,1.51V9.18a4.9,4.9,0,0,0,1.95-3.92h0A4.9,4.9,0,0,0,13.28.36Z"/><path class="cls-2" d="M16.23,11.82a.36.36,0,0,1-.26-.11l-1.35-1.35a5.53,5.53,0,0,1-1.34.17h-.92A5.27,5.27,0,0,1,12.36,0h.92a5.27,5.27,0,0,1,5.27,5.26,5.32,5.32,0,0,1-2,4.1v2.1a.37.37,0,0,1-.22.33ZM14.72,9.59A.36.36,0,0,1,15,9.7l.88.88V9.18A.38.38,0,0,1,16,8.89a4.5,4.5,0,0,0,1.81-3.63A4.55,4.55,0,0,0,13.28.72h-.92a4.54,4.54,0,1,0,0,9.08h.92a4.67,4.67,0,0,0,1.34-.19A.18.18,0,0,1,14.72,9.59Z"/><path class="cls-2" d="M12.92,6.77a.37.37,0,0,1-.36-.37V5.53a.68.68,0,0,1,.54-.67A.81.81,0,0,0,13.73,4,.81.81,0,0,0,13,3.26a.85.85,0,0,0-.61.22.81.81,0,0,0-.26.59.36.36,0,0,1-.72,0A1.55,1.55,0,0,1,11.88,3,1.52,1.52,0,0,1,13,2.54,1.54,1.54,0,0,1,14.45,4a1.51,1.51,0,0,1-1.16,1.6V6.4A.38.38,0,0,1,12.92,6.77Z"/><path class="cls-2" d="M12.92,8.2a.34.34,0,0,1-.25-.11.36.36,0,0,1-.11-.25.36.36,0,0,1,.11-.26.34.34,0,0,1,.25-.11.38.38,0,0,1,.37.37.36.36,0,0,1-.11.25A.36.36,0,0,1,12.92,8.2Z"/><path class="cls-2" d="M10,12H2.32a.36.36,0,1,1,0-.72H10A.36.36,0,0,1,10,12Z"/><path class="cls-2" d="M10,14a.34.34,0,0,1-.36-.36.4.4,0,0,1,.1-.26.42.42,0,0,1,.26-.1.34.34,0,0,1,.36.36.42.42,0,0,1-.1.26A.4.4,0,0,1,10,14Z"/><path class="cls-2" d="M8.54,14H2.32a.36.36,0,0,1,0-.72H8.54a.36.36,0,1,1,0,.72Z"/><path class="cls-2" d="M7.61,9.92H2.32a.36.36,0,0,1,0-.72H7.61a.36.36,0,0,1,0,.72Z"/></g></g></svg>