<svg xmlns="http://www.w3.org/2000/svg" viewBox="0 0 126.79 58"><defs><style>.cls-1{fill:#ff4a00;}</style></defs><title>Asset 10</title><g id="Layer_2" data-name="Layer 2"><g id="Layer_1-2" data-name="Layer 1"><path class="cls-1" d="M76.08,25.18H72.92a6.58,6.58,0,0,1-.14-.9,9.46,9.46,0,0,1,0-2,6.58,6.58,0,0,1,.14-.9H80.8V46.33a11.72,11.72,0,0,1-1.19.15c-.4,0-.8,0-1.19.05s-.76,0-1.14-.05-.8-.08-1.2-.15V25.18Zm27.42,6.28a9.35,9.35,0,0,0-.36-2.61,6.62,6.62,0,0,0-1.07-2.16,5.23,5.23,0,0,0-1.8-1.48,6.53,6.53,0,0,0-7.15,1.24,8.86,8.86,0,0,0-1.92,5ZM91.15,35.05c.07,2.73.77,4.72,2.12,6s3.33,1.9,6,1.9a17.9,17.9,0,0,0,6.56-1.22,7.23,7.23,0,0,1,.63,1.78,11.11,11.11,0,0,1,.29,2.06,16.07,16.07,0,0,1-3.52,1,25.19,25.19,0,0,1-4.26.34,16.07,16.07,0,0,1-5.83-1,10.6,10.6,0,0,1-4-2.68,10.43,10.43,0,0,1-2.31-4.08A17.34,17.34,0,0,1,86.05,34a18.37,18.37,0,0,1,.7-5.18,11.8,11.8,0,0,1,2.17-4.18,10.45,10.45,0,0,1,3.67-2.82,12.18,12.18,0,0,1,5.22-1,11,11,0,0,1,4.53.87,9.27,9.27,0,0,1,3.25,2.41,10.49,10.49,0,0,1,2,3.65,15,15,0,0,1,.68,4.59c0,.45,0,.93,0,1.43s-.06.86-.1,1.29Zm22.42-13.66c.34-.06.68-.11,1-.14a8.3,8.3,0,0,1,1-.05,9.58,9.58,0,0,1,1.07.05,8.05,8.05,0,0,1,1,.14c.1.49.2,1.13.29,1.92a16.7,16.7,0,0,1,.15,2,10.06,10.06,0,0,1,2.7-2.87,7.15,7.15,0,0,1,4.3-1.21c.26,0,.53,0,.8,0s.47,0,.71.07a9.77,9.77,0,0,1,.19,1.95,10.17,10.17,0,0,1-.07,1.21c0,.41-.1.81-.17,1.22a3.08,3.08,0,0,0-.8-.1h-.66a8.54,8.54,0,0,0-2.5.36,5.33,5.33,0,0,0-2.14,1.29,6.43,6.43,0,0,0-1.51,2.53,12.86,12.86,0,0,0-.56,4.13v12.4a11.72,11.72,0,0,1-1.19.15c-.44,0-.83.05-1.19.05s-.8,0-1.19-.05-.83-.08-1.24-.15V21.39ZM79.45,8.07a5,5,0,0,1-.31,1.71,5,5,0,0,1-1.71.31h0a5,5,0,0,1-1.71-.31,5,5,0,0,1-.31-1.71h0a4.85,4.85,0,0,1,.31-1.71,5,5,0,0,1,1.71-.31h0a4.85,4.85,0,0,1,1.71.31,5,5,0,0,1,.31,1.71Zm5.94-1.34H80.68L84,3.39a8.56,8.56,0,0,0-1.9-1.9L78.78,4.82V.11A8.78,8.78,0,0,0,77.43,0h0a8.36,8.36,0,0,0-1.34.11V4.82L72.75,1.49a8.47,8.47,0,0,0-1,.87h0a8.47,8.47,0,0,0-.87,1l3.33,3.34H69.47s-.11.88-.11,1.34h0a8.58,8.58,0,0,0,.11,1.35h4.71l-3.33,3.33a8.56,8.56,0,0,0,1.9,1.9l3.34-3.33V16a8.33,8.33,0,0,0,1.33.11h0A8.52,8.52,0,0,0,78.77,16V11.32l3.34,3.33a8.47,8.47,0,0,0,1-.87h0a8.47,8.47,0,0,0,.87-1L80.68,9.42h4.71a8.55,8.55,0,0,0,.11-1.34v0a8.52,8.52,0,0,0-.11-1.33ZM0,45.65,13.13,25.23H1.56a11.5,11.5,0,0,1-.15-1.94,11.26,11.26,0,0,1,.15-1.9H20.27l.25.63L7.29,42.49h12.4a13,13,0,0,1,.15,2,10.92,10.92,0,0,1-.15,1.85H.24L0,45.65Zm37.87-11c-.48-.07-1.1-.13-1.85-.2s-1.37-.1-1.89-.1a7.93,7.93,0,0,0-4.59,1.12A3.88,3.88,0,0,0,28,38.85a4.14,4.14,0,0,0,.53,2.28,3.66,3.66,0,0,0,1.34,1.26,4.52,4.52,0,0,0,1.77.54c.65.06,1.26.1,1.85.1a20.64,20.64,0,0,0,2.31-.13,14,14,0,0,0,2.11-.36V34.62Zm0-4.72c0-1.91-.48-3.24-1.46-4a6.88,6.88,0,0,0-4.23-1.12,17.78,17.78,0,0,0-3.18.27,23.89,23.89,0,0,0-2.89.71,7.53,7.53,0,0,1-.93-3.84,21.56,21.56,0,0,1,3.65-.83,25.78,25.78,0,0,1,3.84-.29q4.86,0,7.39,2.21c1.68,1.48,2.53,3.83,2.53,7.07V45.7c-1.14.26-2.51.53-4.14.8a29.27,29.27,0,0,1-5,.42,19.57,19.57,0,0,1-4.31-.44,8.69,8.69,0,0,1-3.25-1.41,6.55,6.55,0,0,1-2.07-2.48,8.28,8.28,0,0,1-.73-3.65,7.41,7.41,0,0,1,3.16-6.29,10.18,10.18,0,0,1,3.36-1.56,15.23,15.23,0,0,1,4-.51c1,0,1.89,0,2.55.07s1.23.11,1.68.17V29.9ZM52.65,42.25a9.45,9.45,0,0,0,1.9.48,17.22,17.22,0,0,0,2.53.15,8.92,8.92,0,0,0,3.2-.56,6.41,6.41,0,0,0,2.51-1.72,8.63,8.63,0,0,0,1.65-3,12.83,12.83,0,0,0,.61-4.2,11.54,11.54,0,0,0-1.44-6.18A5.11,5.11,0,0,0,58.92,25a6.35,6.35,0,0,0-2.33.44,5.7,5.7,0,0,0-2,1.31A6.27,6.27,0,0,0,53.19,29a8.48,8.48,0,0,0-.54,3.19V42.25ZM47.84,21.39c.33-.06.66-.11,1-.14a10.74,10.74,0,0,1,2.07,0,10,10,0,0,1,1,.14A3.56,3.56,0,0,1,52,22c.05.34.1.7.15,1.09s.1.77.14,1.12.08.59.08.68a9.44,9.44,0,0,1,1.16-1.5,8,8,0,0,1,1.63-1.32,8.8,8.8,0,0,1,2.14-.92A9.56,9.56,0,0,1,60,20.81a11,11,0,0,1,4.06.73,8,8,0,0,1,3.21,2.26,10.85,10.85,0,0,1,2.09,3.89,18.42,18.42,0,0,1,.75,5.56q0,6.42-3.47,10t-9.85,3.63a16.57,16.57,0,0,1-2.19-.15,13.52,13.52,0,0,1-1.94-.39V57.81c-.41.06-.82.11-1.24.14s-.83,0-1.19,0-.8,0-1.19,0-.8-.08-1.19-.14V21.39Z"/></g></g></svg>