<?xml version="1.0" encoding="utf-8"?>
<!-- Generator: Adobe Illustrator 18.0.0, SVG Export Plug-In . SVG Version: 6.00 Build 0)  -->
<!DOCTYPE svg PUBLIC "-//W3C//DTD SVG 1.1//EN" "http://www.w3.org/Graphics/SVG/1.1/DTD/svg11.dtd">
<svg version="1.1" id="Layer_1" xmlns="http://www.w3.org/2000/svg" xmlns:xlink="http://www.w3.org/1999/xlink" x="0px" y="0px"
	 width="19.3px" height="15.4px" viewBox="0 0 19.3 15.4" enable-background="new 0 0 19.3 15.4" xml:space="preserve">
<g>
	<g>
		<path fill="#3FA9F5" d="M19.3,8.6l-2.9-7.8c-0.1-0.3-0.3-0.5-0.6-0.6c-0.3-0.1-0.6-0.1-0.9,0L0.7,5.3C0.5,5.4,0.2,5.6,0.1,5.9
			C0,6.2,0,6.5,0.1,6.8L3,14.6c0.1,0.3,0.3,0.5,0.6,0.6c0.2,0.1,0.3,0.1,0.5,0.1c0.1,0,0.3,0,0.4-0.1l14.2-5.2h0
			C19.2,9.8,19.5,9.2,19.3,8.6z M14.1,1.6L9.7,7.8L2.3,5.9L14.1,1.6z M3.8,13.7L1.3,6.9l5.8,1.5L3.8,13.7z M5.1,13.8l3.2-5.2L9.8,9
			c0,0,0.1,0,0.1,0c0.2,0,0.4-0.1,0.5-0.2l0.9-1.3l5.8,1.8L5.1,13.8z M12,6.6l3.5-4.9L18,8.4L12,6.6z"/>
	</g>
</g>
</svg>
