<?xml version="1.0" encoding="utf-8"?>
<!-- Generator: Adobe Illustrator 18.0.0, SVG Export Plug-In . SVG Version: 6.00 Build 0)  -->
<!DOCTYPE svg PUBLIC "-//W3C//DTD SVG 1.1//EN" "http://www.w3.org/Graphics/SVG/1.1/DTD/svg11.dtd">
<svg version="1.1" id="Layer_1" xmlns="http://www.w3.org/2000/svg" xmlns:xlink="http://www.w3.org/1999/xlink" x="0px" y="0px"
	 width="13.6px" height="13px" viewBox="0 0 13.6 13" enable-background="new 0 0 13.6 13" xml:space="preserve">
<g>
	<g>
		<g>
			<defs>
				<path id="SVGID_1_" d="M11.1,12.5c0.1,0.4-0.2,0.6-0.6,0.4l-3.1-1.5c-0.4-0.2-1-0.2-1.3,0L3,12.9c-0.4,0.2-0.6,0-0.6-0.4L3,9.1
					c0.1-0.4-0.1-1-0.4-1.3L0.2,5.3C-0.1,5,0,4.7,0.4,4.7l3.4-0.6C4.2,4,4.7,3.7,4.9,3.3l1.6-3c0.2-0.4,0.5-0.4,0.7,0l1.6,3.1
					c0.2,0.4,0.7,0.7,1.1,0.8l3.4,0.6c0.4,0.1,0.5,0.4,0.2,0.7L11,7.8c-0.3,0.3-0.5,0.9-0.4,1.3L11.1,12.5z"/>
			</defs>
			<clipPath id="SVGID_2_">
				<use xlink:href="#SVGID_1_"  overflow="visible"/>
			</clipPath>
			<rect x="-0.1" y="-0.1" clip-path="url(#SVGID_2_)" fill="#FF953A" width="13.9" height="13.2"/>
			<path clip-path="url(#SVGID_2_)" fill="#FF953A" d="M14.7,13.2v1H-1.1v-11h-6.6c2.6-2.6,6.1-4.2,10.1-4.2
				c7.9,0,14.2,6.4,14.2,14.2H14.7z"/>
			<path clip-path="url(#SVGID_2_)" fill="#FF9638" d="M14.7,13.2v1H-1.1V3.2h-6.5c2.5-2.5,6.1-4.1,10-4.1c7.8,0,14.1,6.3,14.1,14.1
				H14.7z"/>
			<path clip-path="url(#SVGID_2_)" fill="#FF9737" d="M14.7,13.2v1H-1.1V3.3h-6.4c2.5-2.5,6-4.1,9.8-4.1c7.7,0,13.9,6.2,13.9,13.9
				H14.7z"/>
			<path clip-path="url(#SVGID_2_)" fill="#FF9935" d="M14.7,13.2v1H-1.1V3.4h-6.3c2.5-2.5,5.9-4,9.7-4c7.6,0,13.8,6.2,13.8,13.8
				H14.7z"/>
			<path clip-path="url(#SVGID_2_)" fill="#FF9A34" d="M14.7,13.2v1H-1.1V3.5h-6.2c2.5-2.5,5.9-4,9.6-4c7.5,0,13.6,6.1,13.6,13.6
				H14.7z"/>
			<path clip-path="url(#SVGID_2_)" fill="#FF9B32" d="M15.8,13.2c0,1.9-0.4,3.6-1.1,5.2v-4.3H-1.1V3.6h-6.1
				c2.4-2.4,5.8-3.9,9.5-3.9C9.7-0.3,15.8,5.7,15.8,13.2z"/>
			<path clip-path="url(#SVGID_2_)" fill="#FF9C31" d="M15.6,13.2c0,1.8-0.4,3.6-1,5.2v-4.2H-1.1V3.8h-6c2.4-2.4,5.7-3.9,9.4-3.9
				C9.7-0.1,15.6,5.8,15.6,13.2z"/>
			<path clip-path="url(#SVGID_2_)" fill="#FF9D30" d="M15.4,13.2c0,1.8-0.4,3.5-1,5.1v-4.2H-1.1V3.9H-7C-4.6,1.5-1.3,0,2.3,0
				C9.6,0,15.4,5.9,15.4,13.2z"/>
			<path clip-path="url(#SVGID_2_)" fill="#FF9E2E" d="M15.3,13.2c0,1.8-0.4,3.5-1,5.1v-4.1H-1.1V4h-5.7c2.3-2.3,5.6-3.8,9.2-3.8
				C9.5,0.2,15.3,6,15.3,13.2z"/>
			<path clip-path="url(#SVGID_2_)" fill="#FF9F2D" d="M15.1,13.2c0,1.8-0.4,3.5-1,5v-4H-1.1v-10h-5.6c2.3-2.3,5.5-3.8,9.1-3.8
				C9.4,0.3,15.1,6.1,15.1,13.2z"/>
			<path clip-path="url(#SVGID_2_)" fill="#FFA02B" d="M15,13.2c0,1.7-0.4,3.4-1,4.9v-4H-1.1V4.2h-5.5c2.3-2.3,5.5-3.7,9-3.7
				C9.3,0.5,15,6.2,15,13.2z"/>
			<path clip-path="url(#SVGID_2_)" fill="#FFA12A" d="M14.8,13.2c0,1.7-0.3,3.4-1,4.9v-3.9h-15V4.3h-5.4c2.3-2.3,5.4-3.7,8.8-3.7
				C9.2,0.7,14.8,6.3,14.8,13.2z"/>
			<path clip-path="url(#SVGID_2_)" fill="#FFA329" d="M14.7,13.2c0,1.7-0.3,3.3-1,4.8v-3.9H-1.1V4.4h-5.3c2.2-2.2,5.3-3.6,8.7-3.6
				C9.1,0.8,14.7,6.3,14.7,13.2z"/>
			<path clip-path="url(#SVGID_2_)" fill="#FFA427" d="M14.5,13.2c0,1.7-0.3,3.3-1,4.7v-3.8H-1.1V4.5h-5.2C-4.1,2.3-1.1,1,2.3,1
				C9,1,14.5,6.4,14.5,13.2z"/>
			<path clip-path="url(#SVGID_2_)" fill="#FFA526" d="M14.3,13.2c0,1.7-0.3,3.2-0.9,4.7v-3.7H-1.1V4.7h-5.1C-4,2.5-1,1.1,2.3,1.1
				C9,1.1,14.3,6.5,14.3,13.2z"/>
			<path clip-path="url(#SVGID_2_)" fill="#FFA624" d="M14.2,13.2c0,1.6-0.3,3.2-0.9,4.6v-3.7H-1.1V4.8h-5C-3.9,2.6-1,1.3,2.3,1.3
				C8.9,1.3,14.2,6.6,14.2,13.2z"/>
			<path clip-path="url(#SVGID_2_)" fill="#FFA723" d="M14,13.2c0,1.6-0.3,3.2-0.9,4.6v-3.6H-1.1V4.9H-6c2.1-2.1,5-3.4,8.3-3.4
				C8.8,1.5,14,6.7,14,13.2z"/>
			<path clip-path="url(#SVGID_2_)" fill="#FFA822" d="M13.9,13.2c0,1.6-0.3,3.1-0.9,4.5v-3.5H-1.1V5h-4.7c2.1-2.1,5-3.4,8.2-3.4
				C8.7,1.6,13.9,6.8,13.9,13.2z"/>
			<path clip-path="url(#SVGID_2_)" fill="#FFA921" d="M13.7,13.2c0,1.6-0.3,3.1-0.9,4.4v-3.5H-1.1v-9h-4.6C-3.7,3-0.8,1.8,2.3,1.8
				C8.6,1.8,13.7,6.9,13.7,13.2z"/>
			<path clip-path="url(#SVGID_2_)" fill="#FFAA1F" d="M13.5,13.2c0,3.1-1.3,5.9-3.3,7.9v-7H-1.1V5.2h-4.5c2-2,4.8-3.3,7.9-3.3
				C8.5,1.9,13.5,7,13.5,13.2z"/>
			<path clip-path="url(#SVGID_2_)" fill="#FFAB1E" d="M13.4,13.2c0,3.1-1.2,5.8-3.2,7.8v-6.9H-1.1V5.3h-4.4c2-2,4.8-3.2,7.8-3.2
				C8.4,2.1,13.4,7,13.4,13.2z"/>
			<path clip-path="url(#SVGID_2_)" fill="#FFAC1D" d="M13.2,13.2c0,3-1.2,5.7-3.2,7.7v-6.8H-1.1V5.4h-4.3c2-2,4.7-3.2,7.7-3.2
				C8.3,2.2,13.2,7.1,13.2,13.2z"/>
			<path clip-path="url(#SVGID_2_)" fill="#FFAD1C" d="M13.1,13.2c0,3-1.2,5.7-3.2,7.6v-6.7h-11V5.6h-4.2c1.9-1.9,4.6-3.2,7.6-3.2
				C8.3,2.4,13.1,7.2,13.1,13.2z"/>
			<path clip-path="url(#SVGID_2_)" fill="#FFAD1A" d="M12.9,13.2c0,2.9-1.2,5.6-3.1,7.5v-6.5H-1.1V5.7h-4.1
				c1.9-1.9,4.6-3.1,7.5-3.1C8.2,2.6,12.9,7.3,12.9,13.2z"/>
			<path clip-path="url(#SVGID_2_)" fill="#FFAE19" d="M12.8,13.2c0,2.9-1.2,5.5-3.1,7.4v-6.4H-1.1V5.8h-4c1.9-1.9,4.5-3.1,7.4-3.1
				C8.1,2.7,12.8,7.4,12.8,13.2z"/>
			<path clip-path="url(#SVGID_2_)" fill="#FFAF18" d="M12.6,13.2c0,2.8-1.2,5.4-3,7.3v-6.3H-1.1v-1H-8C-8,7.5-3.4,2.9,2.3,2.9
				S12.6,7.5,12.6,13.2z"/>
			<path clip-path="url(#SVGID_2_)" fill="#FFB017" d="M12.4,13.2c0,2.8-1.1,5.3-3,7.2v-6.2H-1.1v-1h-6.7C-7.8,7.6-3.3,3,2.3,3
				S12.4,7.6,12.4,13.2z"/>
			<path clip-path="url(#SVGID_2_)" fill="#FFB116" d="M12.3,13.2c0,2.8-1.1,5.2-2.9,7v-6.1H-1.1v-1h-6.5c0-5.5,4.5-10,10-10
				S12.3,7.7,12.3,13.2z"/>
			<path clip-path="url(#SVGID_2_)" fill="#FFB215" d="M12.1,13.2c0,2.7-1.1,5.2-2.9,6.9v-6H-1.1v-1h-6.4c0-5.4,4.4-9.8,9.8-9.8
				S12.1,7.7,12.1,13.2z"/>
			<path clip-path="url(#SVGID_2_)" fill="#FFB314" d="M12,13.2c0,2.7-1.1,5.1-2.8,6.8v-5.9H-1.1v-1h-6.2c0-5.3,4.3-9.6,9.6-9.6
				S12,7.8,12,13.2z"/>
			<path clip-path="url(#SVGID_2_)" fill="#FFB413" d="M11.8,13.2c0,2.6-1.1,5-2.8,6.7v-5.8H-1.1v-1h-6.1c0-5.2,4.2-9.5,9.5-9.5
				S11.8,7.9,11.8,13.2z"/>
			<path clip-path="url(#SVGID_2_)" fill="#FFB412" d="M11.6,13.2c0,2.6-1,4.9-2.7,6.6v-5.6h-10v-1H-7C-7,8-2.8,3.8,2.3,3.8
				S11.6,8,11.6,13.2z"/>
			<path clip-path="url(#SVGID_2_)" fill="#FFB511" d="M11.5,13.2c0,2.5-1,4.8-2.7,6.5v-5.5h-9.9v-1h-5.7C-6.9,8.1-2.8,4,2.3,4
				S11.5,8.1,11.5,13.2z"/>
			<path clip-path="url(#SVGID_2_)" fill="#FFB610" d="M11.3,13.2c0,2.5-1,4.7-2.6,6.4v-5.4h-9.8v-1h-5.6c0-5,4-9,9-9
				S11.3,8.2,11.3,13.2z"/>
			<path clip-path="url(#SVGID_2_)" fill="#FFB70F" d="M11.2,13.2c0,2.4-1,4.7-2.6,6.3v-5.3h-9.7v-1h-5.4c0-4.9,4-8.9,8.9-8.9
				S11.2,8.3,11.2,13.2z"/>
			<path clip-path="url(#SVGID_2_)" fill="#FFB70E" d="M11,13.2c0,2.4-1,4.6-2.5,6.2v-5.2h-9.6v-1h-5.3c0-4.8,3.9-8.7,8.7-8.7
				S11,8.4,11,13.2z"/>
			<path clip-path="url(#SVGID_2_)" fill="#FFB80D" d="M10.9,13.2c0,2.4-1,4.5-2.5,6v-5.1h-9.5v-1h-5.1c0-4.7,3.8-8.5,8.5-8.5
				S10.9,8.4,10.9,13.2z"/>
			<path clip-path="url(#SVGID_2_)" fill="#FFB90C" d="M10.7,13.2c0,2.3-0.9,4.4-2.5,5.9v-5h-9.4v-1h-4.9c0-4.6,3.8-8.4,8.4-8.4
				S10.7,8.5,10.7,13.2z"/>
			<path clip-path="url(#SVGID_2_)" fill="#FFBA0B" d="M10.5,13.2c0,2.3-0.9,4.3-2.4,5.8v-4.9h-9.2v-1h-4.8c0-4.5,3.7-8.2,8.2-8.2
				S10.5,8.6,10.5,13.2z"/>
			<path clip-path="url(#SVGID_2_)" fill="#FFBA0A" d="M10.4,13.2c0,2.2-0.9,4.2-2.4,5.7v-4.7h-9.1v-1h-4.6c0-4.5,3.6-8.1,8.1-8.1
				S10.4,8.7,10.4,13.2z"/>
			<circle clip-path="url(#SVGID_2_)" fill="#FFBB09" cx="2.3" cy="13.2" r="7.9"/>
			<circle clip-path="url(#SVGID_2_)" fill="#FFBB08" cx="2.3" cy="13.2" r="7.7"/>
			<circle clip-path="url(#SVGID_2_)" fill="#FFBC08" cx="2.3" cy="13.2" r="7.6"/>
			<circle clip-path="url(#SVGID_2_)" fill="#FFBD07" cx="2.3" cy="13.2" r="7.4"/>
			<circle clip-path="url(#SVGID_2_)" fill="#FFBD06" cx="2.3" cy="13.2" r="7.3"/>
			<circle clip-path="url(#SVGID_2_)" fill="#FFBE05" cx="2.3" cy="13.2" r="7.1"/>
			<circle clip-path="url(#SVGID_2_)" fill="#FFBE05" cx="2.3" cy="13.2" r="7"/>
			<circle clip-path="url(#SVGID_2_)" fill="#FFBF04" cx="2.3" cy="13.2" r="6.8"/>
			<circle clip-path="url(#SVGID_2_)" fill="#FFBF04" cx="2.3" cy="13.2" r="6.6"/>
			<circle clip-path="url(#SVGID_2_)" fill="#FFC003" cx="2.3" cy="13.2" r="6.5"/>
			<circle clip-path="url(#SVGID_2_)" fill="#FFC002" cx="2.3" cy="13.2" r="6.3"/>
			<circle clip-path="url(#SVGID_2_)" fill="#FFC102" cx="2.3" cy="13.2" r="6.2"/>
			<circle clip-path="url(#SVGID_2_)" fill="#FFC101" cx="2.3" cy="13.2" r="6"/>
			<circle clip-path="url(#SVGID_2_)" fill="#FFC101" cx="2.3" cy="13.2" r="5.8"/>
			<circle clip-path="url(#SVGID_2_)" fill="#FFC101" cx="2.3" cy="13.2" r="5.7"/>
			<circle clip-path="url(#SVGID_2_)" fill="#FFC200" cx="2.3" cy="13.2" r="5.5"/>
			<circle clip-path="url(#SVGID_2_)" fill="#FFC200" cx="2.3" cy="13.2" r="5.4"/>
			<circle clip-path="url(#SVGID_2_)" fill="#FFC200" cx="2.3" cy="13.2" r="5.2"/>
		</g>
	</g>
	<g opacity="0.5">
		<g>
			<defs>
				<path id="SVGID_3_" d="M6.8,0.2C6.9,0.2,7,0.2,7,0.4l1.6,3.1c0.2,0.4,0.7,0.8,1.2,0.9l3.4,0.6c0.1,0,0.2,0.1,0.2,0.1
					c0,0.1,0,0.2-0.1,0.2l-2.4,2.4c-0.3,0.3-0.5,1-0.5,1.4l0.5,3.4c0,0.1,0,0.2,0,0.3c0,0,0,0-0.1,0c-0.1,0-0.1,0-0.2-0.1l-3.1-1.5
					c-0.2-0.1-0.5-0.2-0.8-0.2c-0.3,0-0.5,0.1-0.7,0.2l-3.1,1.5c-0.1,0-0.1,0.1-0.2,0.1c-0.1,0-0.1,0-0.1,0c0,0-0.1-0.1,0-0.3
					l0.5-3.4C3.2,8.6,3,8,2.7,7.7L0.3,5.2C0.2,5.1,0.2,5,0.2,5c0-0.1,0.1-0.1,0.2-0.1l3.4-0.6c0.5-0.1,1-0.5,1.2-0.9l1.6-3
					C6.7,0.2,6.8,0.2,6.8,0.2 M6.8,0C6.7,0,6.6,0.1,6.5,0.3l-1.6,3C4.7,3.7,4.2,4,3.8,4.1L0.4,4.7C0,4.7-0.1,5,0.2,5.3l2.4,2.5
					C2.9,8.1,3,8.7,3,9.1l-0.5,3.4c0,0.3,0.1,0.5,0.3,0.5c0.1,0,0.2,0,0.3-0.1l3.1-1.5c0.2-0.1,0.4-0.1,0.7-0.1c0.2,0,0.5,0,0.7,0.1
					l3.1,1.5c0.1,0,0.2,0.1,0.3,0.1c0.2,0,0.3-0.2,0.3-0.5l-0.5-3.4c-0.1-0.4,0.1-1,0.4-1.3l2.4-2.4c0.3-0.3,0.2-0.6-0.2-0.7
					L9.8,4.1C9.4,4.1,8.9,3.7,8.8,3.3L7.2,0.3C7.1,0.1,7,0,6.8,0L6.8,0z"/>
			</defs>
			<clipPath id="SVGID_4_">
				<use xlink:href="#SVGID_3_"  overflow="visible"/>
			</clipPath>
			<rect x="-0.1" clip-path="url(#SVGID_4_)" fill="#FF953A" width="13.9" height="13"/>
			<path clip-path="url(#SVGID_4_)" fill="#FF953A" d="M14.7,14H1.2h-2.3V-1h2.3v-2.9c5.7,0,10.8,2.3,14.6,6h-1V14z"/>
			<path clip-path="url(#SVGID_4_)" fill="#FF9638" d="M14.7,14H1.2h-2.3V-1h2.3v-2.7c11.2,0,20.4,9.1,20.4,20.4L14.7,14z"/>
			<path clip-path="url(#SVGID_4_)" fill="#FF9737" d="M14.7,14H1.2h-2.3V-1h2.3v-2.4c11.1,0,20.1,9,20.1,20.1L14.7,14z"/>
			<path clip-path="url(#SVGID_4_)" fill="#FF9935" d="M14.7,14H1.2h-2.3V-1h2.3v-2.2c11,0,19.9,8.9,19.9,19.9L14.7,14z"/>
			<path clip-path="url(#SVGID_4_)" fill="#FF9A34" d="M14.7,14H1.2h-2.3V-1h2.3v-2c10.9,0,19.7,8.8,19.7,19.7L14.7,14z"/>
			<path clip-path="url(#SVGID_4_)" fill="#FF9B32" d="M14.7,14H1.2h-2.3V-1h2.3v-1.8c10.7,0,19.5,8.7,19.5,19.5L14.7,14z"/>
			<path clip-path="url(#SVGID_4_)" fill="#FF9C31" d="M14.7,14H1.2h-2.3V-1h2.3v-1.5c10.6,0,19.2,8.6,19.2,19.2L14.7,14z"/>
			<path clip-path="url(#SVGID_4_)" fill="#FF9D30" d="M14.7,14H1.2h-2.3V-0.8h-5c2.3-1,4.8-1.5,7.4-1.5c10.5,0,19,8.5,19,19
				L14.7,14z"/>
			<path clip-path="url(#SVGID_4_)" fill="#FF9E2E" d="M14.7,14H1.2h-2.3V-0.6h-5c2.2-0.9,4.7-1.5,7.3-1.5C11.6-2.1,20,6.3,20,16.7
				L14.7,14z"/>
			<path clip-path="url(#SVGID_4_)" fill="#FF9F2D" d="M14.7,14H1.2h-2.3V-0.4H-6c2.2-0.9,4.7-1.5,7.2-1.5
				c10.2,0,18.5,8.3,18.5,18.5L14.7,14z"/>
			<path clip-path="url(#SVGID_4_)" fill="#FFA02B" d="M14.7,14H1.2h-2.3V-0.2h-4.8c2.2-0.9,4.6-1.4,7.1-1.4
				c10.1,0,18.3,8.2,18.3,18.3L14.7,14z"/>
			<path clip-path="url(#SVGID_4_)" fill="#FFA12A" d="M14.7,14H1.2h-2.3V0h-4.7c2.2-0.9,4.5-1.4,7-1.4c10,0,18.1,8.1,18.1,18.1
				L14.7,14z"/>
			<path clip-path="url(#SVGID_4_)" fill="#FFA329" d="M14.7,14H1.2h-2.3V0.2h-4.6c2.1-0.9,4.5-1.4,6.9-1.4c9.9,0,17.8,8,17.8,17.8
				L14.7,14z"/>
			<path clip-path="url(#SVGID_4_)" fill="#FFA427" d="M14.7,14H1.2h-2.3V0.5h-4.5c2.1-0.9,4.4-1.4,6.9-1.4C11-0.9,18.8,7,18.8,16.7
				L14.7,14z"/>
			<path clip-path="url(#SVGID_4_)" fill="#FFA526" d="M14.7,14H1.2h-2.3V0.7h-4.4c2.1-0.9,4.4-1.4,6.8-1.4
				c9.6,0,17.4,7.8,17.4,17.4L14.7,14z"/>
			<path clip-path="url(#SVGID_4_)" fill="#FFA624" d="M14.7,14H1.2h-2.3V0.9h-4.3C-3.4,0-1.1-0.5,1.2-0.5c9.5,0,17.2,7.7,17.2,17.2
				L14.7,14z"/>
			<path clip-path="url(#SVGID_4_)" fill="#FFA723" d="M14.7,14H1.2h-2.3V1.1h-4.2c2-0.9,4.3-1.3,6.6-1.3c9.4,0,16.9,7.6,16.9,16.9
				L14.7,14z"/>
			<path clip-path="url(#SVGID_4_)" fill="#FFA822" d="M14.7,14H1.2h-2.3V1.3h-4.2C-3.3,0.5-1.1,0,1.2,0c9.2,0,16.7,7.5,16.7,16.7
				L14.7,14z"/>
			<path clip-path="url(#SVGID_4_)" fill="#FFA921" d="M14.7,14H1.2h-2.3V1.5h-4.1c2-0.8,4.1-1.3,6.4-1.3c9.1,0,16.5,7.4,16.5,16.5
				L14.7,14z"/>
			<path clip-path="url(#SVGID_4_)" fill="#FFAA1F" d="M14.7,14H1.2h-2.3V1.7h-4C-3.2,0.9-1,0.4,1.2,0.4c9,0,16.2,7.3,16.2,16.2
				L14.7,14z"/>
			<path clip-path="url(#SVGID_4_)" fill="#FFAB1E" d="M14.7,14H1.2h-2.3V1.9H-5c1.9-0.8,4-1.3,6.2-1.3c8.8,0,16,7.2,16,16L14.7,14z
				"/>
			<path clip-path="url(#SVGID_4_)" fill="#FFAC1D" d="M14.7,14H1.2h-2.3V2.1h-3.8C-3,1.3-1,0.9,1.2,0.9C9.9,0.9,17,8,17,16.7
				L14.7,14z"/>
			<path clip-path="url(#SVGID_4_)" fill="#FFAD1C" d="M14.7,14H1.2h-2.3V2.4h-3.7C-3,1.6-0.9,1.1,1.2,1.1c8.6,0,15.6,7,15.6,15.6
				L14.7,14z"/>
			<path clip-path="url(#SVGID_4_)" fill="#FFAD1A" d="M14.7,14H1.2h-2.3V2.6h-3.6c1.8-0.8,3.8-1.2,6-1.2c8.5,0,15.3,6.9,15.3,15.3
				L14.7,14z"/>
			<path clip-path="url(#SVGID_4_)" fill="#FFAE19" d="M14.7,14H1.2h-2.3V2.8h-3.5C-2.8,2-0.9,1.6,1.2,1.6c8.3,0,15.1,6.8,15.1,15.1
				L14.7,14z"/>
			<path clip-path="url(#SVGID_4_)" fill="#FFAF18" d="M14.7,14H1.2h-2.3V3h-3.4c1.8-0.8,3.7-1.2,5.8-1.2c8.2,0,14.9,6.7,14.9,14.9
				L14.7,14z"/>
			<path clip-path="url(#SVGID_4_)" fill="#FFB017" d="M14.7,14H1.2h-2.3V3.2h-3.3c1.8-0.7,3.7-1.2,5.7-1.2
				c8.1,0,14.6,6.6,14.6,14.6L14.7,14z"/>
			<path clip-path="url(#SVGID_4_)" fill="#FFB116" d="M14.7,14H1.2h-2.3V3.4h-3.3c1.7-0.7,3.6-1.1,5.6-1.1c8,0,14.4,6.5,14.4,14.4
				L14.7,14z"/>
			<path clip-path="url(#SVGID_4_)" fill="#FFB215" d="M14.7,14H1.2h-2.3V3.6h-3.2c1.7-0.7,3.6-1.1,5.5-1.1
				c7.8,0,14.2,6.3,14.2,14.2L14.7,14z"/>
			<path clip-path="url(#SVGID_4_)" fill="#FFB314" d="M14.7,14H1.2h-2.3V3.8h-3.1c1.7-0.7,3.5-1.1,5.4-1.1c7.7,0,14,6.2,14,14
				L14.7,14z"/>
			<path clip-path="url(#SVGID_4_)" fill="#FFB413" d="M14.7,14H1.2h-2.3V4h-3C-2.5,3.4-0.7,3,1.2,3c7.6,0,13.7,6.1,13.7,13.7
				L14.7,14z"/>
			<path clip-path="url(#SVGID_4_)" fill="#FFB412" d="M14.7,14H1.2h-2.3V4.3H-4c1.6-0.7,3.4-1.1,5.3-1.1c7.5,0,13.5,6,13.5,13.5V14
				z"/>
			<path clip-path="url(#SVGID_4_)" fill="#FFB511" d="M14.5,14H1.2h-2.3V4.5h-2.8c1.6-0.7,3.3-1,5.2-1c7.3,0,13.3,5.9,13.3,13.3V14
				z"/>
			<path clip-path="url(#SVGID_4_)" fill="#FFB610" d="M14.3,14h-13h-2.3V7.5H-8c2.4-2.4,5.6-3.8,9.2-3.8c7.2,0,13,5.8,13,13V14z"/>
			<path clip-path="url(#SVGID_4_)" fill="#FFB70F" d="M14,14H1.2h-2.3V7.6h-6.7c2.3-2.3,5.5-3.8,9.1-3.8C8.3,3.9,14,9.6,14,16.7V14
				z"/>
			<path clip-path="url(#SVGID_4_)" fill="#FFB70E" d="M13.8,14H1.2h-2.3V7.8h-6.5c2.3-2.3,5.4-3.7,8.9-3.7
				c6.9,0,12.6,5.6,12.6,12.6V14z"/>
			<path clip-path="url(#SVGID_4_)" fill="#FFB80D" d="M13.6,14H1.2h-2.3V8h-6.4c2.2-2.2,5.3-3.6,8.7-3.6c6.8,0,12.3,5.5,12.3,12.3
				V14z"/>
			<path clip-path="url(#SVGID_4_)" fill="#FFB90C" d="M13.3,14H1.2h-2.3V8.1h-6.2c2.2-2.2,5.2-3.5,8.6-3.5
				c6.7,0,12.1,5.4,12.1,12.1V14z"/>
			<path clip-path="url(#SVGID_4_)" fill="#FFBA0B" d="M13.1,14H1.2h-2.3V8.3h-6.1C-5,6.1-2.1,4.8,1.2,4.8c6.6,0,11.9,5.3,11.9,11.9
				V14z"/>
			<path clip-path="url(#SVGID_4_)" fill="#FFBA0A" d="M12.9,14H1.2h-2.3V8.4H-7C-4.9,6.3-2,5,1.2,5c6.4,0,11.7,5.2,11.7,11.7V14z"
				/>
			<path clip-path="url(#SVGID_4_)" fill="#FFBB09" d="M12.7,14H1.2h-2.3V8.6h-5.7c2.1-2.1,4.9-3.3,8.1-3.3
				c6.3,0,11.4,5.1,11.4,11.4V14z"/>
			<path clip-path="url(#SVGID_4_)" fill="#FFBB08" d="M12.4,14H1.2h-2.3V8.8h-5.6c2-2,4.8-3.3,7.9-3.3c6.2,0,11.2,5,11.2,11.2V14z"
				/>
			<path clip-path="url(#SVGID_4_)" fill="#FFBC08" d="M12.2,14h-11h-2.3V8.9h-5.4c2-2,4.7-3.2,7.8-3.2c6.1,0,11,4.9,11,11V14z"/>
			<path clip-path="url(#SVGID_4_)" fill="#FFBD07" d="M12,14H1.2h-2.3V9.1h-5.2c1.9-1.9,4.6-3.1,7.6-3.1C7.2,5.9,12,10.8,12,16.7
				V14z"/>
			<path clip-path="url(#SVGID_4_)" fill="#FFBD06" d="M11.7,14H1.2h-2.3V9.3h-5.1c1.9-1.9,4.5-3.1,7.4-3.1
				c5.8,0,10.5,4.7,10.5,10.5V14z"/>
			<path clip-path="url(#SVGID_4_)" fill="#FFBE05" d="M11.5,14H1.2h-2.3V9.4H-6c1.9-1.9,4.4-3,7.3-3c5.7,0,10.3,4.6,10.3,10.3V14z"
				/>
			<path clip-path="url(#SVGID_4_)" fill="#FFBE05" d="M11.3,14H1.2h-2.3V9.6h-4.8c1.8-1.8,4.3-2.9,7.1-2.9
				c5.6,0,10.1,4.5,10.1,10.1V14z"/>
			<path clip-path="url(#SVGID_4_)" fill="#FFBF04" d="M11.1,14H1.2h-2.3V9.7h-4.6C-3.9,8-1.5,6.9,1.2,6.9c5.4,0,9.8,4.4,9.8,9.8V14
				z"/>
			<path clip-path="url(#SVGID_4_)" fill="#FFBF04" d="M10.8,14H1.2h-2.3V9.9h-4.4c1.7-1.7,4.1-2.8,6.8-2.8c5.3,0,9.6,4.3,9.6,9.6
				V14z"/>
			<path clip-path="url(#SVGID_4_)" fill="#FFC003" d="M10.6,14H1.2h-2.3v-3.9h-4.3c1.7-1.7,4-2.7,6.6-2.7c5.2,0,9.4,4.2,9.4,9.4V14
				z"/>
			<path clip-path="url(#SVGID_4_)" fill="#FFC002" d="M10.4,14H1.2h-2.3l-6.8,2.7c0-5,4.1-9.1,9.1-9.1s9.1,4.1,9.1,9.1V14z"/>
			<path clip-path="url(#SVGID_4_)" fill="#FFC102" d="M10.1,14H1.2h-2.3l-6.6,2.7c0-4.9,4-8.9,8.9-8.9s8.9,4,8.9,8.9V14z"/>
			<path clip-path="url(#SVGID_4_)" fill="#FFC101" d="M9.9,14H1.2h-2.3l-6.3,2.7c0-4.8,3.9-8.7,8.7-8.7s8.7,3.9,8.7,8.7V14z"/>
			<path clip-path="url(#SVGID_4_)" fill="#FFC101" d="M9.7,14H1.2h-2.3l-6.1,2.7c0-4.7,3.8-8.5,8.5-8.5s8.5,3.8,8.5,8.5V14z"/>
			<path clip-path="url(#SVGID_4_)" fill="#FFC101" d="M9.5,14H1.2h-2.3L-7,16.7c0-4.5,3.7-8.2,8.2-8.2s8.2,3.7,8.2,8.2V14z"/>
			<path clip-path="url(#SVGID_4_)" fill="#FFC200" d="M9.2,14h-8h-2.3l-5.6,2.7c0-4.4,3.6-8,8-8s8,3.6,8,8V14z"/>
			<path clip-path="url(#SVGID_4_)" fill="#FFC200" d="M9,14H1.2h-2.3l-5.4,2.7c0-4.3,3.5-7.8,7.8-7.8S9,12.4,9,16.7V14z"/>
			<path clip-path="url(#SVGID_4_)" fill="#FFC200" d="M8.8,14H1.2h-2.3l-5.2,2.7c0-4.2,3.4-7.5,7.5-7.5s7.5,3.4,7.5,7.5V14z"/>
			<rect x="0.2" y="0.2" clip-path="url(#SVGID_4_)" fill="#FF953A" width="13.3" height="12.7"/>
			<path clip-path="url(#SVGID_4_)" fill="#FF953A" d="M14.5,13.8H1.2h-2.1V-0.8h2.1v-3.1c5.7,0,10.8,2.3,14.6,6h-1.3V13.8z"/>
			<path clip-path="url(#SVGID_4_)" fill="#FF9638" d="M14.5,13.8H1.2h-2.1V-0.8h2.1v-2.8c5.6,0,10.7,2.3,14.4,6h-1.2V13.8z"/>
			<path clip-path="url(#SVGID_4_)" fill="#FF9737" d="M14.5,13.8H1.2h-2.1V-0.8h2.1v-2.6c11.1,0,20.1,9,20.1,20.1L14.5,13.8z"/>
			<path clip-path="url(#SVGID_4_)" fill="#FF9935" d="M14.5,13.8H1.2h-2.1V-0.8h2.1v-2.4c11,0,19.9,8.9,19.9,19.9L14.5,13.8z"/>
			<path clip-path="url(#SVGID_4_)" fill="#FF9A34" d="M14.5,13.8H1.2h-2.1V-0.8h2.1V-3c10.9,0,19.7,8.8,19.7,19.7L14.5,13.8z"/>
			<path clip-path="url(#SVGID_4_)" fill="#FF9B32" d="M14.5,13.8H1.2h-2.1V-0.8h2.1v-1.9c10.7,0,19.5,8.7,19.5,19.5L14.5,13.8z"/>
			<path clip-path="url(#SVGID_4_)" fill="#FF9C31" d="M14.5,13.8H1.2h-2.1V-0.8h2.1v-1.7c10.6,0,19.2,8.6,19.2,19.2L14.5,13.8z"/>
			<path clip-path="url(#SVGID_4_)" fill="#FF9D30" d="M14.5,13.8H1.2h-2.1V-0.8h-5.3c2.3-1,4.8-1.5,7.4-1.5c10.5,0,19,8.5,19,19
				L14.5,13.8z"/>
			<path clip-path="url(#SVGID_4_)" fill="#FF9E2E" d="M14.5,13.8H1.2h-2.1V-0.6h-5.2c2.2-0.9,4.7-1.5,7.3-1.5
				C11.6-2.1,20,6.3,20,16.7L14.5,13.8z"/>
			<path clip-path="url(#SVGID_4_)" fill="#FF9F2D" d="M14.5,13.8H1.2h-2.1V-0.4H-6c2.2-0.9,4.7-1.5,7.2-1.5
				c10.2,0,18.5,8.3,18.5,18.5L14.5,13.8z"/>
			<path clip-path="url(#SVGID_4_)" fill="#FFA02B" d="M14.5,13.8H1.2h-2.1v-14h-5.1c2.2-0.9,4.6-1.4,7.1-1.4
				c10.1,0,18.3,8.2,18.3,18.3L14.5,13.8z"/>
			<path clip-path="url(#SVGID_4_)" fill="#FFA12A" d="M14.5,13.8H1.2h-2.1V0h-5c2.2-0.9,4.5-1.4,7-1.4c10,0,18.1,8.1,18.1,18.1
				L14.5,13.8z"/>
			<path clip-path="url(#SVGID_4_)" fill="#FFA329" d="M14.5,13.8H1.2h-2.1V0.2h-4.9c2.1-0.9,4.5-1.4,6.9-1.4
				c9.9,0,17.8,8,17.8,17.8L14.5,13.8z"/>
			<path clip-path="url(#SVGID_4_)" fill="#FFA427" d="M14.5,13.8H1.2h-2.1V0.5h-4.8c2.1-0.9,4.4-1.4,6.9-1.4
				C11-0.9,18.8,7,18.8,16.7L14.5,13.8z"/>
			<path clip-path="url(#SVGID_4_)" fill="#FFA526" d="M14.5,13.8H1.2h-2.1V0.7h-4.7c2.1-0.9,4.4-1.4,6.8-1.4
				c9.6,0,17.4,7.8,17.4,17.4L14.5,13.8z"/>
			<path clip-path="url(#SVGID_4_)" fill="#FFA624" d="M14.5,13.8H1.2h-2.1v-13h-4.6C-3.4,0-1.1-0.5,1.2-0.5
				c9.5,0,17.2,7.7,17.2,17.2L14.5,13.8z"/>
			<path clip-path="url(#SVGID_4_)" fill="#FFA723" d="M14.5,13.8H1.2h-2.1V1.1h-4.5c2-0.9,4.3-1.3,6.6-1.3
				c9.4,0,16.9,7.6,16.9,16.9L14.5,13.8z"/>
			<path clip-path="url(#SVGID_4_)" fill="#FFA822" d="M14.5,13.8H1.2h-2.1V1.3h-4.4C-3.3,0.5-1.1,0,1.2,0c9.2,0,16.7,7.5,16.7,16.7
				L14.5,13.8z"/>
			<path clip-path="url(#SVGID_4_)" fill="#FFA921" d="M14.5,13.8H1.2h-2.1V1.5h-4.3c2-0.8,4.1-1.3,6.4-1.3
				c9.1,0,16.5,7.4,16.5,16.5L14.5,13.8z"/>
			<path clip-path="url(#SVGID_4_)" fill="#FFAA1F" d="M14.5,13.8H1.2h-2.1V1.7h-4.2C-3.2,0.9-1,0.4,1.2,0.4c9,0,16.2,7.3,16.2,16.2
				L14.5,13.8z"/>
			<path clip-path="url(#SVGID_4_)" fill="#FFAB1E" d="M14.5,13.8H1.2h-2.1V1.9H-5c1.9-0.8,4-1.3,6.2-1.3c8.8,0,16,7.2,16,16
				L14.5,13.8z"/>
			<path clip-path="url(#SVGID_4_)" fill="#FFAC1D" d="M14.5,13.8H1.2h-2.1V2.1h-4.1C-3,1.3-1,0.9,1.2,0.9C9.9,0.9,17,8,17,16.7
				L14.5,13.8z"/>
			<path clip-path="url(#SVGID_4_)" fill="#FFAD1C" d="M14.5,13.8H1.2h-2.1V2.4h-4C-3,1.6-0.9,1.1,1.2,1.1c8.6,0,15.6,7,15.6,15.6
				L14.5,13.8z"/>
			<path clip-path="url(#SVGID_4_)" fill="#FFAD1A" d="M14.5,13.8H1.2h-2.1V2.6h-3.9c1.8-0.8,3.8-1.2,6-1.2
				c8.5,0,15.3,6.9,15.3,15.3L14.5,13.8z"/>
			<path clip-path="url(#SVGID_4_)" fill="#FFAE19" d="M14.5,13.8H1.2h-2.1V2.8h-3.8C-2.8,2-0.9,1.6,1.2,1.6
				c8.3,0,15.1,6.8,15.1,15.1L14.5,13.8z"/>
			<path clip-path="url(#SVGID_4_)" fill="#FFAF18" d="M14.5,13.8H1.2h-2.1V3h-3.7c1.8-0.8,3.7-1.2,5.8-1.2
				c8.2,0,14.9,6.7,14.9,14.9L14.5,13.8z"/>
			<path clip-path="url(#SVGID_4_)" fill="#FFB017" d="M14.5,13.8H1.2h-2.1V3.2h-3.6c1.8-0.7,3.7-1.2,5.7-1.2
				c8.1,0,14.6,6.6,14.6,14.6L14.5,13.8z"/>
			<path clip-path="url(#SVGID_4_)" fill="#FFB116" d="M14.5,13.8H1.2h-2.1V3.4h-3.5c1.7-0.7,3.6-1.1,5.6-1.1
				c8,0,14.4,6.5,14.4,14.4L14.5,13.8z"/>
			<path clip-path="url(#SVGID_4_)" fill="#FFB215" d="M14.5,13.8H1.2h-2.1V3.6h-3.4c1.7-0.7,3.6-1.1,5.5-1.1
				c7.8,0,14.2,6.3,14.2,14.2L14.5,13.8z"/>
			<path clip-path="url(#SVGID_4_)" fill="#FFB314" d="M14.5,13.8H1.2h-2.1v-10h-3.4c1.7-0.7,3.5-1.1,5.4-1.1c7.7,0,14,6.2,14,14
				L14.5,13.8z"/>
			<path clip-path="url(#SVGID_4_)" fill="#FFB413" d="M14.5,13.8H1.2h-2.1V4h-3.3C-2.5,3.4-0.7,3,1.2,3c7.6,0,13.7,6.1,13.7,13.7
				L14.5,13.8z"/>
			<path clip-path="url(#SVGID_4_)" fill="#FFB412" d="M14.5,13.8H1.2h-2.1V4.3H-4c1.6-0.7,3.4-1.1,5.3-1.1c7.5,0,13.5,6,13.5,13.5
				L14.5,13.8z"/>
			<path clip-path="url(#SVGID_4_)" fill="#FFB511" d="M14.5,13.8H1.2h-2.1V4.5h-3.1c1.6-0.7,3.3-1,5.2-1c7.3,0,13.3,5.9,13.3,13.3
				L14.5,13.8z"/>
			<path clip-path="url(#SVGID_4_)" fill="#FFB610" d="M14.3,13.8h-13h-2.1V4.7h-3c1.6-0.7,3.3-1,5.1-1c7.2,0,13,5.8,13,13V13.8z"/>
			<path clip-path="url(#SVGID_4_)" fill="#FFB70F" d="M14,13.8H1.2h-2.1V7.6h-7c2.3-2.3,5.5-3.8,9.1-3.8C8.3,3.9,14,9.6,14,16.7
				V13.8z"/>
			<path clip-path="url(#SVGID_4_)" fill="#FFB70E" d="M13.8,13.8H1.2h-2.1v-6h-6.8c2.3-2.3,5.4-3.7,8.9-3.7
				c6.9,0,12.6,5.6,12.6,12.6V13.8z"/>
			<path clip-path="url(#SVGID_4_)" fill="#FFB80D" d="M13.6,13.8H1.2h-2.1V8h-6.7c2.2-2.2,5.3-3.6,8.7-3.6
				c6.8,0,12.3,5.5,12.3,12.3V13.8z"/>
			<path clip-path="url(#SVGID_4_)" fill="#FFB90C" d="M13.3,13.8H1.2h-2.1V8.1h-6.5c2.2-2.2,5.2-3.5,8.6-3.5
				c6.7,0,12.1,5.4,12.1,12.1V13.8z"/>
			<path clip-path="url(#SVGID_4_)" fill="#FFBA0B" d="M13.1,13.8H1.2h-2.1V8.3h-6.3C-5,6.1-2.1,4.8,1.2,4.8
				c6.6,0,11.9,5.3,11.9,11.9V13.8z"/>
			<path clip-path="url(#SVGID_4_)" fill="#FFBA0A" d="M12.9,13.8H1.2h-2.1V8.4H-7C-4.9,6.3-2,5,1.2,5c6.4,0,11.7,5.2,11.7,11.7
				V13.8z"/>
			<path clip-path="url(#SVGID_4_)" fill="#FFBB09" d="M12.7,13.8H1.2h-2.1V8.6h-6c2.1-2.1,4.9-3.3,8.1-3.3
				c6.3,0,11.4,5.1,11.4,11.4V13.8z"/>
			<path clip-path="url(#SVGID_4_)" fill="#FFBB08" d="M12.4,13.8H1.2h-2.1V8.8h-5.8c2-2,4.8-3.3,7.9-3.3c6.2,0,11.2,5,11.2,11.2
				V13.8z"/>
			<path clip-path="url(#SVGID_4_)" fill="#FFBC08" d="M12.2,13.8h-11h-2.1V8.9h-5.7c2-2,4.7-3.2,7.8-3.2c6.1,0,11,4.9,11,11V13.8z"
				/>
			<path clip-path="url(#SVGID_4_)" fill="#FFBD07" d="M12,13.8H1.2h-2.1V9.1h-5.5c1.9-1.9,4.6-3.1,7.6-3.1C7.2,5.9,12,10.8,12,16.7
				V13.8z"/>
			<path clip-path="url(#SVGID_4_)" fill="#FFBD06" d="M11.7,13.8H1.2h-2.1V9.3h-5.4c1.9-1.9,4.5-3.1,7.4-3.1
				c5.8,0,10.5,4.7,10.5,10.5V13.8z"/>
			<path clip-path="url(#SVGID_4_)" fill="#FFBE05" d="M11.5,13.8H1.2h-2.1V9.4H-6c1.9-1.9,4.4-3,7.3-3c5.7,0,10.3,4.6,10.3,10.3
				V13.8z"/>
			<path clip-path="url(#SVGID_4_)" fill="#FFBE05" d="M11.3,13.8H1.2h-2.1V9.6h-5c1.8-1.8,4.3-2.9,7.1-2.9
				c5.6,0,10.1,4.5,10.1,10.1V13.8z"/>
			<path clip-path="url(#SVGID_4_)" fill="#FFBF04" d="M11.1,13.8H1.2h-2.1V9.7h-4.9C-3.9,8-1.5,6.9,1.2,6.9c5.4,0,9.8,4.4,9.8,9.8
				V13.8z"/>
			<path clip-path="url(#SVGID_4_)" fill="#FFBF04" d="M10.8,13.8H1.2h-2.1V9.9h-4.7c1.7-1.7,4.1-2.8,6.8-2.8c5.3,0,9.6,4.3,9.6,9.6
				V13.8z"/>
			<path clip-path="url(#SVGID_4_)" fill="#FFC003" d="M10.6,13.8H1.2h-2.1v-3.8h-4.6c1.7-1.7,4-2.7,6.6-2.7c5.2,0,9.4,4.2,9.4,9.4
				V13.8z"/>
			<path clip-path="url(#SVGID_4_)" fill="#FFC002" d="M10.4,13.8H1.2h-2.1v-3.6h-4.4c1.7-1.7,3.9-2.7,6.5-2.7c5,0,9.1,4.1,9.1,9.1
				V13.8z"/>
			<path clip-path="url(#SVGID_4_)" fill="#FFC102" d="M10.1,13.8H1.2h-2.1l-6.8,2.9c0-4.9,4-8.9,8.9-8.9s8.9,4,8.9,8.9V13.8z"/>
			<path clip-path="url(#SVGID_4_)" fill="#FFC101" d="M9.9,13.8H1.2h-2.1l-6.6,2.9c0-4.8,3.9-8.7,8.7-8.7s8.7,3.9,8.7,8.7V13.8z"/>
			<path clip-path="url(#SVGID_4_)" fill="#FFC101" d="M9.7,13.8H1.2h-2.1l-6.4,2.9c0-4.7,3.8-8.5,8.5-8.5s8.5,3.8,8.5,8.5V13.8z"/>
			<path clip-path="url(#SVGID_4_)" fill="#FFC101" d="M9.5,13.8H1.2h-2.1L-7,16.7c0-4.5,3.7-8.2,8.2-8.2s8.2,3.7,8.2,8.2V13.8z"/>
			<path clip-path="url(#SVGID_4_)" fill="#FFC200" d="M9.2,13.8h-8h-2.1l-5.9,2.9c0-4.4,3.6-8,8-8s8,3.6,8,8V13.8z"/>
			<path clip-path="url(#SVGID_4_)" fill="#FFC200" d="M9,13.8H1.2h-2.1l-5.7,2.9c0-4.3,3.5-7.8,7.8-7.8S9,12.4,9,16.7V13.8z"/>
			<path clip-path="url(#SVGID_4_)" fill="#FFC200" d="M8.8,13.8H1.2h-2.1l-5.5,2.9c0-4.2,3.4-7.5,7.5-7.5s7.5,3.4,7.5,7.5V13.8z"/>
		</g>
	</g>
</g>
</svg>
