<?xml version="1.0" encoding="utf-8"?>
<!-- Generator: Adobe Illustrator 19.0.0, SVG Export Plug-In . SVG Version: 6.00 Build 0)  -->
<svg version="1.1" id="Layer_1" xmlns="http://www.w3.org/2000/svg" xmlns:xlink="http://www.w3.org/1999/xlink" x="0px" y="0px"
	 width="29.78125px" height="30.28125px" viewBox="0 0 29.78125 30.28125" style="enable-background:new 0 0 29.78125 30.28125;"
	 xml:space="preserve">
<g id="XMLID_348_">
	<g id="XMLID_295_">
		<g id="XMLID_347_">
			<path id="XMLID_364_" style="fill:#000;" d="M21.2701645,30.072197c-1.0909195,0-2.4084911-0.2733936-3.8565845-0.8201752
				c-3.177516-1.1976318-6.6337137-3.5646725-9.7327404-6.6637001c-3.0999084-3.0990276-5.4660683-6.5561085-6.6645818-9.7327414
				c-1.0900387-2.8882494-1.0926844-5.2597017-0.008819-6.3435664c0.1560978-0.1569796,0.3157232-0.324542,0.4797581-0.4965143
				C2.4784617,4.9748478,3.6170053,3.7930903,5.0800915,3.855706c1.0230131,0.0423315,2.0133963,0.6773055,3.0284739,1.9384344
				c2.9949608,3.7269444,1.6456413,5.055099,0.0828991,6.5949111l-0.2760372,0.2733927
				c-0.2557535,0.2557526-0.7399211,1.440156,3.7569294,5.9361238c1.4674959,1.4674969,2.7189245,2.5416603,3.7190084,3.1916275
				c0.6305656,0.4100876,1.7549973,1.0283051,2.2171173,0.566185l0.2778015-0.280447
				c1.5389309-1.5609798,2.8670845-2.9067707,6.5913849,0.0873089c1.2620106,1.0133133,1.8952217,2.0036945,1.9384346,3.0275917
				c0.0608521,1.4824886-1.1200237,2.6033936-2.1615582,3.5937767c-0.1710892,0.1631546-0.3395348,0.3218994-0.4956322,0.4779949
				C23.2174187,29.8014488,22.3566761,30.072197,21.2701645,30.072197z M4.9760261,4.7349682
				c-1.0538807,0-2.0063417,1.0018482-2.8485641,1.888166C1.9581357,6.7995152,1.793219,6.9732513,1.6318296,7.1346407
				c-0.807828,0.8069463-0.7249286,2.9305811,0.2098942,5.409626c1.1553,3.061986,3.4500256,6.4079466,6.462625,9.4214277
				c3.012599,3.0117168,6.3576765,5.3073235,9.4205465,6.4617424c2.4808083,0.9365864,4.6026783,1.0159588,5.4105072,0.2090111
				c0.1613903-0.1613884,0.3342438-0.3254242,0.511507-0.494751c0.9057198-0.8607426,1.9322605-1.8352509,1.8872833-2.9173527
				c-0.0299854-0.7443314-0.5714779-1.5433407-1.6094837-2.3767433c-3.1043167-2.4949188-3.9712334-1.6147747-5.4105072-0.1552162
				l-0.2822113,0.2848568c-0.687006,0.6887703-1.8052654,0.5353184-3.3212671-0.4497738
				c-1.0512352-0.6834793-2.3511677-1.7973289-3.8618765-3.3080387c-3.7313542-3.7313528-4.9254584-6.0137329-3.7569299-7.1840248
				l0.2804465-0.2778006c1.462204-1.4392748,2.3449945-2.3079538-0.1508064-5.4131541
				C6.5872726,5.3082085,5.7882638,4.766717,5.0439329,4.7358503C5.0210032,4.7349682,4.9980741,4.7349682,4.9760261,4.7349682z"/>
			<path id="XMLID_367_" style="fill:#000;" d="M21.2701263,30.2724609c-1.1259766,0-2.4838867-0.2880859-3.9272461-0.8334961
				c-3.2026367-1.2070313-6.684082-3.5898438-9.8037109-6.7089844c-3.1176758-3.1176758-5.5009766-6.5991211-6.7099609-9.8037109
				c-1.1186523-2.9638672-1.1044922-5.4145508,0.0366211-6.5556641c0.1503906-0.1508789,0.3041992-0.3120117,0.4619141-0.4775391
				c0.9863281-1.0351563,2.2124023-2.315918,3.7607419-2.2373047c1.0825195,0.0449219,2.121582,0.703125,3.1757813,2.0126953
				c3.1074219,3.8671875,1.6318359,5.3217773,0.0693359,6.8618164l-0.2773438,0.2744141
				c-0.0351563,0.0351563-0.0952148,0.1235352-0.0952148,0.3139648c-0.0004883,0.5546875,0.5,1.9863281,3.8530273,5.3383789
				c1.4580078,1.4584961,2.6982422,2.5234375,3.6860352,3.1655273c0.9575195,0.6220703,1.7114258,0.8496094,1.9667969,0.5922852
				l0.2773438-0.2792969c1.5390625-1.5615234,2.9931641-3.0361328,6.8588867,0.0717773
				c1.3081055,1.0507813,1.9667969,2.0893555,2.0126953,3.175293c0.0649414,1.5712891-1.1489258,2.7250977-2.2197266,3.7431641
				l-0.0976563,0.0932617c-0.137207,0.1308594-0.2719727,0.2587891-0.3979492,0.3852539
				C23.3292084,29.972168,22.4195404,30.2724609,21.2701263,30.2724609z M4.9688568,4.0532227
				c-1.3369138,0-2.3974607,1.1142578-3.3364255,2.1000977c-0.175293,0.1835938-0.3305664,0.3466797-0.4829102,0.5
				C0.1216891,7.6801758,0.1421969,9.972168,1.203232,12.784668c1.1899414,3.152832,3.5405271,6.5839844,6.6191406,9.6621094
				c3.0800781,3.0800781,6.5112305,5.4306641,9.6616211,6.6181641c2.7509766,1.0390625,5.128418,1.0561523,6.1337891,0.0561523
				c0.128418-0.128418,0.2651367-0.2587891,0.4047852-0.3916016l0.09375-0.0893555
				c1.0131836-0.9633789,2.1572266-2.0512695,2.1000977-3.440918c-0.0410156-0.9633789-0.6508789-1.9057617-1.8637695-2.8803711
				c-3.5854492-2.8813477-4.793457-1.6557617-6.3237305-0.1020508l-0.2783203,0.2802734
				c-0.5336914,0.5322266-1.6367188,0.0019531-2.4682617-0.5395508c-1.0112305-0.6567383-2.2734375-1.7397461-3.7514648-3.2172852
				c-2.5976563-2.597168-3.9702148-4.5415039-3.9697266-5.6220703c0-0.3173828,0.1157227-0.5,0.2133789-0.597168
				l0.2763672-0.2739258c1.5556641-1.5332031,2.7827148-2.7426758-0.0981445-6.3276367
				C6.9747162,4.7050781,6.0323334,4.0952148,5.0718842,4.0551758C5.0377045,4.0537109,5.0030365,4.0532227,4.9688568,4.0532227z
				 M21.2828217,29.3945313c-1.003418,0-2.2548828-0.2612305-3.6289063-0.7802734
				c-3.0864258-1.1635742-6.4575195-3.4741211-9.4912109-6.5068359c-3.03125-3.0327148-5.3427734-6.4038086-6.5078125-9.4921875
				c-0.9780273-2.5927734-1.0410156-4.7470703-0.1640625-5.6220703c0.1259766-0.1264648,0.2553711-0.2612305,0.3867188-0.3989258
				l0.105957-0.1098633C2.8516695,5.5708008,3.8360445,4.534668,4.976181,4.534668l0.0761719,0.0014648
				C5.8555756,4.5693359,6.7051849,5.1352539,7.5772552,6.21875c2.609375,3.246582,1.6254883,4.215332,0.1357422,5.6811523
				l-0.2802734,0.277832c-1.0566406,1.0576172,0.171875,3.3149414,3.7578125,6.8999023
				c1.5019531,1.5024414,2.7905273,2.6064453,3.8291016,3.2822266c1.4272461,0.9267578,2.4594727,1.0878906,3.0708008,0.4760742
				l0.2817383-0.2841797c1.4658203-1.4868164,2.4345703-2.4672852,5.6782227,0.1401367
				c1.0844727,0.8710938,1.6508789,1.7202148,1.6835938,2.5239258c0.0488281,1.171875-1.0107422,2.1791992-1.9458008,3.0678711
				l-0.0722656,0.0688477c-0.1518555,0.1450195-0.2998047,0.2861328-0.4394531,0.425293
				C22.8643646,29.1899414,22.170517,29.3945313,21.2828217,29.3945313z M4.976181,4.9350586
				c-0.9682617,0-1.8901365,0.9697266-2.7031248,1.8256836L2.166611,6.8710938
				C2.0328219,7.0107422,1.9019625,7.1469727,1.7735445,7.2758789C1.0323336,8.015625,1.135361,10.1044922,2.0289156,12.4736328
				c1.1459961,3.0371094,3.4248044,6.3574219,6.4169922,9.3505859c2.9941406,2.9936523,6.3144531,5.2719727,9.3491211,6.4160156
				c2.3666992,0.8930664,4.4560547,0.9970703,5.1987305,0.2543945c0.1416016-0.1411133,0.2919922-0.2841797,0.4458008-0.4316406
				l0.0693359-0.065918c0.8769531-0.8334961,1.8666992-1.7739258,1.8256836-2.7646484
				c-0.027832-0.6831055-0.5444336-1.4331055-1.5351563-2.2290039c-2.9628906-2.3823242-3.737793-1.5957031-5.1420898-0.1713867
				l-0.2832031,0.2856445c-0.7631836,0.7641602-1.965332,0.6225586-3.5722656-0.4228516
				c-1.0625-0.6904297-2.3725586-1.8125-3.8945313-3.3339844c-3.8803711-3.8803711-5.0390625-6.1831055-3.7568359-7.4663086
				l0.28125-0.2788086C8.8609467,10.2084961,9.648056,9.434082,7.2657318,6.4697266
				c-0.7963867-0.9897461-1.546875-1.5058594-2.2299805-1.5341797L4.976181,4.9350586z"/>
		</g>
	</g>
	<g id="XMLID_294_">
		<path id="XMLID_360_" style="fill:#000;" d="M24.1998653,22.9454937c-0.1358128,0-0.2698631-0.0626144-0.3562908-0.1807899
			c-0.1428699-0.1975498-0.0996552-0.472702,0.0961285-0.6164532c0.9136562-0.6667233,1.7258949-1.4622059,2.4137821-2.3661613
			c1.5521584-2.039854,2.3723335-4.4774485,2.3723335-7.0482121c0.0008812-6.4247026-5.2253075-11.6517735-11.6500092-11.6517735
			c-1.946373,0-3.8733425,0.4903409-5.5710154,1.415463c-0.2134218,0.1181757-0.4815216,0.039686-0.5979338-0.1754997
			c-0.1172943-0.2134221-0.0379219-0.4815221,0.1754999-0.5979339c1.8273134-0.9965566,3.8997974-1.5239378,5.9934492-1.5239378
			c6.9106331,0,12.5327988,5.6221657,12.5327988,12.5336819c0,2.7656641-0.8827896,5.3866959-2.5540066,7.5826473
			c-0.7390385,0.9718628-1.6121273,1.8273144-2.594574,2.545187C24.3824196,22.9181557,24.2907009,22.9454937,24.1998653,22.9454937
			z"/>
		<path id="XMLID_361_" style="fill:#000;" d="M24.1998138,23.1455078c-0.2041016,0-0.3974609-0.0981445-0.5180664-0.2626953
			c-0.2070313-0.2866211-0.144043-0.6879883,0.1396484-0.8955078c0.8999023-0.6572266,1.6982422-1.4399414,2.3730469-2.3261719
			c1.5249023-2.0043945,2.3310547-4.3999023,2.3310547-6.9272461c0.0004883-3.0537109-1.1914063-5.9282227-3.3564453-8.09375
			s-5.0395508-3.3579102-8.0932617-3.3579102c-1.9125977,0-3.8056641,0.480957-5.4750977,1.3911133
			c-0.1494141,0.0830078-0.3232422,0.1020508-0.4873047,0.0532227c-0.1645508-0.0478516-0.3007813-0.1577148-0.3823242-0.309082
			c-0.0820313-0.1489258-0.1005859-0.3222656-0.0527344-0.4868164c0.0483398-0.1645508,0.1577148-0.300293,0.3081055-0.3823242
			C12.8438568,0.5356445,14.9498138,0,17.0757904,0c7.0209961,0,12.7329102,5.7124023,12.7329102,12.7338867
			c0,2.809082-0.8974609,5.4731445-2.5947266,7.7036133c-0.7495117,0.9853516-1.6362305,1.8554688-2.6357422,2.5859375
			C24.467392,23.1035156,24.3370209,23.1455078,24.1998138,23.1455078z M17.0757904,0.8818359
			c3.1606445,0,6.1352539,1.234375,8.3759766,3.4755859c2.2407227,2.2407227,3.4746094,5.2158203,3.4741211,8.3764648
			c0,2.6157227-0.8344727,5.0947266-2.4130859,7.1694336c-0.6982422,0.9169922-1.5244141,1.7270508-2.4550781,2.4067383
			c-0.1069336,0.078125-0.1303711,0.2294922-0.0522461,0.3374023c0.0756836,0.1035156,0.2358398,0.1269531,0.3374023,0.0522461
			c0.9677734-0.7070313,1.8266602-1.5498047,2.5527344-2.5043945c1.644043-2.1601563,2.5126953-4.7407227,2.5126953-7.4614258
			c0-6.8007813-5.5322266-12.3334961-12.3325195-12.3334961c-2.0595703,0-4.0986328,0.5185547-5.8979492,1.4995117
			c-0.0561523,0.0307617-0.097168,0.081543-0.1152344,0.1435547c-0.0180664,0.0615234-0.0112305,0.1264648,0.0195313,0.1826172
			c0.03125,0.0576172,0.0820313,0.0986328,0.1435547,0.1166992c0.0625,0.0170898,0.1259766,0.0102539,0.1826172-0.0200195
			C13.1373138,1.3798828,15.0967865,0.8818359,17.0757904,0.8818359z"/>
	</g>
	<g id="XMLID_174_">
		<g id="XMLID_255_">
			<path id="XMLID_253_" style="fill:#000;" d="M14.6223402,7.96628
				c0.5256176-0.1587434,1.0300684-0.2575169,1.5742064-0.2575169c1.407526,0,2.2682686,0.7028809,2.2682686,1.9013948
				c0,0.6631947-0.3668747,1.1685286-1.1491261,1.6835632l-1.5742064,1.0591717
				c-0.4859324,0.3271885-0.703763,0.8422232-0.703763,1.3969431h3.2180843c0.0696697,0,0.1093559,0.0396852,0.1093559,0.1084747
				v0.7628517c0,0.0687876-0.0396862,0.1084738-0.1093559,0.1084738h-4.2287512
				c-0.0687895,0-0.1084757-0.0396862-0.1084757-0.1084738v-0.4753485c0-1.2082148,0.395978-2.0795403,1.286705-2.6642456
				l1.5653877-1.0397692c0.3959751-0.2681007,0.5732403-0.5256176,0.5732403-0.8316402
				c0-0.5547199-0.4356632-0.9110107-1.1491261-0.9110107c-0.445364,0-0.8713274,0.0793715-1.2470188,0.2072477
				l-0.5750046,0.1887283c-0.0582056,0.0194025-0.1084738-0.0105829-0.1287584-0.0696707l-0.2469339-0.7425671
				c-0.0299854-0.0590887,0-0.1093569,0.0687885-0.1287584L14.6223402,7.96628z"/>
			<path id="XMLID_254_" style="fill:#000;" d="M18.2559662,14.9296875h-4.2290039
				c-0.1787109,0-0.3085938-0.1298828-0.3085938-0.3085938v-0.4750977c0-1.296875,0.4506836-2.2231445,1.3769531-2.831543
				l1.5644531-1.0390625c0.4287109-0.2905273,0.4838867-0.5078125,0.4838867-0.6650391
				c0-0.4453125-0.3544922-0.7109375-0.9487305-0.7109375c-0.3964844,0-0.8056641,0.0678711-1.1826172,0.1962891
				l-0.5771484,0.1894531c-0.159668,0.0522461-0.3232422-0.0297852-0.3803711-0.1943359l-0.2475586-0.7451172
				c-0.0292969-0.0517578-0.0332031-0.1391602,0.0009766-0.2167969c0.0361328-0.0810547,0.1083984-0.140625,0.2045898-0.1674805
				l0.5517578-0.1865234c0.6010742-0.1816406,1.1196289-0.2661133,1.6318359-0.2661133
				c1.5224609,0,2.46875,0.8051758,2.46875,2.1015625c0,0.715332-0.3823242,1.2861328-1.2397461,1.8505859l-1.5722656,1.0581055
				c-0.3457031,0.2324219-0.5556641,0.59375-0.6044922,1.0307617h3.0073242c0.1791992,0,0.3095703,0.1298828,0.3095703,0.3085938
				v0.7626953C18.5655365,14.7998047,18.4351654,14.9296875,18.2559662,14.9296875z M14.1187592,14.5292969h4.0463867v-0.5791016
				h-3.3276367V13.75c0-0.6640625,0.28125-1.2192383,0.7919922-1.5629883l1.5742188-1.059082
				c0.7446289-0.4902344,1.0610352-0.9433594,1.0610352-1.5175781c0-1.0810547-0.7539063-1.7011719-2.0683594-1.7011719
				c-0.4775391,0-0.9443359,0.0761719-1.5131836,0.2475586l-0.4667969,0.1577148l0.1875,0.5600586l0.4814453-0.1582031
				c0.4160156-0.1416016,0.8696289-0.2172852,1.3095703-0.2172852c0.8193359,0,1.3491211,0.4365234,1.3491211,1.1113281
				c0,0.375-0.2104492,0.6918945-0.6611328,0.9970703l-1.5668945,1.0405273
				c-0.8173828,0.5366211-1.1972656,1.3305664-1.1972656,2.4980469V14.5292969z"/>
		</g>
		<g id="XMLID_175_">
			<path id="XMLID_350_" style="fill:#000;" d="M24.5782032,12.848525c0,0.0696716-0.0396862,0.1093559-0.1084747,0.1093559
				h-0.6138077v1.6641607c0,0.0687885-0.0396843,0.1084738-0.1093559,0.1084738h-0.890728
				c-0.0696716,0-0.1093578-0.0396852-0.1093578-0.1084738V12.957881h-3.3186207
				c-0.0687885,0-0.1084747-0.0396862-0.1084747-0.1093569v-0.8316393c0-0.0590878,0.010582-0.098774,0.0502682-0.1384592
				c0.2469349-0.2866201,0.4647655-0.5547199,0.7028828-0.8810263l1.8326035-2.3573408
				c0.1878471-0.247817,0.3360081-0.4859314,0.5044537-0.7628508c0.0396843-0.049387,0.0793705-0.068789,0.1384583-0.068789
				h1.1976318c0.0696716,0,0.1093559,0.0396857,0.1093559,0.1084747v4.0603061h0.6138077
				c0.0687885,0,0.1084747,0.0396862,0.1084747,0.1093569v0.7619686H24.5782032z M22.746479,10.2636518
				c0-0.3166056,0.0194016-0.6340923,0.0590878-0.9709806c0.0194016-0.1190577-0.0687885-0.1490421-0.148159-0.0396862
				l-1.6050739,2.039854c-0.1287575,0.1781454-0.3166046,0.4056778-0.4550648,0.5344362
				c-0.0696716,0.0793715-0.0299854,0.1481609,0.049387,0.1481609h2.099823V10.2636518z"/>
			<path id="XMLID_353_" style="fill:#000;" d="M23.7466888,14.9306641h-0.890625
				c-0.1791992,0-0.3095703-0.1298828-0.3095703-0.3085938v-1.4638672h-3.1186523
				c-0.1787109,0-0.3085938-0.1303711-0.3085938-0.3095703v-0.831543c0-0.0737305,0.0117188-0.1826172,0.1088867-0.2802734
				c0.2612305-0.3032227,0.4682617-0.5629883,0.6826172-0.8569336l1.8369141-2.3623047
				c0.1835938-0.2436523,0.3310547-0.480957,0.4912109-0.7441406c0.0913086-0.1176758,0.1879883-0.1650391,0.309082-0.1650391
				h1.1977539c0.1791992,0,0.3095703,0.1298828,0.3095703,0.3085938v3.8598633h0.4135742
				c0.1787109,0,0.3085938,0.1303711,0.3085938,0.3095703l0.0009766,0.762207c0,0.1791992-0.1298828,0.3095703-0.3085938,0.3095703
				h-0.4135742v1.4638672C24.0562592,14.8007813,23.9258881,14.9306641,23.7466888,14.9306641z M22.9468842,14.5302734h0.7089844
				v-1.7724609h0.722168l-0.0004883-0.5805664H23.654892v-4.168457h-1.1069336
				c-0.1328125,0.2451172-0.2861328,0.4916992-0.4829102,0.7519531l-1.8349609,2.359375
				c-0.2172852,0.2988281-0.4306641,0.565918-0.7089844,0.8886719l-0.0014648,0.7490234h3.4272461V14.5302734z
				 M22.9468842,12.1757813h-2.300293c-0.1166992,0-0.2172852-0.0615234-0.2617188-0.1601563
				c-0.046875-0.1030273-0.0234375-0.2226563,0.0620117-0.3203125c0.128418-0.1206055,0.3046875-0.328125,0.4433594-0.5195313
				l1.6098633-2.0463867c0.1098633-0.1523438,0.2539063-0.1665039,0.3496094-0.125
				c0.0888672,0.0366211,0.1821289,0.1425781,0.1533203,0.3198242c-0.0375977,0.3183594-0.0561523,0.628418-0.0561523,0.9394531
				V12.1757813z M20.9229584,11.7753906h1.6235352v-1.5117188c0-0.1899414,0.0068359-0.3798828,0.0205078-0.5722656
				l-1.3574219,1.7250977C21.1329193,11.5224609,21.0279388,11.6557617,20.9229584,11.7753906z"/>
		</g>
	</g>
</g>
</svg>
