<?xml version="1.0" encoding="utf-8"?>
<!-- Generator: Adobe Illustrator 18.0.0, SVG Export Plug-In . SVG Version: 6.00 Build 0)  -->
<!DOCTYPE svg PUBLIC "-//W3C//DTD SVG 1.1//EN" "http://www.w3.org/Graphics/SVG/1.1/DTD/svg11.dtd">
<svg version="1.1" id="Layer_1" xmlns="http://www.w3.org/2000/svg" xmlns:xlink="http://www.w3.org/1999/xlink" x="0px" y="0px"
	 width="19.6px" height="19.5px" viewBox="0 0 19.6 19.5" enable-background="new 0 0 19.6 19.5" xml:space="preserve">
<path fill="#39B54A" d="M19.6,9.8c0,2.6-1,5.1-2.9,6.9c-1.8,1.8-4.3,2.9-6.9,2.9c-2,0-3.9-0.6-5.6-1.7c-1.1-0.8-2-1.7-2.7-2.8V17H0
	v-4.6h4.6V14H2.7c1.5,2.5,4.1,4,7.1,4c4.5,0,8.2-3.7,8.2-8.2H19.6z M9.7,1.5c3,0,5.6,1.6,7.1,4H15v1.5h4.5V2.5H18v2.1
	c-0.7-1.1-1.6-2.1-2.7-2.8C13.7,0.6,11.7,0,9.7,0C7.1,0,4.7,1,2.8,2.9C1,4.7,0,7.2,0,9.8h1.5C1.5,5.2,5.2,1.5,9.7,1.5z M6.8,5.4
	l-1,1C5.4,6.8,5.4,7.4,5.6,8C5.9,9.1,6.3,10,8,11.6c1.7,1.7,2.6,2,3.6,2.4c0.2,0.1,0.5,0.1,0.7,0.1c0.4,0,0.7-0.2,1-0.4l1-1
	l-2.5-2.5l-1.3,1.3c-0.3-0.3-0.7-0.6-1.2-1.1C8.7,9.9,8.3,9.5,8,9.1l1.3-1.3L6.8,5.4z"/>
</svg>
