<?xml version="1.0" encoding="utf-8"?>
<!-- Generator: Adobe Illustrator 18.0.0, SVG Export Plug-In . SVG Version: 6.00 Build 0)  -->
<!DOCTYPE svg PUBLIC "-//W3C//DTD SVG 1.1//EN" "http://www.w3.org/Graphics/SVG/1.1/DTD/svg11.dtd">
<svg version="1.1" id="Layer_1" xmlns="http://www.w3.org/2000/svg" xmlns:xlink="http://www.w3.org/1999/xlink" x="0px" y="0px"
	 width="101px" height="20.1px" viewBox="0 0 101 20.1" enable-background="new 0 0 101 20.1" xml:space="preserve">
<g>
	<g>
		<path fill="#717171" d="M59.6,15.2c0-1,0-2,0-2.9c0-2.3,0-4.5,0-6.8c0-0.6,0.2-0.7,0.7-0.7c1.1,0,2.1,0.1,3.2,0
			c2-0.1,3.3,1.7,3,3.7c-0.1,0.8-0.4,1.5-1.1,1.9c-0.4,0.3-0.3,0.5-0.2,0.8c0.5,1.2,1,2.4,1.5,3.5c0.1,0.1,0.1,0.3,0.1,0.5
			c-0.7,0-1.3,0-1.9,0c-0.2,0-0.4-0.2-0.5-0.4c-0.4-1-0.7-1.9-1-2.9c-0.2-0.6-0.5-0.9-1.1-0.8c-0.1,0-0.2,0-0.5,0c0,1.4,0,2.7,0,4.1
			C61.1,15.2,60.4,15.2,59.6,15.2z M61.9,7.8C61.9,7.8,61.9,7.8,61.9,7.8c0,0.4,0,0.7,0,1.1c0,0.1,0.1,0.3,0.2,0.4
			c1.2,0.5,2.3-0.4,2.2-1.7c-0.1-1-0.6-1.4-2-1.3c-1,0.1-0.3,0.8-0.5,1.2C61.8,7.7,61.9,7.8,61.9,7.8z"/>
		<path fill="#717171" d="M53.8,8.1c0.3-0.2,0.5-0.3,0.6-0.4c0.7-0.5,1.5-0.6,2.3-0.3c0.8,0.3,1,1,1,1.8c0,1.9,0,3.8,0,5.8
			c-0.7,0-1.3,0-2,0c0-0.4,0-0.7,0-1.1c0-1.4,0-2.9,0-4.3c0-0.4,0-0.8-0.6-0.8c-0.6-0.1-1,0.1-1.2,0.6c-0.1,0.3-0.1,0.5-0.1,0.8
			c0,1.6,0,3.2,0,4.8c-0.7,0-1.3,0-2,0c0-3.4,0-6.9,0-10.4c0.6,0,1.3,0,2,0C53.8,5.8,53.8,6.9,53.8,8.1z"/>
		<path fill="#717171" d="M88.6,7.5c-0.5,0.7-1,1.4-1.5,2c-0.3,0.4-0.3,0.8-0.1,1.2c0.6,1.4,1.2,2.8,1.7,4.2c0,0.1,0,0.1,0,0.2
			c-0.7,0-1.4,0-2.1,0c-0.4-1.1-0.8-2.2-1.2-3.5c-1.5,0.9-0.8,2.3-1,3.5c-0.6,0-1.3,0-1.9,0c0-3.4,0-6.9,0-10.4c0.6,0,1.3,0,2,0
			c0,1.8,0,3.6,0,5.6c0.3-0.2,0.4-0.2,0.5-0.4c0.5-0.7,1-1.3,1.5-2c0.3-0.4,0.6-0.6,1.1-0.5C87.9,7.5,88.2,7.5,88.6,7.5z"/>
		<path fill="#717171" d="M31.5,9.3c0,0.6,0,1.1,0,1.7c-1,0-2,0-3.1,0c0,1.4,0,2.8,0,4.2c-0.8,0-1.4,0-2.2,0c0-0.1,0-0.3,0-0.5
			c0-3.1,0-6.2,0-9.3c0-0.5,0.1-0.7,0.6-0.7c1.7,0,3.3,0,5,0c0.2,0,0.3,0,0.5,0c0,0.5,0,1.1,0,1.6c-1.3,0-2.6,0-4,0
			c0,0.9,0,1.8,0,2.6c0,0.1,0.3,0.3,0.5,0.3C29.8,9.4,30.6,9.3,31.5,9.3z"/>
		<path fill="#717171" d="M67.7,11.5c0.1-1.3,0.2-2.5,1.1-3.4c1.5-1.5,4.2-0.8,4.9,1.2c0.4,1.4,0.4,2.7,0,4.1
			c-0.4,1.3-1.5,2.1-2.9,2c-1.4,0-2.5-0.9-2.8-2.2C67.8,12.6,67.8,12,67.7,11.5z M71.8,11.3c0-0.6-0.1-1.2-0.1-1.8
			c-0.1-0.5-0.3-0.9-0.8-0.8c-0.6,0-0.8,0.4-0.8,0.9c0,1.1,0,2.3,0,3.4c0,0.5,0.3,0.9,0.8,0.9c0.5,0,0.8-0.4,0.9-0.8
			C71.8,12.5,71.8,11.9,71.8,11.3z"/>
		<path fill="#717171" d="M39.7,11.6c0,0.5,0.1,1,0.1,1.4c0.1,0.5,0.4,0.9,0.9,0.9c0.6,0,1-0.2,1.1-0.8c0.1-0.2,0.1-0.4,0.2-0.6
			c0.6,0,1.1,0.1,1.7,0.1c0,1.8-1.9,3.1-4,2.4c-1-0.3-1.5-1-1.9-1.9c-0.4-1.3-0.4-2.7,0.1-4c0.6-1.4,1.8-2.1,3.4-1.9
			c1.2,0.2,2.2,1.3,2.3,2.7c0,0.4,0.1,0.7,0.1,1.1c0,0.4-0.1,0.5-0.5,0.5c-0.6,0-1.2,0-1.8,0C41,11.6,40.4,11.6,39.7,11.6z
			 M39.8,10.5c0.7,0,1.2,0,1.7,0c0.1,0,0.3-0.1,0.4-0.2c0.2-0.5-0.2-1.4-0.7-1.5c-0.6-0.2-1.1,0.1-1.3,0.8
			C39.8,9.8,39.8,10.1,39.8,10.5z"/>
		<path fill="#717171" d="M95.7,11.5c-1.3,0-2.4,0-3.5,0c-0.6,0-0.8,0.2-0.7,0.8c0.1,0.3,0,0.7,0.2,1c0.2,0.3,0.5,0.6,0.8,0.7
			c0.4,0.1,0.8,0,1.1-0.4c0.1-0.3,0.2-0.6,0.4-0.9c0.5,0,1.1,0.1,1.6,0.1c-0.1,1.2-1,2.3-2.1,2.5c-1.5,0.3-2.9-0.2-3.5-1.5
			c-0.8-1.6-0.8-3.3,0.1-4.9c0.6-1.2,1.7-1.6,3-1.5c1.2,0.1,2,0.9,2.3,2C95.5,10,95.5,10.7,95.7,11.5z M91.5,10.5c0.3,0,0.5,0,0.7,0
			c0.3,0,0.7,0,1,0c0.2,0,0.4-0.2,0.4-0.3c0.1-0.6-0.3-1.4-0.9-1.5c-0.6-0.1-1,0.2-1.2,1.1C91.5,9.9,91.5,10.2,91.5,10.5z"/>
		<path fill="#717171" d="M79.3,10.3c-0.1-0.3-0.1-0.6-0.2-0.8c-0.1-0.3-0.3-0.6-0.7-0.6c-0.4,0-0.8,0-1,0.5c-0.5,1.3-0.5,2.6,0,3.9
			c0.1,0.2,0.5,0.4,0.8,0.5c0.4,0,0.7-0.2,0.8-0.6c0-0.1,0.1-0.3,0.1-0.4c0-0.3,0.1-0.4,0.5-0.4c0.4,0.1,0.9,0.1,1.4,0.1
			c0,1.7-1,2.9-2.8,3c-1.6,0-2.7-0.7-3.1-2.6C75,11.5,75,10.2,75.6,9c0.6-1.2,1.8-1.9,3.4-1.6C80,7.5,81,8.7,81.1,9.9
			c0,0.1-0.2,0.3-0.3,0.3C80.3,10.3,79.8,10.3,79.3,10.3z"/>
		<path fill="#717171" d="M50.2,9.2c-0.2,0.1-0.4,0.1-0.6,0.2c-0.5,0.3-0.8,0.2-1-0.3c-0.2-0.5-0.7-0.6-1.2-0.4
			C47.2,8.8,47,9.1,47,9.3c-0.1,0.5,0.2,0.8,0.7,1c0.5,0.2,1,0.4,1.4,0.5c1,0.4,1.5,1.1,1.5,2.1c0,1.1-0.7,1.9-1.8,2.3
			c-1.4,0.4-2.8,0.1-3.6-0.9c-0.2-0.3-0.3-0.7-0.5-1.1c0.6-0.1,1.1-0.2,1.3-0.2c0.5,0.4,0.9,0.8,1.4,1.1c0.5,0.2,0.9,0,1.2-0.5
			c0.2-0.5,0-0.9-0.6-1.1c-0.4-0.2-0.9-0.3-1.3-0.5c-1.2-0.5-1.8-1.5-1.6-2.6c0.2-1.1,1.3-1.9,2.5-1.9C49,7.3,49.9,7.9,50.2,9.2z"/>
		<path fill="#717171" d="M96.6,9c0-0.5,0-0.9,0-1.5c0.2,0,0.5,0,0.8-0.1c0-0.4,0-0.8,0-1.2c0-1.4-0.2-1.2,1.3-1.3
			c0.2,0,0.4,0,0.6,0c0,0.8,0,1.6,0,2.5c0.5,0,1,0,1.5,0c0,0.5,0,1,0,1.5c-0.1,0-0.3,0-0.4,0c-1.1,0-1-0.1-1,1c0,0.8,0,1.6,0,2.4
			c0,1,0.2,1.3,1.3,1.3c0.1,0,0.2,0,0.2,0c0,0,0.1,0.1,0.1,0.1c-0.1,0.5,0.4,1.1-0.3,1.4c-1.1,0.4-2.5,0-2.9-0.7
			c-0.2-0.4-0.3-0.9-0.4-1.4c-0.1-1.1,0-2.2,0-3.3C97.4,9.1,97.4,9.1,96.6,9z"/>
		<path fill="#717171" d="M37,7.4c0,0.7,0,1.3,0,2c-1.5,0.2-1.9,0.7-1.9,2.4c0,1.1,0,2.2,0,3.4c-0.7,0-1.3,0-2,0c0-2.6,0-5.1,0-7.6
			c0.6,0,1.1,0,1.7,0c0,0.5,0,0.9,0.1,1.3c0,0,0.1,0.1,0.1,0.1C35.4,8.1,35.8,7.3,37,7.4z"/>
	</g>
	<path fill="#717171" d="M0.5,8.1c0,0,0.8,0.5,0.7,1.5c0,0,0.4,0.3,0.3,0.4c-0.1,0.2-0.1,0.2-0.1,0.2S3,8.7,3.5,11
		c0,0,0.7-0.1,1.1,0.5c0,0,3.3,0.9,5.5-2.3c0,0-0.8-1.3,0-2.3L15,2.3l0.2,0.3l-4,4.2c0,0-0.1,0.4,0.2,0.4c0,0,0.1,0.1,0.4-0.2l4-3.8
		L16,3.3l-4,4.2c0,0-0.1,0.3,0.1,0.3c0,0,0.1,0.2,0.4-0.2l4.1-3.8l0.3,0.2l-4,4.1c0,0-0.2,0.3,0,0.5c0,0,0.2,0.2,0.5-0.2l3.9-3.8
		L17.7,5l-4.1,4.2c0,0-1,1.4-2,1c0,0-0.9-0.4-1-0.3c0,0-2.7,1.9-2.2,5.5c0,0,0.6,0.2,0.6,1.2c0,0,0.9-0.1,1.1,0.7
		c0,0,0.3,0.6-0.2,1.2c0,0,0.4,0.3,0.4,0.4c0,0,1.1-0.2,1.5,0.8c0,0-7,1.8-10.7-5C1.2,14.6-0.9,10.4,0.5,8.1z"/>
	<path fill="#717171" d="M11.9,19.4c-0.6,0.1-1.3,0.2-1.9,0.2c-5.3,0-9.6-4.3-9.6-9.6c0-0.6,0.1-1.3,0.2-1.9L0.2,7.9
		C0,8.6-0.1,9.3-0.1,10.1c0,5.5,4.5,10.1,10.1,10.1c0.7,0,1.4-0.1,2-0.2L11.9,19.4z"/>
	<path fill="#717171" d="M10,0C5.4,0,1.4,3.2,0.3,7.5l0.4,0.3c1-4.1,4.8-7.2,9.3-7.2c5.3,0,9.6,4.3,9.6,9.6c0,4.5-3.1,8.2-7.2,9.3
		l0.2,0.5c4.3-1.1,7.5-5,7.5-9.7C20.1,4.5,15.5,0,10,0z"/>
</g>
</svg>
