<?xml version="1.0" encoding="utf-8"?>
<!-- Generator: Adobe Illustrator 18.0.0, SVG Export Plug-In . SVG Version: 6.00 Build 0)  -->
<!DOCTYPE svg PUBLIC "-//W3C//DTD SVG 1.1//EN" "http://www.w3.org/Graphics/SVG/1.1/DTD/svg11.dtd">
<svg version="1.1" id="Layer_1" xmlns="http://www.w3.org/2000/svg" xmlns:xlink="http://www.w3.org/1999/xlink" x="0px" y="0px"
	 width="124.4px" height="99px" viewBox="0 0 124.4 99" enable-background="new 0 0 124.4 99" xml:space="preserve">
<g>
	<path fill="#E8F4FC" d="M60.8,99c0,0-76-11.6-41-33.4s80-68.1,88-32.7S159.8,75.2,60.8,99z"/>
	<path fill="#FFFFFF" d="M28.8,63.5c0,0-54.6-54.1-13.5-51.1s104.7-7.9,90.4,25.3S122.9,102.5,28.8,63.5z"/>
	<g>
		<path fill="#EF487C" d="M52.8,66.6l-6,2.3c0,0-4.4,9.4-6.2,12.9c-1.8,3.6,7-2.8,7-2.8l0.7,0.2c0,0,1.5,3.4,3.3,4.6
			c1.9,1.2,18.8-15.3,19.5-16.6c0.8-1.2-2.7-2.5-5.8-2.2C62.2,65.4,52.8,66.6,52.8,66.6z"/>
		<g>
			<g>
				<path fill="#8DB0DA" d="M30.6,32.7c0,4.5,3,8.3,6.2,8.6c3.2,0.3,5.3-3.1,5.3-7.6c0-4.5-2.1-8.3-5.2-8.5
					C33.6,24.9,30.6,28.3,30.6,32.7z"/>
				<path fill="#A7C4E4" d="M40.8,30.2c-2.4,0.9-4.6,2.3-7.1,2.9c-1.5,0.4-2.4,0.2-3.1-0.8c0.2-4.2,3.1-7.4,6.2-7.1
					c2.2,0.2,3.9,2.2,4.7,4.9C41.3,30.1,41,30.2,40.8,30.2z"/>
			</g>
			<path fill="#52517B" d="M32.2,33c0,5.8,1.6,10.6,3.6,10.8c2,0.2,3.6-4.3,3.6-10.1c0-5.8-1.6-10.6-3.6-10.8
				C33.8,22.7,32.2,27.2,32.2,33z"/>
			<path fill="#FFAA81" d="M71.5,27.1c-0.9-2.3-2.4-4.2-3.9-6.1c-1.5-1.8-3.1-3.6-5-4.9c-2.4-1.6-5.3-2.3-8.1-2.7
				c-5.6-1-11.8-1-16.6,2.2c-1.1,0.7-2.1,1.7-2.7,2.9c-0.4,0.9-0.5,1.9-0.7,2.9c-0.7,6-1.1,12.1-0.2,18.1c0.9,6,3.2,11.9,7.1,16.4
				c1.1,1.3,2.4,2.5,4.1,3c1.3,0.4,2.7,0.4,4,0.3c0.4,0,0.9-0.1,1.3-0.2c0.7,2.5,1.3,5.1,2,7.9c-2.5,0.9-5.1,2-5.3,2.5
				c-0.4,1.3-0.5,7.2,0.7,8.8c5.3-3.2,20.8-10.7,20.9-11.9c0-0.5-0.6-0.7-3-1c-0.1-2.5-0.2-7-0.2-11.2c2-1.1,4-2.5,5-4.1
				c1-1.5,1.4-3.3,1.6-5.1c0.5-3.9,0.5-7.8,0.2-11.7C72.6,31.1,72.3,29,71.5,27.1z"/>
			<path fill="#915151" d="M38.8,9.9c5.8-4.8,12.7-8.5,20.1-9.6c7.4-1.1,15.5,0.6,21.2,5.5c5.4,4.7,8.2,12.4,6.5,19.2
				c0.9-0.2,1.9-0.4,2.8-0.4c2.5-0.1,5,0.2,7.3,1.2c5.7,2.5,7.5,10.6,5,16.3c0,0.1,0,0.1,0.1,0.2c2.4,0.7,4.5,2.6,5.4,6.2
				c1,3.8-0.6,8.2-3.9,10.1c-2.2,1.3-4.9,1.4-7.3,0.6c-0.5,3.8-3.9,6.9-7.5,8.2c-5.9,2.1-13.1,0.5-17.5-4
				c-4.4-4.5-5.9-11.7-3.7-17.6c1-2.6,2.7-5,3.8-7.6c2.7-6.1,0.5-9.2-3.9-10.5c0,0-0.1,0-0.1,0.1c-0.6,0.5-3.3,6.8-2.9,7.1
				c-0.9-0.7-1.1-2-1.5-3.2c-0.6-2.1-2-3.8-3.6-5.3c-3.9-0.8-6.9-2.1-11.3-4.9C43.2,18.9,38.5,15.1,38.8,9.9z"/>
			<path fill="#8DB0DA" d="M47.5,4.2c0,0,20.4-2,18.3,23.3l3.1-1.5c0,0,2.1-22-13.8-23.6C50.8,1.8,47.9,2.3,47.5,4.2z"/>
			<path fill="#915151" d="M40.4,13.7c0,0-5.8,4.7-6.2,10.1c0,0-3-0.1-2.1-4.2C33.5,13.2,20.7-0.8,34.7,0c7.4,0.5,9.6,3.9,12.8,4.6
				C50.8,5.3,40.4,13.7,40.4,13.7z"/>
			<path fill="#8DB0DA" d="M50.8,52.4l0.2-1.3c9,1.4,11.9-6.1,11.9-6.2l1.3,0.5C64.2,45.4,60.9,53.9,50.8,52.4z"/>
			<path fill="#52517B" d="M50,53.3l-2.5-0.6c-0.9-0.2-1.5-1.2-1.3-2.1l0,0c0.2-0.9,1.2-1.5,2.1-1.3l2.5,0.6
				c0.9,0.2,1.5,1.2,1.3,2.1h0C51.9,53,50.9,53.6,50,53.3z"/>
			
				<ellipse transform="matrix(0.9819 0.1894 -0.1894 0.9819 7.9774 -11.8837)" fill="#52517B" cx="66.2" cy="35.8" rx="8.1" ry="12.7"/>
			<path fill="#8DB0DA" d="M77.5,38.1c-1.1,5.6-6.2,9.3-10.6,8.4c-4.4-0.8-6.4-5.9-5.3-11.5c1.1-5.6,4.8-9.5,9.2-8.7
				C75.2,27.2,78.5,32.5,77.5,38.1z"/>
			<path fill="#A7C4E4" d="M64.1,31.1c3,2,5.8,4.6,9,6.3c2,1,3.2,1.2,4.4,0.2c0.8-5.4-2.5-10.4-6.7-11.2c-3.1-0.6-5.9,1.2-7.7,4.3
				C63.5,30.8,63.8,30.9,64.1,31.1z"/>
		</g>
	</g>
</g>
</svg>
