<?xml version="1.0" encoding="utf-8"?>
<!-- Generator: Adobe Illustrator 18.0.0, SVG Export Plug-In . SVG Version: 6.00 Build 0)  -->
<!DOCTYPE svg PUBLIC "-//W3C//DTD SVG 1.1//EN" "http://www.w3.org/Graphics/SVG/1.1/DTD/svg11.dtd">
<svg version="1.1" id="Layer_1" xmlns="http://www.w3.org/2000/svg" xmlns:xlink="http://www.w3.org/1999/xlink" x="0px" y="0px"
	 width="112px" height="151.9px" viewBox="0 0 112 151.9" enable-background="new 0 0 112 151.9" xml:space="preserve">
<g>
	<circle opacity="7.000000e-002" fill="#606060" cx="56" cy="74.8" r="56"/>
	<linearGradient id="SVGID_2_" gradientUnits="userSpaceOnUse" x1="55.8661" y1="76.2899" x2="55.8661" y2="151.9438">
		<stop  offset="0" style="stop-color:#FFFFFF"/>
		<stop  offset="1" style="stop-color:#FFFFFF;stop-opacity:0"/>
	</linearGradient>
	<rect x="24.9" y="76.3" opacity="0.79" fill="url(#SVGID_2_)" width="62" height="75.7"/>
	<linearGradient id="SVGID_4_" gradientUnits="userSpaceOnUse" x1="56.0025" y1="96.3999" x2="56.0025" y2="148.4662">
		<stop  offset="0" style="stop-color:#FFFFFF"/>
		<stop  offset="1" style="stop-color:#FFFFFF;stop-opacity:0"/>
	</linearGradient>
	<rect x="50.1" y="96.4" opacity="0.93" fill="url(#SVGID_4_)" width="11.9" height="52.1"/>
	<path fill="#606060" d="M69,58.5l14.8,10.1c2.1,1.4,3.4,3.8,3.4,6.4v1.3H69V58.5z"/>
	<path fill="#606060" d="M43,58.5L28.2,68.6c-2.1,1.4-3.4,3.8-3.4,6.4v1.3H43V58.5z"/>
	<path opacity="0.42" fill="#C7C7C7" d="M39.2,61.1l-2.9,2c0,0,0.7,7.6,3.3,13.2H43L39.2,61.1z"/>
	<path opacity="0.42" fill="#C7C7C7" d="M72.8,61.1l2.9,2c0,0-0.7,7.6-3.3,13.2H69L72.8,61.1z"/>
	<path fill="#383838" d="M48.2,79c-0.7,0-1.3,0.7-1.1,1.4l1.3,8.9c0.1,0.5,0.6,0.9,1.1,0.9h6.3V79H48.2z"/>
	<path fill="#383838" d="M63.2,89.3l1.3-8.9c0.2-0.7-0.4-1.4-1.1-1.4h-7.6v11.2h6.3C62.6,90.2,63.1,89.8,63.2,89.3z"/>
	<polygon opacity="0.63" fill="#C7C7C7" points="47.3,82 47.9,86.3 63.6,86.3 64.3,82 	"/>
	<path fill="#FFFFFF" d="M43,17.6c-3.6,9.3-6.1,21.8-4.7,37.6c0,0,1.9,17.1,7.6,27.9h10.5V17.6H43z"/>
	<path fill="#A4A4A4" d="M56.4,0c-2.1,0.1-4.1,1-5.4,2.9c-2.5,3.4-5.5,8.3-7.9,14.8h13.4V0z"/>
	<path fill="#C8C8C8" d="M69.8,17.6H56.4v65.5h9.5c0,0,6.6-9.1,8-29.3C74.6,42.3,73.7,29.1,69.8,17.6z"/>
	<path fill="#A4A4A4" d="M69.8,17.6C67.9,12,65.3,6.9,61.9,2.6c-1.4-1.8-3.5-2.6-5.5-2.6v17.6H69.8z"/>
	<circle fill="#383838" cx="56.4" cy="37.1" r="10.4"/>
	<circle fill="#606060" cx="56.4" cy="37.1" r="7.8"/>
	<path fill="#A4A4A4" d="M56,86.8c-1.1,0-1.9-0.9-1.9-1.9V69.2c0-1.1,0.9-1.9,1.9-1.9c1.1,0,1.9,0.9,1.9,1.9v15.7
		C57.9,86,57.1,86.8,56,86.8z"/>
	<path opacity="0.42" fill="#FFFFFF" d="M48.9,39.3c0,0,4.4,0.7,7.1-3.7c1.8-3,0.4-6.3,0.4-6.3s-4.7-0.2-7,4.4
		C49.3,33.8,47.9,36.1,48.9,39.3z"/>
	<g>
		<path fill="#B2B2B2" d="M60.2,90.2H56h-4.2c0,0-3.4,4.9-0.7,12.7c0,0,1,3.4,4.3,6.1c0.3,0.3,0.8,0.3,1.1,0
			c3.3-2.7,4.3-6.1,4.3-6.1C63.7,95.1,60.2,90.2,60.2,90.2z"/>
		<path fill="#D2D2D2" d="M52.9,90.2c0,0-2.8,5.8,0.1,11.5c0.3,0.6,0.9,0.8,1.3,0.4l0.9-0.7v3.1c0,1.1,1,1.8,1.6,1
			c2-2.4,5-7.5,2.4-15.4H52.9z"/>
		<path fill="#E7E7E7" d="M54,90.2c0,0-1.4,2.1-0.2,5.9c0,0,0.3,1.1,1.2,1.8c0.3,0.2,0.6-0.1,0.6-0.6c-0.1-1.2,0-3,0.7-3.6
			c0.7-0.6,1.4,0.2,1.8,0.9c0.2,0.3,0.6,0.2,0.6-0.3c0.1-1.1,0.1-2.7-0.8-4.1H54z"/>
	</g>
</g>
</svg>
