<?xml version="1.0" encoding="utf-8"?>
<!-- Generator: Adobe Illustrator 19.0.0, SVG Export Plug-In . SVG Version: 6.00 Build 0)  -->
<svg version="1.1" id="Layer_1" xmlns="http://www.w3.org/2000/svg" xmlns:xlink="http://www.w3.org/1999/xlink" x="0px" y="0px"
	 width="21.875px" height="20.78125px" viewBox="0 0 21.875 20.78125" style="enable-background:new 0 0 21.875 20.78125;"
	 xml:space="preserve">
<g id="XMLID_16_">
	<path id="XMLID_18_" style="fill:#000;" d="M21.5430107,9.2526274l-9.8307371-8.957715
		c-0.4315062-0.3932312-1.08218-0.3931882-1.5135145-0.0000429l-9.830822,8.9578018
		c-0.3456345,0.3149624-0.459815,0.800251-0.2909498,1.2363119c0.1689081,0.4360161,0.5801814,0.7177744,1.0477717,0.7177744
		h1.5701325v8.9749823c0,0.3558598,0.2885015,0.6443596,0.6443596,0.6443596h5.3884788
		c0.3558578,0,0.6443596-0.2884998,0.6443596-0.6443596v-5.4493494h3.1668978v5.4493494
		c0,0.3558598,0.2885017,0.6443596,0.6443596,0.6443596h5.3882208c0.3558578,0,0.6443596-0.2884998,0.6443596-0.6443596v-8.9749842
		h1.5704327c0.4675903,0,0.8788624-0.2817564,1.0477715-0.7177744C22.0028687,10.0529222,21.888689,9.5676336,21.5430107,9.2526274z
		"/>
	<path id="XMLID_17_" style="fill:#000;" d="M19.6920242,5.8068504V1.9305121
		c0-0.3558583-0.2885017-0.6443596-0.6443596-0.6443596H14.720274L19.6920242,5.8068504z"/>
</g>
</svg>
