<svg xmlns="http://www.w3.org/2000/svg" viewBox="0 0 145 43" width="145" height="43">
	<style>
		tspan { white-space:pre }
		.shp0 { fill: #45535e } 
		.shp1 { fill: #f6761f } 
	</style>
	<g id="Layer_2">
		<g id="Layer_1-2">
			<path id="Layer" fill-rule="evenodd" class="shp0" d="M0 8.83L5.05 8.83L5.05 20.05L15.7 20.05L15.7 8.83L20.76 8.83L20.76 36.37L15.7 36.37L15.7 24.92L5.05 24.92L5.05 36.37L0 36.37L0 8.83ZM36.76 15.54L41.55 15.54L41.55 27.4C41.38 29.66 40.36 31.78 38.7 33.33C37.03 34.87 34.85 35.73 32.57 35.73C30.3 35.73 28.12 34.87 26.45 33.33C24.79 31.78 23.77 29.66 23.6 27.4L23.6 15.54L28.39 15.54L28.39 27.4C28.33 28.55 28.75 29.66 29.54 30.49C30.33 31.32 31.43 31.79 32.57 31.79C33.72 31.79 34.82 31.32 35.61 30.49C36.4 29.66 36.82 28.55 36.76 27.4L36.76 15.54ZM54.9 15.65C56.24 15.67 57.55 15.96 58.78 16.49C60.01 17.03 61.11 17.79 62.04 18.75C62.97 19.72 63.7 20.85 64.19 22.09C64.68 23.34 64.92 24.66 64.9 26C64.88 27.39 64.59 28.75 64.04 30.03C63.49 31.3 62.7 32.45 61.7 33.41C60.71 34.38 59.53 35.13 58.24 35.64C56.95 36.15 55.58 36.4 54.19 36.37C49.05 36.37 44.48 32.04 44.48 25.72L44.48 8.83L49.28 8.83L49.28 17.94C49.64 17.56 50.04 17.23 50.48 16.93C50.91 16.64 51.37 16.4 51.86 16.2C52.34 16.01 52.85 15.87 53.36 15.78C53.88 15.69 54.4 15.66 54.92 15.68L54.9 15.65ZM60.25 26.03C60.25 22.85 57.76 20.13 55 20.13C53.44 20.13 51.93 20.75 50.83 21.86C49.72 22.96 49.1 24.47 49.1 26.03C49.1 27.59 49.72 29.1 50.83 30.2C51.93 31.31 53.44 31.93 55 31.93C57.8 31.93 60.25 29.21 60.25 26.03ZM84.4 28.44C84.4 33.23 80.41 36.3 75.47 36.3C74.67 36.3 73.87 36.22 73.09 36.04C72.32 35.86 71.56 35.59 70.84 35.23C70.13 34.88 69.46 34.44 68.84 33.93C68.22 33.42 67.67 32.84 67.19 32.2L70.68 28.6C71.98 30.05 72.9 31.43 75.74 31.43C76.16 31.44 76.57 31.37 76.96 31.23C77.35 31.09 77.71 30.87 78.02 30.6C78.33 30.32 78.58 29.99 78.77 29.62C78.96 29.25 79.07 28.84 79.11 28.43C79.11 23.21 67.65 26.16 67.65 16.85C67.65 11.85 71.44 8.85 76.65 8.85C77.35 8.87 78.05 8.96 78.73 9.13C79.41 9.29 80.08 9.53 80.71 9.84C81.34 10.14 81.94 10.52 82.49 10.95C83.04 11.38 83.55 11.87 84 12.41L80.89 16.09C80.6 15.76 80.28 15.46 79.94 15.2C79.6 14.93 79.23 14.69 78.85 14.49C78.46 14.28 78.06 14.12 77.64 13.99C77.23 13.86 76.8 13.76 76.37 13.71C74.61 13.71 73 14.48 73 16.89C73 21.38 84.43 18.16 84.4 28.44ZM97.08 15.41C98.47 15.38 99.85 15.62 101.14 16.13C102.43 16.63 103.61 17.39 104.61 18.35C105.61 19.31 106.41 20.46 106.97 21.73C107.52 23 107.82 24.37 107.84 25.76C107.86 27.1 107.62 28.42 107.13 29.67C106.64 30.91 105.91 32.04 104.98 33C104.05 33.96 102.94 34.73 101.72 35.26C100.49 35.79 99.18 36.08 97.84 36.1C97.32 36.12 96.8 36.09 96.28 36C95.77 35.91 95.26 35.77 94.78 35.58C94.29 35.38 93.83 35.14 93.4 34.85C92.96 34.55 92.56 34.22 92.2 33.84L92.2 43L87.4 43L87.4 26.06C87.4 19.74 91.97 15.41 97.11 15.41L97.08 15.41ZM97.96 31.66C97.95 31.66 97.95 31.66 97.94 31.66C97.94 31.66 97.93 31.66 97.93 31.66L97.96 31.66ZM97.94 31.66C100.7 31.65 103.21 28.93 103.21 25.76C103.21 22.58 100.72 19.86 97.96 19.86C96.4 19.86 94.89 20.48 93.79 21.59C92.68 22.69 92.06 24.2 92.06 25.76C92.06 27.32 92.68 28.83 93.79 29.93C94.89 31.03 96.38 31.66 97.94 31.66ZM143.19 31.93C143.73 31.93 144.34 31.85 144.88 31.85L143.69 36.22C143.53 36.25 143.37 36.27 143.21 36.29C143.05 36.32 142.89 36.33 142.73 36.34C142.57 36.36 142.41 36.37 142.25 36.37C142.09 36.37 141.93 36.37 141.77 36.37C137.69 36.37 134.69 34.19 134.69 29.86L134.69 12.92L139.55 10.74L139.55 16.3L143.96 16.3L143.96 20.51L139.55 20.51L139.55 28.83C139.55 30.7 140.35 31.93 143.19 31.93Z" />
			<path id="Layer" fill-rule="evenodd" class="shp1" d="M130.49 20.76C130.71 21.15 130.91 21.55 131.08 21.97C131.24 22.39 131.39 22.81 131.5 23.25C131.61 23.68 131.69 24.12 131.75 24.57C131.8 25.01 131.83 25.46 131.82 25.91L131.82 26C131.82 26.45 131.79 26.91 131.73 27.35C131.66 27.8 131.57 28.25 131.44 28.68C131.32 29.12 131.16 29.54 130.97 29.96C130.79 30.37 130.57 30.77 130.33 31.15C129.87 31.9 129.31 32.59 128.67 33.19C128.03 33.8 127.32 34.33 126.55 34.76C125.78 35.18 124.96 35.51 124.1 35.73C123.25 35.95 122.37 36.06 121.49 36.06L121.2 36.06C120.83 36.06 120.46 36.04 120.09 36C119.72 35.96 119.35 35.91 118.98 35.83C118.62 35.75 118.26 35.66 117.9 35.54C117.55 35.43 117.2 35.3 116.86 35.15C116.7 35.08 116.54 35.01 116.38 34.93C116.22 34.86 116.06 34.78 115.91 34.69C115.75 34.61 115.6 34.52 115.45 34.43C115.3 34.34 115.15 34.25 115 34.15L110.8 38.3C110.83 38.38 110.85 38.46 110.87 38.54C110.89 38.63 110.9 38.71 110.91 38.79C110.93 38.88 110.94 38.96 110.94 39.05C110.95 39.13 110.95 39.22 110.95 39.3C111 40.2 110.68 41.08 110.06 41.74C109.44 42.39 108.58 42.76 107.67 42.76C106.77 42.76 105.91 42.39 105.29 41.74C104.67 41.08 104.35 40.2 104.4 39.3C104.4 39.08 104.42 38.87 104.47 38.66C104.51 38.45 104.58 38.24 104.66 38.04C104.75 37.85 104.86 37.66 104.98 37.48C105.1 37.3 105.24 37.14 105.4 36.99C105.62 36.77 105.87 36.58 106.14 36.43C106.42 36.28 106.71 36.17 107.01 36.1C107.32 36.04 107.63 36.01 107.94 36.04C108.25 36.06 108.56 36.12 108.85 36.23L112.85 32.18C112.68 31.98 112.52 31.76 112.37 31.55C112.22 31.33 112.08 31.1 111.95 30.88C111.81 30.65 111.69 30.41 111.58 30.17C111.47 29.93 111.36 29.69 111.27 29.44C111.16 29.15 111.06 28.85 110.98 28.55C110.9 28.25 110.83 27.94 110.77 27.63C110.72 27.33 110.67 27.02 110.65 26.71C110.62 26.39 110.6 26.08 110.6 25.77L110.6 25.39C110.61 24.94 110.65 24.49 110.72 24.05C110.79 23.6 110.89 23.17 111.02 22.74C111.15 22.31 111.32 21.89 111.51 21.48C111.7 21.08 111.92 20.68 112.17 20.31C112.29 20.13 112.42 19.95 112.55 19.77C112.68 19.59 112.82 19.42 112.97 19.26C113.11 19.09 113.26 18.93 113.41 18.77C113.57 18.61 113.73 18.46 113.89 18.31L101.72 9.53L100.83 8.86C100.67 8.96 100.5 9.05 100.32 9.13C100.15 9.2 99.97 9.27 99.78 9.32C99.6 9.37 99.41 9.41 99.22 9.44C99.03 9.47 98.84 9.48 98.65 9.48C96.94 9.48 95.39 8.45 94.73 6.86C94.08 5.28 94.44 3.45 95.65 2.24C96.86 1.03 98.69 0.67 100.27 1.32C101.86 1.98 102.89 3.53 102.89 5.24C102.89 5.33 102.88 5.43 102.87 5.52C102.87 5.62 102.85 5.71 102.84 5.81C102.83 5.9 102.81 5.99 102.79 6.08C102.77 6.18 102.75 6.27 102.72 6.36L116.28 16.66C116.55 16.53 116.82 16.41 117.09 16.3C117.37 16.19 117.65 16.09 117.93 16C118.21 15.91 118.5 15.83 118.79 15.76C119.08 15.7 119.37 15.64 119.66 15.6L119.66 10.6C119.32 10.46 119.01 10.27 118.73 10.03C118.44 9.79 118.2 9.52 118 9.21C117.8 8.9 117.65 8.56 117.55 8.21C117.45 7.85 117.41 7.49 117.42 7.12C117.42 6.11 117.82 5.14 118.54 4.42C119.26 3.7 120.23 3.3 121.24 3.3C122.25 3.3 123.22 3.7 123.94 4.42C124.66 5.14 125.06 6.11 125.06 7.12C125.06 7.49 125.01 7.86 124.91 8.21C124.81 8.57 124.65 8.9 124.45 9.21C124.24 9.52 124 9.8 123.71 10.03C123.43 10.27 123.11 10.46 122.77 10.6L122.77 15.6C123.11 15.65 123.45 15.71 123.79 15.79C124.12 15.87 124.45 15.96 124.78 16.08C125.1 16.19 125.42 16.32 125.74 16.46C126.05 16.61 126.35 16.77 126.65 16.94C127.05 17.17 127.43 17.42 127.79 17.7C128.15 17.98 128.49 18.28 128.82 18.6C129.14 18.92 129.44 19.26 129.72 19.63C130 19.99 130.26 20.37 130.49 20.76ZM125.34 29.56C125.57 29.32 125.78 29.07 125.96 28.79C126.14 28.51 126.3 28.22 126.42 27.92C126.55 27.61 126.65 27.3 126.71 26.97C126.78 26.65 126.82 26.32 126.82 25.99C126.82 25.79 126.82 25.59 126.82 25.39C126.8 25.16 126.76 24.93 126.71 24.7C126.66 24.47 126.59 24.24 126.51 24.02C126.44 23.8 126.35 23.58 126.24 23.37C126.14 23.16 126.03 22.96 125.9 22.76C125.77 22.56 125.63 22.38 125.48 22.2C125.33 22.02 125.16 21.85 124.99 21.69C124.81 21.53 124.63 21.38 124.44 21.25C124.25 21.11 124.05 20.99 123.84 20.88C123.64 20.78 123.43 20.69 123.21 20.61C123 20.54 122.78 20.47 122.56 20.42C122.34 20.37 122.12 20.34 121.89 20.31C121.66 20.29 121.44 20.28 121.21 20.28L121.12 20.28C120.87 20.28 120.63 20.29 120.38 20.33C120.14 20.36 119.9 20.42 119.66 20.49C119.42 20.56 119.19 20.65 118.97 20.75C118.75 20.86 118.53 20.98 118.33 21.12C118.12 21.26 117.92 21.41 117.73 21.57C117.54 21.73 117.35 21.9 117.19 22.09C117.02 22.27 116.86 22.47 116.72 22.68C116.57 22.88 116.45 23.1 116.33 23.32C116.22 23.53 116.13 23.74 116.05 23.96C115.97 24.17 115.9 24.39 115.85 24.62C115.79 24.85 115.75 25.08 115.73 25.31C115.71 25.54 115.7 25.77 115.7 26L115.7 26.19C115.7 26.43 115.72 26.67 115.76 26.91C115.8 27.14 115.86 27.37 115.94 27.6C116.01 27.83 116.11 28.05 116.22 28.26C116.33 28.47 116.46 28.68 116.6 28.87C116.73 29.08 116.88 29.28 117.04 29.47C117.2 29.66 117.37 29.84 117.55 30.01C117.73 30.18 117.92 30.34 118.13 30.48C118.33 30.62 118.54 30.75 118.76 30.87C118.95 30.97 119.14 31.06 119.34 31.14C119.54 31.22 119.75 31.29 119.96 31.35C120.16 31.4 120.37 31.44 120.59 31.47C120.8 31.5 121.02 31.52 121.23 31.52L121.47 31.52C121.85 31.5 122.22 31.45 122.59 31.35C122.95 31.25 123.31 31.12 123.64 30.94C123.98 30.77 124.3 30.57 124.59 30.33C124.88 30.09 125.15 29.82 125.38 29.52L125.34 29.56Z" />
		</g>
	</g>
</svg>