<svg xmlns="http://www.w3.org/2000/svg" viewBox="0 0 144.85 42"><defs><style>.cls-1{fill:#45535e;}.cls-2{fill:#f6761f;}</style></defs><title>Asset 8</title><g id="Layer_2" data-name="Layer 2"><g id="Layer_1-2" data-name="Layer 1"><path class="cls-1" d="M0,7.83H5.05V19.05H15.7V7.83h5.06V35.37H15.7V23.92H5.05V35.37H0ZM36.76,26.4a4.19,4.19,0,1,1-8.37,0V14.54H23.6V26.4a9,9,0,0,0,17.95,0V14.54H36.76V26.4M54.92,14.68a7.38,7.38,0,0,0-5.64,2.26V7.83h-4.8V24.72c0,6.32,4.57,10.65,9.71,10.65A10.51,10.51,0,0,0,64.9,25a10.18,10.18,0,0,0-10-10.35ZM55,30.93a5.9,5.9,0,0,1,0-11.8c2.76,0,5.25,2.72,5.25,5.9S57.8,30.93,55,30.93ZM73,15.89c0-2.41,1.61-3.18,3.37-3.18a7.2,7.2,0,0,1,4.52,2.38L84,11.41a9.91,9.91,0,0,0-7.35-3.56c-5.21,0-9,3-9,8,0,9.31,11.46,6.36,11.46,11.58a3.3,3.3,0,0,1-3.37,3c-2.84,0-3.76-1.38-5.06-2.83l-3.49,3.6a10.3,10.3,0,0,0,8.28,4.1c4.94,0,8.93-3.07,8.93-7.86C84.43,17.16,73,20.38,73,15.89m24.11-1.48c-5.14,0-9.71,4.33-9.71,10.65V42h4.8V32.84a7.38,7.38,0,0,0,5.64,2.26,10.17,10.17,0,0,0,10-10.34A10.53,10.53,0,0,0,97.08,14.41Zm.85,16.25a5.9,5.9,0,0,1,0-11.8c2.76,0,5.25,2.72,5.25,5.9S100.69,30.66,97.93,30.66Zm45.23.27c-2.84,0-3.64-1.23-3.64-3.1V19.51h4.41V15.3h-4.41V9.74l-4.86,2.18V28.86c0,4.33,3,6.51,7.08,6.51a9.41,9.41,0,0,0,1.92-.15l1.19-4.37c-.54,0-1.15.08-1.69.08"/><path class="cls-2" d="M130.49,19.76a10.58,10.58,0,0,0-3.84-3.82,10.36,10.36,0,0,0-3.88-1.34v-5a3.72,3.72,0,0,0,2.29-3.48,3.82,3.82,0,1,0-7.64,0,3.66,3.66,0,0,0,2.24,3.48v5a11.34,11.34,0,0,0-3.38,1.06L102.72,5.36a4.59,4.59,0,0,0,.17-1.12,4.24,4.24,0,1,0-4.24,4.24,4.17,4.17,0,0,0,2.18-.62l.89.67,12.17,8.78a10.38,10.38,0,0,0-1.72,2,9.45,9.45,0,0,0-1.57,5.08v.38a10.62,10.62,0,0,0,.67,3.67,9.6,9.6,0,0,0,1.58,2.74l-4,4.05a3.27,3.27,0,0,0-3.45.76,3.22,3.22,0,0,0-1,2.31,3.28,3.28,0,1,0,6.55,0,3.19,3.19,0,0,0-.15-1L115,33.15a11.14,11.14,0,0,0,1.86,1,10.8,10.8,0,0,0,4.34.91h.29a10.37,10.37,0,0,0,8.84-4.91A9.55,9.55,0,0,0,131.82,25v-.09a10.17,10.17,0,0,0-1.33-5.15Zm-5.11,8.76a5.29,5.29,0,0,1-3.91,2h-.24a5.33,5.33,0,0,1-2.47-.65,5.69,5.69,0,0,1-2.16-2,4.57,4.57,0,0,1-.9-2.68V25a5.57,5.57,0,0,1,.63-2.68,5.77,5.77,0,0,1,2-2.2,4.87,4.87,0,0,1,2.79-.84h.09a5.73,5.73,0,0,1,2.63.6,5.63,5.63,0,0,1,2.06,1.88,6.05,6.05,0,0,1,.92,2.63c0,.2,0,.4,0,.6a5.2,5.2,0,0,1-1.48,3.57Z"/></g></g></svg>