<?xml version="1.0" encoding="utf-8"?>
<!-- Generator: Adobe Illustrator 19.0.0, SVG Export Plug-In . SVG Version: 6.00 Build 0)  -->
<svg version="1.1" id="Layer_1" xmlns="http://www.w3.org/2000/svg" xmlns:xlink="http://www.w3.org/1999/xlink" x="0px" y="0px"
	 width="19.9058495px" height="19.8992271px" viewBox="0 0 19.9058495 19.8992271"
	 style="enable-background:new 0 0 19.9058495 19.8992271;" xml:space="preserve">
<g id="XMLID_971_">
	<g id="XMLID_1104_">
		<g id="XMLID_1113_">
			<g id="XMLID_1114_">
				<path id="XMLID_1115_" style="fill:#283238;" d="M8.2985811,1.3273787c-3.8463449,0-6.9644108,3.1180663-6.9644108,6.9644113
					s3.1180661,6.9644108,6.9644108,6.9644108s6.9644108-3.1180658,6.9644108-6.9644108
					C15.2588043,4.447186,12.1431847,1.3315657,8.2985811,1.3273787z M8.2985811,1.990656
					c2.0485315,0.0016167,3.9681797,1.0000147,5.1457043,2.6763239l-0.8290968,0.8290963
					c-0.2017612-0.1220846-0.4327469-0.187417-0.6685829-0.189034c-0.7326317,0-1.3265543,0.5939231-1.3265543,1.3265543
					c0.0011606,0.2360859,0.0661201,0.4674449,0.1880388,0.6695781L8.6365204,9.4747448
					c-0.41119-0.2507191-0.9279656-0.2507191-1.3391562,0L5.7890716,7.9664521
					C5.9109902,7.764318,5.9759498,7.532959,5.9771104,7.2968731C5.9780226,6.5656929,5.3860478,5.9722261,4.6548676,5.971314
					C4.0501661,5.9705672,3.5218244,6.3796024,3.3710945,6.9652348H2.1407151
					C2.7686312,4.0655942,5.3317413,1.9950087,8.2985811,1.990656z M12.6098824,6.6335964
					c0,0.3663368-0.2969408,0.6632776-0.6632767,0.6632776c-0.3663368,0-0.6632776-0.2969408-0.6632776-0.6632776
					c0-0.3663363,0.2969408-0.6632771,0.6632776-0.6632771C12.3129416,5.9703193,12.6098824,6.2672601,12.6098824,6.6335964z
					 M8.6302195,10.6132593c0,0.3663368-0.2969408,0.6632776-0.6632771,0.6632776
					c-0.3663368,0-0.6632771-0.2969408-0.6632771-0.6632776s0.2969403-0.6632776,0.6632771-0.6632776
					C8.3332787,9.9499817,8.6302195,10.2469234,8.6302195,10.6132593z M5.3138332,7.296874
					c0,0.3663363-0.2969408,0.6632771-0.6632771,0.6632771S3.9872789,7.6632104,3.9872789,7.296874
					c0-0.3663368,0.2969408-0.6632776,0.6632771-0.6632776S5.3138332,6.9305372,5.3138332,7.296874z M11.3601856,13.801384
					c-0.9365473,0.52001-1.9903288,0.7924509-3.0616045,0.7914972c-3.4776459,0.0023632-6.2987709-2.8148661-6.3011341-6.2925119
					C1.9972814,8.0759335,2.0091376,7.8516212,2.0329325,7.6284699h1.3381619
					C3.5218656,8.2123613,4.047513,8.6211061,4.6505561,8.6233854C4.8866415,8.6222248,5.118001,8.5572653,5.3201346,8.4353466
					l1.5082927,1.5082932c-0.1219182,0.2021341-0.1868782,0.4334927-0.1880388,0.6695776
					c0,0.7326317,0.5939231,1.3265543,1.3265543,1.3265543s1.3265543-0.5939226,1.3265543-1.3265543
					c-0.0011606-0.2360849-0.0661201-0.4674444-0.1880388-0.6695786l2.1715698-2.1715698
					c0.2021341,0.1219187,0.4334927,0.1868782,0.6695786,0.1880393c0.7326317,0,1.3265543-0.5939236,1.3265543-1.3265548
					c-0.0011616-0.2360854-0.0661201-0.4674444-0.1880398-0.6695781l0.7229729-0.7226405
					C15.4959259,8.2811356,14.3999434,12.1135931,11.3601856,13.801384z"/>
			</g>
		</g>
		<g id="XMLID_1105_">
			<g id="XMLID_1106_">
				<path id="XMLID_1107_" style="fill:#283238;" d="M16.5895462,3.3172107
					c0.6030426-0.0022802,1.1286907-0.4109833,1.2794628-0.994916h2.0369225V1.6590176H17.869009
					c-0.1507721-0.5839328-0.6764183-0.9926358-1.2794628-0.9949158c-0.7326317,0-1.3265543,0.5939233-1.3265543,1.3265544
					c0.0011606,0.2360852,0.0661201,0.4674447,0.1880388,0.6695783l-0.5826883,0.582689
					C12.0802975-0.3893899,6.8755603-1.073809,3.2432475,1.7142352S-1.073485,9.707057,1.7145593,13.3393707
					c2.6317184,3.4286041,7.4558573,4.2603111,11.0836945,1.9108601l1.000885,1.0008869l0.4689379,0.4689369l2.6696901,2.6696911
					c0.6789894,0.6789875,1.7797794,0.6789875,2.4587688,0c0.6789894-0.6789894,0.6789894-1.7797813,0-2.4587708
					l-2.6696892-2.6696901l-0.4689388-0.4689369l-1.000885-1.000886c1.7767124-2.736681,1.7767124-6.2626219,0-8.9993448
					l0.6632767-0.6632774C16.1223087,3.2507997,16.3535843,3.3158839,16.5895462,3.3172107z M16.5895462,1.3273787
					c0.3663368,0,0.6632767,0.2969409,0.6632767,0.6632773s-0.2969398,0.6632773-0.6632767,0.6632773
					s-0.6632776-0.296941-0.6632776-0.6632771S16.2232513,1.3273787,16.5895462,1.3273787z M18.927597,17.3999119
					c0.4247475,0.4152107,0.4324989,1.0961475,0.0172863,1.520895c-0.4152107,0.4247456-1.0961475,0.4324989-1.5208931,0.0172863
					c-0.0058441-0.0056801-0.0115662-0.0114422-0.0172863-0.0172863l-2.6696911-2.6696911l1.520895-1.5208941L18.927597,17.3999119z
					 M15.78897,14.2612839l-1.5208941,1.5208941l-0.9179764-0.9179764c0.0467606-0.0358171,0.0905371-0.0752821,0.1366348-0.1120939
					s0.0994911-0.0809193,0.1489058-0.1223745c0.0726299-0.0610209,0.1442633-0.1227055,0.21457-0.1860495
					c0.036149-0.0331631,0.0706396-0.066328,0.1061249-0.0994911c0.1359711-0.1273489,0.2676315-0.2590094,0.3949814-0.3949823
					c0.033164-0.0354853,0.066328-0.0699749,0.0994921-0.1061239c0.063343-0.0703087,0.1250267-0.141942,0.1860495-0.21457
					c0.0415783-0.0490828,0.0823708-0.0987043,0.1223745-0.1489067c0.0364799-0.0457659,0.0759449-0.0895424,0.111762-0.1363029
					L15.78897,14.2612839z M14.5028763,12.7208233c-0.1044664,0.1459208-0.2122488,0.2888575-0.3260021,0.4264879
					c-0.0331631,0.0401278-0.0686493,0.0789289-0.102808,0.1183939c-0.1014814,0.118063-0.2062798,0.2326031-0.314394,0.3435774
					c-0.0470924,0.0486269-0.0949726,0.0965071-0.1435995,0.1435995c-0.1105595,0.1081142-0.2250576,0.2129107-0.3435774,0.314394
					c-0.039464,0.0331631-0.0782661,0.0693121-0.1183939,0.102808c-0.1376305,0.1137514-0.2805662,0.2215347-0.426487,0.3260012
					c-3.4331236,2.4526758-8.2045317,1.6578627-10.6572065-1.7752619S0.4125461,4.5162911,3.8456688,2.0636165
					s8.2045317-1.6579028,10.6572075,1.7752616C16.4007187,6.4953861,16.4007187,10.0643148,14.5028763,12.7208233z"/>
			</g>
		</g>
	</g>
</g>
</svg>
