<?xml version="1.0" encoding="utf-8"?>
<!-- Generator: Adobe Illustrator 18.0.0, SVG Export Plug-In . SVG Version: 6.00 Build 0)  -->
<!DOCTYPE svg PUBLIC "-//W3C//DTD SVG 1.1//EN" "http://www.w3.org/Graphics/SVG/1.1/DTD/svg11.dtd">
<svg version="1.1" id="Layer_1" xmlns="http://www.w3.org/2000/svg" xmlns:xlink="http://www.w3.org/1999/xlink" x="0px" y="0px"
	 width="19.7px" height="33.4px" viewBox="0 0 19.7 33.4" enable-background="new 0 0 19.7 33.4" xml:space="preserve">
<path fill="#3FA9F5" d="M19.7,33.4H0V0h19.7V33.4z"/>
<g>
	<defs>
		<path id="SVGID_40_" d="M19.7,33.4H0V0h19.7V33.4z"/>
	</defs>
	<clipPath id="SVGID_2_">
		<use xlink:href="#SVGID_40_"  overflow="visible"/>
	</clipPath>
	<path clip-path="url(#SVGID_2_)" fill="#FFFFFF" d="M11.6,12.2c-0.2-0.5-0.5-0.9-0.9-1.3c0-0.1,0-0.1,0-0.2l0-0.3
		c0-0.5-0.3-0.9-0.8-0.9c0.1-0.7,0.1-1.4,0.1-2.1c0.3-0.3,0.6-0.7,0.6-1.4c0-0.3,0-0.7-0.1-1C10.9,4.7,11,4.2,11,3.8
		c0-0.4-0.1-0.8-0.3-1.2c0.2-0.5,0.1-1.1-0.1-1.7c0.4-0.6,0.6-1.3,0.6-2.1c0-0.3-0.1-0.6-0.2-0.9c0.1-0.5,0.1-1,0-1.7
		c0-0.3-0.1-0.6-0.3-0.8c0-0.1,0-0.3,0-0.4c0.1-0.2,0.2-0.3,0.2-0.5c0.3-0.8,0.2-1.7-0.1-2.5c0.2-0.9,0.1-2-0.4-2.6c0,0,0,0,0-0.1
		c-0.1-1.3-0.6-2.9-0.9-3.7c-1.2-2.7-0.7-6.5-0.5-7.6l-0.4-0.1c-0.2,1.4-0.7,5.1,0.6,7.8c0.4,0.8,0.7,2,0.8,3.1
		c-0.3-0.1-0.6-0.1-1,0c-1,0.4-1.4,1.4-1.1,2.1c0,0.1,0.1,0.3,0.2,0.4C8-8.3,7.9-8.1,7.9-7.9C7.8-7.3,8-6.8,8.3-6.5
		C8.1-6.4,8-6.2,7.9-6C7.6-5.5,7.7-4.8,8-4.4c0,0,0,0.1,0.1,0.1C8-4.1,8-3.8,8-3.4c0,0.3,0.1,0.5,0.2,0.7c0,0-0.1,0.1-0.1,0.1
		C7.8-2.2,7.8-1.6,8-1.1c0.1,0.3,0.3,0.5,0.5,0.6C7.8-0.1,7.6,0.5,7.8,0.9C7.8,1.2,8,1.5,8.4,1.6C8.3,1.7,8.2,1.8,8.1,1.9
		C7.8,2.2,7.7,2.6,7.8,3C7.9,3.2,8,3.4,8.1,3.5C7.7,4,7.7,4.7,7.8,5.1C7.9,5.2,8,5.3,8,5.4c0,0,0,0.1-0.1,0.1C7.6,6,7.5,6.6,7.7,7
		C8,7.6,8.7,7.9,9.3,7.8c0.1,0,0.3-0.1,0.4-0.1c0,0.6,0,1.2-0.1,1.9c-0.3,0.1-0.5,0.4-0.6,0.7c0,0-0.1,0-0.1,0c-1.6,0-2.3,1.3-2.4,3
		l0,0.4c0,1.7,0.6,3.1,2.2,3.2c0.5,0,0.9-0.1,1.3-0.3c0.2,1.6,0.3,3.5,0.3,5.4c0,1.9-0.2,3.7-0.5,5.2c-0.4-0.2-0.8-0.4-1.3-0.4
		c-1.6,0-2.3,1.3-2.4,3l0,0.4c0,1.7,0.6,3.1,2.2,3.2c0.6,0,1.2-0.2,1.7-0.6c1.6-1,2.7-5.2,2.8-10.8C13.1,17.7,12.6,14.1,11.6,12.2z
		 M10.1,6.8c0-0.1,0-0.2,0-0.3c0-0.3-0.1-0.6-0.2-0.8c0.2-0.1,0.3-0.2,0.5-0.3c0,0.2,0,0.4,0,0.6C10.3,6.3,10.2,6.6,10.1,6.8z
		 M10.5,4.4c-0.1-0.4-0.3-0.7-0.5-1c0.1,0,0.1-0.1,0.2-0.1c0.1-0.1,0.2-0.2,0.3-0.3c0.1,0.2,0.1,0.5,0.1,0.7
		C10.6,4,10.6,4.2,10.5,4.4z M10.8-1.3c0,0.1,0,0.1,0,0.2c0,0.5-0.1,1.1-0.4,1.6C10.3,0.1,10-0.2,9.7-0.4c0.3-0.1,0.6-0.2,0.8-0.5
		C10.6-1,10.7-1.2,10.8-1.3z M10.4,2.1C10.2,1.9,10,1.7,9.8,1.6c0.2-0.1,0.4-0.2,0.5-0.3C10.4,1.5,10.4,1.8,10.4,2.1z M10.6-5.6
		C10.6-5.6,10.6-5.6,10.6-5.6C10.4-6,10.2-6.3,10-6.5c0.2-0.1,0.3-0.3,0.5-0.5c0.1-0.1,0.1-0.2,0.2-0.4C10.8-6.8,10.8-6.2,10.6-5.6z
		 M10.7-2.6c-0.1-0.1-0.1-0.1-0.2-0.2c0.1-0.1,0.1-0.3,0.2-0.5C10.7-3,10.7-2.8,10.7-2.6z M9.6-3.2c-0.1,0-0.3,0-0.4,0
		C9-3.2,8.7-3.1,8.5-3C8.4-3.1,8.4-3.3,8.4-3.5c0-0.2,0-0.4,0.1-0.6C8.7-3.9,9.1-3.9,9.6-4c0.3-0.1,0.5-0.2,0.7-0.4c0,0,0,0,0,0.1
		c0,0.2,0,0.3,0,0.5c0,0.4-0.1,0.7-0.2,0.9C10-3.1,9.8-3.1,9.6-3.2z M9.9-2.7C9.7-2.6,9.6-2.5,9.4-2.5c-0.2,0-0.4,0-0.5-0.2
		c0.2-0.1,0.5-0.1,0.8-0.1C9.7-2.7,9.8-2.7,9.9-2.7z M8.6-4.4c0.2-0.2,0.4-0.3,0.7-0.3c0.2,0,0.4,0,0.6,0.1C9.8-4.5,9.7-4.5,9.5-4.4
		C9.2-4.3,8.9-4.3,8.6-4.4z M10.2-9.1c0.1-0.2,0.1-0.4,0.2-0.7c0.1,0.4,0.2,0.8,0.1,1.3c-0.1-0.1-0.2-0.3-0.4-0.4
		C10.1-9,10.2-9.1,10.2-9.1z M10.2-8.3c0.1,0.1,0.1,0.2,0.2,0.3c-0.1,0.3-0.2,0.5-0.3,0.7C10-7,9.8-6.8,9.6-6.7
		c-0.1,0-0.2-0.1-0.2-0.1c-0.1,0-0.2,0-0.3,0c-0.2,0-0.3,0-0.4,0.1C8.3-7,8.2-7.3,8.3-7.8c0-0.2,0.1-0.3,0.1-0.4
		c0.3,0.1,0.6,0.1,1,0c0.2-0.1,0.3-0.2,0.5-0.3C10-8.5,10.1-8.4,10.2-8.3z M8.7-8.6C8.7-8.7,8.8-8.7,9-8.8c0.2,0,0.3,0,0.5,0
		c-0.1,0-0.1,0.1-0.2,0.1C9-8.6,8.8-8.6,8.7-8.6z M8.2-9c-0.2-0.5,0.1-1.2,0.9-1.5c0.1,0,0.2-0.1,0.3-0.1c0.2,0,0.4,0.1,0.5,0.2
		c0,0.4,0,0.8-0.2,1.2c0,0.1-0.1,0.1-0.1,0.2C9.5-9.2,9.2-9.2,8.9-9.2C8.7-9.1,8.5-9,8.3-8.8C8.3-8.9,8.2-8.9,8.2-9z M8.2-5.8
		C8.3-6,8.5-6.2,8.6-6.3c0,0,0,0,0,0c0.3,0.1,0.6,0.1,1,0c0.3,0.2,0.6,0.6,0.7,1.3c0,0,0,0,0,0c-0.3-0.2-0.6-0.2-1-0.2
		c-0.4,0-0.7,0.2-1,0.5C8.1-5,8.1-5.4,8.2-5.8z M8.4-1.2C8.3-1.6,8.2-2,8.5-2.4c0,0,0,0,0-0.1c0.3,0.2,0.6,0.3,0.9,0.3
		c0.3,0,0.6-0.1,0.9-0.4c0.2,0.1,0.3,0.3,0.4,0.5c-0.1,0.4-0.2,0.6-0.4,0.8C9.9-0.9,9.5-0.7,8.9-0.8C8.7-0.8,8.5-1,8.4-1.2z
		 M8.1,0.8C8.1,0.5,8.3,0,8.9-0.2c0.1,0,0.1,0,0.2,0c0.4,0,0.8,0.5,1,0.9c0,0,0,0.1,0.1,0.1C10,1,9.7,1.2,9.5,1.3
		C8.7,1.4,8.2,1.1,8.1,0.8z M8.4,2.1C8.5,2,8.7,1.8,9.1,1.8c0.1,0,0.3,0,0.5,0.1c0.3,0.1,0.5,0.3,0.7,0.7C10.2,2.8,10.1,2.9,9.9,3
		C9.8,3.1,9.7,3.1,9.6,3.2C9.3,3,8.9,3,8.5,3.2c0,0-0.1,0-0.1,0.1C8.3,3.1,8.2,3,8.2,2.9C8.1,2.6,8.2,2.4,8.4,2.1z M9.2,7.4
		C8.8,7.5,8.3,7.3,8.1,6.8C7.9,6.5,8.1,6,8.3,5.8c0,0,0.1-0.1,0.1-0.1C8.6,5.8,9,5.9,9.4,5.8c0.1,0.2,0.2,0.4,0.2,0.7
		c0,0.2,0.1,0.4,0.1,0.7C9.6,7.3,9.4,7.3,9.2,7.4z M8.8,5.4c0.1,0,0.2,0,0.2,0c0,0,0,0,0,0C9,5.4,8.9,5.4,8.8,5.4z M9.6,5.3
		C9.6,5.3,9.6,5.3,9.6,5.3C9.5,5.1,9.3,5,9.2,5C9.1,5,9,5,8.9,5C8.7,5,8.5,5,8.3,5.2C8.3,5.1,8.2,5,8.2,5C8.1,4.6,8.1,4.1,8.4,3.8
		c0,0,0.1,0,0.1,0c0.3,0.1,0.7,0.1,1.1-0.1c0.3,0.3,0.5,0.7,0.6,1.2C10.1,5,9.9,5.2,9.6,5.3z"/>
</g>
</svg>
