<svg xmlns="http://www.w3.org/2000/svg" xmlns:xlink="http://www.w3.org/1999/xlink" width="32.67" height="32.67" viewBox="0 0 49 49"><defs><path id="g1fla" d="M879.955 539.885l-8.43-8.44 18.107-18.29 8.585 8.583z"/><path id="g1flb" d="M880.016 503.541l-8.583-8.585-18.198 18.199a6.065 6.065 0 0 0-.004 8.578l.004.004 18.198 18.199 8.42-8.458-13.753-14.02z"/><path id="g1flc" d="M898.214 513.155l-18.199-18.199a6.07 6.07 0 0 0-8.584 0 6.066 6.066 0 0 0 0 8.582l18.208 18.2a6.07 6.07 0 0 0 8.583-8.583z"/><path id="g1fld" d="M875.658 529.7a6.015 6.015 0 1 1 0 12.03 6.015 6.015 0 0 1 0-12.03z"/></defs><g><g transform="translate(-851 -493)"><use fill="#8ab4f8" xlink:href="#g1fla"/></g><g transform="translate(-851 -493)"><use fill="#4285f4" xlink:href="#g1flb"/></g><g transform="translate(-851 -493)"><use fill="#8ab4f8" xlink:href="#g1flc"/></g><g transform="translate(-851 -493)"><use fill="#246fdb" xlink:href="#g1fld"/></g></g></svg>