<svg xmlns="http://www.w3.org/2000/svg" width="163" height="55" viewBox="0 0 163 55"><g><g><path fill="#009fad" d="M99.592 2.612c2.851 0 5.702.481 8.382 1.477l.481-1.237c-12.504-4.465-26.45 1.1-32.394 13.02l1.1.824C81.35 8.074 90.041 2.612 99.591 2.612z"/></g><g><path fill="#009fad" d="M77.333 17.417l-1.89-1.374.173-.343C81.66 3.574 95.814-2.129 108.593 2.44l.446.172-.824 2.13-.447-.172c-2.542-.962-5.324-1.443-8.21-1.443-9.31 0-17.931 5.428-22.02 13.81zm-.343-1.443C81.318 7.558 90.146 2.131 99.593 2.131c2.85 0 5.565.446 8.107 1.34l.137-.344C95.78-.927 82.52 4.432 76.68 15.734z"/></g><g><path fill="#009fad" d="M122.195 38.166c-5.839 12.469-20.679 17.828-33.183 11.989A25.141 25.141 0 0 1 76.92 38.029l-1.202.584c6.08 13.156 21.676 18.893 34.867 12.778 5.6-2.61 10.133-7.076 12.744-12.641z"/></g><g><path fill="#009fad" d="M90.352 52.662c-6.698-2.474-12.057-7.386-15.046-13.878l-.206-.413 2.06-.996.208.447c2.404 5.187 6.629 9.412 11.85 11.885 12.23 5.703 26.829.447 32.566-11.748l.206-.446 1.992.996-.206.412c-2.645 5.634-7.248 10.202-12.985 12.882a26.25 26.25 0 0 1-11.233 2.507c-3.091 0-6.217-.549-9.206-1.648zM76.37 38.818c2.92 6.046 7.97 10.615 14.29 12.95 6.459 2.371 13.466 2.096 19.718-.824 5.359-2.508 9.72-6.767 12.298-11.989l-.275-.137c-6.08 12.366-21.057 17.657-33.595 11.782a25.754 25.754 0 0 1-12.092-11.919z"/></g><g><path fill="#009fad" d="M87.57 40.09l.652-.963c-5.806-5.736-6.458-14.943-1.477-21.4l-.894-.722A17.445 17.445 0 0 0 87.57 40.09z"/></g><g><path fill="#009fad" d="M87.639 40.81l-.413-.378c-6.492-6.32-7.248-16.488-1.752-23.702l.31-.378 1.649 1.306-.275.378c-4.81 6.251-4.191 15.183 1.443 20.782l.274.275zm-1.684-23.118c-4.774 6.63-4.122 15.767 1.546 21.641l.103-.172c-5.6-5.839-6.252-14.874-1.511-21.366z"/></g><g><path fill="#009fad" d="M99.661 10.17v1.133c9-.103 16.317 7.076 16.454 16.076.103 9-7.076 16.317-16.076 16.454h-.756v1.134h.378c9.618-.103 17.313-8.004 17.176-17.588-.069-9.447-7.73-17.073-17.176-17.21z"/></g><g><path fill="#009fad" d="M98.802 45.448v-2.095h1.237c8.691-.138 15.698-7.317 15.595-15.974-.137-8.622-7.214-15.595-15.8-15.595h-.654V9.688h.481c9.687.138 17.588 8.073 17.622 17.691.07 4.775-1.717 9.275-5.05 12.71-3.332 3.436-7.797 5.325-12.572 5.359zm.962-.962c3.572-.068 6.94-1.202 9.756-3.297-2.68 1.889-5.943 3.057-9.447 3.091h-.309zm.378-33.664c2.507.034 4.878.653 7.007 1.683a16.725 16.725 0 0 0-7.007-1.855z"/></g><g><path fill="#009fad" d="M82.966 15.15c6.801-9.069 19.683-10.992 28.821-4.19 1.717 1.27 3.195 2.816 4.431 4.534l.996-.722c-7.042-9.79-20.645-12.092-30.47-5.05a19.762 19.762 0 0 0-4.74 4.672z"/></g><g><path fill="#009fad" d="M116.081 16.146l-.275-.377c-1.237-1.684-2.679-3.195-4.328-4.432-8.897-6.63-21.504-4.775-28.134 4.088l-.275.378-1.752-1.34.275-.378A21.457 21.457 0 0 1 86.47 9.31c9.996-7.145 23.977-4.843 31.157 5.153l.274.378zm-4.019-5.565a22.539 22.539 0 0 1 4.26 4.226l.24-.172c-6.939-9.241-20.096-11.302-29.543-4.534a20.21 20.21 0 0 0-4.362 4.19l.24.172c4.122-5.256 10.34-8.038 16.592-8.038 4.397 0 8.794 1.34 12.573 4.156z"/></g><g><path fill="#001f59" d="M100.004 39.746c-6.698 0-12.16-5.462-12.16-12.16 0-5.531 3.71-10.374 9.034-11.783.893-.24 1.958-.378 3.126-.378 4.432 0 8.52 2.439 10.684 6.32l-2.474 1.375c-1.649-2.99-4.809-4.912-8.21-4.912-.893 0-1.717.103-2.37.275a9.37 9.37 0 0 0-6.939 9.034c0 5.153 4.191 9.309 9.31 9.309a9.298 9.298 0 0 0 8.622-5.736l2.61 1.099c-1.889 4.603-6.286 7.557-11.233 7.557z"/></g><g><path fill="#001f59" d="M110.688 21.712l-2.474 1.374c-1.649-2.99-4.809-4.913-8.21-4.913-.893 0-1.717.104-2.37.275a9.372 9.372 0 0 0-6.939 9.035c0 5.153 4.191 9.309 9.31 9.309a9.298 9.298 0 0 0 8.622-5.737l2.61 1.1c-1.855 4.603-6.286 7.557-11.233 7.557-6.698 0-12.16-5.462-12.16-12.161 0-5.53 3.71-10.374 9.034-11.782.86-.241 1.924-.378 3.126-.378 4.432 0 8.52 2.439 10.684 6.32zm-14.016-6.596c-5.634 1.512-9.55 6.63-9.55 12.47 0 7.11 5.771 12.882 12.882 12.882a12.78 12.78 0 0 0 11.886-8.004l.275-.653-.653-.275-2.61-1.1-.653-.274-.275.653c-1.34 3.229-4.43 5.324-7.935 5.324-4.74 0-8.623-3.847-8.623-8.622a8.639 8.639 0 0 1 6.424-8.347c.618-.172 1.34-.275 2.2-.275 3.125 0 6.045 1.752 7.59 4.534l.344.619.618-.344 2.474-1.374.618-.343-.344-.62c-2.336-4.121-6.698-6.663-11.336-6.663-1.168 0-2.3.137-3.332.412z"/></g><g><path fill="#001f59" d="M.008 6.494h4.19v31.397H.008z"/></g><g><path fill="#001f59" d="M9.283 9.654c0 1.683 1.236 2.954 2.919 2.954 1.684 0 2.92-1.271 2.92-2.954 0-1.683-1.236-2.92-2.92-2.92-1.683 0-2.919 1.237-2.919 2.92zm.858 28.236h4.191V16.043h-4.191z"/></g><g><path fill="#001f59" d="M19.416 25.25c0-6.664 3.882-9.79 9.035-9.79 3.366 0 6.183 1.51 7.694 4.328 1.512-2.817 4.294-4.328 7.695-4.328 5.118 0 9.034 3.092 9.034 9.79v12.64h-4.225V25.25c0-4.053-2.164-5.874-5.221-5.874-2.954 0-5.187 1.889-5.187 5.874v12.64H34.05V25.25c0-3.985-2.267-5.874-5.221-5.874-3.058 0-5.222 1.82-5.222 5.874v12.64h-4.191z"/></g><g><path fill="#001f59" d="M68.058 15.46c6.905 0 11.68 4.878 11.68 11.507v1.546H60.707c.618 3.882 3.538 6.046 7.35 6.046 2.818 0 4.81-.893 6.116-2.782h4.637c-1.683 4.053-5.668 6.664-10.752 6.664-6.904.034-11.748-4.844-11.748-11.474S61.188 15.46 68.058 15.46zm7.248 9.309c-.824-3.504-3.71-5.393-7.248-5.393-3.641 0-6.355 1.958-7.214 5.393z"/></g><g><path fill="#001f59" d="M131.024 15.46c6.87 0 11.645 4.671 11.645 11.68V37.89h-3.882v-4.775c-1.442 3.538-4.672 5.36-8.485 5.36-5.702 0-11.095-4.124-11.095-11.337 0-6.87 4.878-11.68 11.817-11.68zm-.069 3.915c-4.5 0-7.523 3.195-7.523 7.592 0 4.431 3.023 7.592 7.523 7.592s7.523-3.16 7.523-7.592c0-4.43-3.023-7.592-7.523-7.592z"/></g><g><path fill="#001f59" d="M147.753 6.494h4.191v31.397h-4.191z"/></g><g><path fill="#001f59" d="M157.887 6.494h4.191v31.397h-4.191z"/></g></g></svg>