<?xml version="1.0" encoding="utf-8"?>
<!-- Generator: Adobe Illustrator 19.0.0, SVG Export Plug-In . SVG Version: 6.00 Build 0)  -->
<svg version="1.1" id="Layer_1" xmlns="http://www.w3.org/2000/svg" xmlns:xlink="http://www.w3.org/1999/xlink" x="0px" y="0px"
	 width="22.601368px" height="19.9996128px" viewBox="0 0 22.601368 19.9996128"
	 style="enable-background:new 0 0 22.601368 19.9996128;" xml:space="preserve">
<g>
	<g>
		<path style="fill:#283238;stroke:#283238;stroke-width:0.25;stroke-miterlimit:10;" d="M20.3042183,0.1249056H1.3536847
			c-0.6707932,0-1.2288346,0.538207-1.2288346,1.2090002V14.047349c0.0064327,0.674367,0.5544676,1.2179346,1.2288346,1.2188282
			h6.1872368L6.8926425,17.599123H5.5753579c-0.202096,0-0.3659525,0.1638565-0.3659525,0.3659515
			s0.1638565,0.3659515,0.3659525,0.3659515h10.4610863c0.2020969,0,0.3659534-0.1638565,0.3659534-0.3659515
			s-0.1638565-0.3659515-0.3659534-0.3659515h-1.3174629l-0.6480999-2.3329458h6.2333374
			c0.6743679-0.0008936,1.2224026-0.5444613,1.2288342-1.2188282V1.3339058
			C21.5330524,0.6631126,20.9750118,0.1249056,20.3042183,0.1249056z M1.3536847,0.85681h18.9505329
			c0.268568-0.0041099,0.4901409,0.2087071,0.4969311,0.4770958V11.698144H0.8567544V1.3339058
			C0.8635446,1.0655171,1.0851172,0.8527001,1.3536847,0.85681z M13.9599152,17.599123H7.6522436l0.6480999-2.3329458h5.0114717
			L13.9599152,17.599123z M20.3042183,14.5342731H1.3536847c-0.2703544-0.0003576-0.4910335-0.2165699-0.4969302-0.4869242
			v-1.617301h19.9443951v1.617301C20.7952518,14.3177032,20.5745735,14.5339155,20.3042183,14.5342731z"/>
	</g>
	<path style="fill:#FFFFFF;" d="M21.350872,19.5198879h-7.7736282c-0.5757856,0-1.0425529-0.4667664-1.0425529-1.0425529V5.4132633
		c0-0.5757861,0.4667673-1.0425534,1.0425529-1.0425534h7.7736282c0.5757866,0,1.0425529,0.4667673,1.0425529,1.0425534V18.477335
		C22.393425,19.0531216,21.9266586,19.5198879,21.350872,19.5198879z"/>
	<g>
		<g id="XMLID_1016_">
			<path id="XMLID_1022_" style="fill:#283238;stroke:#283238;stroke-width:0.25;stroke-miterlimit:10;" d="M21.4909363,4.3120284
				h-8.0538921c-0.543273,0-0.9851456,0.4420075-0.9851456,0.9851456v13.5919304
				c0,0.5434074,0.442008,0.9854145,0.9851456,0.9854145h8.0538921c0.5432739,0,0.985281-0.4420071,0.985281-0.9854145V5.297174
				C22.4762173,4.7540359,22.0342102,4.3120284,21.4909363,4.3120284z M21.9824314,18.8891048
				c0,0.2710285-0.2204647,0.4916286-0.4914951,0.4916286h-8.0538921c-0.2710295,0-0.4914942-0.2206001-0.4914942-0.4916286
				v-1.4797421h9.0368814V18.8891048z M21.9824314,17.0803528H12.94555V6.7882409h9.0368814V17.0803528z M21.9824314,6.4592299
				H12.94555V5.297174c0-0.2710299,0.2204647-0.4913592,0.4914942-0.4913592h8.0538921
				c0.2710304,0,0.4914951,0.2203293,0.4914951,0.4913592V6.4592299z"/>
			<path id="XMLID_1019_" style="fill:#283238;stroke:#283238;stroke-width:0.25;stroke-miterlimit:10;" d="M17.4640579,19.2448139
				c0.4457836,0,0.8085041-0.3627224,0.8085041-0.8085041c0-0.4457836-0.3627205-0.8085041-0.8085041-0.8085041
				c-0.4459171,0-0.8085041,0.3627205-0.8085041,0.8085041C16.6555538,18.8820915,17.0182743,19.2448139,17.4640579,19.2448139z
				 M17.4640579,17.9568157c0.2642879,0,0.4793587,0.2152061,0.4793587,0.4794941
				c0,0.264286-0.2150707,0.4792233-0.4793587,0.4792233c-0.2644215,0-0.4793587-0.2149372-0.4793587-0.4792233
				C16.9846992,18.1720219,17.1996365,17.9568157,17.4640579,17.9568157z"/>
			<path id="XMLID_1018_" style="fill:#283238;stroke:#283238;stroke-width:0.25;stroke-miterlimit:10;" d="M18.5830994,5.5509439
				h-2.2380829c-0.0910187,0-0.1646404,0.0738926-0.1646404,0.1647749c0,0.0908828,0.0736217,0.1645055,0.1646404,0.1645055
				h2.2380829c0.0908833,0,0.1646404-0.0736227,0.1646404-0.1645055
				C18.7477398,5.6248364,18.6739826,5.5509439,18.5830994,5.5509439z"/>
			<path id="XMLID_1017_" style="fill:#283238;stroke:#283238;stroke-width:0.25;stroke-miterlimit:10;" d="M15.7525263,5.5509439
				c-0.0434179,0-0.0854883,0.017529-0.1165018,0.0482726c-0.0306091,0.0304742-0.0480032,0.0730839-0.0480032,0.1165023
				c0,0.0434189,0.0173941,0.0854893,0.0480032,0.1165023c0.0306082,0.0304742,0.0730839,0.0480032,0.1165018,0.0480032
				c0.043149,0,0.0856237-0.017529,0.1162329-0.0480032c0.0306091-0.031013,0.0484076-0.0730834,0.0484076-0.1165023
				c0-0.0434184-0.0177984-0.0857582-0.0484076-0.1165023C15.83815,5.5684729,15.7956753,5.5509439,15.7525263,5.5509439z"/>
		</g>
	</g>
</g>
</svg>
