<?xml version="1.0" encoding="UTF-8" standalone="no"?>
<svg width="50px" height="50px" viewBox="0 0 50 50" version="1.1" xmlns="http://www.w3.org/2000/svg" xmlns:xlink="http://www.w3.org/1999/xlink">
    <!-- Generator: Sketch 45.2 (43514) - http://www.bohemiancoding.com/sketch -->
    <title>IconMynumberActive</title>
    <desc>Created with Sketch.</desc>
    <defs>
        <filter x="-11.5%" y="-2.1%" width="125.5%" height="104.3%" filterUnits="objectBoundingBox" id="filter-1">
            <feOffset dx="2" dy="0" in="SourceAlpha" result="shadowOffsetOuter1"></feOffset>
            <feGaussianBlur stdDeviation="7" in="shadowOffsetOuter1" result="shadowBlurOuter1"></feGaussianBlur>
            <feColorMatrix values="0 0 0 0 0   0 0 0 0 0   0 0 0 0 0  0 0 0 0.05 0" type="matrix" in="shadowBlurOuter1" result="shadowMatrixOuter1"></feColorMatrix>
            <feMerge>
                <feMergeNode in="shadowMatrixOuter1"></feMergeNode>
                <feMergeNode in="SourceGraphic"></feMergeNode>
            </feMerge>
        </filter>
        <polygon id="path-2" points="10.9585669 23 0 23 0 11.8034758 0 0.606951693 10.9585669 0.606951693"></polygon>
        <polygon id="path-4" points="11.463 11.6567 11.463 0.605951461 0.573987888 0.605951461 0.573987888 11.6567 11.463 11.6567"></polygon>
    </defs>
    <g id="MyNumbers" stroke="none" stroke-width="1" fill="none" fill-rule="evenodd">
        <g id="7i---My-Campaigns---Campaign-Single-Copy-2" transform="translate(-4.000000, -322.000000)">
            <g id="Dashboard-Sidenav" filter="url(#filter-1)">
                <g id="Icons-/-Campaigns-/-Active" transform="translate(16.000000, 335.000000)">
                    <g>
                        <g id="Group-3" transform="translate(0.000000, 0.394500)">
                            <mask id="mask-3" fill="white">
                                <use xlink:href="#path-2"></use>
                            </mask>
                            <g id="Clip-2"></g>
                            <path d="M10.209,23.0005 C10.184,23.0005 10.16,22.9995 10.134,22.9975 C4.357,22.4275 0,17.6145 0,11.8015 C0,6.0055 4.342,1.1945 10.101,0.6095 C10.505,0.5765 10.881,0.8675 10.923,1.2795 C10.965,1.6915 10.665,2.0595 10.252,2.1015 C5.263,2.6085 1.5,6.7785 1.5,11.8015 C1.5,16.8395 5.275,21.0115 10.282,21.5035 C10.694,21.5445 10.995,21.9115 10.955,22.3245 C10.916,22.7115 10.59,23.0005 10.209,23.0005" id="Fill-1" fill="#FFFFFF" mask="url(#mask-3)"></path>
                        </g>
                        <path d="M12.4824,23.374 C12.1074,23.374 11.7834,23.093 11.7384,22.711 C11.6904,22.3 11.9844,21.927 12.3964,21.879 C16.8314,21.36 20.3354,17.904 20.9164,13.475 C20.9704,13.064 21.3504,12.773 21.7574,12.829 C22.1684,12.883 22.4574,13.26 22.4034,13.67 C21.7324,18.782 17.6894,22.77 12.5704,23.369 C12.5414,23.373 12.5114,23.374 12.4824,23.374" id="Fill-4" fill="#FFFFFF"></path>
                        <g id="Group-8" transform="translate(11.000000, 0.394500)">
                            <mask id="mask-5" fill="white">
                                <use xlink:href="#path-4"></use>
                            </mask>
                            <g id="Clip-7"></g>
                            <path d="M10.7119,11.6567 C10.3259,11.6567 9.9989,11.3617 9.9649,10.9697 C9.5709,6.3037 5.9049,2.5747 1.2489,2.1017 C0.8369,2.0607 0.5359,1.6927 0.5779,1.2807 C0.6199,0.8687 0.9859,0.5687 1.3999,0.6097 C6.7739,1.1557 11.0049,5.4587 11.4609,10.8437 C11.4949,11.2567 11.1889,11.6187 10.7759,11.6547 C10.7539,11.6557 10.7329,11.6567 10.7119,11.6567" id="Fill-6" fill="#FFFFFF" mask="url(#mask-5)"></path>
                        </g>
                        <path d="M11.25,7.2788 C8.539,7.2788 6.333,9.4848 6.333,12.1958 C6.333,14.9068 8.539,17.1128 11.25,17.1128 C13.961,17.1128 16.167,14.9068 16.167,12.1958 C16.167,9.4848 13.961,7.2788 11.25,7.2788 M11.25,18.6128 C7.711,18.6128 4.833,15.7348 4.833,12.1958 C4.833,8.6568 7.711,5.7788 11.25,5.7788 C14.789,5.7788 17.667,8.6568 17.667,12.1958 C17.667,15.7348 14.789,18.6128 11.25,18.6128" id="Fill-9" fill="#FFFFFF"></path>
                        <path d="M13.417,12.1958 C13.417,13.3928 12.447,14.3628 11.25,14.3628 C10.053,14.3628 9.083,13.3928 9.083,12.1958 C9.083,10.9988 10.053,10.0288 11.25,10.0288 C12.447,10.0288 13.417,10.9988 13.417,12.1958" id="Fill-11" fill="#FFFFFF"></path>
                    </g>
                </g>
            </g>
        </g>
    </g>
</svg>