<?xml version="1.0" encoding="utf-8"?>
<!-- Generator: Adobe Illustrator 19.0.0, SVG Export Plug-In . SVG Version: 6.00 Build 0)  -->
<svg version="1.1" id="Layer_1" xmlns="http://www.w3.org/2000/svg" xmlns:xlink="http://www.w3.org/1999/xlink" x="0px" y="0px"
	 width="19px" height="18.96875px" viewBox="0 0 19 18.96875" style="enable-background:new 0 0 19 18.96875;" xml:space="preserve"
	>
<path id="XMLID_17_" style="fill:#000;" d="M18.9910183,14.9849749c0.0400963,0.3082409-0.0537777,0.5765915-0.281662,0.8044748
	l-2.6751633,2.654953c-0.1207008,0.1341343-0.2782526,0.2480946-0.4726114,0.3419685
	c-0.1944866,0.093874-0.3856421,0.1542244-0.573225,0.1810093c-0.0134745,0-0.0537758,0.0033684-0.120822,0.0101051
	c-0.0669231,0.0067387-0.1540594,0.010107-0.2614479,0.010107c-0.2546711,0-0.6670971-0.0436287-1.2369509-0.130764
	c-0.5700188-0.0871372-1.2673111-0.3017101-2.091836-0.6436806c-0.824688-0.3420105-1.7599688-0.8548832-2.8059692-1.5386581
	c-1.0458341-0.6838169-2.1589222-1.622633-3.338891-2.8159132c-0.9386501-0.9253397-1.7163405-1.8103781-2.3331931-2.6551151
	C2.1823533,10.3586836,1.686324,9.5776253,1.3107888,8.8601618C0.9352949,8.1428204,0.6536344,7.4924049,0.4660517,6.9090357
	C0.2782647,6.3258691,0.1508688,5.8229394,0.0837814,5.4005709c-0.0670887-0.42241-0.0938747-0.7542739-0.0803983-0.9956317
	c0.0133097-0.2413607,0.0200472-0.375494,0.0200472-0.4023213c0.0268274-0.187747,0.0871359-0.3786986,0.1810507-0.5732219
	C0.2983545,3.2349102,0.4122752,3.0774825,0.54645,2.956784l2.6751642-2.6751652
	c0.187747-0.1877457,0.4023201-0.2816192,0.6436799-0.2816192c0.1742704,0,0.3284953,0.0502033,0.4625056,0.1508131
	c0.1341343,0.1006512,0.2480969,0.2246795,0.34197,0.3721665l2.152184,4.0830579
	C6.9426131,4.82057,6.9761777,5.055356,6.922565,5.3100662C6.8689528,5.564899,6.7550306,5.7794333,6.5805945,5.9537039
	L5.5950685,6.9392295C5.5682831,6.9661798,5.5447016,7.0096869,5.5246544,7.0699954
	C5.5045648,7.1303463,5.4944582,7.1807542,5.4944582,7.2208509c0.0536122,0.2816591,0.1742711,0.6034179,0.3620586,0.9654369
	c0.1609621,0.3219213,0.4090576,0.7141342,0.7442904,1.1768045c0.3352327,0.4625053,0.811214,0.9955912,1.4281073,1.5990095
	c0.6033783,0.6168528,1.1397085,1.0962019,1.6091166,1.4381723c0.469202,0.3418465,0.8614168,0.5933113,1.1766005,0.7542734
	c0.3150187,0.1607971,0.5565434,0.2580385,0.7240772,0.291563l0.2513008,0.0502424
	c0.0268269,0,0.0704575-0.0101051,0.1308069-0.0301552c0.0603485-0.0200872,0.1039782-0.0435047,0.130806-0.0704546
	l1.1464462-1.1665363c0.2415237-0.2145319,0.5229797-0.3219213,0.8447371-0.3219213
	c0.2280483,0,0.4090567,0.0403013,0.5430679,0.1206999h0.0202131l3.8819599,2.2930555
	C18.7697067,14.4954777,18.9372406,14.7166243,18.9910183,14.9849749L18.9910183,14.9849749z"/>
</svg>
