<?xml version="1.0" encoding="utf-8"?>
<!-- Generator: Adobe Illustrator 19.0.0, SVG Export Plug-In . SVG Version: 6.00 Build 0)  -->
<svg version="1.1" id="Layer_1" xmlns="http://www.w3.org/2000/svg" xmlns:xlink="http://www.w3.org/1999/xlink" x="0px" y="0px"
	 width="30px" height="30px" viewBox="0 0 30 30" style="enable-background:new 0 0 30 30;" xml:space="preserve">
<g id="XMLID_2_">
	<g id="XMLID_87_">
		<path id="XMLID_98_" style="fill:#FFFFFF;" d="M14.9890137,3.1912668
			c-0.5047607,0.1661899-0.9545031,0.2029855-1.343297,0.1088169c-0.045166-0.0108118-0.0891981-0.0233676-0.132184-0.0378418
			c-0.3834753,0.3060477-0.4706688,0.7559643-0.282855,1.0695105c0.0432482,0.072196,0.0987902,0.135149,0.1656675,0.1883368
			c0.2312355-0.114397,0.4794741-0.1780481,0.7218714-0.1836286c0.1047192-0.0024414,0.2084789,0.005929,0.3092737,0.0258093
			c0.1759558,0.0343542,0.3748426,0.1093402,0.5594311,0.261405c0.0032263-0.0010467,0.0063648-0.0017443,0.0096779-0.0026159
			c0.3418846-0.0891113,0.5956163-0.2115307,0.7832556-0.3498187C15.6202917,3.8246372,15.3370886,3.4268625,14.9890137,3.1912668z"
			/>
		<path id="XMLID_97_" style="fill:#FFFFFF;" d="M14.2994909,4.726737c-0.098877-0.0195313-0.2066479-0.0176129-0.316947,0.0033131
			c0.108119,0.0106378,0.2250452,0.012033,0.3496447,0.0038366C14.3214636,4.7310967,14.3104773,4.7288294,14.2994909,4.726737z"/>
		<path id="XMLID_96_" style="fill:#FFFFFF;" d="M14.8097448,1.003418c0.3626356-0.0526646,0.676095-0.1965332,0.9336634-0.3972517
			c-0.0247631-0.0422015-0.050746-0.0838798-0.0782118-0.1246861c-0.1106482-0.1644461-0.2576561-0.3297642-0.4289036-0.4696219
			C15.1568604,0.0108119,15.0797815,0,15,0c-0.5790491,0-1.1479845,0.0404576-1.7100306,0.1042829
			c-0.1557274,0.1640974-0.1963587,0.3391811-0.144392,0.4847935C13.2564001,0.8994838,13.8143482,1.1478097,14.8097448,1.003418z"
			/>
		<path id="XMLID_95_" style="fill:#FFFFFF;" d="M13.3283339,5.075335
			c-0.2544289,0.2380371-0.4699707,0.6331959-0.2400417,0.9638319c0.2612305,0.3758025,0.8285952,0.5568151,1.4457483,0.4595079
			c0.1949635-0.0303435,0.4033546-0.0925994,0.597621-0.1902556c-0.0170898-0.2108326-0.0453405-0.4127717-0.0864086-0.6021552
			c-0.0576344-0.2655902-0.1472683-0.4833984-0.2636719-0.6464496c-0.569458,0.0980048-1.018589,0.054234-1.3549805-0.0685339
			C13.3928576,5.0176129,13.3600721,5.0456891,13.3283339,5.075335z"/>
		<path id="XMLID_94_" style="fill:#FFFFFF;" d="M15.9136095,5.2369909c0.0159559-0.1785717,0.007062-0.3618512-0.0231934-0.5428643
			c-0.1818848,0.1006207-0.389143,0.1855469-0.6202049,0.2530346c0.1136131,0.1780481,0.2093506,0.4064941,0.2726526,0.6989393
			c0.0220604,0.1016674,0.0406322,0.2062988,0.0560656,0.3138952C15.7685194,5.7718329,15.8872766,5.5329242,15.9136095,5.2369909z"
			/>
		<path id="XMLID_93_" style="fill:#FFFFFF;" d="M16.0855541,0.2683803
			c0.0523148-0.0650461,0.0931225-0.1367188,0.1372414-0.2066476c-0.1117821-0.0090681-0.2255678-0.0104632-0.338047-0.0170898
			C15.9516249,0.1198033,16.0257397,0.1831055,16.0855541,0.2683803z"/>
		<path id="XMLID_92_" style="fill:#FFFFFF;" d="M10.709403,27.1555882l0.011858-0.3723145
			c0.0491772-1.5415745,0.9311352-2.776577,2.9939489-2.7396069c0.6019812,0.0106373,1.1587963,0.1370678,1.6564074,0.3349953
			c0.348772-1.4144459,0.5712891-3.0130444,0.6253481-4.7092991c0.0563278-1.7677517-0.0784731-3.4336624-0.3595839-4.9028664
			c-0.4989185,0.1707239-1.0492821,0.2704735-1.6347828,0.2600098c-2.062727-0.0366211-2.865078-1.3014441-2.8160753-2.8431921
			l0.011858-0.3723145c0.0493517-1.541748,0.9313097-2.7767506,2.9942102-2.7399549
			c0.030344,0.0005236,0.0581579,0.0071497,0.0882397,0.0081959c0.0696678-0.3112793,0.3613281-0.5622206,0.7494249-0.6619692
			c0.0800428-0.568325,0.1301794-1.1455431,0.1216345-1.683001c-0.1722069,0.0631275-0.3472033,0.1070728-0.5144396,0.1334052
			c-0.8447266,0.1311383-1.6280689-0.1250348-1.9965467-0.65482c-0.281024-0.4042273-0.1658421-0.9429059,0.2934914-1.3727679
			c0.027379-0.0256348,0.0554552-0.0502234,0.084054-0.0741143c-0.1056776-0.0851002-0.1881628-0.1804895-0.2479773-0.2800641
			c-0.2530336-0.4227118-0.153285-1.0206821,0.3287182-1.4407783c-0.1647949-0.1252093-0.2967176-0.2859933-0.38766-0.4757254
			c-0.1545067-0.3219171-0.0031395-0.7371304,0.3766737-1.0325406c0.1128283-0.0878906,0.2389088-0.1611328,0.3758898-0.2193778
			c-0.4414587-0.1306152-0.7119322-0.3688267-0.8055773-0.6314523c-0.0537109-0.1503209-0.0518799-0.3191267,0.0142994-0.4875837
			C5.4966516,1.3192313,0,7.5094171,0,15c0,7.3060818,5.2259607,13.3851833,12.1421595,14.720459
			C11.1012487,29.2626953,10.6733046,28.2861328,10.709403,27.1555882z"/>
		<path id="XMLID_91_" style="fill:#FFFFFF;" d="M16.7452564,0.1096889
			c-0.1145706,0.204555-0.2479763,0.4009138-0.4216652,0.5712891c0.2296658,0.4968262,0.2870388,1.0403879,0.0889359,1.4922224
			c0.23176,0.3313336,0.3739719,0.7135882,0.3819942,1.0944476c0.0089798,0.4296875-0.1535473,0.8067105-0.4649143,1.1068289
			c0.0806541,0.2907019,0.1132641,0.5934362,0.0871067,0.8874512c-0.0498753,0.5597796-0.3653393,0.9601703-0.7679968,1.2248883
			c0.0306911,0.5998883-0.0162182,1.2522669-0.1023655,1.8933105c0.5693712,0.0559778,1.0042906,0.4207935,0.9903402,0.8595495
			l-0.008894,0.2777967c-0.0023556,0.0723705-0.0203171,0.1410789-0.045166,0.2078686
			c0.4872341,0.3034315,0.8767262,0.6893482,1.1073513,1.138567c1.1732712,1.7456055,1.8112621,4.979248,1.6873608,8.8638744
			c-0.1614819,5.0636501-1.5504665,8.8793945-3.5423059,9.7692871c-0.4496546,0.2333279-0.9658375,0.3956814-1.5274487,0.4628201
			C14.4716101,29.9738426,14.7324915,30,15,30c8.2843018,0,15-6.715786,15-15
			C30,7.3071289,24.2058449,0.9755162,16.7452564,0.1096889z"/>
		<path id="XMLID_90_" style="fill:#FFFFFF;" d="M16.2904568,3.273577
			c-0.0047951-0.2249582-0.0693169-0.4553223-0.1774368-0.6712122c-0.10812,0.1048059-0.238822,0.1986258-0.3938513,0.2781458
			c-0.0892859,0.0460379-0.1771765,0.0885882-0.2636719,0.1276507c0.2797155,0.2246094,0.5151367,0.5278668,0.683856,0.8691406
			C16.2658691,3.6565289,16.2937717,3.4368024,16.2904568,3.273577z"/>
		<path id="XMLID_89_" style="fill:#FFFFFF;" d="M13.1861219,2.4421039
			c0.0459509,0.0960867,0.1352367,0.2394321,0.2920971,0.3529575c0.0396729-0.0197055,0.0808277-0.0383649,0.1235523-0.0559778
			c0.4833984-0.2007186,0.9807482-0.1961846,1.4399071,0.0123813c0.126255-0.0516183,0.2570448-0.1121304,0.3918457-0.1813617
			c0.184413-0.094866,0.321394-0.2204239,0.4167824-0.3663852c-0.2495461-0.298026-0.5810547-0.5269951-0.9302626-0.6089565
			c-0.2335901-0.0547574-0.4381456-0.0741142-0.6156702-0.0699289c-0.435791,0.0102887-0.709054,0.1614816-0.8525743,0.2730887
			C13.2053051,1.9895717,13.096139,2.2546387,13.1861219,2.4421039z"/>
		<path id="XMLID_88_" style="fill:#FFFFFF;" d="M15.9245081,0.9988839
			c-0.1946144,0.1245118-0.4124231,0.2253069-0.6519423,0.2950614c0.2715187,0.094866,0.5249023,0.2474539,0.7441063,0.4389299
			C16.0449219,1.4978027,16.0093479,1.2447684,15.9245081,0.9988839z"/>
	</g>
</g>
</svg>
