<svg xmlns="http://www.w3.org/2000/svg" viewBox="0 0 31.3 31.3"><defs><style>.cls-1{fill:#0071eb;}.cls-2{fill:#fff;}</style></defs><title>Asset 7</title><g id="Layer_2" data-name="Layer 2"><g id="Layer_1-2" data-name="Layer 1"><path class="cls-1" d="M0,15.65A15.65,15.65,0,1,1,15.65,31.3,15.65,15.65,0,0,1,0,15.65Z"/><path class="cls-2" d="M1.17,15.65A14.48,14.48,0,1,1,15.65,30.13,14.49,14.49,0,0,1,1.17,15.65Z"/><path class="cls-1" d="M2.05,15.65a13.6,13.6,0,1,1,13.6,13.6A13.6,13.6,0,0,1,2.05,15.65Z"/><polygon class="cls-2" points="10.72 15.65 10.72 8.33 17.06 11.99 23.41 15.65 17.06 19.31 10.72 22.98 10.72 15.65"/></g></g></svg>