<svg xmlns="http://www.w3.org/2000/svg" viewBox="0 0 31.3 31.3"><defs><style>.cls-1{fill:#0071eb;}.cls-2{fill:#fff;}</style></defs><title>Asset 8</title><g id="Layer_2" data-name="Layer 2"><g id="Layer_1-2" data-name="Layer 1"><path class="cls-1" d="M0,15.65A15.65,15.65,0,1,1,15.65,31.3,15.65,15.65,0,0,1,0,15.65Z"/><path class="cls-2" d="M1.17,15.65A14.48,14.48,0,1,1,15.65,30.13,14.49,14.49,0,0,1,1.17,15.65Z"/><path class="cls-1" d="M2.05,15.65a13.6,13.6,0,1,1,13.6,13.6A13.6,13.6,0,0,1,2.05,15.65Z"/><polygon class="cls-2" points="10.59 18.95 16.3 22.24 16.3 18.02 17.9 18.95 23.61 22.24 23.61 15.65 23.61 9.06 17.9 12.36 16.3 13.28 16.3 9.06 10.59 12.36 4.88 15.65 10.59 18.95"/></g></g></svg>