<?xml version="1.0" encoding="utf-8"?>
<!-- Generator: Adobe Illustrator 18.0.0, SVG Export Plug-In . SVG Version: 6.00 Build 0)  -->
<!DOCTYPE svg PUBLIC "-//W3C//DTD SVG 1.1//EN" "http://www.w3.org/Graphics/SVG/1.1/DTD/svg11.dtd">
<svg version="1.1" id="Layer_1" xmlns="http://www.w3.org/2000/svg" xmlns:xlink="http://www.w3.org/1999/xlink" x="0px" y="0px"
	 width="38.1px" height="29.7px" viewBox="0 0 38.1 29.7" enable-background="new 0 0 38.1 29.7" xml:space="preserve">
<g>
	<path opacity="7.000000e-002" fill="#606060" d="M1.9,0.3h34.3c0.9,0,1.5,0.7,1.5,1.5v26c0,0.9-0.7,1.5-1.5,1.5H1.9
		c-0.9,0-1.5-0.7-1.5-1.5v-26C0.3,1,1,0.3,1.9,0.3z"/>
	<g>
		<path fill="#606060" d="M4.2,22.3V21c11.2,0,21.9-7.2,27.2-18.4l1.2,0.6C27,14.8,15.9,22.3,4.2,22.3z"/>
		<path fill="#606060" d="M33.3,7.4c-0.3,0-0.5-0.2-0.6-0.4l-1.1-3.2l-3.2,1.6c-0.3,0.2-0.7,0-0.9-0.3c-0.2-0.3,0-0.7,0.3-0.9
			l3.9-1.9c0.3-0.2,0.7,0,0.9,0.3c0,0,0,0.1,0,0.1l1.3,3.9c0.1,0.3-0.1,0.7-0.4,0.8C33.4,7.4,33.3,7.4,33.3,7.4z"/>
	</g>
	<path fill="#606060" d="M4.9,27.5h2.6c0.4,0,0.6-0.3,0.6-0.6v-2.6c0-0.4-0.3-0.6-0.6-0.6H4.9c-0.4,0-0.6,0.3-0.6,0.6v2.6
		C4.2,27.2,4.5,27.5,4.9,27.5z"/>
	<path fill="#606060" d="M13.9,22.3h-2.6c-0.4,0-0.6,0.3-0.6,0.6v3.9c0,0.4,0.3,0.6,0.6,0.6h2.6c0.4,0,0.6-0.3,0.6-0.6v-3.9
		C14.5,22.6,14.3,22.3,13.9,22.3z"/>
	<path fill="#606060" d="M20.4,19.7h-2.6c-0.4,0-0.6,0.3-0.6,0.6v6.5c0,0.4,0.3,0.6,0.6,0.6h2.6c0.4,0,0.6-0.3,0.6-0.6v-6.5
		C21,20,20.7,19.7,20.4,19.7z"/>
	<path fill="#606060" d="M26.8,15.8h-2.6c-0.4,0-0.6,0.3-0.6,0.6v10.3c0,0.4,0.3,0.6,0.6,0.6h2.6c0.4,0,0.6-0.3,0.6-0.6V16.5
		C27.5,16.1,27.2,15.8,26.8,15.8z"/>
	<path fill="#606060" d="M33.3,8.7h-2.6C30.3,8.7,30,9,30,9.4v17.4c0,0.4,0.3,0.6,0.6,0.6h2.6c0.4,0,0.6-0.3,0.6-0.6V9.4
		C33.9,9,33.6,8.7,33.3,8.7z"/>
	<path fill="#606060" d="M36.3,29.7H1.8c-1,0-1.8-0.8-1.8-1.8V1.8C0,0.8,0.8,0,1.8,0h34.5c1,0,1.8,0.8,1.8,1.8v26.1
		C38.1,28.9,37.3,29.7,36.3,29.7z M1.8,0.7c-0.6,0-1.1,0.5-1.1,1.1v26.1c0,0.6,0.5,1.1,1.1,1.1h34.5c0.6,0,1.1-0.5,1.1-1.1V1.8
		c0-0.6-0.5-1.1-1.1-1.1H1.8z"/>
</g>
</svg>
