<?xml version="1.0" encoding="utf-8"?>
<!-- Generator: Adobe Illustrator 18.0.0, SVG Export Plug-In . SVG Version: 6.00 Build 0)  -->
<!DOCTYPE svg PUBLIC "-//W3C//DTD SVG 1.1//EN" "http://www.w3.org/Graphics/SVG/1.1/DTD/svg11.dtd">
<svg version="1.1" id="Layer_1" xmlns="http://www.w3.org/2000/svg" xmlns:xlink="http://www.w3.org/1999/xlink" x="0px" y="0px"
	 width="24.5px" height="24.5px" viewBox="0 0 24.5 24.5" enable-background="new 0 0 24.5 24.5" xml:space="preserve">
<g>
	<g>
		<path fill="#C1C1C1" d="M23.8,20.6L18.2,15c-0.8,1.3-1.9,2.4-3.2,3.2l5.6,5.6c0.9,0.9,2.4,0.9,3.2,0
			C24.7,22.9,24.7,21.5,23.8,20.6z"/>
		<path fill="#C1C1C1" d="M18.4,9.2c0-5.1-4.1-9.2-9.2-9.2C4.1,0,0,4.1,0,9.2s4.1,9.2,9.2,9.2C14.3,18.4,18.4,14.3,18.4,9.2z
			 M9.2,16.1c-3.8,0-6.9-3.1-6.9-6.9s3.1-6.9,6.9-6.9c3.8,0,6.9,3.1,6.9,6.9S13,16.1,9.2,16.1z"/>
		<path fill="#C1C1C1" d="M3.8,9.2h1.5c0-2.1,1.7-3.8,3.8-3.8V3.8C6.2,3.8,3.8,6.2,3.8,9.2z"/>
	</g>
</g>
</svg>
