<?xml version="1.0" encoding="utf-8"?>
<!-- Generator: Adobe Illustrator 19.0.0, SVG Export Plug-In . SVG Version: 6.00 Build 0)  -->
<svg version="1.1" id="Layer_1" xmlns="http://www.w3.org/2000/svg" xmlns:xlink="http://www.w3.org/1999/xlink" x="0px" y="0px"
	 width="17px" height="17.0080891px" viewBox="0 0 17 17.0080891" style="enable-background:new 0 0 17 17.0080891;"
	 xml:space="preserve">
<path id="XMLID_174_" style="fill-rule:evenodd;clip-rule:evenodd;fill:#FFFFFF;" d="M16.9466076,7.5563154
	c-0.0268822-0.2390118-0.3054295-0.4187298-0.546339-0.4187298c-0.7789488,0-1.4701347-0.45715-1.7601442-1.1647058
	c-0.2958622-0.7245517-0.1050005-1.5692816,0.475338-2.1017048c0.1827965-0.1670649,0.2050943-0.4468763,0.0518665-0.641139
	c-0.3987255-0.5062532-0.8517685-0.9636445-1.3465576-1.3599179c-0.1936283-0.155284-0.4781046-0.1336985-0.6461191,0.0522616
	c-0.5064907,0.5611243-1.416687,0.7696195-2.1199694,0.4762094C10.3230944,2.090709,9.8613548,1.3491584,9.9067373,0.5532108
	c0.0147848-0.2501606-0.1680136-0.4675894-0.4172258-0.4966066C8.8544617-0.0169269,8.2139559-0.0190611,7.5770869,0.0516228
	c-0.2461286,0.0271979-0.4290061,0.2394089-0.4206252,0.486487c0.0274358,0.7881986-0.4395242,1.5167041-1.1640735,1.813514
	C5.2974858,2.635468,4.3937721,2.4285545,3.8882306,1.872332C3.7211633,1.6891382,3.4415908,1.6666044,3.2467732,1.8185683
	C2.7374399,2.2182415,2.274195,2.6759489,1.8717567,3.1780906C1.714891,3.3733015,1.7380569,3.6561964,1.9224366,3.8238935
	C2.5141599,4.359796,2.7050228,5.2118802,2.3976977,5.9448133C2.1042852,6.6436706,1.3788623,7.0937052,0.548366,7.0937052
	C0.278754,7.0850887,0.0869427,7.2660685,0.0572933,7.5112481C-0.017501,8.1496191-0.018372,8.8004026,0.0535775,9.4439926
	c0.0268818,0.2400427,0.3138086,0.4182549,0.557487,0.4182549c0.7402862-0.018898,1.4506047,0.4391279,1.7489972,1.1646261
	c0.2971261,0.7245512,0.105947,1.5689678-0.4753382,2.1020241c-0.1819282,0.1670656-0.2050942,0.4462423-0.051551,0.6402683
	c0.3946904,0.503089,0.8480524,0.9607983,1.3444213,1.3604717c0.1948154,0.1568632,0.4780262,0.134964,0.6469901-0.0513144
	c0.5087035-0.5623875,1.4185832-0.7705679,2.1190197-0.4765234c0.7338028,0.3070087,1.1952262,1.0485601,1.1501598,1.8447447
	c-0.0148644,0.2501621,0.168644,0.4682198,0.4169092,0.4966049C7.8356299,16.9811802,8.1623268,17,8.4900503,17
	c0.3110428,0,0.6220036-0.0170002,0.9330473-0.0515518c0.2464447-0.0271988,0.4290066-0.2397251,0.4206247-0.4868031
	c-0.0283833-0.7878809,0.4395218-1.516387,1.1631269-1.812645c0.6995649-0.2856598,1.599247-0.0765362,2.1051044,0.4787407
	c0.1680136,0.1828766,0.4456892,0.2050943,0.6414547,0.0537615c0.5083895-0.3987226,0.9707603-0.8561134,1.3750191-1.3595209
	c0.1568661-0.1948948,0.1346493-0.4781084-0.0506802-0.6461191c-0.5917215-0.5355883-0.783534-1.3879881-0.4762087-2.120285
	c0.2887468-0.689291,0.9873657-1.152297,1.7387991-1.152297l0.1049976,0.0027676
	c0.2439938,0.0197668,0.4682217-0.1680107,0.4975548-0.4169083C17.0179234,8.8501339,17.0188732,8.1999836,16.9466076,7.5563154
	L16.9466076,7.5563154z M8.5135326,11.3533354c-1.5634308,0-2.8349543-1.2718401-2.8349543-2.8351955
	c0-1.5634308,1.2715235-2.835268,2.8349543-2.835268c1.5636692,0,2.8351927,1.2718372,2.8351927,2.835268
	C11.3487253,10.0814953,10.0772018,11.3533354,8.5135326,11.3533354L8.5135326,11.3533354z M8.5135326,11.3533354"/>
</svg>
