<?xml version="1.0" encoding="utf-8"?>
<!-- Generator: Adobe Illustrator 18.0.0, SVG Export Plug-In . SVG Version: 6.00 Build 0)  -->
<!DOCTYPE svg PUBLIC "-//W3C//DTD SVG 1.1//EN" "http://www.w3.org/Graphics/SVG/1.1/DTD/svg11.dtd">
<svg version="1.1" id="Layer_1" xmlns="http://www.w3.org/2000/svg" xmlns:xlink="http://www.w3.org/1999/xlink" x="0px" y="0px"
	 width="12.2px" height="11.7px" viewBox="0 0 12.2 11.7" enable-background="new 0 0 12.2 11.7" xml:space="preserve">
<g>
	<path fill="#FFC143" d="M6.5,0.9l1.3,2.7C7.9,3.7,8,3.8,8.2,3.9l2.9,0.4c0.4,0.1,0.5,0.5,0.3,0.8L9.3,7.2C9.1,7.3,9.1,7.4,9.1,7.6
		l0.5,2.9c0.1,0.4-0.3,0.7-0.7,0.5L6.3,9.6C6.2,9.5,6,9.5,5.9,9.6L3.3,11c-0.3,0.2-0.7-0.1-0.7-0.5l0.5-2.9c0-0.2,0-0.3-0.1-0.4
		L0.8,5.1C0.5,4.8,0.7,4.3,1.1,4.3L4,3.9c0.2,0,0.3-0.1,0.4-0.3l1.3-2.7C5.9,0.6,6.3,0.6,6.5,0.9z"/>
	<path fill="#383838" d="M11.2,3.6L8.4,3.2L7.1,0.6C6.9,0.2,6.5,0,6.1,0c-0.4,0-0.8,0.2-1,0.6L3.8,3.2L1,3.6C0.5,3.7,0.2,4,0.1,4.4
		c-0.1,0.4,0,0.9,0.3,1.2l2,2l-0.5,2.8c-0.1,0.4,0.1,0.9,0.5,1.1c0.4,0.3,0.8,0.3,1.2,0.1l2.5-1.3l2.5,1.3c0.2,0.1,0.4,0.1,0.5,0.1
		c0.2,0,0.5-0.1,0.7-0.2c0.4-0.3,0.5-0.7,0.5-1.1L9.8,7.6l2-2c0.3-0.3,0.4-0.8,0.3-1.2C12,4,11.7,3.7,11.2,3.6z M8.8,6.7
		c-0.3,0.3-0.4,0.6-0.3,1l0.4,2.5L6.6,9C6.3,8.8,5.9,8.8,5.6,9l-2.3,1.2l0.4-2.5c0.1-0.4-0.1-0.7-0.3-1L1.6,4.9l2.5-0.4
		C4.5,4.5,4.8,4.2,5,3.9l1.1-2.3l1.1,2.3c0.2,0.3,0.5,0.6,0.9,0.6l2.5,0.4L8.8,6.7z"/>
</g>
</svg>
