<?xml version="1.0" encoding="utf-8"?>
<!-- Generator: Adobe Illustrator 19.0.0, SVG Export Plug-In . SVG Version: 6.00 Build 0)  -->
<svg version="1.1" id="Layer_1" xmlns="http://www.w3.org/2000/svg" xmlns:xlink="http://www.w3.org/1999/xlink" x="0px" y="0px"
	 width="56.2953796px" height="55.3282089px" viewBox="0 0 56.2953796 55.3282089"
	 style="enable-background:new 0 0 56.2953796 55.3282089;" xml:space="preserve">
<g>
	<path style="fill:#FFFFFF;" d="M55.3520889,15.0167656c0.0117302-0.1464643,0.0193634-0.2940483,0.0193634-0.4434767
		c0-3.0421667-2.4661903-5.5083551-5.5084229-5.5083551c-2.4358292,0-4.5009499,1.5817375-5.2279396,3.773634
		c-0.0928574-0.0071125-0.1857796-0.0141592-0.2804146-0.0141592c-2.0040092,0-3.6286201,1.6246099-3.6286201,3.6286173
		c0,2.0040741,1.6246109,3.628685,3.6286201,3.628685h8.6056442c1.7105522,0,3.0972214-1.3867378,3.0972214-3.09729
		C56.0575409,16.2371502,55.7928009,15.5517826,55.3520889,15.0167656z"/>
	<path style="fill:#424242;" d="M52.9603195,20.3195839h-8.6056442c-2.1320343,0-3.8664856-1.7345238-3.8664856-3.8665581
		c0-2.1319666,1.7344513-3.8664904,3.8664856-3.8664904c0.0391846,0,0.0777092,0.0010538,0.1155777,0.0027657
		c0.8293266-2.257884,2.9734802-3.7622404,5.3927765-3.7622404c3.1685448,0,5.7462273,2.5777483,5.7462273,5.7462282
		c0,0.1143923-0.0043449,0.2355022-0.0131683,0.3678741c0.4515762,0.5823669,0.6992607,1.3040876,0.6992607,2.0433245
		C56.2953491,18.8235245,54.7992897,20.3195839,52.9603195,20.3195839z M44.3546753,13.0622158
		c-1.8697205,0-3.3908119,1.5211496-3.3908119,3.39081c0,1.8697281,1.5210915,3.3908768,3.3908119,3.3908768h8.6056442
		c1.5766678,0,2.8593483-1.2826824,2.8593483-2.8594151c0-0.6615276-0.2312202-1.3065901-0.6511879-1.8166475
		c-0.0391808-0.0474825-0.0582809-0.108531-0.0534058-0.1698437c0.0124435-0.1573305,0.0185051-0.2962217,0.0185051-0.4247074
		c0-2.9062395-2.3643112-5.2706137-5.2705498-5.2706137c-2.2756653,0-4.2859306,1.4511442-5.002182,3.6109028
		c-0.0344429,0.1037235-0.1362572,0.1721487-0.2439995,0.1620722
		C44.5261002,13.0688667,44.4402885,13.0622158,44.3546753,13.0622158z"/>
	<path style="fill:#FFFFFF;" d="M12.2264013,3.1823831c-0.0973358,0-0.1934147,0.0055318-0.2884512,0.0145543
		C11.3040171,1.512464,9.6825743,0.3118372,7.7764888,0.3118372c-1.9060798,0-3.5275941,1.2006269-4.1614618,2.8851001
		C3.5199966,3.1879148,3.4239123,3.1823831,3.3265107,3.1823831c-1.6649797,0-3.0147052,1.3497252-3.0147052,3.0147052
		c0,1.6649141,1.3497255,3.0146399,3.0147052,3.0146399h8.8998909c1.664979,0,3.0147047-1.3497257,3.0147047-3.0146399
		C15.241106,4.5321083,13.8913803,3.1823831,12.2264013,3.1823831z"/>
	<path style="fill:#424242;" d="M12.2264671,9.5236893H3.3265107c-1.8342304,0-3.326535-1.4923048-3.326535-3.3265352
		c0-1.8342962,1.4923044-3.3266008,3.326535-3.3266008c0.0276597,0,0.0555887,0.0003951,0.0837693,0.0012512
		c0.748924-1.7270823,2.4749467-2.8717971,4.366209-2.8717971s3.617291,1.1447147,4.3662086,2.8717971
		c0.0281868-0.0008562,0.0561094-0.0012512,0.0837698-0.0012512c1.8342361,0,3.3265409,1.4923046,3.3265409,3.3266008
		C15.5530081,8.0313845,14.0607033,9.5236893,12.2264671,9.5236893z M3.3265107,3.4942787
		c-1.4903946,0-2.7028096,1.2125466-2.7028096,2.7028754c0,1.490263,1.212415,2.7028093,2.7028096,2.7028093h8.8999567
		c1.4903946,0,2.7028093-1.2125463,2.7028093-2.7028093c0-1.4903288-1.2124147-2.7028754-2.7028093-2.7028754
		c-0.0876551,0-0.1739273,0.0050709-0.2592764,0.0130394c-0.1418552,0.0139616-0.2715921-0.0690832-0.3211155-0.2005982
		c-0.6039686-1.604853-2.1590338-2.682987-3.8695865-2.682987c-1.710618,0-3.2656121,1.0781339-3.8695862,2.682987
		C3.8573785,3.4384325,3.7250073,3.5210822,3.5859187,3.507318C3.5003057,3.4993496,3.4140337,3.4942787,3.3265107,3.4942787z"/>
	<path style="fill:#FFFFFF;" d="M53.5710716,37.7680206c0.0006561-0.0174522,0.0011177-0.0348396,0.0015144-0.0523567
		c0.037735-1.8071632-1.3990517-3.3586731-3.2042389-3.4522552c-1.9515877-0.1012192-3.5656624,1.45121-3.5656624,3.3806038
		c0,0.0689507,0.0020447,0.1373787,0.0061264,0.2052765c0.0887756,1.4761009-0.4191742,2.9246788-1.3057327,4.1081161
		c-0.7936363,1.0593643-1.2361908,2.3967094-1.1549873,3.8400841c0.1690521,3.0052872,2.6537437,5.4197769,5.6625214,5.5088158
		c3.3115196,0.0979919,6.026844-2.5573349,6.026844-5.846859c0-1.3148842-0.4339943-2.5280914-1.1665154-3.504673
		C53.9666023,40.749073,53.5166092,39.2741547,53.5710716,37.7680206z"/>
	<path style="fill:#424242;" d="M50.189743,51.5668983c-0.0621033,0-0.1244011-0.000988-0.1868324-0.0028305
		c-3.1391678-0.0928574-5.7361526-2.6194382-5.9123192-5.752224c-0.0809364-1.4390907,0.3473244-2.8629036,1.206028-4.0090027
		c0.8903084-1.1885757,1.3358955-2.5870361,1.2548256-3.9381447c-0.0044708-0.0729027-0.0067177-0.146595-0.0067177-0.2206841
		c0-1.0090485,0.4031067-1.9473724,1.1350327-2.6424179c0.7316055-0.6947174,1.6906662-1.047184,2.701889-0.9958153
		c1.9422989,0.1006279,3.489399,1.7674522,3.4487648,3.7153511l-0.0015144,0.055584c0,0.0001297,0,0.0003281,0,0.0006599
		c-0.0524902,1.4506798,0.3908577,2.8793678,1.2484436,4.0226364c0.7967911,1.0622597,1.2180061,2.3276901,1.2180061,3.6595039
		c0,1.6655045-0.658226,3.2218208-1.8534584,4.3821449C53.2917747,50.9583855,51.7880096,51.5668983,50.189743,51.5668983z
		 M50.186451,34.5166283c-0.8057518,0-1.5642853,0.3016205-2.1513939,0.8590965
		c-0.6284027,0.5966568-0.9744759,1.4021454-0.9744759,2.2682877c0,0.0636826,0.0019073,0.1269722,0.0057297,0.1896019
		c0.0884438,1.4730072-0.3933601,2.9923782-1.3567734,4.278553c-0.7860603,1.0490265-1.1780396,2.3527832-1.1039505,3.6707649
		c0.1613503,2.8676491,2.5387611,5.1804581,5.4126015,5.2656097c1.5276031,0.0445213,2.9705162-0.5150604,4.0643234-1.5769958
		c1.0943336-1.062458,1.6969833-2.4872627,1.6969833-4.0120316c0-1.219265-0.3855209-2.3776131-1.1148148-3.3499146
		c-0.9280472-1.2372437-1.4078751-2.782299-1.3513069-4.350338l0.0013199-0.0485344
		c0.0348358-1.672554-1.2928276-3.1034164-2.9597168-3.1897545C50.2986679,34.5181427,50.242363,34.5166283,50.186451,34.5166283z
		 M53.5711365,37.7679558h0.0016479H53.5711365z"/>
	<g>
		<line style="fill:#5E35B1;" x1="50.1879654" y1="42.7941742" x2="50.1879654" y2="55.0703239"/>
		<path style="fill:#424242;" d="M50.1879654,55.3282166c-0.1424484,0-0.2578926-0.1155128-0.2578926-0.2578926V42.7942429
			c0-0.1423836,0.1154442-0.2578926,0.2578926-0.2578926c0.1425133,0,0.2579575,0.115509,0.2579575,0.2578926v12.2760811
			C50.4459229,55.2127037,50.3304787,55.3282166,50.1879654,55.3282166z"/>
	</g>
	<g>
		<line style="fill:#5E35B1;" x1="47.9312019" y1="46.4653358" x2="50.1879654" y2="47.9528351"/>
		<path style="fill:#424242;" d="M50.1877022,48.2107925c-0.0486679,0-0.0979271-0.0137634-0.1417236-0.042675l-2.2567635-1.4874306
			c-0.1189384-0.0782356-0.1517982-0.238266-0.0734291-0.3572044c0.078434-0.1188698,0.2384644-0.1517982,0.3573341-0.0733643
			l2.2568321,1.4874992c0.1188698,0.0782356,0.1517982,0.238266,0.0733643,0.3571358
			C50.3537903,48.1699638,50.2715378,48.2107925,50.1877022,48.2107925z"/>
	</g>
	<g>
		<line style="fill:#FFC107;" x1="47.3507423" y1="55.0703239" x2="53.0252609" y2="55.0703239"/>
		<path style="fill:#424242;" d="M53.0251884,55.3282166h-5.6744461c-0.1425133,0-0.2579575-0.1155128-0.2579575-0.2578926
			c0-0.1424484,0.1154442-0.2579613,0.2579575-0.2579613h5.6744461c0.1425133,0,0.2579575,0.1155128,0.2579575,0.2579613
			C53.2831459,55.2127037,53.1677017,55.3282166,53.0251884,55.3282166z"/>
	</g>
	<path style="fill:#FFFFFF;" d="M9.490202,37.7680206c0.0005932-0.0174522,0.0011196-0.0348396,0.0014486-0.0523567
		c0.0377359-1.8071632-1.3990517-3.3586731-3.2042394-3.4522552c-1.9515204-0.1012192-3.5656593,1.45121-3.5656593,3.3806038
		c0,0.0689507,0.0020416,0.1373787,0.0061247,0.2052765c0.0887744,1.4761009-0.4191096,2.9246788-1.3057334,4.1081161
		c-0.7936347,1.0593643-1.2361891,2.3967094-1.1549883,3.8400841c0.1690532,3.0052872,2.6537466,5.4197769,5.6625252,5.5088158
		c3.3115196,0.0979919,6.0268421-2.5573349,6.0268421-5.846859c0-1.3148842-0.4339933-2.5280914-1.1665134-3.504673
		C9.8856697,40.749073,9.4356728,39.2741547,9.490202,37.7680206z"/>
	<path style="fill:#424242;" d="M6.108809,51.5668983c-0.0621028,0-0.1244025-0.000988-0.1868343-0.0028305
		c-3.1391079-0.0928574-5.7361522-2.6194382-5.9123182-5.752224c-0.0809374-1.4390907,0.3473263-2.8629036,1.2060269-4.0090027
		c0.8904434-1.1885757,1.3360275-2.5872307,1.2548267-3.9381447c-0.0044725-0.0729027-0.0067174-0.146595-0.0067174-0.2206841
		c0-1.0090485,0.4031067-1.9473724,1.1350996-2.6424179c0.7314661-0.6947174,1.6904061-1.047184,2.7018878-0.9958153
		c1.9423666,0.1006279,3.489397,1.7674522,3.4487638,3.7153511l-0.0015802,0.055584c0,0.0001297,0,0.0003281,0,0.0006599
		c-0.0524874,1.4506798,0.3908577,2.8793678,1.2484446,4.0226364c0.7967892,1.0622597,1.2180071,2.3276901,1.2180071,3.6595039
		c0,1.6655045-0.6582279,3.2218208-1.8534613,4.3821449C9.2108393,50.9583855,7.7072077,51.5668983,6.108809,51.5668983z
		 M6.105516,34.5166283c-0.8057523,0-1.5642853,0.3016205-2.1513944,0.8590965
		c-0.6284013,0.5966568-0.9744761,1.4021454-0.9744761,2.2682877c0,0.0636826,0.0019097,0.1269722,0.0057294,0.1896019
		c0.0885768,1.4728775-0.3932941,2.9922485-1.3567721,4.278553c-0.7860612,1.0490265-1.1780381,2.3527832-1.1038839,3.6707649
		c0.1612822,2.8676491,2.5386956,5.1804581,5.4125338,5.2656097c1.5283279,0.0464935,2.9706478-0.5148659,4.064455-1.5769958
		c1.094203-1.0622635,1.6968546-2.4872627,1.6968546-4.0120316c0-1.219265-0.3855228-2.3776131-1.1148157-3.3499146
		c-0.9280481-1.2372437-1.407877-2.782299-1.351306-4.350338l0.0014486-0.0497208
		c0.0348377-1.6713676-1.2929578-3.1022301-2.959847-3.1885681C6.2177353,34.5181427,6.161428,34.5166283,6.105516,34.5166283z
		 M9.490202,37.7679558h0.0017128H9.490202z"/>
	<g>
		<line style="fill:#5E35B1;" x1="6.1070967" y1="42.7941742" x2="6.1070967" y2="55.0703239"/>
		<path style="fill:#424242;" d="M6.1070309,55.3282166c-0.1424475,0-0.2578936-0.1155128-0.2578936-0.2578926V42.7942429
			c0-0.1423836,0.1154461-0.2578926,0.2578936-0.2578926c0.1425128,0,0.2579594,0.115509,0.2579594,0.2578926v12.2760811
			C6.3649902,55.2127037,6.2495437,55.3282166,6.1070309,55.3282166z"/>
	</g>
	<g>
		<line style="fill:#5E35B1;" x1="3.850266" y1="46.4653358" x2="6.1070967" y2="47.9528351"/>
		<path style="fill:#424242;" d="M6.1067672,48.2107925c-0.0486674,0-0.097928-0.0137634-0.1417227-0.042675L3.7082798,46.680687
			c-0.1189365-0.0782356-0.151799-0.238266-0.0734298-0.3572044c0.0783691-0.1188698,0.2384658-0.1517982,0.3574023-0.0733643
			l2.2567649,1.4874992c0.1188703,0.0782356,0.1517987,0.238266,0.0733638,0.3571358
			C6.2728572,48.1699638,6.1906023,48.2107925,6.1067672,48.2107925z"/>
	</g>
	<g>
		<line style="fill:#FFC107;" x1="3.2698743" y1="55.0703239" x2="8.9443254" y2="55.0703239"/>
		<path style="fill:#424242;" d="M8.9443254,55.3282166H3.2698083c-0.1424472,0-0.2578933-0.1155128-0.2578933-0.2578926
			c0-0.1424484,0.1154461-0.2579613,0.2578933-0.2579613h5.6745172c0.1424408,0,0.2578869,0.1155128,0.2578869,0.2579613
			C9.2022123,55.2127037,9.0867662,55.3282166,8.9443254,55.3282166z"/>
	</g>
	<rect x="9.2557535" y="28.0975456" style="fill:#F8F9F9;" width="37.7836189" height="26.893816"/>
	<path style="fill:#424242;" d="M47.0393066,55.249321H9.2556877c-0.1424475,0-0.2578936-0.1155777-0.2578936-0.2579613V28.0976105
		c0-0.1424465,0.1154461-0.2579594,0.2578936-0.2579594h37.7836189c0.1425209,0,0.2579613,0.1155128,0.2579613,0.2579594v26.8937492
		C47.2972679,55.1337433,47.1818275,55.249321,47.0393066,55.249321z M9.5136471,54.7334671h37.2677765V28.355505H9.5136471
		V54.7334671z"/>
	<path style="fill:#424242;" d="M47.0393066,44.9438591H28.1474972c-0.1424465,0-0.2578926-0.1155777-0.2578926-0.2579613
		V28.0976105c0-0.1424465,0.1154461-0.2579594,0.2578926-0.2579594h18.8918095c0.1425209,0,0.2579613,0.1155128,0.2579613,0.2579594
		v16.5882874C47.2972679,44.8282814,47.1818275,44.9438591,47.0393066,44.9438591z M28.4054565,44.4280052h18.3759651V28.355505
		H28.4054565V44.4280052z"/>
	<g>
		<polygon style="fill:none;" points="47.0393753,44.6644974 37.5892525,44.6644974 28.1391335,44.6644974 28.1391335,28.2100277 
			47.0393753,28.2100277 		"/>
	</g>
	<g>
		<path style="fill:#424242;" d="M47.0393066,44.9438591H28.1474972c-0.1424465,0-0.2578926-0.1155777-0.2578926-0.2579613
			V28.0976105c0-0.1424465,0.1154461-0.2579594,0.2578926-0.2579594h18.8918095
			c0.1425209,0,0.2579613,0.1155128,0.2579613,0.2579594v16.5882874
			C47.2972679,44.8282814,47.1818275,44.9438591,47.0393066,44.9438591z M28.4054565,44.4280052h18.3759651V28.355505H28.4054565
			V44.4280052z"/>
	</g>
	<rect x="11.6346159" y="28.0975456" style="fill:#FFFFFF;" width="14.1340265" height="26.893816"/>
	<path style="fill:#424242;" d="M25.7686424,55.249321H11.6346817c-0.1425133,0-0.2579594-0.1155777-0.2579594-0.2579613V28.0976105
		c0-0.1424465,0.1154461-0.2579594,0.2579594-0.2579594h14.1339607c0.1424408,0,0.2578869,0.1155128,0.2578869,0.2579594v26.8937492
		C26.0265293,55.1337433,25.9110832,55.249321,25.7686424,55.249321z M11.8925753,54.7334671h13.6181002V28.355505H11.8925753
		V54.7334671z"/>
	<path style="fill:#337D3E;" d="M23.3415871,44.6858978h-0.0796719c-0.4466248,0-0.8086853-0.3620605-0.8086853-0.8086853
		v-3.2620544c0-0.4466248,0.3620605-0.8086853,0.8086853-0.8086853h0.0796719c0.4466667,0,0.8087616,0.3620949,0.8087616,0.8087578
		V43.87714C24.1503487,44.3238029,23.7882538,44.6858978,23.3415871,44.6858978z"/>
	<path style="fill:#424242;" d="M23.3017235,44.9438591c-0.6100273,0-1.1064453-0.4964256-1.1064453-1.1066513V40.655098
		c0-0.6102257,0.496418-1.1066513,1.1064453-1.1066513c0.6101589,0,1.1065845,0.4964256,1.1065845,1.1066513v3.1821098
		C24.408308,44.4474335,23.9118824,44.9438591,23.3017235,44.9438591z M23.3017235,40.0643005
		c-0.3256588,0-0.5905342,0.2650032-0.5905342,0.5907974v3.1821098c0,0.3257904,0.2648754,0.5907974,0.5905342,0.5907974
		c0.3257256,0,0.5906715-0.265007,0.5906715-0.5907974V40.655098C23.892395,40.3293037,23.627449,40.0643005,23.3017235,40.0643005z
		"/>
	<g>
		<line style="fill:#5E35B1;" x1="6.1070967" y1="54.9913597" x2="50.1879654" y2="54.9913597"/>
		<path style="fill:#424242;" d="M50.1879654,55.249321H6.1070309c-0.1424475,0-0.2578936-0.1155777-0.2578936-0.2579613
			c0-0.1423798,0.1154461-0.2578926,0.2578936-0.2578926h44.0809326c0.1425133,0,0.2579575,0.1155128,0.2579575,0.2578926
			C50.4459229,55.1337433,50.3304787,55.249321,50.1879654,55.249321z"/>
	</g>
	<path style="fill:#337D3E;" d="M9.4035339,36.0995522H9.1079082c-1.6573024,0-3.0008116-1.3435097-3.0008116-3.0008125v-8.4772224
		h6.2972479v8.4772224C12.4043446,34.7560425,11.0608358,36.0995522,9.4035339,36.0995522z"/>
	<path style="fill:#424242;" d="M9.2556877,36.3573799c-1.8783541,0-3.4065504-1.5280647-3.4065504-3.4064865V24.621582
		c0-0.1423817,0.1154461-0.2579594,0.2578936-0.2579594h6.2973137c0.1425133,0,0.2579594,0.1155777,0.2579594,0.2579594v8.3293114
		C12.6623039,34.8293152,11.1341076,36.3573799,9.2556877,36.3573799z M6.3649902,24.8794765v8.0714169
		c0,1.5939217,1.2967768,2.8906326,2.8906975,2.8906326s2.8907633-1.296711,2.8907633-2.8906326v-8.0714169H6.3649902z"/>
	<path style="fill:#9BBD37;" d="M15.7008162,36.0995522h-0.2956285c-1.65732,0-3.000843-1.3435249-3.000843-3.000843v-8.4771919
		h6.2973137v8.4771919C18.7016582,34.7560272,17.3581352,36.0995522,15.7008162,36.0995522z"/>
	<path style="fill:#424242;" d="M15.5530081,36.3573799c-1.8784266,0-3.4065571-1.5280647-3.4065571-3.4064865V24.621582
		c0-0.1423817,0.1154461-0.2579594,0.2578936-0.2579594h6.2973137c0.1424484,0,0.2578945,0.1155777,0.2578945,0.2579594v8.3293114
		C18.9595528,34.8293152,17.4314213,36.3573799,15.5530081,36.3573799z M12.6623039,24.8794765v8.0714169
		c0,1.5939217,1.2967768,2.8906326,2.8907042,2.8906326c1.593915,0,2.8906908-1.296711,2.8906908-2.8906326v-8.0714169H12.6623039z"
		/>
	<path style="fill:#337D3E;" d="M21.9980965,36.0995522h-0.2956257c-1.6573029,0-3.0008125-1.3435097-3.0008125-3.0008125
		v-8.4772224h6.2972488v8.4772224C24.9989071,34.7560425,23.6553974,36.0995522,21.9980965,36.0995522z"/>
	<path style="fill:#424242;" d="M21.8503151,36.3573799c-1.8784199,0-3.4066162-1.5280647-3.4066162-3.4064865V24.621582
		c0-0.1423817,0.1154461-0.2579594,0.2579594-0.2579594h6.2971821c0.1425133,0,0.2579594,0.1155777,0.2579594,0.2579594v8.3293114
		C25.2567997,34.8293152,23.7286034,36.3573799,21.8503151,36.3573799z M18.9595528,24.8794765v8.0714169
		c0,1.5939217,1.2968426,2.8906326,2.8907623,2.8906326c1.5939217,0,2.8906326-1.296711,2.8906326-2.8906326v-8.0714169H18.9595528z
		"/>
	<path style="fill:#9BBD37;" d="M28.2953434,36.0995522h-0.2956257c-1.6573029,0-3.0008106-1.3435097-3.0008106-3.0008125
		v-8.4772224h6.2972469l0.0000019,8.4772224C31.2961559,34.7560425,29.9526463,36.0995522,28.2953434,36.0995522z"/>
	<path style="fill:#424242;" d="M28.1474972,36.3573799c-1.8783474,0-3.4065495-1.5280647-3.4065495-3.4064865V24.621582
		c0-0.1423817,0.1154461-0.2579594,0.2578926-0.2579594h6.2973137c0.1425133,0,0.257967,0.1155777,0.257967,0.2579594v8.3293114
		C31.554121,34.8293152,30.025919,36.3573799,28.1474972,36.3573799z M25.2567997,24.8794765v8.0714169
		c0,1.5939217,1.2967777,2.8906326,2.8906975,2.8906326c1.5939217,0,2.8907642-1.296711,2.8907642-2.8906326v-8.0714169H25.2567997z
		"/>
	<path style="fill:#337D3E;" d="M34.5926285,36.0995522h-0.2956276c-1.6573219,0-3.0008469-1.3435249-3.0008469-3.0008469
		v-8.4771881h6.2973137v8.4771919C37.5934677,34.7560272,36.2499466,36.0995483,34.5926285,36.0995522z"/>
	<path style="fill:#424242;" d="M34.4448128,36.3573799c-1.8784218,0-3.4065514-1.5280647-3.4065514-3.4064865V24.621582
		c0-0.1423817,0.1154537-0.2579594,0.2578926-0.2579594h6.2973137c0.1424484,0,0.2578964,0.1155777,0.2578964,0.2579594v8.3293114
		C37.8513641,34.8293152,36.3232307,36.3573799,34.4448128,36.3573799z M31.554121,24.8794765v8.0714169
		c0,1.5939217,1.2967701,2.8906326,2.8906918,2.8906326s2.8906975-1.296711,2.8906975-2.8906326v-8.0714169H31.554121z"/>
	<path style="fill:#9BBD37;" d="M40.889904,36.0995522h-0.2956238c-1.6573029,0-3.0008125-1.3435097-3.0008125-3.0008125v-8.4772224
		h6.2972488v8.4772224C43.8907166,34.7560425,42.5472069,36.0995522,40.889904,36.0995522z"/>
	<path style="fill:#424242;" d="M40.7421265,36.3573799c-1.8784218,0-3.4066162-1.5280647-3.4066162-3.4064865V24.621582
		c0-0.1423817,0.1154442-0.2579594,0.2579575-0.2579594h6.2973137c0.1424561,0,0.2578964,0.1155777,0.2578964,0.2579594v8.3293114
		C44.1486778,34.8293152,42.6204796,36.3573799,40.7421265,36.3573799z M37.8513641,24.8794765v8.0714169
		c0,1.5939217,1.2968407,2.8906326,2.8907623,2.8906326s2.8907051-1.296711,2.8907051-2.8906326v-8.0714169H37.8513641z"/>
	<path style="fill:#337D3E;" d="M47.1871529,36.0995522h-0.2956238c-1.6573029,0-3.0008125-1.3435097-3.0008125-3.0008125
		v-8.4772224h6.2972488v8.4772224C50.1879654,34.7560425,48.8444557,36.0995522,47.1871529,36.0995522z"/>
	<path style="fill:#424242;" d="M47.0393066,36.3573799c-1.8782883,0-3.4064751-1.5280647-3.4064751-3.4064865V24.621582
		c0-0.1423817,0.1154366-0.2579594,0.2579498-0.2579594h6.297184c0.1425133,0,0.2579575,0.1155777,0.2579575,0.2579594v8.3293114
		C50.4459229,34.8293152,48.9177284,36.3573799,47.0393066,36.3573799z M44.1486778,24.8794765v8.0714169
		c0,1.5939217,1.296711,2.8906326,2.8906288,2.8906326c1.5939217,0,2.8907661-1.296711,2.8907661-2.8906326v-8.0714169H44.1486778z"
		/>
	<polygon style="fill:#337D3E;" points="50.1879654,24.6215172 6.1070967,24.6215172 9.2557535,21.6850491 47.0393753,21.6850491 	
		"/>
	<path style="fill:#424242;" d="M50.1879654,24.8794765H6.1070309c-0.1059628,0-0.2011251-0.0648041-0.2399149-0.1633911
		c-0.0389209-0.0985203-0.0134287-0.2108707,0.0640125-0.2831154l3.1486568-2.9364681
		c0.0478115-0.044651,0.1105728-0.0693474,0.1759024-0.0693474h37.7836189c0.0653305,0,0.1281586,0.0246964,0.1759033,0.0693474
		l3.1486588,2.9364681c0.0775108,0.0722446,0.102932,0.1845951,0.0640755,0.2831154
		C50.3891563,24.8146725,50.2939262,24.8794765,50.1879654,24.8794765z M6.7617745,24.3636227h42.7714462l-2.5954628-2.4206142
		H9.3573046L6.7617745,24.3636227z"/>
	<rect x="9.2557535" y="16.3144646" style="fill:#9BBD37;" width="37.7836189" height="5.370584"/>
	<path style="fill:#424242;" d="M47.0393066,21.9430084H9.2556877c-0.1424475,0-0.2578936-0.1155128-0.2578936-0.2578945v-5.3705826
		c0-0.1423817,0.1154461-0.2578945,0.2578936-0.2578945h37.7836189c0.1425209,0,0.2579613,0.1155128,0.2579613,0.2578945v5.3705826
		C47.2972679,21.8274956,47.1818275,21.9430084,47.0393066,21.9430084z M9.5136471,21.4271545h37.2677765v-4.8546638H9.5136471
		V21.4271545z"/>
	<g>
		<line style="fill:#ECEFF1;" x1="37.5934677" y1="28.0975456" x2="37.5934677" y2="44.6858978"/>
		<path style="fill:#424242;" d="M37.5934677,44.9438591c-0.1425133,0-0.2579575-0.1155777-0.2579575-0.2579613V28.0976105
			c0-0.1424465,0.1154442-0.2579594,0.2579575-0.2579594c0.1424484,0,0.2578964,0.1155128,0.2578964,0.2579594v16.5882874
			C37.8513641,44.8282814,37.7359161,44.9438591,37.5934677,44.9438591z"/>
	</g>
</g>
</svg>
