<?xml version="1.0" encoding="utf-8"?>
<!-- Generator: Adobe Illustrator 19.0.0, SVG Export Plug-In . SVG Version: 6.00 Build 0)  -->
<svg version="1.1" id="Layer_1" xmlns="http://www.w3.org/2000/svg" xmlns:xlink="http://www.w3.org/1999/xlink" x="0px" y="0px"
	 width="17px" height="17.0080891px" viewBox="0 0 17 17.0080891" style="enable-background:new 0 0 17 17.0080891;"
	 xml:space="preserve">
<g id="XMLID_173_">
	<path id="XMLID_295_" style="fill:#FFFFFF;" d="M9.336627,10.2599211c-0.550086,0.0935583-1.1121569,0.0935583-1.6622429,0
		c-0.7278318,1.7159452-0.4046144,3.6971493,0.8310623,5.0929337C9.7411232,13.9570704,10.0644588,11.9758663,9.336627,10.2599211z"
		/>
	<path id="XMLID_294_" style="fill:#FFFFFF;" d="M12.6886396,7.3249927
		c-1.3646545-0.1574721-2.7315645,0.2771173-3.7542543,1.1938453C9.2233114,8.839592,9.4733181,9.193429,9.6791849,9.5726423
		C10.942627,9.2558012,12.0266619,8.4462681,12.6886396,7.3249927z"/>
	<path id="XMLID_255_" style="fill:#FFFFFF;" d="M7.9672256,9.6925249c0.3575082,0.0420952,0.7188144,0.0420952,1.0764413,0
		c-0.1555576-0.2639551-0.3357944-0.512495-0.5382204-0.7426558C8.3031387,9.1800299,8.122901,9.4285698,7.9672256,9.6925249z"/>
	<path id="XMLID_254_" style="fill:#FFFFFF;" d="M4.8604732,6.6875162c1.3469753,0.0005927,2.6457763,0.5005183,3.6449733,1.403017
		c1.2088604-1.1063347,2.858407-1.5974851,4.4761534-1.3329372c0.8603697-2.0327859,0.2409887-4.3897648-1.5079908-5.7377615
		c-1.7488604-1.3481154-4.1873465-1.3481154-5.9362073,0C3.7884221,2.3678315,3.1690412,4.7248101,4.0294108,6.757596
		C4.3043356,6.7130103,4.5821075,6.6895318,4.8604732,6.6875162z"/>
	<path id="XMLID_253_" style="fill:#FFFFFF;" d="M4.8604732,17.0080872
		c1.1861973-0.0002365,2.3308654-0.4364853,3.2161527-1.2253866c-1.3851824-1.5376034-1.7741346-3.729166-1.0024004-5.649065
		C5.6241388,9.7384148,4.3999715,8.7660732,3.6872091,7.4436893c-2.3828363,0.5911121-3.9494429,2.8660345-3.6507874,5.3013935
		C0.3353145,15.1803226,2.4053755,17.0097466,4.8604732,17.0080872z"/>
	<path id="XMLID_175_" style="fill:#FFFFFF;" d="M9.9371414,10.1336355c0.771616,1.919899,0.382782,4.1114616-1.0025187,5.649065
		c1.5088205,1.3370867,3.6875706,1.6027021,5.4738073,0.667594c1.7862377-0.9351063,2.8080978-2.8764687,2.5672264-4.87712
		c-0.2408695-2.0007696-1.6943979-3.6445003-3.6514988-4.1294851C12.6113958,8.7660732,11.3869905,9.7384148,9.9371414,10.1336355z"
		/>
	<path id="XMLID_174_" style="fill:#FFFFFF;" d="M4.3222523,7.3249927c0.662097,1.1212754,1.7458949,1.9308085,3.0095739,2.2476497
		C7.5376935,9.193429,7.7875814,8.839592,8.0766258,8.5188379C7.0539355,7.6021099,5.687026,7.1675205,4.3222523,7.3249927z"/>
</g>
</svg>
