<?xml version="1.0" encoding="utf-8"?>
<!-- Generator: Adobe Illustrator 19.0.0, SVG Export Plug-In . SVG Version: 6.00 Build 0)  -->
<svg version="1.1" id="Layer_1" xmlns="http://www.w3.org/2000/svg" xmlns:xlink="http://www.w3.org/1999/xlink" x="0px" y="0px"
	 width="17.75px" height="17.0705891px" viewBox="0 0 17.75 17.0705891" style="enable-background:new 0 0 17.75 17.0705891;"
	 xml:space="preserve">
<g id="XMLID_172_">
	<path id="XMLID_253_" style="fill:#FFFFFF;" d="M8.14639,11.3926153c-0.0907326-0.0299664-0.6523485-0.6086674-0.3013291-1.6950359
		H7.8416123c0.9160056-0.9596605,1.70188-2.5048671,1.70188-4.0226946c0-2.3379266-1.614543-3.5655284-3.3934665-3.5655284
		c-1.7797599,0-3.3241308,1.2276018-3.3241308,3.5655284c0,1.5246725,0.7190988,3.0758619,1.6419489,4.0320997
		c0.3578382,0.9605227-0.2842174,1.6359663-0.4186058,1.6856308C2.1872621,12.0749035,0,13.3222036,0,14.5532274v0.4614248
		c0,1.6787853,3.2034316,2.0597191,6.1662755,2.0597191c2.9697413,0,6.1329398-0.3809338,6.1329398-2.0597191v-0.4614248
		C12.2992153,13.2853928,10.1024961,12.0483599,8.14639,11.3926153L8.14639,11.3926153z M8.14639,11.3926153"/>
	<path id="XMLID_173_" style="fill:#FFFFFF;" d="M13.8743877,8.3099089
		c-0.0839148-0.0274057-0.6120892-0.1575356-0.2842169-1.1805506h-0.0034485
		c0.8629179-0.8997288,1.4578962-2.3542027,1.4578962-3.7821329C15.0446186,1.149696,13.6706362,0,11.9952993,0
		C10.7642756,0,9.7044249,0.6283395,9.22931,1.8319842c0.9964972,0.8261081,1.6856298,2.1102185,1.6856298,3.8395042
		c0,1.8490963-0.8663664,3.5347009-1.7720785,4.6210685c1.4442062,0.5453396,3.698245,1.6453714,4.3436966,3.3207083
		c2.2703142-0.1241474,4.2940836-0.5983734,4.2940836-1.8962002v-0.4348812
		C17.7772198,10.0922289,15.7132168,8.9279804,13.8743877,8.3099089L13.8743877,8.3099089z M13.8743877,8.3099089"/>
</g>
</svg>
