<?xml version="1.0" encoding="utf-8"?>
<!-- Generator: Adobe Illustrator 18.0.0, SVG Export Plug-In . SVG Version: 6.00 Build 0)  -->
<!DOCTYPE svg PUBLIC "-//W3C//DTD SVG 1.1//EN" "http://www.w3.org/Graphics/SVG/1.1/DTD/svg11.dtd">
<svg version="1.1" id="Layer_1" xmlns="http://www.w3.org/2000/svg" xmlns:xlink="http://www.w3.org/1999/xlink" x="0px" y="0px"
	 width="104.7px" height="29px" viewBox="0 0 104.7 29" enable-background="new 0 0 104.7 29" xml:space="preserve">
<g opacity="0.7">
	<linearGradient id="SVGID_2_" gradientUnits="userSpaceOnUse" x1="24.7533" y1="4.2267" x2="4.1333" y2="24.8466">
		<stop  offset="1.254835e-007" style="stop-color:#9A9A9A"/>
		<stop  offset="0.6563" style="stop-color:#7C7C7C"/>
		<stop  offset="1" style="stop-color:#797979"/>
	</linearGradient>
	<path fill="url(#SVGID_2_)" d="M1.1,19.8c0.4-3.5,2.4-5.3,2.4-5.3c0-0.9,0.1-1.8,0.3-2.6C4.2,10.2,5,8.7,6.1,7.4
		c0.9-1.1,2-1.9,3.2-2.6c1.5-0.8,3.3-1.3,5.2-1.3c6.1,0,11,4.9,11,11s-4.7,11.4-10.8,11.4c-3.3,0-5.3-0.9-7-2.2
		c-2.6-2.2-1.3-4.8-1.3-4.8c0.4-1.3,2.5-3.4,4.8-1.3c3.1,3.1-1.3,5.3-1.3,5.3c1.3,1.8,4,1.3,4,1.3c2.2-2.2,2.3-5,1.8-6.6
		c-1.3-4.8-7.6-5.5-10.1-3.5c-4.7,3.6-3.1,8.4-2,9.9c1,1.5,2.6,2.9,4.2,3.8c2,1.1,4.4,1.3,6.8,1.3c8,0,14.5-6.5,14.5-14.5
		S22.5,0,14.5,0S-0.2,6.5,0,14.5C0,15.9,0.2,18,1.1,19.8"/>
	<g>
		<g>
			<path fill="#4D4D4D" d="M32.9,16.1v-4.5h0.6v4.5c0,1.3,0.8,2.1,2.1,2.1c1.3,0,2.1-0.8,2.1-2.1v-4.5h0.6v4.5c0,1.6-1,2.7-2.7,2.7
				S32.9,17.8,32.9,16.1z"/>
			<path fill="#4D4D4D" d="M41.5,11.6h2.1v0.5h-2.1v4.3c0,1.3,0.7,1.8,1.7,1.8c0.2,0,0.4,0,0.6-0.1v0.5c-0.1,0-0.4,0.1-0.7,0.1
				c-1.3,0-2.2-0.7-2.2-2.3v-4.4h-1.1v-0.5h1.1V10h0.5V11.6z"/>
			<path fill="#4D4D4D" d="M45.3,11.6h0.5l0.1,1.3h0c0.4-1,1.4-1.4,2.1-1.4c0.1,0,0.3,0,0.4,0v0.5c-0.1,0-0.3,0-0.4,0
				c-1,0-2,0.7-2.1,2.1v4.5h-0.6V11.6z"/>
			<path fill="#4D4D4D" d="M55.2,15.4h-5.6c0.1,1.8,1.2,2.9,2.8,2.9c0.9,0,1.8-0.3,2.5-1v0.7c-0.7,0.6-1.6,0.9-2.5,0.9
				c-2,0-3.4-1.4-3.4-3.6c0-2.3,1.6-3.7,3.3-3.7c1.6,0,2.9,1.2,2.9,3.5C55.2,15.2,55.2,15.3,55.2,15.4z M54.6,14.9
				c0-1.9-1.2-2.8-2.4-2.8c-1.4,0-2.6,1.1-2.7,2.8H54.6z"/>
			<path fill="#4D4D4D" d="M56.7,15.2c0-2.3,1.6-3.7,3.2-3.7c1.1,0,2.3,0.6,2.8,1.9l0.1-1.8h0.4v7.1h-0.4l-0.1-1.8
				c-0.5,1.3-1.7,1.9-2.8,1.9C58.3,18.8,56.7,17.4,56.7,15.2z M62.7,15.2c0-1.9-1.2-3.1-2.7-3.1c-1.5,0-2.7,1.2-2.7,3.1
				c0,1.9,1.3,3.1,2.7,3.1C61.4,18.3,62.7,17.1,62.7,15.2z"/>
			<path fill="#4D4D4D" d="M68.7,18.3c0.6,0,1.3-0.1,1.9-0.6v0.6c-0.5,0.3-1.2,0.5-1.9,0.5c-1.9,0-3.4-1.5-3.4-3.7
				c0-2.1,1.5-3.7,3.4-3.7c0.7,0,1.3,0.1,1.9,0.5v0.6c-0.6-0.5-1.3-0.6-1.9-0.6c-1.5,0-2.8,1.2-2.8,3.1
				C65.8,17.1,67.2,18.3,68.7,18.3z"/>
			<path fill="#4D4D4D" d="M73.1,12.8L73.1,12.8c0.4-0.8,1.3-1.2,2.3-1.2c1.5,0,2.5,0.9,2.5,2.5v4.7h-0.6v-4.5c0-1.4-0.7-2.2-2-2.2
				c-1.2,0-2.2,0.7-2.2,2v4.6h-0.6V8.1h0.6V12.8z"/>
			<path fill="#4D4D4D" d="M80.5,8.8h2.4c2.3,0,3.9,1.2,3.9,3.2c0,2-1.5,3.3-3.8,3.3h-1.2v3.4h-1.2V8.8z M85.5,12
				c0-1.3-1-2.1-2.5-2.1h-1.3v4.3H83C84.5,14.2,85.5,13.4,85.5,12z"/>
			<path fill="#4D4D4D" d="M88.4,8h1.2v10.7h-1.2V8z"/>
			<path fill="#4D4D4D" d="M91.8,15.9v-4.4H93V16c0,1.1,0.7,1.8,1.7,1.8c1.1,0,1.8-0.7,1.8-1.8v-4.5h1.2v4.4c0,1.7-1.1,2.9-3,2.9
				C92.9,18.9,91.8,17.7,91.8,15.9z"/>
			<path fill="#4D4D4D" d="M104.3,12v1.2c-0.5-0.4-1.3-0.7-2.2-0.7c-0.9,0-1.4,0.4-1.4,1c0,0.6,0.6,0.9,1.6,1.2
				c1.1,0.3,2.4,0.7,2.4,2.1c0,1.3-1,2.2-2.7,2.2c-0.9,0-1.8-0.3-2.5-0.8v-1.3c0.6,0.6,1.4,1,2.5,1c1,0,1.5-0.4,1.5-1.1
				c0-0.7-0.7-0.9-1.7-1.2c-1.2-0.4-2.2-0.7-2.2-2c0-1.2,1-2.1,2.6-2.1C103,11.3,103.8,11.6,104.3,12z"/>
		</g>
	</g>
</g>
</svg>
