<svg xmlns="http://www.w3.org/2000/svg" xmlns:xlink="http://www.w3.org/1999/xlink" width="34.67" height="35.33" viewBox="0 0 52 53"><defs><path id="u6uza" d="M999.247 538.188c.045.109.099.21.159.306a22.28 22.28 0 0 1-13.707.356l6.692-19.446zm-29.551-20.735c0-3.232.693-6.303 1.93-9.076l10.64 29.15c-7.44-3.616-12.57-11.245-12.57-20.074zm37.36-1.125c0 1.909-.734 4.125-1.698 7.21l-2.225 7.435-8.06-23.977c1.342-.07 2.553-.212 2.553-.212 1.202-.142 1.06-1.908-.143-1.837 0 0-3.611.284-5.944.284-2.192 0-5.875-.284-5.875-.284-1.202-.071-1.343 1.766-.141 1.837 0 0 1.138.142 2.339.212l3.475 9.522-4.881 14.638-8.122-24.158a45.106 45.106 0 0 0 2.553-.213c1.2-.142 1.059-1.908-.143-1.838 0 0-3.612.284-5.945.284-.418 0-.912-.011-1.435-.027 3.988-6.055 10.844-10.054 18.636-10.054a22.22 22.22 0 0 1 15.06 5.856c-.095-.006-.19-.018-.288-.018-2.19 0-3.745 1.909-3.745 3.959 0 1.837 1.059 3.393 2.19 5.23.849 1.485 1.839 3.395 1.839 6.15zM992 491.455c14.335 0 26 11.663 26 25.998 0 14.338-11.665 26-26 26-14.336 0-26-11.662-26-26 0-14.335 11.664-25.998 26-25.998zm0 50.807c13.677 0 24.805-11.13 24.805-24.81 0-13.677-11.128-24.804-24.805-24.804-13.68 0-24.807 11.127-24.807 24.805 0 13.68 11.128 24.809 24.807 24.809zm19.57-35.51a22.176 22.176 0 0 1 2.732 10.702c0 8.228-4.46 15.412-11.09 19.278l6.813-19.697c1.273-3.181 1.695-5.725 1.695-7.988 0-.82-.054-1.584-.15-2.294z"/></defs><g><g transform="translate(-966 -491)"><use fill="#394f5a" xlink:href="#u6uza"/></g></g></svg>