<svg xmlns="http://www.w3.org/2000/svg" viewBox="0 0 243 56" width="243" height="56">
	<style>
		tspan { white-space:pre }
		.shp0 { fill: #007498 } 
		.shp1 { fill: #464342 } 
	</style>
	<g id="Layer_2">
		<g id="Layer_1-2">
			<path id="Layer" fill-rule="evenodd" class="shp0" d="M151.59 30.51C151.59 35.36 148.28 39.41 140.65 39.41L125.13 39.41L119.21 32L118.31 32L118.31 33.92C118.31 37.71 118.77 38.4 121.77 38.4L121.77 39.4L111.16 39.4L111.16 38.4C114.14 38.4 114.62 37.71 114.62 33.92L114.62 27.09C114.62 23.3 114.16 22.66 111.16 22.66L111.16 21.66L120.55 21.66C125.24 21.66 127.75 23.9 127.75 26.84C127.75 29.17 125.99 31.25 122.68 31.84L125.13 34.51C127.29 36.85 128.83 38.08 131.13 38.4C134.11 38.4 134.59 37.71 134.59 33.92L134.59 27.09C134.59 23.3 134.13 22.66 131.13 22.66L131.13 21.66L140.67 21.66C148.3 21.66 151.59 25.66 151.59 30.51ZM120.53 30.36C121 30.39 121.47 30.32 121.91 30.16C122.35 29.99 122.74 29.73 123.07 29.4C123.4 29.06 123.66 28.66 123.82 28.22C123.98 27.78 124.04 27.31 124 26.84C124.04 26.37 123.99 25.89 123.83 25.44C123.67 24.99 123.42 24.58 123.08 24.24C122.75 23.9 122.35 23.64 121.9 23.47C121.46 23.3 120.98 23.23 120.51 23.26L118.33 23.26L118.33 30.36L120.53 30.36ZM140.83 37.77C146.38 37.77 147.4 33.6 147.4 30.46C147.4 27.32 146.38 23.26 140.83 23.26L138.27 23.26L138.27 34.84C138.27 37.29 138.54 37.77 140.46 37.77L140.83 37.77Z" />
			<path id="Layer" class="shp0" d="M81.47 32.33L85.15 21.45C86.22 18.3 85.74 17.39 82.32 17.39L82.32 16.33L92.32 16.33L92.32 17.39C88.96 17.39 88.16 18.19 86.83 22.09L80.78 40.33L80.08 40.33L74.64 23.64L69.09 40.33L68.4 40.33L62.48 22.09C61.2 18.19 60.35 17.39 57.25 17.39L57.25 16.33L69.09 16.33L69.09 17.39C65.95 17.39 65.09 18.14 66.21 21.45L69.79 32.33L75.17 16.33L76.17 16.33L81.47 32.33Z" />
			<path id="Layer" fill-rule="evenodd" class="shp0" d="M99.6 40.12C93.74 40.12 88.94 35.8 88.94 30.52C88.94 25.24 93.74 21 99.6 21C105.46 21 110.27 25.32 110.27 30.55C110.27 35.78 105.47 40.12 99.6 40.12ZM92.99 30.52C92.99 33.99 94.7 38.41 99.6 38.41C104.5 38.41 106.27 34.04 106.27 30.52C106.27 27 104.56 22.62 99.6 22.62C94.7 22.62 92.99 27.05 92.99 30.52Z" />
			<path id="Layer" fill-rule="evenodd" class="shp1" d="M164.78 38.36L164.78 39.42L152.57 39.42L152.57 38.36C156.14 38.36 156.78 37.45 156.78 32.12L156.78 23.58C156.78 18.25 156.14 17.39 152.57 17.39L152.57 16.33L163.57 16.33C169.06 16.33 172.1 19.15 172.1 22.94C172.1 26.73 169.1 29.5 163.57 29.5L160.57 29.5L160.57 32.12C160.57 37.45 161.21 38.36 164.78 38.36ZM163.61 18.25L160.61 18.25L160.61 27.53L163.61 27.53C166.61 27.53 167.98 25.45 167.98 22.94C167.98 20.43 166.6 18.25 163.61 18.25Z" />
			<path id="Layer" fill-rule="evenodd" class="shp1" d="M209.6 34.41L209.28 39.41L187.36 39.41L181.44 32L180.53 32L180.53 33.9C180.53 37.69 181 38.38 184 38.38L184 39.38L173.37 39.38L173.37 38.38C176.36 38.38 176.84 37.69 176.84 33.9L176.84 27.07C176.84 23.28 176.37 22.64 173.37 22.64L173.37 21.64L182.76 21.64C187.45 21.64 189.96 23.88 189.96 26.82C189.96 29.15 188.2 31.23 184.89 31.82L187.35 34.49C189.45 36.8 190.98 38.02 193.22 38.36C195.58 38.24 195.99 37.36 195.99 33.9L195.99 27.07C195.99 23.28 195.52 22.64 192.52 22.64L192.52 21.64L208.2 21.64L208.57 26.64L207.72 26.64L207.45 25.64C206.97 23.88 206.39 23.24 202.6 23.24L199.67 23.24L199.67 29.24C203.83 29.24 204.15 28.86 204.15 26.09L205.15 26.09L205.15 34.04L204.15 34.04C204.15 31.26 203.83 30.89 199.67 30.89L199.67 33.38C199.67 37.17 200.15 37.81 202.92 37.81L203.67 37.81C207.45 37.81 208.04 37.17 208.52 35.41L208.79 34.41L209.6 34.41ZM182.7 30.41C183.17 30.44 183.64 30.37 184.08 30.21C184.52 30.04 184.91 29.78 185.24 29.45C185.57 29.11 185.83 28.71 185.99 28.27C186.15 27.83 186.21 27.36 186.17 26.89C186.22 26.42 186.16 25.94 186 25.49C185.85 25.05 185.59 24.64 185.26 24.3C184.93 23.96 184.53 23.69 184.09 23.52C183.65 23.35 183.17 23.28 182.7 23.31L180.52 23.31L180.52 30.41L182.7 30.41Z" />
			<path id="Layer" class="shp1" d="M219.62 40.12C219.18 40.11 218.75 40.06 218.32 39.97C217.89 39.89 217.47 39.77 217.06 39.61C216.65 39.46 216.26 39.27 215.88 39.05C215.5 38.83 215.15 38.58 214.81 38.3C214.7 38.43 214.6 38.57 214.51 38.71C214.42 38.85 214.34 39 214.27 39.16C214.2 39.31 214.14 39.47 214.08 39.63C214.03 39.79 213.99 39.95 213.96 40.12L212.96 40.12L212.96 32.76L214 32.76C214.04 33.52 214.23 34.26 214.55 34.95C214.87 35.63 215.32 36.25 215.87 36.77C216.43 37.29 217.07 37.69 217.78 37.96C218.49 38.24 219.24 38.37 220 38.36C221.71 38.36 223.1 37.36 223.1 35.8C223.1 34.41 221.87 33.34 219.68 32.33L216.68 30.89C214.55 29.89 212.95 28.12 212.95 25.77C212.95 23.21 215.35 21.02 218.66 21.02C219.03 21.02 219.41 21.04 219.77 21.1C220.14 21.16 220.5 21.24 220.86 21.36C221.21 21.48 221.55 21.63 221.88 21.8C222.21 21.98 222.53 22.18 222.82 22.41C222.91 22.31 222.99 22.2 223.06 22.09C223.14 21.97 223.2 21.86 223.26 21.74C223.32 21.61 223.37 21.49 223.41 21.36C223.45 21.23 223.49 21.1 223.51 20.97L224.51 20.97L224.51 27.26L223.4 27.26C223.03 24.76 221.64 22.68 218.82 22.68C217.32 22.68 215.93 23.53 215.93 24.86C215.93 26.19 217.05 27 219.62 28.17L222.55 29.61C225.11 30.84 226.12 32.81 226.12 34.41C226.12 37.77 223.19 40.12 219.62 40.12Z" />
			<path id="Layer" class="shp1" d="M236 40.12C235.56 40.11 235.13 40.06 234.7 39.97C234.27 39.89 233.85 39.77 233.45 39.61C233.04 39.46 232.65 39.27 232.27 39.05C231.89 38.83 231.53 38.58 231.2 38.3C231.09 38.43 230.99 38.57 230.9 38.71C230.81 38.85 230.73 39 230.66 39.16C230.59 39.31 230.53 39.47 230.47 39.63C230.42 39.79 230.38 39.95 230.35 40.12L229.35 40.12L229.35 32.76L230.41 32.76C230.45 33.52 230.64 34.26 230.96 34.95C231.28 35.63 231.73 36.25 232.28 36.77C232.84 37.29 233.48 37.69 234.19 37.96C234.9 38.24 235.65 38.37 236.41 38.36C238.12 38.36 239.5 37.36 239.5 35.8C239.5 34.41 238.28 33.34 236.09 32.33L233.09 30.89C230.96 29.89 229.36 28.12 229.36 25.77C229.36 23.21 231.76 21.02 235.06 21.02C235.43 21.01 235.81 21.04 236.17 21.1C236.54 21.16 236.9 21.24 237.26 21.36C237.61 21.48 237.95 21.63 238.28 21.8C238.61 21.98 238.93 22.18 239.22 22.41C239.31 22.31 239.39 22.2 239.47 22.09C239.54 21.98 239.61 21.86 239.67 21.74C239.73 21.62 239.78 21.49 239.82 21.36C239.86 21.23 239.9 21.1 239.92 20.97L240.92 20.97L240.92 27.26L239.8 27.26C239.43 24.76 238.04 22.68 235.21 22.68C233.72 22.68 232.33 23.53 232.33 24.86C232.33 26.19 233.48 27 236 28.17L239 29.61C241.56 30.84 242.57 32.81 242.57 34.41C242.55 37.77 239.62 40.12 236 40.12Z" />
			<path id="Layer" class="shp1" d="M3.91 27.52C3.91 29.73 4.22 31.92 4.83 34.04C5.44 36.16 6.34 38.18 7.51 40.05C8.68 41.92 10.11 43.62 11.75 45.09C13.4 46.56 15.24 47.8 17.22 48.76L6 17.91C5.66 18.66 5.36 19.43 5.1 20.22C4.84 21 4.62 21.8 4.45 22.6C4.27 23.41 4.14 24.23 4.05 25.05C3.96 25.87 3.91 26.69 3.91 27.52L3.91 27.52Z" />
			<path id="Layer" class="shp1" d="M43.45 26.32C43.44 25.75 43.39 25.17 43.31 24.61C43.22 24.04 43.09 23.48 42.93 22.93C42.76 22.38 42.56 21.84 42.33 21.32C42.09 20.8 41.82 20.29 41.51 19.81C40.31 17.87 39.19 16.22 39.19 14.28C39.18 13.74 39.27 13.21 39.46 12.7C39.65 12.2 39.95 11.74 40.32 11.35C40.69 10.96 41.13 10.65 41.63 10.43C42.12 10.22 42.65 10.1 43.19 10.09L43.5 10.09C40.98 7.77 37.98 6.03 34.72 4.99C31.46 3.95 28.01 3.63 24.61 4.05C21.22 4.48 17.95 5.64 15.05 7.45C12.14 9.26 9.66 11.68 7.79 14.55L9.31 14.55C11.78 14.55 15.6 14.25 15.6 14.25C15.82 14.28 16.03 14.39 16.18 14.56C16.34 14.72 16.43 14.93 16.45 15.16C16.47 15.38 16.41 15.61 16.28 15.79C16.16 15.98 15.97 16.12 15.76 16.19C15.55 16.26 14.48 16.34 13.05 16.42L21.65 42L26.82 26.51L23.14 16.45C21.87 16.37 20.66 16.22 20.66 16.22C20.45 16.15 20.26 16.01 20.14 15.83C20.01 15.64 19.95 15.42 19.97 15.19C19.99 14.97 20.08 14.75 20.23 14.59C20.38 14.42 20.59 14.32 20.81 14.28C21.03 14.24 24.71 14.58 27.03 14.58C29.35 14.58 33.32 14.28 33.32 14.28C33.54 14.32 33.75 14.42 33.9 14.59C34.05 14.75 34.14 14.97 34.16 15.19C34.18 15.42 34.12 15.64 33.99 15.83C33.87 16.01 33.68 16.15 33.47 16.22C33.26 16.29 32.19 16.37 30.77 16.45L39.3 41.82L41.66 34C42.68 30.69 43.45 28.35 43.45 26.32Z" />
			<path id="Layer" class="shp1" d="M27.93 29.58L20.85 50.16C22.03 50.51 23.24 50.76 24.46 50.92C25.67 51.08 26.91 51.14 28.13 51.11C29.36 51.08 30.59 50.95 31.8 50.73C33.01 50.51 34.2 50.19 35.36 49.78C35.34 49.76 35.32 49.73 35.31 49.7C35.29 49.68 35.28 49.65 35.26 49.63C35.25 49.6 35.24 49.57 35.22 49.54C35.21 49.52 35.2 49.49 35.19 49.46L27.93 29.58Z" />
			<path id="Layer" class="shp1" d="M48.23 16.19C48.26 16.39 48.28 16.59 48.3 16.8C48.32 17 48.34 17.2 48.35 17.4C48.36 17.6 48.37 17.81 48.38 18.01C48.39 18.21 48.39 18.42 48.39 18.62C48.38 19.34 48.33 20.07 48.25 20.79C48.17 21.51 48.06 22.22 47.9 22.93C47.75 23.64 47.57 24.34 47.35 25.03C47.13 25.72 46.88 26.4 46.59 27.07L39.38 47.92C42.01 46.39 44.33 44.36 46.19 41.95C48.05 39.54 49.43 36.79 50.25 33.85C51.07 30.92 51.31 27.85 50.97 24.82C50.62 21.8 49.69 18.86 48.23 16.19L48.23 16.19Z" />
			<path id="Layer" fill-rule="evenodd" class="shp1" d="M27.52 0C31.13 0.01 34.7 0.73 38.04 2.11C41.37 3.5 44.4 5.53 46.95 8.08C49.5 10.63 51.52 13.67 52.9 17C54.29 20.34 55 23.91 55 27.52C55 38.65 48.29 48.69 38 52.95C27.71 57.21 15.87 54.84 8.01 46.97C0.14 39.09 -2.21 27.24 2.07 16.96C6.34 6.68 16.39 -0.02 27.52 0ZM27.52 53.77C30.97 53.76 34.38 53.08 37.56 51.76C40.74 50.44 43.63 48.51 46.07 46.07C48.51 43.63 50.44 40.74 51.76 37.56C53.08 34.38 53.76 30.97 53.77 27.52C53.77 16.9 47.38 7.32 37.56 3.25C27.75 -0.82 16.45 1.43 8.94 8.94C1.43 16.45 -0.82 27.75 3.25 37.56C7.32 47.38 16.9 53.77 27.52 53.77Z" />
		</g>
	</g>
</svg>