<?xml version="1.0" encoding="utf-8"?>
<!-- Generator: Adobe Illustrator 19.0.0, SVG Export Plug-In . SVG Version: 6.00 Build 0)  -->
<svg version="1.1" id="Layer_1" xmlns="http://www.w3.org/2000/svg" xmlns:xlink="http://www.w3.org/1999/xlink" x="0px" y="0px"
	 width="18.96875px" height="18.9375px" viewBox="0 0 18.96875 18.9375" style="enable-background:new 0 0 18.96875 18.9375;"
	 xml:space="preserve">
<g id="XMLID_255_">
	<g id="XMLID_822_">
		<g id="XMLID_858_">
			<g id="XMLID_859_">
				<path id="XMLID_860_" style="fill:#383838;" d="M15.3580446,5.5181379c0.2048483,0,0.3709679-0.1660819,0.3709679-0.3709669
					V1.1129018C15.7290125,0.4992477,15.229764,0,14.6161108,0H1.1129019c-0.613654,0-1.1129018,0.4992478-1.1129018,1.1129018
					v16.7677212c0,0.6136532,0.4992478,1.1129017,1.1129018,1.1129017h13.5032091
					c0.6136532,0,1.1129017-0.4992485,1.1129017-1.1129017v-2.7329903c0-0.2048855-0.1661196-0.3709679-0.3709679-0.3709679
					s-0.3709669,0.1660824-0.3709669,0.3709679v2.7329903c0,0.2045517-0.1664152,0.370966-0.3709669,0.370966H1.1129019
					c-0.2045513,0-0.3709672-0.1664143-0.3709672-0.370966V1.1129018c0-0.2045514,0.1664159-0.3709673,0.3709672-0.3709673
					h13.5032091c0.2045517,0,0.3709669,0.1664159,0.3709669,0.3709673V5.147171
					C14.9870777,5.352056,15.1531963,5.5181379,15.3580446,5.5181379z"/>
			</g>
		</g>
		<g id="XMLID_851_">
			<g id="XMLID_852_">
				<path id="XMLID_853_" style="fill:#383838;" d="M7.8645067,2.0032232c-1.8818798,0-3.412899,1.531019-3.412899,3.4128988
					c0,0.9762745,0.4121447,1.8579893,1.0714278,2.4806213C5.5353885,7.9099498,5.548521,7.922451,5.5628777,7.9338398
					C6.1701884,8.4895115,6.978415,8.8289843,7.86447,8.8289843s1.6942821-0.339509,2.3015924-0.8951445
					c0.0143557-0.0113888,0.0274887-0.0239272,0.0398417-0.0370965c0.6593571-0.6226315,1.0715017-1.5043468,1.0715017-2.4806213
					C11.2774048,3.5342424,9.7463865,2.0032232,7.8645067,2.0032232z M7.8645067,8.0870867
					c-0.605752,0-1.1648002-0.2029934-1.6133738-0.5441351c0.3260431-0.5781527,0.9344668-0.9397345,1.6133738-0.9397345
					s1.2873306,0.3615818,1.6133738,0.9397345C9.0292692,7.8840933,8.4702587,8.0870867,7.8645067,8.0870867z M7.2709594,5.267735
					V5.0266066c0-0.3272672,0.2662797-0.5935478,0.5935473-0.5935478s0.5935478,0.2662807,0.5935478,0.5935478V5.267735
					c0,0.3272676-0.2662802,0.5935478-0.5935478,0.5935478S7.2709594,5.5950027,7.2709594,5.267735z M10.0138903,6.9995217
					C9.7403021,6.5937576,9.3611364,6.2781758,8.9209099,6.0833435C9.0956354,5.8575354,9.1999884,5.5746732,9.1999884,5.267735
					V5.0266066c0-0.7364073-0.5990753-1.3354824-1.3354821-1.3354824S6.5290241,4.2901993,6.5290241,5.0266066V5.267735
					c0,0.3069386,0.104353,0.5898013,0.2790785,0.8156085c-0.440227,0.1948318-0.8193927,0.5104141-1.0929809,0.9161782
					C5.3875952,6.5561042,5.193542,6.0084453,5.193542,5.416122c0-1.4727771,1.1981869-2.6709642,2.6709642-2.6709642
					S10.535471,3.9433448,10.535471,5.416122C10.535471,6.0084453,10.3414183,6.5561042,10.0138903,6.9995217z"/>
			</g>
		</g>
		<g id="XMLID_848_">
			<g id="XMLID_849_">
				<path id="XMLID_850_" style="fill:#383838;" d="M9.8677292,16.2483654H7.8645062
					c-0.2048483,0-0.3709674,0.1660824-0.3709674,0.3709679s0.1661191,0.3709679,0.3709674,0.3709679h2.0032229
					c0.2048483,0,0.3709679-0.1660824,0.3709679-0.3709679S10.0725775,16.2483654,9.8677292,16.2483654z"/>
			</g>
		</g>
		<g id="XMLID_845_">
			<g id="XMLID_846_">
				<path id="XMLID_847_" style="fill:#383838;" d="M9.8677292,14.1709499h-5.267735
					c-0.2048483,0-0.3709674,0.1660814-0.3709674,0.3709669s0.1661191,0.3709669,0.3709674,0.3709669h5.267735
					c0.2048483,0,0.3709679-0.1660814,0.3709679-0.3709669S10.0725775,14.1709499,9.8677292,14.1709499z"/>
			</g>
		</g>
		<g id="XMLID_842_">
			<g id="XMLID_843_">
				<path id="XMLID_844_" style="fill:#383838;" d="M9.8677292,12.0935326h-5.267735
					c-0.2048483,0-0.3709674,0.1660824-0.3709674,0.3709679s0.1661191,0.3709669,0.3709674,0.3709669h5.267735
					c0.2048483,0,0.3709679-0.1660814,0.3709679-0.3709669S10.0725775,12.0935326,9.8677292,12.0935326z"/>
			</g>
		</g>
		<g id="XMLID_839_">
			<g id="XMLID_840_">
				<path id="XMLID_841_" style="fill:#383838;" d="M3.2778301,10.1248093
					c-0.0689628-0.0689993-0.1646724-0.1086931-0.2626078-0.1086931c-0.0976014,0-0.193311,0.0396938-0.2622738,0.1086931
					c-0.069,0.0689993-0.1086934,0.16471-0.1086934,0.2622738c0,0.0975647,0.0396564,0.1932745,0.1086934,0.2622747
					c0.069371,0.0689993,0.1646724,0.1086931,0.2622738,0.1086931c0.0979354,0,0.193274-0.0396938,0.2626078-0.1086931
					c0.069-0.0689993,0.1087306-0.16471,0.1087306-0.2622747C3.3865607,10.2895193,3.3468671,10.1938095,3.2778301,10.1248093z"/>
			</g>
		</g>
		<g id="XMLID_836_">
			<g id="XMLID_837_">
				<path id="XMLID_838_" style="fill:#383838;" d="M3.2778301,12.2022257
					c-0.0693338-0.0689993-0.1646724-0.1086931-0.2626078-0.1086931c-0.0976014,0-0.1929028,0.0396938-0.2622738,0.1086931
					c-0.069,0.0689993-0.1086934,0.16471-0.1086934,0.2622747s0.0396564,0.1932735,0.1086934,0.2622738
					c0.069371,0.0689993,0.1646724,0.1086931,0.2622738,0.1086931c0.0979354,0,0.193274-0.0396938,0.2626078-0.1086931
					c0.069-0.0689993,0.1087306-0.1647091,0.1087306-0.2622738S3.3468671,12.2712269,3.2778301,12.2022257z"/>
			</g>
		</g>
		<g id="XMLID_833_">
			<g id="XMLID_834_">
				<path id="XMLID_835_" style="fill:#383838;" d="M3.2778301,14.2796431
					c-0.0693338-0.0689993-0.1646724-0.1086931-0.2626078-0.1086931c-0.0976014,0-0.1929028,0.0396938-0.2622738,0.1086931
					c-0.069,0.0689993-0.1086934,0.1647091-0.1086934,0.2622738s0.0396564,0.1932735,0.1086934,0.2622738
					c0.0689628,0.0689993,0.1646724,0.1086931,0.2622738,0.1086931c0.0979354,0,0.193645-0.0396938,0.2626078-0.1086931
					c0.069-0.0689993,0.1087306-0.1647091,0.1087306-0.2622738S3.3468671,14.3486433,3.2778301,14.2796431z"/>
			</g>
		</g>
		<g id="XMLID_830_">
			<g id="XMLID_831_">
				<path id="XMLID_832_" style="fill:#383838;" d="M9.8677292,10.0161161h-5.267735
					c-0.2048483,0-0.3709674,0.1660814-0.3709674,0.3709669c0,0.2048864,0.1661191,0.3709679,0.3709674,0.3709679h5.267735
					c0.2048483,0,0.3709679-0.1660814,0.3709679-0.3709679C10.2386971,10.1821976,10.0725775,10.0161161,9.8677292,10.0161161z"/>
			</g>
		</g>
		<g id="XMLID_823_">
			<g id="XMLID_824_">
				<path id="XMLID_825_" style="fill:#383838;" d="M18.2143078,4.8344455
					c-0.3603935-0.2080755-0.7802544-0.2633495-1.1823101-0.1556578c-0.4019794,0.1077294-0.7380028,0.3655515-0.9460411,0.7259459
					l-4.6683264,8.0857134c-0.0255594,0.0443316-0.0417337,0.0934839-0.04741,0.1443434l-0.3286028,2.9434032
					c-0.0163221,0.1464577,0.0555706,0.288723,0.1831837,0.3624344c0.0576115,0.0332375,0.121603,0.0497093,0.1854458,0.0497093
					c0.0776072,0,0.1549158-0.0242977,0.2200212-0.0722656l2.3847256-1.7563066
					c0.041214-0.030345,0.0757141-0.0688877,0.1012745-0.1132193l4.6682892-8.0857134
					C19.214138,6.218821,18.9583206,5.2640252,18.2143078,4.8344455z M11.8730297,15.8178225l0.1716099-1.5369921
					l1.0736532,0.6198854L11.8730297,15.8178225z M13.6592388,14.3562851l-1.4135714-0.8161278l3.746213-6.4885888
					l1.4135723,0.8161278L13.6592388,14.3562851z M18.1420422,6.5918283l-0.3656616,0.6333523l-1.4135704-0.8161278
					l0.3656616-0.6333523c0.1089897-0.1887856,0.284977-0.3238177,0.4955387-0.3802414
					c0.2106342-0.0564613,0.4305439-0.027452,0.6192913,0.0815382c0.1887856,0.1089902,0.3238182,0.2849774,0.3802433,0.4955382
					C18.2799702,6.1830969,18.2510338,6.4030437,18.1420422,6.5918283z"/>
			</g>
		</g>
	</g>
</g>
</svg>
