<?xml version="1.0" encoding="utf-8"?>
<!-- Generator: Adobe Illustrator 19.0.0, SVG Export Plug-In . SVG Version: 6.00 Build 0)  -->
<svg version="1.1" id="Layer_1" xmlns="http://www.w3.org/2000/svg" xmlns:xlink="http://www.w3.org/1999/xlink" x="0px" y="0px"
	 width="19.1574345px" height="19.1576004px" viewBox="0 0 19.1574345 19.1576004"
	 style="enable-background:new 0 0 19.1574345 19.1576004;" xml:space="preserve">
<g>
	<g>
		<g>
			<path id="XMLID_639_" style="fill:#283238;" d="M18.6311741,16.0918789l-4.3950262-4.395381
				c-0.6548615,1.0184593-1.5215092,1.8846712-2.5399666,2.5395727l4.395381,4.3953819
				c0.7016888,0.7015305,1.8393841,0.7015305,2.5395718,0C19.3328629,17.9310646,19.3328629,16.7933693,18.6311741,16.0918789z"/>
		</g>
		<g>
			<path id="XMLID_647_" style="fill:#283238;" d="M14.3681002,7.1840897C14.3681002,3.2167807,11.1514769,0,7.1840892,0
				C3.2167807,0,0,3.2167807,0,7.1840897s3.2167807,7.1839314,7.1840897,7.1839314
				C11.1514769,14.368021,14.3681002,11.1513987,14.3681002,7.1840897z M7.1840892,12.571949
				c-2.971158,0-5.3880177-2.4166632-5.3880177-5.3878207s2.4168596-5.3880177,5.3880177-5.3880177
				c2.9710793,0,5.3881373,2.4168591,5.3881373,5.3880177S10.1551685,12.571949,7.1840892,12.571949z"/>
		</g>
		<g>
			<path id="XMLID_633_" style="fill:#283238;" d="M2.9934266,7.1840897h1.1971967
				c0-1.6504984,1.3429675-2.9933476,2.9934268-2.9933476V2.9934266C4.8736362,2.9934266,2.9934266,4.8736358,2.9934266,7.1840897z"
				/>
		</g>
	</g>
</g>
</svg>
