<?xml version="1.0" encoding="utf-8"?>
<!-- Generator: Adobe Illustrator 19.0.0, SVG Export Plug-In . SVG Version: 6.00 Build 0)  -->
<svg version="1.1" id="Layer_1" xmlns="http://www.w3.org/2000/svg" xmlns:xlink="http://www.w3.org/1999/xlink" x="0px" y="0px"
	 width="29.3424053px" height="12.8567095px" viewBox="0 0 29.3424053 12.8567095"
	 style="enable-background:new 0 0 29.3424053 12.8567095;" xml:space="preserve">
<path id="XMLID_1056_" style="fill:#283238;stroke:#283238;stroke-width:0.25;stroke-miterlimit:10;" d="M22.9140244,0.1250386
	c-3.4755726,0-6.3033543,2.8277822-6.3033543,6.3033547c0,2.2469025,1.18503,4.2174282,2.9596672,5.3336077H9.7720146
	c1.7746363-1.1161776,2.9596672-3.0867052,2.9596672-5.3336077c0-3.4755726-2.8277826-6.3033547-6.3033547-6.3033547
	S0.1249726,2.9528208,0.1249726,6.4283934s2.8277817,6.3033543,6.3033543,6.3033543h16.4856968
	c3.4755726,0,6.3033543-2.8277817,6.3033543-6.3033543S26.3895969,0.1250386,22.9140244,0.1250386z M1.0947195,6.4283934
	c0-2.9407578,2.3928504-5.3336077,5.3336077-5.3336077s5.3336082,2.3928502,5.3336082,5.3336077
	S9.3690853,11.762001,6.4283271,11.762001S1.0947195,9.3691502,1.0947195,6.4283934z M22.9140244,11.762001
	c-2.9407578,0-5.3336086-2.3928509-5.3336086-5.3336077s2.3928509-5.3336077,5.3336086-5.3336077
	s5.3336067,2.3928502,5.3336067,5.3336077S25.8547802,11.762001,22.9140244,11.762001z"/>
</svg>
