<?xml version="1.0" encoding="utf-8"?>
<!-- Generator: Adobe Illustrator 19.0.0, SVG Export Plug-In . SVG Version: 6.00 Build 0)  -->
<svg version="1.1" id="Layer_1" xmlns="http://www.w3.org/2000/svg" xmlns:xlink="http://www.w3.org/1999/xlink" x="0px" y="0px"
	 width="307.1933899px" height="199.1437378px" viewBox="0 0 307.1933899 199.1437378"
	 style="enable-background:new 0 0 307.1933899 199.1437378;" xml:space="preserve">
<path id="XMLID_1267_" style="fill:#F4F4F4;" d="M294.3887939,199.1435394H12.8043919
	c-7.0424743,0-12.8044987-5.7620239-12.8044987-12.8045044V12.8042917c0-7.0424747,5.7620244-12.8044987,12.8044987-12.8044987
	h281.5844116c7.0424805,0,12.8045044,5.7620244,12.8045044,12.8044987V186.339035
	C307.1932983,193.3815155,301.4312744,199.1435394,294.3887939,199.1435394z"/>
<path id="XMLID_1266_" style="opacity:0.16;fill:#B5B5B5;" d="M15.7161102,199.1435852H296.428772
	c5.9204712,0,10.7645264-4.8442078,10.7645264-10.7645264V87.3871765
	C231.6390533,169.1003571,83.1673965,192.429306,15.7161102,199.1435852z"/>
<g id="XMLID_1255_">
	<path id="XMLID_1260_" style="fill:#FFFFFF;stroke:#E6E6E6;stroke-miterlimit:10;" d="M231.1819763,45.856842
		c0-6.293972,3.1572876-11.8448944,7.9688873-15.1742134c-2.9772186-2.0599422-6.584549-3.2736816-10.4790497-3.2736816
		c-10.1884766,0-18.447937,8.2594604-18.447937,18.4478951c0,10.1885262,8.2594604,18.4479904,18.447937,18.4479904
		c3.8945007,0,7.5018311-1.2136459,10.4790497-3.2738266C234.3392639,57.7018318,231.1819763,52.1509094,231.1819763,45.856842z"/>
	<path id="XMLID_1259_" style="fill:#FFFFFF;stroke:#E6E6E6;stroke-miterlimit:10;" d="M252.1400452,45.856842
		c0-6.293972,3.1573334-11.8448944,7.9689331-15.1742134c-2.9772339-2.0599422-6.584549-3.2736816-10.4790497-3.2736816
		c-3.894516,0-7.5018768,1.2137394-10.4790649,3.2736816c4.8115997,3.329319,7.9688416,8.8802414,7.9688416,15.1742134
		c0,6.2940674-3.1572418,11.8449898-7.9688416,15.1741638c2.9771881,2.0601807,6.584549,3.2738266,10.4790649,3.2738266
		c3.8945007,0,7.5018158-1.2136459,10.4790497-3.2737312C255.2973785,57.7018318,252.1400452,52.1509094,252.1400452,45.856842z"/>
	<path id="XMLID_1258_" style="fill:#FFFFFF;stroke:#E6E6E6;stroke-miterlimit:10;" d="M247.1197052,45.856842
		c0-6.293972-3.1572418-11.8448944-7.9688416-15.1742134c-4.8115997,3.329319-7.9688873,8.8802414-7.9688873,15.1742134
		c0,6.2940674,3.1572876,11.8449898,7.9688873,15.1741638C243.9624634,57.7018318,247.1197052,52.1509094,247.1197052,45.856842z"/>
	<path id="XMLID_1257_" style="fill:#FFFFFF;stroke:#E6E6E6;stroke-miterlimit:10;" d="M270.5879517,27.408947
		c-3.8945313,0-7.5018005,1.2137394-10.4789734,3.2736816c4.811554,3.329319,7.9688416,8.8802414,7.9688416,15.1742134
		c0,6.2940674-3.1572876,11.8449898-7.9688416,15.1742592c2.9771729,2.0600853,6.5844421,3.2737312,10.4789734,3.2737312
		c10.1885071,0,18.447937-8.2594643,18.447937-18.4479904C289.0358887,35.6684074,280.7764587,27.408947,270.5879517,27.408947z"/>
	<path id="XMLID_1256_" style="fill:#FFFFFF;stroke:#E6E6E6;stroke-miterlimit:10;" d="M268.0778198,45.856842
		c0-6.293972-3.1572876-11.8448944-7.9688416-15.1742134c-4.8115997,3.329319-7.9689331,8.8802414-7.9689331,15.1742134
		c0,6.2940674,3.1573334,11.8449898,7.9689331,15.1742592C264.9205322,57.7018318,268.0778198,52.1509094,268.0778198,45.856842z"/>
</g>
<path id="XMLID_1254_" style="opacity:0.4;fill:#D6E7F2;" d="M7.0948029,16.0651417v30.8734608
	c0.816998-13.1097298,7.1266012-41.6379776,46.5878639-41.6379776h-35.823349
	C11.9388571,5.3006239,7.0948029,10.1446781,7.0948029,16.0651417z"/>
<g id="XMLID_6_">
	<rect id="XMLID_1265_" x="19.2602673" y="125.6499557" style="fill:#C4C2C2;" width="62.1225357" height="19.7349567"/>
	<g id="XMLID_3_">
		<path id="XMLID_1234_" d="M39.7747688,132.5482025l-2,2.6318359v0.0419922l3.1796875-0.4208984v1.4316406l-3.1796875-0.3789063
			v0.0419922l2.0214844,2.5273438l-1.3271484,0.7578125l-1.2636719-2.9482422h-0.0419922l-1.3681641,2.9697266l-1.2001953-0.7587891
			l2-2.5683594v-0.0419922l-3.1162109,0.3994141v-1.4316406l3.0957031,0.4003906v-0.0419922l-1.9794922-2.5693359
			l1.2841797-0.7373047l1.3056641,2.9267578h0.0419922l1.2841797-2.9472656L39.7747688,132.5482025z"/>
		<path id="XMLID_1307_" d="M48.511097,132.5482025l-2,2.6318359v0.0419922l3.1796875-0.4208984v1.4316406l-3.1796875-0.3789063
			v0.0419922l2.0214844,2.5273438l-1.3271484,0.7578125l-1.2636719-2.9482422h-0.0419922l-1.3681641,2.9697266l-1.2001953-0.7587891
			l2-2.5683594v-0.0419922l-3.1162109,0.3994141v-1.4316406l3.0957031,0.4003906v-0.0419922l-1.9794922-2.5693359
			l1.2841797-0.7373047l1.3056641,2.9267578h0.0419922l1.2841797-2.9472656L48.511097,132.5482025z"/>
		<path id="XMLID_1309_" d="M57.2484016,132.5482025l-2,2.6318359v0.0419922l3.1796875-0.4208984v1.4316406l-3.1796875-0.3789063
			v0.0419922l2.0214844,2.5273438l-1.3271484,0.7578125l-1.2636719-2.9482422h-0.0419922l-1.3681641,2.9697266l-1.2001953-0.7587891
			l2-2.5683594v-0.0419922l-3.1162109,0.3994141v-1.4316406l3.0957031,0.4003906v-0.0419922l-1.9794922-2.5693359
			l1.2841797-0.7373047l1.3056641,2.9267578h0.0419922l1.2841797-2.9472656L57.2484016,132.5482025z"/>
		<path id="XMLID_1311_" d="M65.984726,132.5482025l-1.9999962,2.6318359v0.0419922l3.1796837-0.4208984v1.4316406
			l-3.1796837-0.3789063v0.0419922l2.0214806,2.5273438l-1.3271484,0.7578125l-1.2636681-2.9482422h-0.0419922l-1.3681641,2.9697266
			l-1.2001953-0.7587891l2-2.5683594v-0.0419922l-3.1162109,0.3994141v-1.4316406l3.0957031,0.4003906v-0.0419922
			l-1.9794922-2.5693359l1.2841797-0.7373047l1.3056641,2.9267578h0.0419922l1.2841759-2.9472656L65.984726,132.5482025z"/>
	</g>
</g>
<g id="XMLID_5_">
	<rect id="XMLID_1264_" x="88.5056839" y="125.6499557" style="fill:#C4C2C2;" width="62.1225357" height="19.7349567"/>
	<g id="XMLID_1_">
		<path id="XMLID_1313_" d="M109.0200806,132.5482025l-2,2.6318359v0.0419922l3.1796875-0.4208984v1.4316406l-3.1796875-0.3789063
			v0.0419922l2.0214844,2.5273438l-1.3271484,0.7578125l-1.2636719-2.9482422h-0.0419922l-1.3681641,2.9697266l-1.2001953-0.7587891
			l2-2.5683594v-0.0419922l-3.1162109,0.3994141v-1.4316406l3.0957031,0.4003906v-0.0419922l-1.9794922-2.5693359
			l1.2841797-0.7373047l1.3056641,2.9267578h0.0419922l1.2841797-2.9472656L109.0200806,132.5482025z"/>
		<path id="XMLID_1315_" d="M117.7564087,132.5482025l-2,2.6318359v0.0419922l3.1796875-0.4208984v1.4316406l-3.1796875-0.3789063
			v0.0419922l2.0214844,2.5273438l-1.3271484,0.7578125l-1.2636719-2.9482422h-0.0419922l-1.3681641,2.9697266l-1.2001953-0.7587891
			l2-2.5683594v-0.0419922l-3.1162109,0.3994141v-1.4316406l3.0957031,0.4003906v-0.0419922l-1.9794922-2.5693359
			l1.2841797-0.7373047l1.3056641,2.9267578h0.0419922l1.2841797-2.9472656L117.7564087,132.5482025z"/>
		<path id="XMLID_1317_" d="M126.4927368,132.5482025l-2,2.6318359v0.0419922l3.1796875-0.4208984v1.4316406l-3.1796875-0.3789063
			v0.0419922l2.0214844,2.5273438l-1.3271484,0.7578125l-1.2636719-2.9482422h-0.0419922l-1.3681641,2.9697266l-1.2001953-0.7587891
			l2-2.5683594v-0.0419922l-3.1162109,0.3994141v-1.4316406l3.0957031,0.4003906v-0.0419922l-1.9794922-2.5693359
			l1.2841797-0.7373047l1.3056641,2.9267578h0.0419922l1.2841797-2.9472656L126.4927368,132.5482025z"/>
		<path id="XMLID_1319_" d="M135.2300415,132.5482025l-2,2.6318359v0.0419922l3.1796875-0.4208984v1.4316406l-3.1796875-0.3789063
			v0.0419922l2.0214844,2.5273438l-1.3271484,0.7578125l-1.2636719-2.9482422h-0.0419922l-1.3681641,2.9697266l-1.2001953-0.7587891
			l2-2.5683594v-0.0419922l-3.1162109,0.3994141v-1.4316406l3.0957031,0.4003906v-0.0419922l-1.9794922-2.5693359
			l1.2841797-0.7373047l1.3056641,2.9267578h0.0419922l1.2841797-2.9472656L135.2300415,132.5482025z"/>
	</g>
</g>
<g id="XMLID_8_">
	<rect id="XMLID_1263_" x="157.7510834" y="125.6498566" style="fill:#C4C2C2;" width="62.1225853" height="19.7349567"/>
	<g id="XMLID_7_">
		<path id="XMLID_1321_" d="M178.2654877,132.5482941l-2,2.6318359v0.0419922l3.1796875-0.4208984v1.4316406l-3.1796875-0.3789063
			v0.0419922l2.0214844,2.5273438l-1.3271484,0.7578125l-1.2636719-2.9482422h-0.0419922l-1.3681641,2.9697266l-1.2001953-0.7587891
			l2-2.5683594v-0.0419922l-3.1162109,0.3994141v-1.4316406l3.0957031,0.4003906v-0.0419922l-1.9794922-2.5693359
			l1.2841797-0.7373047l1.3056641,2.9267578h0.0419922l1.2841797-2.9472656L178.2654877,132.5482941z"/>
		<path id="XMLID_1323_" d="M187.0027924,132.5482941l-2,2.6318359v0.0419922l3.1796875-0.4208984v1.4316406l-3.1796875-0.3789063
			v0.0419922l2.0214844,2.5273438l-1.3271484,0.7578125l-1.2636719-2.9482422h-0.0419922l-1.3681641,2.9697266l-1.2001953-0.7587891
			l2-2.5683594v-0.0419922l-3.1162109,0.3994141v-1.4316406l3.0957031,0.4003906v-0.0419922l-1.9794922-2.5693359
			l1.2841797-0.7373047l1.3056641,2.9267578h0.0419922l1.2841797-2.9472656L187.0027924,132.5482941z"/>
		<path id="XMLID_1325_" d="M195.7391205,132.5482941l-2,2.6318359v0.0419922l3.1796875-0.4208984v1.4316406l-3.1796875-0.3789063
			v0.0419922l2.0214844,2.5273438l-1.3271484,0.7578125l-1.2636719-2.9482422h-0.0419922l-1.3681641,2.9697266l-1.2001953-0.7587891
			l2-2.5683594v-0.0419922l-3.1162109,0.3994141v-1.4316406l3.0957031,0.4003906v-0.0419922l-1.9794922-2.5693359
			l1.2841797-0.7373047l1.3056641,2.9267578h0.0419922l1.2841797-2.9472656L195.7391205,132.5482941z"/>
		<path id="XMLID_1327_" d="M204.4754486,132.5482941l-2,2.6318359v0.0419922l3.1796875-0.4208984v1.4316406l-3.1796875-0.3789063
			v0.0419922l2.0214844,2.5273438l-1.3271484,0.7578125l-1.2636719-2.9482422h-0.0419922l-1.3681641,2.9697266l-1.2001953-0.7587891
			l2-2.5683594v-0.0419922l-3.1162109,0.3994141v-1.4316406l3.0957031,0.4003906v-0.0419922l-1.9794922-2.5693359
			l1.2841797-0.7373047l1.3056641,2.9267578h0.0419922l1.2841797-2.9472656L204.4754486,132.5482941z"/>
	</g>
</g>
<g id="XMLID_4_">
	<rect id="XMLID_1262_" x="226.996521" y="125.723587" style="fill:#C4C2C2;" width="62.1225357" height="19.7349567"/>
	<g id="XMLID_2_">
		<path id="XMLID_1329_" d="M249.3102264,133.0321808h-0.0205078l-1.1894531,0.6425781l-0.1796875-0.7050781l1.4951172-0.8007813
			h0.7900391v6.84375h-0.8955078V133.0321808z"/>
		<path id="XMLID_1331_" d="M252.6988983,139.0126495v-0.5683594l0.7265625-0.7060547
			c1.7480469-1.6630859,2.5371094-2.5478516,2.5478516-3.5791016c0-0.6953125-0.3369141-1.3369141-1.3583984-1.3369141
			c-0.6210938,0-1.1367188,0.3154297-1.4521484,0.5791016l-0.2949219-0.6533203
			c0.4736328-0.4003906,1.1474609-0.6943359,1.9365234-0.6943359c1.4745941,0,2.0956879,1.0107422,2.0956879,1.9892578
			c0,1.2636719-0.9160004,2.2851563-2.3583832,3.6748047l-0.5478516,0.5048828v0.0214844h3.0742035v0.7685547H252.6988983z"/>
		<path id="XMLID_1333_" d="M258.3209534,137.949173c0.2626953,0.1689453,0.8730469,0.4316406,1.515625,0.4316406
			c1.1894531,0,1.5585938-0.7578125,1.5478516-1.3261719c-0.0107422-0.9580078-0.8740234-1.3691406-1.7685547-1.3691406h-0.5166016
			v-0.6943359h0.5166016c0.6738281,0,1.5263672-0.3476563,1.5263672-1.1582031c0-0.5478516-0.3476563-1.0322266-1.2001953-1.0322266
			c-0.5478516,0-1.0742188,0.2421875-1.3691406,0.453125l-0.2421875-0.6738281
			c0.3583984-0.2636719,1.0527344-0.5263672,1.7900391-0.5263672c1.3476563,0,1.9580078,0.7998047,1.9580078,1.6318359
			c0,0.7050781-0.4208984,1.3056641-1.2626953,1.6103516v0.0214844c0.8417969,0.1679688,1.5263672,0.7998047,1.5263672,1.7578125
			c0,1.0957031-0.8525391,2.0537109-2.4951172,2.0537109c-0.7685547,0-1.4423828-0.2421875-1.7792969-0.4638672
			L258.3209534,137.949173z"/>
		<path id="XMLID_1335_" d="M266.3629456,139.0126495v-1.8632813h-3.1796875v-0.6113281l3.0527344-4.3691406h1v4.2539063h0.9589844
			v0.7265625h-0.9589844v1.8632813H266.3629456z M266.3629456,136.4228058v-2.2851563
			c0-0.3574219,0.0097656-0.7158203,0.03125-1.0732422h-0.03125c-0.2109375,0.3994141-0.3789063,0.6943359-0.5693359,1.0107422
			l-1.6738281,2.3261719v0.0214844H266.3629456z"/>
	</g>
</g>
</svg>
