<?xml version="1.0" encoding="utf-8"?>
<!-- Generator: Adobe Illustrator 19.0.0, SVG Export Plug-In . SVG Version: 6.00 Build 0)  -->
<svg version="1.1" id="Layer_1" xmlns="http://www.w3.org/2000/svg" xmlns:xlink="http://www.w3.org/1999/xlink" x="0px" y="0px"
	 width="10.6818848px" height="18.3950844px" viewBox="0 0 10.6818848 18.3950844"
	 style="enable-background:new 0 0 10.6818848 18.3950844;" xml:space="preserve">
<g id="XMLID_285_">
	<g id="XMLID_379_">
		<path id="XMLID_380_" style="fill:#383838;" d="M9.4444237,0.0000001H1.2425768C0.5592647,0.0000001,0,0.5587391,0,1.2425768
			V17.153759c0.0000003,0.6838398,0.5592647,1.243103,1.2425768,1.243103h8.2018471
			c0.6833115,0,1.2425766-0.5582142,1.2425766-1.2425766V1.2425768C10.6870003,0.5587391,10.1277351,0.0000001,9.4444237,0.0000001z
			 M4.0315409,0.8956645h2.6239185c0.0830493,0,0.1503282,0.0672799,0.1503282,0.1508542
			c0,0.0830487-0.0672798,0.1503286-0.1503282,0.1503286H4.0315409c-0.0830486,0-0.1503286-0.0672799-0.1503286-0.1503286
			C3.8812127,0.9629444,3.9484923,0.8956645,4.0315409,0.8956645z M5.3435001,17.7755737
			c-0.3432326,0-0.6212878-0.2780552-0.6212878-0.6218128s0.2780552-0.6212883,0.6212878-0.6212883
			s0.6212878,0.2775307,0.6212878,0.6212883S5.6867328,17.7755737,5.3435001,17.7755737z M9.8223476,16.0972538h-8.957695V1.9705669
			h8.957695V16.0972538z"/>
	</g>
</g>
</svg>
