<?xml version="1.0" encoding="utf-8"?>
<!-- Generator: Adobe Illustrator 19.0.0, SVG Export Plug-In . SVG Version: 6.00 Build 0)  -->
<svg version="1.1" id="Layer_1" xmlns="http://www.w3.org/2000/svg" xmlns:xlink="http://www.w3.org/1999/xlink" x="0px" y="0px"
	 width="64.3989029px" height="64.3960342px" viewBox="0 0 64.3989029 64.3960342"
	 style="enable-background:new 0 0 64.3989029 64.3960342;" xml:space="preserve">
<g id="XMLID_285_">
	<g id="XMLID_509_">
		<g id="XMLID_510_">
			<g id="XMLID_511_">
				<path id="XMLID_520_" style="fill:#283238;" d="M62.6894493,22.0988846L42.2973785,1.7070706
					c-1.1008186-1.1006932-2.5687866-1.7069485-4.133728-1.7069485c-1.5648193,0-3.0329132,0.6060038-4.133728,1.706697
					L1.7069485,34.0299149C0.6062554,35.1307335,0,36.5985756,0,38.1635208c0,1.5649414,0.6062554,3.0330391,1.7069485,4.133606
					l2.5145762,2.5145798c0.0002513,0.0001259,0.0003772,0.0003738,0.0006289,0.0006294
					c0.0002513,0.0002518,0.0005035,0.0004997,0.0007548,0.0007553l16.8996849,16.8996849h-2.3399963
					c-0.740839,0-1.3415604,0.6005936-1.3415604,1.3415604c0,0.7408409,0.6007214,1.3415604,1.3415604,1.3415604h7.4447403
					c0.0017624,0,0.0033951,0.0001297,0.0051575,0.0001297s0.0033951-0.0001297,0.0051575-0.0001297l19.3766518,0.0002594
					c0.7408409,0,1.3415604-0.6007233,1.3415604-1.3415642c0-0.740963-0.6007195-1.3415642-1.3415604-1.3415642
					l-14.2714024-0.0002518l31.346674-31.3466797C64.9686966,28.0867252,64.9686966,24.3780041,62.6894493,22.0988846z
					 M60.7921982,28.4688435L28.4689732,60.7920685c-0.5927963,0.5926704-1.3852062,0.919445-2.2315731,0.9207039h-0.0101871
					c-0.846117-0.0013809-1.6382732-0.3280334-2.2308178-0.9207039L7.0681577,43.8637047l31.0416603-31.0419102
					c0.5238686-0.5238705,0.5238686-1.3733826,0-1.8972521c-0.5239944-0.5238705-1.3732567-0.5238705-1.897377,0.0001249
					L5.1707797,41.9665794L3.604075,40.3998756c-0.5938034-0.5938072-0.9208288-1.3879738-0.9208288-2.2362289
					c0-0.8482513,0.3270257-1.6425476,0.9209547-2.2364769L35.9271698,3.6041973
					c0.5939331-0.5938034,1.3882256-0.9208288,2.2364807-0.9208288c0.8482513,0,1.6425476,0.3270257,2.2364807,0.9209547
					l7.2578316,7.2577066L16.6159267,41.9043198c-0.5238705,0.5237427-0.5238705,1.3732529,0,1.897377
					C16.8779221,44.0635681,17.221302,44.1945,17.5645504,44.1945c0.3432522,0,0.6866283-0.1310577,0.9486256-0.3929329
					l31.042038-31.04216l11.2369804,11.2366037C62.0252075,25.2291508,62.0250854,27.2357063,60.7921982,28.4688435z"/>
				<path id="XMLID_519_" style="fill:#283238;" d="M33.0548782,38.7467575c-0.5238686-0.5238686-1.3731289-0.5237427-1.8973789,0
					L20.6003551,49.3037796c-0.5238705,0.5238724-0.5238705,1.3732567,0,1.897377
					c0.2619972,0.2619972,0.6053753,0.3929329,0.9486237,0.3929329c0.3432522,0,0.6866283-0.1310616,0.9486256-0.3929329
					l10.5571442-10.5570221C33.5787506,40.1200142,33.5787506,39.2706299,33.0548782,38.7467575z"/>
				<path id="XMLID_518_" style="fill:#283238;" d="M28.7248077,48.7684631l-4.3299465,4.3299446
					c-0.5238686,0.5238686-0.5238686,1.3733826,0,1.897377c0.2619972,0.2618713,0.6053753,0.3929329,0.9486275,0.3929329
					c0.343502,0,0.6866283-0.1310616,0.9486237-0.3929329l4.3299484-4.3299446c0.5238686-0.5238724,0.5238686-1.3733826,0-1.897377
					C30.0981903,48.2444687,29.2490559,48.2444687,28.7248077,48.7684631z"/>
				<path id="XMLID_517_" style="fill:#283238;" d="M32.709362,44.7842827l-0.569149,0.5690231
					c-0.5239964,0.5238724-0.5239964,1.3732567-0.0001259,1.897377c0.2618713,0.262001,0.6053734,0.3930588,0.9486237,0.3930588
					c0.3432541,0,0.6866302-0.1310577,0.9484978-0.3930588l0.5691528-0.5690231
					c0.5239906-0.5238724,0.5239906-1.3732567,0.0001259-1.8972549C34.0828743,44.26054,33.2332344,44.2604103,32.709362,44.7842827
					z"/>
				<path id="XMLID_514_" style="fill:#283238;" d="M51.2012863,20.6004791
					c-0.2515602-0.2515583-0.5928001-0.3929329-0.9486275-0.3929329s-0.6969376,0.1413746-0.9486237,0.3929329l-5.6921349,5.6920071
					c-0.2515602,0.2516861-0.3929329,0.5927982-0.3929329,0.9486256c0,0.3558292,0.1413727,0.6970673,0.3929329,0.9486256
					l3.7947578,3.7943783c0.2619972,0.2619972,0.6053734,0.3929329,0.9486237,0.3929329
					c0.343502,0,0.6866302-0.1310616,0.9486275-0.3929329l5.6918793-5.6917572c0.5238724-0.5238686,0.5238724-1.3733826,0-1.897253
					L51.2012863,20.6004791z M48.3551559,29.1383667l-1.897377-1.897253l3.7947578-3.7946301l1.8972511,1.8973789
					L48.3551559,29.1383667z"/>
				<path id="XMLID_513_" style="fill:#283238;" d="M40.2919579,10.0844631c0.343502,0,0.6868782-0.1310616,0.9487534-0.3931856
					l0.569149-0.5694017c0.5237427-0.5239964,0.5236168-1.373508-0.0003777-1.8972526
					c-0.5238686-0.5237446-1.3735085-0.5236187-1.8972511,0.0003772l-0.569149,0.5694022
					c-0.5237427,0.5239959-0.5236168,1.373508,0.0003777,1.8972526
					C39.6054573,9.9536533,39.9485817,10.0844631,40.2919579,10.0844631z"/>
				<path id="XMLID_512_" style="fill:#283238;" d="M13.4854088,45.0348358l-0.5691509,0.569149
					c-0.5238705,0.5237465-0.5238705,1.3732567,0,1.897377c0.2619982,0.2618713,0.6053753,0.392807,0.9486256,0.392807
					c0.3432512,0,0.6866283-0.1309357,0.9486265-0.392807l0.5691509-0.569149c0.5238705-0.5239944,0.5238705-1.3735085,0-1.897377
					C14.8586655,44.5108376,14.0094042,44.5108376,13.4854088,45.0348358z"/>
			</g>
		</g>
	</g>
</g>
</svg>
