<?xml version="1.0" encoding="utf-8"?>
<!-- Generator: Adobe Illustrator 19.0.0, SVG Export Plug-In . SVG Version: 6.00 Build 0)  -->
<svg version="1.1" id="Layer_1" xmlns="http://www.w3.org/2000/svg" xmlns:xlink="http://www.w3.org/1999/xlink" x="0px" y="0px"
	 width="18.8454647px" height="10.681901px" viewBox="0 0 18.8454647 10.681901"
	 style="enable-background:new 0 0 18.8454647 10.681901;" xml:space="preserve">
<g id="XMLID_253_">
	<path id="XMLID_446_" style="fill:#FFFFFF;" d="M17.9353065,4.925302c0.1912155,0.2448807,0.1912155,0.5864549,0,0.8313723
		c-0.9876575,1.2666578-2.267087,2.3143849-3.6998587,3.0294824c-0.4063187,0.2031412-0.8215809,0.3777924-1.2440586,0.5264215
		c1.0877733-0.978713,1.7734613-2.3965764,1.7734613-3.9715714c0-1.5758419-0.6861286-2.9945517-1.7751913-3.9728599
		c0.4233608,0.1486287,0.8390284,0.3245322,1.2457886,0.5277101C15.6682186,2.6109166,16.947649,3.658644,17.9353065,4.925302z"/>
	<path id="XMLID_443_" style="fill:#CECECE;" d="M9.4227505,0.7654597c2.5230474,0,4.57551,2.0524259,4.57551,4.57551
		s-2.0524626,4.5755095-4.57551,4.5755095S4.8472409,7.8640165,4.8472409,5.3409696S6.899704,0.7654597,9.4227505,0.7654597z
		 M11.3806543,5.3409696c0-1.0796762-0.8782272-1.9579039-1.9579039-1.9579039S7.4648471,4.2612939,7.4648471,5.3409696
		s0.8782277,1.9579039,1.9579034,1.9579039S11.3806543,6.4206457,11.3806543,5.3409696z"/>
	<path id="XMLID_440_" style="fill:#303030;" d="M9.4227505,3.3830657c1.0796766,0,1.9579039,0.8782282,1.9579039,1.9579039
		s-0.8782272,1.9579039-1.9579039,1.9579039S7.4648471,6.4206457,7.4648471,5.3409696S8.3430748,3.3830657,9.4227505,3.3830657z
		 M10.6139908,5.3409696c0-0.6567574-0.5345192-1.1912394-1.1912403-1.1912394c-0.6567202,0-1.1912766,0.534482-1.1912766,1.1912394
		s0.5345201,1.1912398,1.1912766,1.1912398C10.0795088,6.5322094,10.6139908,5.997726,10.6139908,5.3409696z"/>
	<g id="XMLID_255_">
		<path id="XMLID_295_" style="fill:#303030;" d="M18.5400906,4.4537973c0.4071655,0.5221519,0.4071655,1.2521563,0,1.7743073
			C17.482132,7.5841689,16.1124134,8.7060251,14.57831,9.4722118c-1.5664921,0.7815342-3.2509527,1.1874113-5.0099115,1.2087221
			c-0.0485497,0.0012884-0.2427826,0.0012884-0.2913313,0c-1.7589965-0.0213118-3.4434566-0.4271879-5.0099125-1.2087221
			C2.7330527,8.7060251,1.3633336,7.584168,0.305374,6.2281046c-0.4071651-0.5221519-0.4071651-1.2521558,0-1.7743077
			c1.0579593-1.3561008,2.4276788-2.477921,3.9617808-3.2441075c1.5664926-0.7815347,3.2509532-1.1874113,5.0099125-1.2087233
			c0.0485487-0.0012884,0.2427816-0.0012884,0.2913313,0c1.758996,0.0213117,3.4434566,0.4271885,5.0099115,1.2087233
			C16.1124496,1.9758762,17.4821682,3.0977333,18.5400906,4.4537973z M17.9353065,5.7566371
			c0.1912155-0.2448802,0.1912155-0.5864544,0-0.8313723c-0.9876575-1.2666581-2.267087-2.3143847-3.6998587-3.0294821
			c-0.406723-0.2031409-0.8224277-0.3790443-1.2457886-0.5277101c1.0890255,0.9783076,1.7751913,2.3969817,1.7751913,3.9728599
			c0,1.5749955-0.6857243,2.9928222-1.7734613,3.9715714c0.422514-0.1486282,0.8377399-0.3232441,1.2440586-0.5264215
			C15.6682186,8.071022,16.947649,7.0232954,17.9353065,5.7566371z M13.9982605,5.3409696
			c0-2.523047-2.0524263-4.5755095-4.57551-4.5755095S4.8472409,2.8179226,4.8472409,5.3409696
			S6.899704,9.9164791,9.4227505,9.9164791S13.9982605,7.8640165,13.9982605,5.3409696z M5.8553634,1.3681097
			c-0.4233608,0.1490706-0.8386235,0.3245322-1.245347,0.5277101C3.1772826,2.6109166,1.8978523,3.658644,0.9101586,4.925302
			c-0.1912152,0.2448807-0.1912152,0.5864549,0,0.8313723c0.987657,1.2666578,2.2670875,2.3143849,3.6998577,3.0294824
			c0.4067235,0.2031412,0.8224277,0.3790436,1.245347,0.52771C4.7667427,8.3351164,4.0806136,6.9168849,4.0806136,5.3410068
			S4.7667427,2.3468595,5.8553634,1.3681097z"/>
		<path id="XMLID_294_" style="fill:#929292;" d="M9.4227505,4.149693c0.6567574,0,1.1912403,0.5345192,1.1912403,1.1912394
			s-0.534483,1.191277-1.1912403,1.191277c-0.6567564,0-1.1912766-0.5344834-1.1912766-1.1912398
			S8.7659941,4.149693,9.4227505,4.149693z"/>
	</g>
	<path id="XMLID_254_" style="fill:#FFFFFF;" d="M4.6100163,1.8958198c0.4067235-0.2031409,0.8219862-0.3786395,1.245347-0.5277101
		C4.7667427,2.3468223,4.0806136,3.7650912,4.0806136,5.3409696s0.68613,2.9941106,1.7747498,3.9728599
		c-0.4229193-0.1486292-0.8386235-0.3245316-1.245347-0.52771C3.1772826,8.071022,1.8978523,7.0232954,0.9101586,5.7566371
		c-0.1912152-0.2448802-0.1912152-0.5864544,0-0.8313723C1.8978522,3.658644,3.1772826,2.6109166,4.6100163,1.8958198z"/>
</g>
</svg>
