<?xml version="1.0" encoding="utf-8"?>
<!-- Generator: Adobe Illustrator 19.0.0, SVG Export Plug-In . SVG Version: 6.00 Build 0)  -->
<svg version="1.1" id="Layer_1" xmlns="http://www.w3.org/2000/svg" xmlns:xlink="http://www.w3.org/1999/xlink" x="0px" y="0px"
	 width="54.4101791px" height="55.3282089px" viewBox="0 0 54.4101791 55.3282089"
	 style="enable-background:new 0 0 54.4101791 55.3282089;" xml:space="preserve">
<g id="XMLID_744_">
	<path id="XMLID_892_" style="fill:#424242;" d="M13.5260258,21.4244232H4.1932621
		c-2.3121393,0-4.1931386-1.8810539-4.1931386-4.1932049s1.8809993-4.1932039,4.1931386-4.1932039
		c0.0424771,0,0.0842957,0.0011854,0.1253242,0.0030289c0.8994002-2.4486694,3.224721-4.0801287,5.8484373-4.0801287
		c3.4362516,0,6.2317209,2.7955351,6.2317209,6.2317209c0,0.124074-0.0046749,0.2553911-0.014225,0.399024
		c0.4897079,0.6314964,0.7583351,1.4141979,0.7583351,2.215868C17.1428547,19.8019867,15.5203533,21.4244232,13.5260258,21.4244232z
		 M4.1932621,13.5538673c-2.0277166,0-3.6772859,1.6497011-3.6772859,3.677351c0,2.0277176,1.6495693,3.6773529,3.6772859,3.6773529
		h9.3327637c1.7098942,0,3.1009884-1.3910847,3.1009884-3.1010437c0-0.7173729-0.2508583-1.4168987-0.706255-1.9700918
		c-0.0424767-0.0515003-0.0632219-0.1176853-0.0579529-0.1842003c0.013566-0.1705685,0.0200863-0.3212471,0.0200863-0.4605999
		c0-3.1517515-2.5641165-5.7159338-5.7158689-5.7159338c-2.4679661,0-4.6479969,1.5737686-5.424849,3.9159489
		c-0.0373406,0.1125488-0.1477709,0.1867685-0.264545,0.1758366C4.3791084,13.5611115,4.2861195,13.5538673,4.1932621,13.5538673z"
		/>
	<path id="XMLID_889_" style="fill:#424242;" d="M51.6590157,7.8763928h-7.3607635
		c-1.5170021,0-2.7512016-1.2342138-2.7512016-2.7512145c0-1.5170662,1.2341995-2.7512798,2.7512016-2.7512798
		c0.0228539,0,0.0459671,0.0003293,0.0692825,0.000988c0.6193771-1.4283581,2.0468788-2.3751087,3.6110992-2.3751087
		s2.9917221,0.9467506,3.6110992,2.3751087c0.0233803-0.0006588,0.0464287-0.000988,0.0692825-0.000988
		c1.5170631,0,2.7512779,1.2342136,2.7512779,2.7512798C54.4102936,6.642179,53.1760788,7.8763928,51.6590157,7.8763928z
		 M44.2982521,2.8897512c-1.2326317,0-2.235363,1.0028603-2.235363,2.2354271s1.0027313,2.2353616,2.235363,2.2353616h7.3607635
		c1.2326317,0,2.2354393-1.0027943,2.2354393-2.2353616s-1.0028076-2.2354271-2.2354393-2.2354271
		c-0.0724449,0-0.1438332,0.0042148-0.2144165,0.0107346c-0.1173019,0.0115907-0.2245712-0.0570974-0.2656136-0.1658921
		c-0.4994545-1.3272685-1.7855606-2.2188973-3.2003517-2.2188973c-1.4147263,0-2.7008247,0.8916289-3.2003555,2.2188973
		c-0.0409622,0.1089923-0.1504707,0.1773512-0.2654648,0.1658921C44.4420166,2.893966,44.3706284,2.8897512,44.2982521,2.8897512z"
		/>
	<path id="XMLID_888_" style="fill:#FFFFFF;" d="M9.4903498,37.7677269
		c0.0005932-0.0173874,0.0011311-0.0348396,0.0014486-0.0523567c0.0377359-1.8071632-1.3990517-3.3586731-3.2042284-3.4522552
		c-1.9515972-0.101223-3.5656703,1.45121-3.5656703,3.3806038c0,0.0689507,0.0020416,0.1374397,0.0061355,0.2052727
		c0.0887635,1.4761047-0.4191206,2.9246788-1.3057443,4.1081848c-0.7936346,1.0592995-1.2361891,2.3966446-1.1549883,3.8400154
		c0.1690532,3.0052872,2.6537466,5.4197807,5.6625252,5.5088158c3.3115196,0.0979958,6.0268421-2.5573311,6.0268421-5.8467903
		c0-1.314888-0.4339933-2.5281563-1.166503-3.5047417C9.8858175,40.7487793,9.4358206,39.2738609,9.4903498,37.7677269z"/>
	<path id="XMLID_884_" style="fill:#424242;" d="M6.1089568,51.5666695c-0.0621686,0-0.1244688-0.000988-0.1868343-0.0028343
		c-3.139174-0.0928574-5.7361417-2.6194344-5.9123182-5.7522202c-0.0809374-1.438961,0.3473263-2.8627739,1.206027-4.009201
		c0.8904434-1.1883774,1.3360273-2.5870361,1.2548264-3.9379463c-0.0044782-0.0729027-0.0067065-0.146595-0.0067065-0.2206841
		c0-1.0090523,0.4030957-1.9473724,1.1350231-2.6424179c0.7315977-0.6945229,1.6904004-1.0476456,2.7018874-0.9958153
		c1.9423671,0.1006279,3.4894633,1.7672539,3.4488301,3.7151527l-0.0015802,0.0557823c0,0.0001297,0,0.0003281,0,0.0006561
		c-0.0524769,1.4506836,0.3908567,2.8792381,1.2484379,4.0224419c0.7967958,1.0625916,1.2180128,2.3278885,1.2180128,3.6595688
		c0,1.665638-0.6582336,3.2219543-1.8534603,4.3822784C9.2109871,50.9581566,7.7072239,51.5666695,6.1089568,51.5666695z
		 M6.1056638,34.5163994c-0.8057523,0-1.5642853,0.3016205-2.1513836,0.8590965
		c-0.628412,0.5966568-0.9744871,1.4021454-0.9744871,2.2682877c0,0.0636826,0.00191,0.1269722,0.0057404,0.1896019
		c0.0885661,1.4728737-0.3933048,2.9922485-1.3567829,4.2783546c-0.7860612,1.0492249-1.1780273,2.3529816-1.1039497,3.6709633
		c0.1612822,2.8676491,2.5387616,5.1804581,5.4126,5.2656097c1.5287232,0.0473518,2.9705162-0.5148659,4.0643234-1.5769958
		c1.0943346-1.0622635,1.6969862-2.4872627,1.6969862-4.0121651c0-1.2191315-0.3855886-2.3774796-1.1149483-3.3499146
		c-0.9279156-1.2372437-1.4077339-2.7821655-1.3511744-4.3502045l0.0014496-0.0499191
		c0.0348482-1.6713028-1.2929578-3.1020317-2.959847-3.1883698C6.2178173,34.5179138,6.1615758,34.5163994,6.1056638,34.5163994z
		 M9.4903498,37.7677269h0.001647H9.4903498z"/>
	<g id="XMLID_843_">
		<line id="XMLID_845_" style="fill:#5E35B1;" x1="6.1072445" y1="42.7938805" x2="6.1072445" y2="55.0700264"/>
		<path id="XMLID_844_" style="fill:#424242;" d="M6.1071787,55.3279877c-0.1424475,0-0.2578936-0.1155128-0.2578936-0.2578926
			V42.7938805c0-0.1424484,0.1154461-0.2579575,0.2578936-0.2579575c0.1425128,0,0.2579589,0.115509,0.2579589,0.2579575v12.2762146
			C6.3651376,55.2124748,6.2496915,55.3279877,6.1071787,55.3279877z"/>
	</g>
	<g id="XMLID_840_">
		<line id="XMLID_842_" style="fill:#5E35B1;" x1="3.8504138" y1="46.465107" x2="6.1072445" y2="47.9525375"/>
		<path id="XMLID_841_" style="fill:#424242;" d="M6.106915,48.2103653c-0.0486679,0-0.0979939-0.0137634-0.1415911-0.0424767
			l-2.2567647-1.4873009c-0.1189365-0.0783691-0.1518648-0.2383995-0.0734298-0.3573341
			c0.0783691-0.1188698,0.2386634-0.1516037,0.3572047-0.0735626l2.2567647,1.4873009
			c0.1189365,0.078434,0.151865,0.2384644,0.0734301,0.3573341C6.273005,48.1696014,6.1907611,48.2103653,6.106915,48.2103653z"/>
	</g>
	<g id="XMLID_837_">
		<line id="XMLID_839_" style="fill:#FFC107;" x1="3.2700329" y1="55.0700264" x2="8.9444666" y2="55.0700264"/>
		<path id="XMLID_838_" style="fill:#424242;" d="M8.9444008,55.3279877H3.2699561
			c-0.142513,0-0.2579591-0.1155128-0.2579591-0.2578926c0-0.1424484,0.1154461-0.2579613,0.2579591-0.2579613h5.6744447
			c0.1425133,0,0.2579708,0.1155128,0.2579708,0.2579613C9.2023716,55.2124748,9.0869141,55.3279877,8.9444008,55.3279877z"/>
	</g>
	<path id="XMLID_836_" style="fill:#FFFFFF;" d="M51.6860161,37.7677269
		c0.0006561-0.0173874,0.0011177-0.0348396,0.0015144-0.0523567c0.037735-1.8071632-1.3990517-3.3586731-3.2042389-3.4522552
		c-1.9515762-0.101223-3.5656624,1.45121-3.5656624,3.3806038c0,0.0689507,0.0020447,0.1374397,0.0061264,0.2052727
		c0.0887756,1.4761047-0.4191742,2.9246788-1.3057327,4.1081848c-0.7936363,1.0592995-1.2361908,2.3966446-1.1549873,3.8400154
		c0.1690521,3.0052872,2.6537437,5.4197807,5.6625214,5.5088158c3.3115196,0.0979958,6.026844-2.5573311,6.026844-5.8467903
		c0-1.314888-0.4339943-2.5281563-1.1665154-3.5047417C52.0815468,40.7487793,51.6315536,39.2738609,51.6860161,37.7677269z"/>
	<path id="XMLID_832_" style="fill:#424242;" d="M48.3046875,51.5666695c-0.0621033,0-0.1244011-0.000988-0.1868324-0.0028343
		c-3.1391754-0.0928574-5.7361526-2.6194344-5.9123192-5.7522202c-0.080925-1.438961,0.3473244-2.8627739,1.206028-4.009201
		c0.8903084-1.1883774,1.3358955-2.5868378,1.2546921-3.9379463c-0.0043449-0.0730324-0.0065842-0.146595-0.0065842-0.2206841
		c0-1.0090523,0.4031067-1.9473724,1.1350327-2.6424179c0.7315979-0.6945229,1.6906662-1.0476456,2.701889-0.9958153
		c1.9422989,0.1006279,3.489399,1.7672539,3.4487648,3.7151527l-0.0015144,0.0557823c0,0.0001297,0,0.0003281,0,0.0006561
		c-0.0525551,1.4505539,0.3907242,2.8792381,1.248436,4.0224419c0.7967987,1.0625916,1.2180138,2.3278885,1.2180138,3.6595688
		c0,1.665638-0.6582336,3.2219543-1.8534584,4.3822784C51.4067192,50.9581566,49.9029541,51.5666695,48.3046875,51.5666695z
		 M48.3013954,34.5163994c-0.8057518,0-1.5642853,0.3016205-2.1513939,0.8590965
		c-0.6284027,0.5966568-0.9744759,1.4021454-0.9744759,2.2682877c0,0.0636826,0.0019073,0.1271706,0.0057297,0.18993
		c0.0884438,1.4726791-0.3933601,2.9920502-1.3567734,4.2780266c-0.7860603,1.0492249-1.1780396,2.3529816-1.1039505,3.6709633
		c0.1612816,2.8676491,2.5387611,5.1804581,5.4126015,5.2656097c1.5265503,0.0424767,2.9705162-0.5148659,4.0643234-1.5769958
		c1.0943336-1.0624619,1.6969986-2.4872627,1.6969986-4.0121651c0-1.2191315-0.385601-2.3774796-1.1149483-3.3499146
		c-0.9279938-1.2374382-1.4078903-2.7823639-1.3511887-4.3502045l0.0013199-0.0487328
		c0.0348358-1.6724892-1.2928276-3.1032181-2.9597168-3.1895561C48.4136124,34.5179138,48.3573074,34.5163994,48.3013954,34.5163994
		z M51.6860809,37.7677269h0.0016479H51.6860809z"/>
	<g id="XMLID_829_">
		<line id="XMLID_831_" style="fill:#5E35B1;" x1="48.3029099" y1="42.7938805" x2="48.3029099" y2="55.0700264"/>
		<path id="XMLID_830_" style="fill:#424242;" d="M48.3029099,55.3279877c-0.1424484,0-0.2578926-0.1155128-0.2578926-0.2578926
			V42.7938805c0-0.1424484,0.1154442-0.2579575,0.2578926-0.2579575c0.1425133,0,0.2579575,0.115509,0.2579575,0.2579575v12.2762146
			C48.5608673,55.2124748,48.4454231,55.3279877,48.3029099,55.3279877z"/>
	</g>
	<g id="XMLID_826_">
		<line id="XMLID_828_" style="fill:#5E35B1;" x1="46.0461464" y1="46.465107" x2="48.3029099" y2="47.9525375"/>
		<path id="XMLID_827_" style="fill:#424242;" d="M48.3026466,48.2103653c-0.0486679,0-0.0979271-0.0137634-0.1415901-0.0424767
			l-2.2568321-1.4873009c-0.1190033-0.0783691-0.1518631-0.2383995-0.073494-0.3573341
			c0.0783005-0.1188698,0.2386742-0.1516037,0.3572693-0.0735626l2.2568436,1.4873009
			c0.1189232,0.078434,0.1518517,0.2384644,0.0734177,0.3573341C48.4687347,48.1696014,48.3864822,48.2103653,48.3026466,48.2103653
			z"/>
	</g>
	<g id="XMLID_823_">
		<line id="XMLID_825_" style="fill:#FFC107;" x1="45.4656868" y1="55.0700264" x2="51.1401978" y2="55.0700264"/>
		<path id="XMLID_824_" style="fill:#424242;" d="M51.1401329,55.3279877h-5.6744461
			c-0.1425133,0-0.2579575-0.1155128-0.2579575-0.2578926c0-0.1424484,0.1154442-0.2579613,0.2579575-0.2579613h5.6744461
			c0.1425133,0,0.2579575,0.1155128,0.2579575,0.2579613C51.3980904,55.2124748,51.2826462,55.3279877,51.1401329,55.3279877z"/>
	</g>
	<rect id="XMLID_822_" x="8.0880051" y="16.9498138" style="fill:#F8F9F9;" width="38.1202126" height="38.1202126"/>
	<path id="XMLID_819_" style="fill:#424242;" d="M46.2082176,55.3279877H8.0880051
		c-0.142447,0-0.2578931-0.1155128-0.2578931-0.2578926V16.949749c0-0.1423817,0.1154461-0.2578945,0.2578931-0.2578945h38.1202126
		c0.1425133,0,0.2579575,0.1155128,0.2579575,0.2578945v38.1203461
		C46.4661751,55.2124748,46.3507309,55.3279877,46.2082176,55.3279877z M8.3459644,54.8121338H45.950325V17.2077084H8.3459644
		V54.8121338z"/>
	<path id="XMLID_816_" style="fill:#424242;" d="M32.0572739,55.3279877h-9.4029675
		c-0.1425133,0-0.2579594-0.1155128-0.2579594-0.2578926V38.6033096c0-0.1423798,0.1154461-0.2578926,0.2579594-0.2578926h9.4029675
		c0.1424446,0,0.2578926,0.1155128,0.2578926,0.2578926v16.4667854
		C32.3151665,55.2124748,32.1997185,55.3279877,32.0572739,55.3279877z M22.912199,54.8121338h8.8871136V38.8612709H22.912199
		V54.8121338z"/>
	<path id="XMLID_815_" style="fill:#9BBD37;" d="M30.4426327,48.9839134h-0.0530014
		c-0.2971325,0-0.5380077-0.2408714-0.5380077-0.5380058v-2.1701775c0-0.2971306,0.2408752-0.5380058,0.5380077-0.5380058h0.0530014
		c0.2971401,0,0.5380211,0.2408791,0.5380211,0.5380211v2.1701508
		C30.9806538,48.7430344,30.7397728,48.9839134,30.4426327,48.9839134z"/>
	<path id="XMLID_812_" style="fill:#424242;" d="M30.416132,49.2418098c-0.4535522,0-0.8224792-0.3689308-0.8224792-0.8223495
		v-2.1171494c0-0.4536171,0.368927-0.8225441,0.8224792-0.8225441c0.4535542,0,0.8224812,0.368927,0.8224812,0.8225441v2.1171494
		C31.2386131,48.872879,30.8696861,49.2418098,30.416132,49.2418098z M30.416132,45.9956818
		c-0.1691189,0-0.3066254,0.1375084-0.3066254,0.3066292v2.1171494c0,0.1689224,0.1375065,0.3064308,0.3066254,0.3064308
		c0.1691322,0,0.3066273-0.1375084,0.3066273-0.3064308v-2.1171494
		C30.7227592,46.1331902,30.5852642,45.9956818,30.416132,45.9956818z"/>
	<g id="XMLID_809_">
		<line id="XMLID_811_" style="fill:#5E35B1;" x1="6.1072445" y1="55.0700264" x2="48.3029099" y2="55.0700264"/>
		<path id="XMLID_810_" style="fill:#424242;" d="M48.3029099,55.3279877H6.1071787
			c-0.1424475,0-0.2578936-0.1155128-0.2578936-0.2578926c0-0.1424484,0.1154461-0.2579613,0.2578936-0.2579613h42.1957321
			c0.1425133,0,0.2579575,0.1155128,0.2579575,0.2579613C48.5608673,55.2124748,48.4454231,55.3279877,48.3029099,55.3279877z"/>
	</g>
	<rect id="XMLID_808_" x="8.3951588" y="8.6138515" style="fill:#9BBD37;" width="37.7836189" height="5.370584"/>
	<path id="XMLID_805_" style="fill:#424242;" d="M46.1787796,14.2423286H8.3951588
		c-0.1425123,0-0.2579584-0.1155119-0.2579584-0.2579584V8.6138515c0-0.1423807,0.1154461-0.2578936,0.2579584-0.2578936h37.7836227
		c0.1424484,0,0.2578926,0.1155128,0.2578926,0.2578936v5.3705187
		C46.4366722,14.1268167,46.321228,14.2423286,46.1787796,14.2423286z M8.6530523,13.7264767h37.2677689V8.8718109H8.6530523
		V13.7264767z"/>
	<g id="XMLID_801_">
		<path id="XMLID_802_" style="fill:#424242;" d="M46.2082176,36.0913506H33.6399307
			c-0.1425018,0-0.2579575-0.115509-0.2579575-0.2579575V24.7975178c0-0.1424465,0.1154556-0.2579594,0.2579575-0.2579594
			h12.5682869c0.1425133,0,0.2579575,0.1155128,0.2579575,0.2579594v11.0358753
			C46.4661751,35.9758415,46.3507309,36.0913506,46.2082176,36.0913506z M33.8978386,35.5755005H45.950325V25.0554123H33.8978386
			V35.5755005z"/>
	</g>
	<g id="XMLID_798_">
		<line id="XMLID_800_" style="fill:#ECEFF1;" x1="39.9240761" y1="24.7975178" x2="39.9240761" y2="35.8333282"/>
		<path id="XMLID_799_" style="fill:#424242;" d="M39.9240761,36.0913506c-0.1425133,0-0.2579613-0.115509-0.2579613-0.2579575
			V24.7975178c0-0.1424465,0.115448-0.2579594,0.2579613-0.2579594c0.1424446,0,0.2578926,0.1155128,0.2578926,0.2579594v11.0358753
			C40.1819687,35.9758415,40.0665207,36.0913506,39.9240761,36.0913506z"/>
	</g>
	<g id="XMLID_794_">
		<path id="XMLID_795_" style="fill:#424242;" d="M46.2082176,49.8970146H33.6399307
			c-0.1425018,0-0.2579575-0.1155128-0.2579575-0.2578964V38.6033096c0-0.1423798,0.1154556-0.2578926,0.2579575-0.2578926
			h12.5682869c0.1425133,0,0.2579575,0.1155128,0.2579575,0.2578926v11.0358086
			C46.4661751,49.7815018,46.3507309,49.8970146,46.2082176,49.8970146z M33.8978386,49.3811607H45.950325V38.8612709H33.8978386
			V49.3811607z"/>
	</g>
	<g id="XMLID_791_">
		<line id="XMLID_793_" style="fill:#ECEFF1;" x1="39.9240761" y1="38.6033096" x2="39.9240761" y2="49.6391182"/>
		<path id="XMLID_792_" style="fill:#424242;" d="M39.9240761,49.8970146c-0.1425133,0-0.2579613-0.1155128-0.2579613-0.2578964
			V38.6033096c0-0.1423798,0.115448-0.2578926,0.2579613-0.2578926c0.1424446,0,0.2578926,0.1155128,0.2578926,0.2578926v11.0358086
			C40.1819687,49.7815018,40.0665207,49.8970146,39.9240761,49.8970146z"/>
	</g>
	<g id="XMLID_787_">
		<path id="XMLID_788_" style="fill:#424242;" d="M20.6563568,36.0913506H8.0880051
			c-0.142447,0-0.2578931-0.115509-0.2578931-0.2579575V24.7975178c0-0.1424465,0.1154461-0.2579594,0.2578931-0.2579594h12.5683517
			c0.1424465,0,0.2579041,0.1155128,0.2579041,0.2579594v11.0358753
			C20.9142609,35.9758415,20.7988033,36.0913506,20.6563568,36.0913506z M8.3459644,35.5755005h12.052433V25.0554123H8.3459644
			V35.5755005z"/>
	</g>
	<g id="XMLID_784_">
		<line id="XMLID_786_" style="fill:#ECEFF1;" x1="14.3721476" y1="24.7975178" x2="14.3721476" y2="35.8333282"/>
		<path id="XMLID_785_" style="fill:#424242;" d="M14.3721476,36.0913506c-0.1425123,0-0.2579584-0.115509-0.2579584-0.2579575
			V24.7975178c0-0.1424465,0.1154461-0.2579594,0.2579584-0.2579594c0.1424475,0,0.2578936,0.1155128,0.2578936,0.2579594
			v11.0358753C14.6300411,35.9758415,14.514595,36.0913506,14.3721476,36.0913506z"/>
	</g>
	<g id="XMLID_780_">
		<path id="XMLID_781_" style="fill:#424242;" d="M20.6563568,49.8970146H8.0880051
			c-0.142447,0-0.2578931-0.1155128-0.2578931-0.2578964V38.6033096c0-0.1423798,0.1154461-0.2578926,0.2578931-0.2578926
			h12.5683517c0.1424465,0,0.2579041,0.1155128,0.2579041,0.2578926v11.0358086
			C20.9142609,49.7815018,20.7988033,49.8970146,20.6563568,49.8970146z M8.3459644,49.3811607h12.052433V38.8612709H8.3459644
			V49.3811607z"/>
	</g>
	<g id="XMLID_777_">
		<line id="XMLID_779_" style="fill:#ECEFF1;" x1="14.3721476" y1="38.6033096" x2="14.3721476" y2="49.6391182"/>
		<path id="XMLID_778_" style="fill:#424242;" d="M14.3721476,49.8970146c-0.1425123,0-0.2579584-0.1155128-0.2579584-0.2578964
			V38.6033096c0-0.1423798,0.1154461-0.2578926,0.2579584-0.2578926c0.1424475,0,0.2578936,0.1155128,0.2578936,0.2578926
			v11.0358086C14.6300411,49.7815018,14.514595,49.8970146,14.3721476,49.8970146z"/>
	</g>
	<path id="XMLID_776_" style="fill:#337D3E;" d="M8.5429392,28.3989372H8.2473135
		c-1.6573024,0-3.0008111-1.3435078-3.0008111-3.0008106v-7.5583248c0-0.507494,0.4114046-0.9188976,0.9188981-0.9188976h4.4594517
		c0.507493,0,0.9188986,0.4114037,0.9188986,0.9188976l-0.000001,7.5583248
		C11.5437498,27.0554295,10.2002411,28.3989372,8.5429392,28.3989372z"/>
	<path id="XMLID_773_" style="fill:#424242;" d="M8.3951588,28.6568966c-1.8784089,0-3.4066157-1.5282612-3.4066157-3.4066811
		v-8.3293114c0-0.1424484,0.1154461-0.2579594,0.2579594-0.2579594h6.2973142c0.1424465,0,0.2579041,0.1155109,0.2579041,0.2579594
		v8.3293114C11.8017206,27.1286354,10.2735138,28.6568966,8.3951588,28.6568966z M5.5043955,17.1787968v8.0714188
		c0,1.5939198,1.296854,2.8908291,2.8907633,2.8908291c1.5939207,0,2.8906984-1.2969093,2.8906984-2.8908291v-8.0714188H5.5043955z"
		/>
	<path id="XMLID_772_" style="fill:#9BBD37;" d="M14.8402262,28.3989372h-0.2956285
		c-1.6573219,0-3.0008469-1.3435249-3.0008469-3.0008469v-7.5398579c0-0.5176716,0.4196568-0.9373283,0.9373293-0.9373283h4.4226542
		c0.5176735,0,0.9373302,0.4196568,0.9373302,0.9373283v7.5398674
		C17.8410645,27.0554161,16.4975433,28.3989372,14.8402262,28.3989372z"/>
	<path id="XMLID_769_" style="fill:#424242;" d="M14.6924734,28.6568966c-1.8784208,0-3.4066162-1.5282612-3.4066162-3.4066811
		v-8.3293114c0-0.1424484,0.1154566-0.2579594,0.2579594-0.2579594h6.2972479c0.1425133,0,0.2579594,0.1155109,0.2579594,0.2579594
		v8.3293114C18.0990238,27.1286354,16.5708275,28.6568966,14.6924734,28.6568966z M11.8017206,17.1787968v8.0714188
		c0,1.5939198,1.2967663,2.8908291,2.8907528,2.8908291c1.5939207,0,2.8906965-1.2969093,2.8906965-2.8908291v-8.0714188H11.8017206
		z"/>
	<path id="XMLID_768_" style="fill:#337D3E;" d="M21.1375008,28.3989372h-0.2956257
		c-1.6573029,0-3.0008106-1.3435078-3.0008106-3.0008106v-7.5108013c0-0.5337391,0.432682-0.9664211,0.9664211-0.9664211h4.3644047
		c0.533741,0,0.966423,0.432682,0.966423,0.9664211v7.5108013C24.1383133,27.0554295,22.7948036,28.3989372,21.1375008,28.3989372z"
		/>
	<path id="XMLID_765_" style="fill:#424242;" d="M20.9896545,28.6568966c-1.8782883,0-3.4064846-1.5282612-3.4064846-3.4066811
		v-8.3293114c0-0.1424484,0.115448-0.2579594,0.2578945-0.2579594h6.2972488c0.1424465,0,0.2579575,0.1155109,0.2579575,0.2579594
		v8.3293114C24.3962708,27.1286354,22.8680763,28.6568966,20.9896545,28.6568966z M18.0990238,17.1787968v8.0714188
		c0,1.5939198,1.296711,2.8908291,2.8906307,2.8908291c1.5939217,0,2.8906994-1.2969093,2.8906994-2.8908291v-8.0714188H18.0990238z
		"/>
	<path id="XMLID_764_" style="fill:#9BBD37;" d="M27.4347839,28.3989372h-0.2956295
		c-1.6573181,0-3.000843-1.343523-3.000843-3.000843l0.0000019-7.4958515c0-0.5419788,0.4393597-0.9813385,0.9813385-0.9813385
		h4.3346367c0.5419769,0,0.9813385,0.4393597,0.9813385,0.9813385v7.4958515
		C30.435627,27.0554142,29.092104,28.3989372,27.4347839,28.3989372z"/>
	<path id="XMLID_761_" style="fill:#424242;" d="M27.2869701,28.6568966c-1.8784218,0-3.4066162-1.5282612-3.4066162-3.4066811
		v-8.3293114c0-0.1424484,0.1154461-0.2579594,0.2579594-0.2579594h6.2973137c0.1424465,0,0.2578926,0.1155109,0.2578926,0.2579594
		v8.3293114C30.6935196,27.1286354,29.1653233,28.6568966,27.2869701,28.6568966z M24.3962708,17.1787968v8.0714188
		c0,1.5939198,1.2967777,2.8908291,2.8906994,2.8908291c1.5939312,0,2.8906975-1.2969093,2.8906975-2.8908291v-8.0714188H24.3962708
		z"/>
	<path id="XMLID_760_" style="fill:#337D3E;" d="M33.7320633,28.3989372h-0.2956238
		c-1.6573048,0-3.0008125-1.3435078-3.0008125-3.0008106v-7.4865608c0-0.5471268,0.4435349-0.9906616,0.9906616-0.9906616h4.3159218
		c0.5471306,0,0.9906654,0.4435349,0.9906654,0.9906616v7.4865608
		C36.7328758,27.0554295,35.3893661,28.3989372,33.7320633,28.3989372z"/>
	<path id="XMLID_757_" style="fill:#424242;" d="M33.5842819,28.6568966c-1.878418,0-3.4066143-1.5282612-3.4066143-3.4066811
		v-8.3293114c0-0.1424484,0.1154461-0.2579594,0.2579594-0.2579594h6.2973251c0.142437,0,0.2578812,0.1155109,0.2578812,0.2579594
		v8.3293114C36.9908333,27.1286354,35.4626389,28.6568966,33.5842819,28.6568966z M30.6935196,17.1787968v8.0714188
		c0,1.5939198,1.2967777,2.8908291,2.8907623,2.8908291c1.5939217,0,2.8906975-1.2969093,2.8906975-2.8908291v-8.0714188H30.6935196
		z"/>
	<path id="XMLID_756_" style="fill:#9BBD37;" d="M40.0293159,28.3989372h-0.2956238
		c-1.6573067,0-3.0008163-1.3435116-3.0008163-3.0008163v-7.5289078c0-0.523737,0.424572-0.9483089,0.948307-0.9483089h4.4006424
		c0.523735,0,0.9483109,0.424572,0.9483109,0.9483089v7.5289078C43.0301361,27.0554256,41.6866226,28.3989372,40.0293159,28.3989372
		z"/>
	<path id="XMLID_753_" style="fill:#424242;" d="M39.8814659,28.6568966c-1.8782883,0-3.4064865-1.5282612-3.4064865-3.4066811
		v-8.3293114c0-0.1424484,0.115448-0.2579594,0.2579727-0.2579594h6.297184c0.142498,0,0.257946,0.1155109,0.257946,0.2579594
		v8.3293114C43.2880821,27.1286354,41.7598839,28.6568966,39.8814659,28.6568966z M36.9908333,17.1787968v8.0714188
		c0,1.5939198,1.296711,2.8908291,2.8906326,2.8908291s2.8906975-1.2969093,2.8906975-2.8908291v-8.0714188H36.9908333z"/>
	<path id="XMLID_752_" style="fill:#337D3E;" d="M46.3265953,28.3989372h-0.2956276
		c-1.6573143,0-3.0008316-1.3435173-3.0008316-3.0008316v-7.4472942c0-0.5688019,0.4611053-1.0299072,1.0299072-1.0299072h4.237484
		c0.5688019,0,1.029911,0.4611053,1.029911,1.0299072l-0.0000038,7.4472847
		C49.3274345,27.0554161,47.9839134,28.3989372,46.3265953,28.3989372z"/>
	<path id="XMLID_749_" style="fill:#424242;" d="M46.1787796,28.6568966c-1.8784218,0-3.4066162-1.5282612-3.4066162-3.4066811
		v-8.3293114c0-0.1424484,0.1154442-0.2579594,0.2579727-0.2579594h6.2973022c0.1424446,0,0.2578926,0.1155109,0.2578926,0.2579594
		v8.3293114C49.585331,27.1286354,48.0571327,28.6568966,46.1787796,28.6568966z M43.2880821,17.1787968v8.0714188
		c0,1.5939198,1.2967758,2.8908291,2.8906975,2.8908291s2.8906975-1.2969093,2.8906975-2.8908291v-8.0714188H43.2880821z"/>
	<polygon id="XMLID_748_" style="fill:#337D3E;" points="49.3274384,16.9209042 5.2465024,16.9209042 8.3951588,13.984436 
		46.1787796,13.984436 	"/>
	<path id="XMLID_745_" style="fill:#424242;" d="M49.3274384,17.1787968H5.2465024
		c-0.1059632,0-0.2011914-0.0648022-0.2399807-0.1633892c-0.0388551-0.098587-0.0134349-0.2109375,0.0640783-0.2831173
		l3.1486573-2.9364672c0.0477457-0.044651,0.1105719-0.0693464,0.1759014-0.0693464h37.7836227
		c0.0653305,0,0.1280899,0.0246954,0.1759033,0.0693464l3.1486549,2.9364672
		c0.0774498,0.0721798,0.1029358,0.1845303,0.0640793,0.2831173S49.4333992,17.1787968,49.3274384,17.1787968z
		 M5.9012456,16.6629448h42.7714615l-2.5955429-2.4206161H8.4967098L5.9012456,16.6629448z"/>
</g>
</svg>
