<?xml version="1.0" encoding="utf-8"?>
<!-- Generator: Adobe Illustrator 19.0.0, SVG Export Plug-In . SVG Version: 6.00 Build 0)  -->
<svg version="1.1" id="Layer_1" xmlns="http://www.w3.org/2000/svg" xmlns:xlink="http://www.w3.org/1999/xlink" x="0px" y="0px"
	 width="19.9606323px" height="19.960619px" viewBox="0 0 19.9606323 19.960619"
	 style="enable-background:new 0 0 19.9606323 19.960619;" xml:space="preserve">
<g id="XMLID_1057_">
	<g id="XMLID_1196_">
		<path id="XMLID_1182_" style="fill:#283238;" d="M9.9803162,2c4.4003601,0,7.9803162,3.5799499,7.9803162,7.9803104
			s-3.5799561,7.9803085-7.9803162,7.9803085s-7.9803166-3.5799484-7.9803166-7.9803085S5.5799556,2,9.9803162,2 M9.9803162,0
			C4.4683375,0-0.0000003,4.4683399-0.0000003,9.9803104s4.468338,9.9803085,9.9803162,9.9803085
			s9.9803162-4.468339,9.9803162-9.9803085S15.4922943,0,9.9803162,0L9.9803162,0z"/>
	</g>
	<g id="XMLID_1058_">
		<g id="XMLID_1236_">
			<path id="XMLID_1242_" style="fill:#283238;" d="M8.909749,12.2601976H7.8012242l-0.3088069-0.8756371H5.94274
				l-0.3088069,0.8756371H4.5756793l1.637908-4.3531775H7.271841L8.909749,12.2601976z M7.2595296,10.5907421L6.7178349,9.0283689
				l-0.5422072,1.5623732H7.2595296z"/>
			<path id="XMLID_1239_" style="fill:#283238;" d="M12.6046591,10.3261786
				c-0.2898264,0.2392998-0.6868639,0.3275299-1.1341724,0.3275299H10.934948v1.6064892H9.9146538V7.9133039h1.5558329
				c0.4473085,0,0.844346,0.0882306,1.1341724,0.3275304c0.2898273,0.2394276,0.4534645,0.57337,0.4534645,1.0395298
				C13.0581236,9.7465248,12.8944864,10.0804663,12.6046591,10.3261786z M11.8172531,8.820488
				c-0.1261902-0.0882301-0.2708473-0.1197777-0.4914236-0.1197777H10.928792v1.1654644h0.3970375
				c0.2205763,0,0.3652334-0.0314198,0.4914236-0.1196499c0.1195221-0.0882311,0.2077522-0.2457123,0.2077522-0.4661608
				C12.0250053,9.0597878,11.9367752,8.9087191,11.8172531,8.820488z"/>
			<path id="XMLID_1237_" style="fill:#283238;" d="M15.2084866,12.2601976h-1.0202942V7.9133039h1.0202942V12.2601976z"/>
		</g>
	</g>
</g>
</svg>
