<svg xmlns="http://www.w3.org/2000/svg" viewBox="0 0 16.3 16.3"><defs><style>.cls-1{fill:#c7eaff;}.cls-2{fill:#fff;}.cls-3{fill:#ffbc53;}.cls-4{fill:#434343;}</style></defs><title>Asset 24</title><g id="Layer_2" data-name="Layer 2"><g id="Layer_1-2" data-name="Layer 1"><circle class="cls-1" cx="8.15" cy="8.15" r="7.88"/><ellipse class="cls-1" cx="8.15" cy="8.15" rx="7.06" ry="7.88"/><path class="cls-1" d="M1.09,8.15C1.09,3.8,4.25.27,8.15.27A7.88,7.88,0,0,0,8.15,16C4.25,16,1.09,12.5,1.09,8.15Z"/><path class="cls-2" d="M8.15.27A7.85,7.85,0,0,0,2.72,2.45V7.33l5.42,6.79h0l5.42-6.79V2.45A7.85,7.85,0,0,0,8.15.27Z"/><path class="cls-3" d="M8.15.27A7.85,7.85,0,0,0,2.72,2.45V7.18a.07.07,0,0,0,0,.07.06.06,0,0,0,.07,0l2.6-2.08L8.14,7.32h0l2.71-2.16,2.59,2.08a.08.08,0,0,0,.08,0,.07.07,0,0,0,0-.07V2.45A7.85,7.85,0,0,0,8.15.27Z"/><path class="cls-3" d="M8.15,9.78A3.27,3.27,0,0,0,5.62,11l2.52,3.14h0L10.67,11A3.23,3.23,0,0,0,8.15,9.78Z"/><path class="cls-4" d="M5.43,5.43a.27.27,0,0,1-.27-.27V.75a.27.27,0,1,1,.54,0V5.16a.24.24,0,0,1-.08.19A.27.27,0,0,1,5.43,5.43Z"/><path class="cls-4" d="M10.87,5.43a.28.28,0,0,1-.2-.08.27.27,0,0,1-.08-.19V.75a.28.28,0,0,1,.28-.27.27.27,0,0,1,.27.27V5.16a.27.27,0,0,1-.27.27Z"/><path class="cls-4" d="M8.16,7.6a.28.28,0,0,1-.13,0,.29.29,0,0,1-.15-.25v-7a.27.27,0,0,1,.54,0v7a.27.27,0,0,1-.09.3A.27.27,0,0,1,8.16,7.6Z"/><path class="cls-4" d="M8.16,14.4h0A.27.27,0,0,1,8,14.34l0-.05L5.41,11.15a.27.27,0,0,1,0-.34,3.53,3.53,0,0,1,5.47,0,.27.27,0,0,1,0,.34L8.37,14.29l0,.05a.27.27,0,0,1-.17.06ZM6,11,8.15,13.7,10.32,11A3,3,0,0,0,6,11Z"/><path class="cls-4" d="M8.15,16.3A8.15,8.15,0,1,1,16.3,8.15,8.15,8.15,0,0,1,8.15,16.3ZM8.15.54a7.61,7.61,0,1,0,7.6,7.61A7.61,7.61,0,0,0,8.15.54Z"/><path class="cls-4" d="M8.16,7.6h0A.27.27,0,0,1,8,7.54l-2.54-2L3,7.45a.34.34,0,0,1-.36,0,.33.33,0,0,1-.2-.31V2.45a.29.29,0,0,1,.09-.2,8.14,8.14,0,0,1,11.24,0,.28.28,0,0,1,.08.2V7.18a.32.32,0,0,1-.19.31.36.36,0,0,1-.37,0L10.87,5.51l-2.54,2a.35.35,0,0,1-.17.06ZM5.43,4.89A.27.27,0,0,1,5.6,5L8.15,7,10.7,5A.26.26,0,0,1,11,5l2.28,1.82V2.57A7.59,7.59,0,0,0,3,2.57v4.2L5.26,5A.27.27,0,0,1,5.43,4.89Z"/><path class="cls-4" d="M8.16,14.4h0A.31.31,0,0,1,8,14.33s0,0,0,0L2.5,7.5a.29.29,0,0,1-.06-.17V2.45a.29.29,0,0,1,.09-.2,8.14,8.14,0,0,1,11.24,0,.28.28,0,0,1,.08.2V7.33a.24.24,0,0,1-.06.17L8.37,14.29l0,0A.34.34,0,0,1,8.16,14.4ZM3,7.24,8.15,13.7l5.16-6.46V2.57A7.59,7.59,0,0,0,3,2.57V7.24Z"/></g></g></svg>