<?xml version="1.0" encoding="utf-8"?>
<!-- Generator: Adobe Illustrator 18.0.0, SVG Export Plug-In . SVG Version: 6.00 Build 0)  -->
<!DOCTYPE svg PUBLIC "-//W3C//DTD SVG 1.1//EN" "http://www.w3.org/Graphics/SVG/1.1/DTD/svg11.dtd">
<svg version="1.1" id="Layer_1" xmlns="http://www.w3.org/2000/svg" xmlns:xlink="http://www.w3.org/1999/xlink" x="0px" y="0px"
	 width="13.6px" height="13px" viewBox="0 0 13.6 13" enable-background="new 0 0 13.6 13" xml:space="preserve">
<g>
	<g>
		<g>
			<defs>
				<path id="SVGID_1_" d="M11.1,12.5c0.1,0.4-0.2,0.6-0.6,0.4l-3.1-1.5c-0.4-0.2-1-0.2-1.3,0L3,12.9c-0.4,0.2-0.6,0-0.6-0.4L3,9.1
					c0.1-0.4-0.1-1-0.4-1.3L0.2,5.3C-0.1,5,0,4.7,0.4,4.7l3.4-0.6C4.2,4,4.7,3.7,4.9,3.3l1.6-3c0.2-0.4,0.5-0.4,0.7,0l1.6,3.1
					c0.2,0.4,0.7,0.7,1.1,0.8l3.4,0.6c0.4,0.1,0.5,0.4,0.2,0.7L11,7.8c-0.3,0.3-0.5,0.9-0.4,1.3L11.1,12.5z"/>
			</defs>
			<clipPath id="SVGID_2_">
				<use xlink:href="#SVGID_1_"  overflow="visible"/>
			</clipPath>
			<rect x="-0.1" y="-0.1" clip-path="url(#SVGID_2_)" fill="#B3B3B3" width="13.9" height="13.2"/>
			<path clip-path="url(#SVGID_2_)" fill="#B3B3B3" d="M14.7,13.2v1H-1.1v-11h-6.6C-5.1,0.6-1.6-1,2.3-1c7.8,0,14.2,6.3,14.2,14.2
				H14.7z"/>
			<path clip-path="url(#SVGID_2_)" fill="#B5B5B5" d="M14.7,13.2v1H-1.1V3.3h-6.4c2.5-2.5,6-4.1,9.9-4.1c7.7,0,13.9,6.2,13.9,13.9
				H14.7z"/>
			<path clip-path="url(#SVGID_2_)" fill="#B6B6B6" d="M14.7,13.2v1H-1.1V3.5h-6.3c2.5-2.5,5.9-4,9.7-4C9.9-0.6,16,5.6,16,13.2H14.7
				z"/>
			<path clip-path="url(#SVGID_2_)" fill="#B8B8B8" d="M15.8,13.2c0,1.9-0.4,3.6-1.1,5.2v-4.3H-1.1V3.6h-6.1
				c2.4-2.4,5.8-3.9,9.5-3.9C9.8-0.3,15.8,5.7,15.8,13.2z"/>
			<path clip-path="url(#SVGID_2_)" fill="#B9B9B9" d="M15.6,13.2c0,1.8-0.4,3.6-1,5.2v-4.2H-1.1V3.8h-5.9c2.4-2.4,5.7-3.9,9.4-3.9
				C9.6-0.1,15.6,5.8,15.6,13.2z"/>
			<path clip-path="url(#SVGID_2_)" fill="#BBBBBB" d="M15.3,13.2c0,1.8-0.4,3.5-1,5.1v-4.1H-1.1V3.9h-5.8c2.4-2.4,5.6-3.8,9.2-3.8
				C9.5,0.1,15.3,6,15.3,13.2z"/>
			<path clip-path="url(#SVGID_2_)" fill="#BCBCBC" d="M15.1,13.2c0,1.8-0.4,3.5-1,5v-4H-1.1v-10h-5.6c2.3-2.3,5.5-3.7,9.1-3.7
				C9.4,0.4,15.1,6.1,15.1,13.2z"/>
			<path clip-path="url(#SVGID_2_)" fill="#BDBDBD" d="M14.9,13.2c0,1.7-0.4,3.4-1,4.9v-3.9h-15V4.3h-5.5C-4.3,2-1.2,0.6,2.3,0.6
				C9.3,0.6,14.9,6.2,14.9,13.2z"/>
			<path clip-path="url(#SVGID_2_)" fill="#BFBFBF" d="M14.7,13.2c0,1.7-0.3,3.3-1,4.8v-3.9H-1.1V4.4h-5.3c2.2-2.2,5.3-3.6,8.7-3.6
				C9.1,0.8,14.7,6.3,14.7,13.2z"/>
			<path clip-path="url(#SVGID_2_)" fill="#C0C0C0" d="M14.4,13.2c0,1.7-0.3,3.3-1,4.7v-3.8H-1.1V4.6h-5.1C-4.1,2.4-1,1,2.3,1
				C9,1,14.4,6.5,14.4,13.2z"/>
			<path clip-path="url(#SVGID_2_)" fill="#C1C1C1" d="M14.2,13.2c0,1.6-0.3,3.2-0.9,4.6v-3.7H-1.1V4.8h-5C-3.9,2.6-1,1.3,2.3,1.3
				C8.9,1.3,14.2,6.6,14.2,13.2z"/>
			<path clip-path="url(#SVGID_2_)" fill="#C3C3C3" d="M14,13.2c0,1.6-0.3,3.1-0.9,4.5v-3.6H-1.1V4.9h-4.8c2.1-2.1,5-3.4,8.2-3.4
				C8.8,1.5,14,6.7,14,13.2z"/>
			<path clip-path="url(#SVGID_2_)" fill="#C4C4C4" d="M13.7,13.2c0,1.6-0.3,3.1-0.9,4.5v-3.5h-14v-9h-4.7C-3.7,3-0.8,1.7,2.3,1.7
				C8.6,1.7,13.7,6.8,13.7,13.2z"/>
			<path clip-path="url(#SVGID_2_)" fill="#C5C5C5" d="M13.5,13.2c0,3.1-1.3,5.9-3.3,7.9v-7H-1.1V5.2h-4.5c2-2,4.8-3.3,7.9-3.3
				C8.5,2,13.5,7,13.5,13.2z"/>
			<path clip-path="url(#SVGID_2_)" fill="#C7C7C7" d="M13.3,13.2c0,3-1.2,5.8-3.2,7.8v-6.8H-1.1V5.4h-4.3c2-2,4.7-3.2,7.8-3.2
				C8.4,2.2,13.3,7.1,13.3,13.2z"/>
			<path clip-path="url(#SVGID_2_)" fill="#C8C8C8" d="M13.1,13.2c0,3-1.2,5.7-3.1,7.6v-6.6h-11V5.6h-4.2c1.9-1.9,4.6-3.1,7.6-3.1
				C8.2,2.4,13.1,7.2,13.1,13.2z"/>
			<path clip-path="url(#SVGID_2_)" fill="#C9C9C9" d="M12.8,13.2c0,2.9-1.2,5.5-3.1,7.4v-6.5H-1.1V5.7h-4c1.9-1.9,4.5-3.1,7.4-3.1
				C8.1,2.6,12.8,7.3,12.8,13.2z"/>
			<path clip-path="url(#SVGID_2_)" fill="#CACACA" d="M12.6,13.2c0,2.8-1.2,5.4-3,7.3v-6.3H-1.1v-1H-8C-8,7.5-3.4,2.9,2.3,2.9
				S12.6,7.5,12.6,13.2z"/>
			<path clip-path="url(#SVGID_2_)" fill="#CBCBCB" d="M12.4,13.2c0,2.8-1.1,5.3-2.9,7.1v-6.2H-1.1v-1h-6.6
				c0-5.6,4.5-10.1,10.1-10.1S12.4,7.6,12.4,13.2z"/>
			<path clip-path="url(#SVGID_2_)" fill="#CCCCCC" d="M12.1,13.2c0,2.7-1.1,5.2-2.9,7v-6H-1.1v-1h-6.4c0-5.4,4.4-9.8,9.8-9.8
				S12.1,7.7,12.1,13.2z"/>
			<path clip-path="url(#SVGID_2_)" fill="#CECECE" d="M11.9,13.2c0,2.7-1.1,5.1-2.8,6.8v-5.8H-1.1v-1h-6.2c0-5.3,4.3-9.6,9.6-9.6
				S11.9,7.9,11.9,13.2z"/>
			<path clip-path="url(#SVGID_2_)" fill="#CFCFCF" d="M11.7,13.2c0,2.6-1.1,4.9-2.7,6.6v-5.7H-1.1v-1h-6c0-5.2,4.2-9.4,9.4-9.4
				S11.7,8,11.7,13.2z"/>
			<path clip-path="url(#SVGID_2_)" fill="#D0D0D0" d="M11.5,13.2c0,2.5-1,4.8-2.7,6.5v-5.5h-9.9v-1h-5.7C-6.8,8.1-2.7,4,2.3,4
				S11.5,8.1,11.5,13.2z"/>
			<path clip-path="url(#SVGID_2_)" fill="#D1D1D1" d="M11.2,13.2c0,2.5-1,4.7-2.6,6.3v-5.4h-9.7v-1h-5.5c0-4.9,4-8.9,8.9-8.9
				S11.2,8.2,11.2,13.2z"/>
			<path clip-path="url(#SVGID_2_)" fill="#D2D2D2" d="M11,13.2c0,2.4-1,4.6-2.5,6.2v-5.2h-9.6v-1h-5.3c0-4.8,3.9-8.7,8.7-8.7
				S11,8.4,11,13.2z"/>
			<path clip-path="url(#SVGID_2_)" fill="#D3D3D3" d="M10.8,13.2c0,2.3-0.9,4.5-2.5,6v-5h-9.4v-1h-5c0-4.7,3.8-8.5,8.5-8.5
				S10.8,8.5,10.8,13.2z"/>
			<path clip-path="url(#SVGID_2_)" fill="#D3D3D3" d="M10.6,13.2c0,2.3-0.9,4.3-2.4,5.8v-4.9h-9.3v-1h-4.8c0-4.6,3.7-8.2,8.2-8.2
				S10.6,8.6,10.6,13.2z"/>
			<path clip-path="url(#SVGID_2_)" fill="#D4D4D4" d="M10.3,13.2c0,2.2-0.9,4.2-2.3,5.7v-4.7h-9.1v-1h-4.6c0-4.4,3.6-8,8-8
				S10.3,8.7,10.3,13.2z"/>
			<circle clip-path="url(#SVGID_2_)" fill="#D5D5D5" cx="2.3" cy="13.2" r="7.8"/>
			<circle clip-path="url(#SVGID_2_)" fill="#D6D6D6" cx="2.3" cy="13.2" r="7.6"/>
			<circle clip-path="url(#SVGID_2_)" fill="#D7D7D7" cx="2.3" cy="13.2" r="7.3"/>
			<circle clip-path="url(#SVGID_2_)" fill="#D7D7D7" cx="2.3" cy="13.2" r="7.1"/>
			<circle clip-path="url(#SVGID_2_)" fill="#D8D8D8" cx="2.3" cy="13.2" r="6.9"/>
			<circle clip-path="url(#SVGID_2_)" fill="#D9D9D9" cx="2.3" cy="13.2" r="6.6"/>
			<circle clip-path="url(#SVGID_2_)" fill="#D9D9D9" cx="2.3" cy="13.2" r="6.4"/>
			<circle clip-path="url(#SVGID_2_)" fill="#DADADA" cx="2.3" cy="13.2" r="6.2"/>
			<circle clip-path="url(#SVGID_2_)" fill="#DADADA" cx="2.3" cy="13.2" r="6"/>
			<circle clip-path="url(#SVGID_2_)" fill="#DBDBDB" cx="2.3" cy="13.2" r="5.7"/>
			<circle clip-path="url(#SVGID_2_)" fill="#DBDBDB" cx="2.3" cy="13.2" r="5.5"/>
			<circle clip-path="url(#SVGID_2_)" fill="#DBDBDB" cx="2.3" cy="13.2" r="5.3"/>
		</g>
	</g>
	<g opacity="0.5">
		<g>
			<defs>
				<path id="SVGID_3_" d="M6.8,0.2C6.9,0.2,7,0.2,7,0.4l1.6,3.1c0.2,0.4,0.7,0.8,1.2,0.9l3.4,0.6c0.1,0,0.2,0.1,0.2,0.1
					c0,0.1,0,0.2-0.1,0.2l-2.4,2.4c-0.3,0.3-0.5,1-0.5,1.4l0.5,3.4c0,0.1,0,0.2,0,0.3c0,0,0,0-0.1,0c-0.1,0-0.1,0-0.2-0.1l-3.1-1.5
					c-0.2-0.1-0.5-0.2-0.8-0.2c-0.3,0-0.5,0.1-0.7,0.2l-3.1,1.5c-0.1,0-0.1,0.1-0.2,0.1c-0.1,0-0.1,0-0.1,0c0,0-0.1-0.1,0-0.3
					l0.5-3.4C3.2,8.6,3,8,2.7,7.7L0.3,5.2C0.2,5.1,0.2,5,0.2,5c0-0.1,0.1-0.1,0.2-0.1l3.4-0.6c0.5-0.1,1-0.5,1.2-0.9l1.6-3
					C6.7,0.2,6.8,0.2,6.8,0.2 M6.8,0C6.7,0,6.6,0.1,6.5,0.3l-1.6,3C4.7,3.7,4.2,4,3.8,4.1L0.4,4.7C0,4.7-0.1,5,0.2,5.3l2.4,2.5
					C2.9,8.1,3,8.7,3,9.1l-0.5,3.4c0,0.3,0.1,0.5,0.3,0.5c0.1,0,0.2,0,0.3-0.1l3.1-1.5c0.2-0.1,0.4-0.1,0.7-0.1c0.2,0,0.5,0,0.7,0.1
					l3.1,1.5c0.1,0,0.2,0.1,0.3,0.1c0.2,0,0.3-0.2,0.3-0.5l-0.5-3.4c-0.1-0.4,0.1-1,0.4-1.3l2.4-2.4c0.3-0.3,0.2-0.6-0.2-0.7
					L9.8,4.1C9.4,4.1,8.9,3.7,8.8,3.3L7.2,0.3C7.1,0.1,7,0,6.8,0L6.8,0z"/>
			</defs>
			<clipPath id="SVGID_4_">
				<use xlink:href="#SVGID_3_"  overflow="visible"/>
			</clipPath>
			<rect x="-0.1" y="0" clip-path="url(#SVGID_4_)" fill="#B3B3B3" width="13.9" height="13"/>
			<path clip-path="url(#SVGID_4_)" fill="#B3B3B3" d="M14.7,14H1.2h-2.3V-1h2.3v-2.8c11.3,0,20.5,9.2,20.5,20.5L14.7,14z"/>
			<path clip-path="url(#SVGID_4_)" fill="#B5B5B5" d="M14.7,14H1.2h-2.3V-1h2.3v-2.5c11.1,0,20.2,9,20.2,20.2L14.7,14z"/>
			<path clip-path="url(#SVGID_4_)" fill="#B6B6B6" d="M14.7,14H1.2h-2.3V-1h2.3v-2.1c10.9,0,19.8,8.9,19.8,19.8L14.7,14z"/>
			<path clip-path="url(#SVGID_4_)" fill="#B8B8B8" d="M14.7,14H1.2h-2.3V-1h2.3v-1.8c10.8,0,19.5,8.7,19.5,19.5L14.7,14z"/>
			<path clip-path="url(#SVGID_4_)" fill="#B9B9B9" d="M14.7,14H1.2h-2.3V-1h-5.1c2.3-1,4.8-1.5,7.5-1.5c10.6,0,19.2,8.6,19.2,19.2
				L14.7,14z"/>
			<path clip-path="url(#SVGID_4_)" fill="#BBBBBB" d="M14.7,14H1.2h-2.3V-0.7h-5c2.3-1,4.7-1.5,7.3-1.5c10.4,0,18.8,8.4,18.8,18.8
				L14.7,14z"/>
			<path clip-path="url(#SVGID_4_)" fill="#BCBCBC" d="M14.7,14H1.2h-2.3V-0.4H-6c2.2-0.9,4.6-1.5,7.2-1.5
				c10.2,0,18.5,8.3,18.5,18.5L14.7,14z"/>
			<path clip-path="url(#SVGID_4_)" fill="#BDBDBD" d="M14.7,14H1.2h-2.3V-0.1h-4.7C-3.7-1-1.3-1.5,1.2-1.5c10,0,18.2,8.1,18.2,18.2
				L14.7,14z"/>
			<path clip-path="url(#SVGID_4_)" fill="#BFBFBF" d="M14.7,14H1.2h-2.3V0.2h-4.6c2.1-0.9,4.5-1.4,6.9-1.4c9.9,0,17.8,8,17.8,17.8
				L14.7,14z"/>
			<path clip-path="url(#SVGID_4_)" fill="#C0C0C0" d="M14.7,14H1.2h-2.3V0.5h-4.5c2.1-0.9,4.4-1.4,6.8-1.4
				c9.7,0,17.5,7.8,17.5,17.5L14.7,14z"/>
			<path clip-path="url(#SVGID_4_)" fill="#C1C1C1" d="M14.7,14H1.2h-2.3V0.9h-4.3C-3.4,0-1.1-0.5,1.2-0.5c9.5,0,17.2,7.7,17.2,17.2
				L14.7,14z"/>
			<path clip-path="url(#SVGID_4_)" fill="#C3C3C3" d="M14.7,14H1.2h-2.3V1.2h-4.2c2-0.9,4.2-1.3,6.6-1.3c9.3,0,16.9,7.5,16.9,16.9
				L14.7,14z"/>
			<path clip-path="url(#SVGID_4_)" fill="#C4C4C4" d="M14.7,14H1.2h-2.3V1.5h-4.1c2-0.8,4.2-1.3,6.4-1.3c9.1,0,16.5,7.4,16.5,16.5
				L14.7,14z"/>
			<path clip-path="url(#SVGID_4_)" fill="#C5C5C5" d="M14.7,14H1.2h-2.3V1.8h-4C-3.1,0.9-1,0.5,1.2,0.5c8.9,0,16.2,7.3,16.2,16.2
				L14.7,14z"/>
			<path clip-path="url(#SVGID_4_)" fill="#C7C7C7" d="M14.7,14H1.2h-2.3V2.1H-5c1.9-0.8,4-1.2,6.2-1.2c8.8,0,15.9,7.1,15.9,15.9
				L14.7,14z"/>
			<path clip-path="url(#SVGID_4_)" fill="#C8C8C8" d="M14.7,14H1.2h-2.3V2.4h-3.7C-3,1.6-0.9,1.1,1.2,1.1c8.6,0,15.5,7,15.5,15.5
				L14.7,14z"/>
			<path clip-path="url(#SVGID_4_)" fill="#C9C9C9" d="M14.7,14H1.2h-2.3V2.7h-3.6c1.8-0.8,3.8-1.2,5.9-1.2
				c8.4,0,15.2,6.8,15.2,15.2L14.7,14z"/>
			<path clip-path="url(#SVGID_4_)" fill="#CACACA" d="M14.7,14H1.2h-2.3V3h-3.4c1.8-0.8,3.7-1.2,5.8-1.2c8.2,0,14.9,6.7,14.9,14.9
				L14.7,14z"/>
			<path clip-path="url(#SVGID_4_)" fill="#CBCBCB" d="M14.7,14H1.2h-2.3V3.3h-3.3c1.7-0.7,3.7-1.1,5.7-1.1c8,0,14.6,6.5,14.6,14.6
				L14.7,14z"/>
			<path clip-path="url(#SVGID_4_)" fill="#CCCCCC" d="M14.7,14H1.2h-2.3V3.6h-3.2c1.7-0.7,3.6-1.1,5.5-1.1
				c7.9,0,14.2,6.4,14.2,14.2L14.7,14z"/>
			<path clip-path="url(#SVGID_4_)" fill="#CECECE" d="M14.7,14H1.2h-2.3V3.9h-3.1c1.7-0.7,3.5-1.1,5.4-1.1
				c7.7,0,13.9,6.2,13.9,13.9L14.7,14z"/>
			<path clip-path="url(#SVGID_4_)" fill="#CFCFCF" d="M14.7,14H1.2h-2.3V4.2h-2.9c1.6-0.7,3.4-1.1,5.3-1.1
				c7.5,0,13.6,6.1,13.6,13.6L14.7,14z"/>
			<path clip-path="url(#SVGID_4_)" fill="#D0D0D0" d="M14.5,14H1.2h-2.3V4.5h-2.8c1.6-0.7,3.3-1,5.2-1c7.3,0,13.2,5.9,13.2,13.2V14
				z"/>
			<path clip-path="url(#SVGID_4_)" fill="#D1D1D1" d="M14.1,14H1.2h-2.3V7.6h-6.8c2.3-2.3,5.6-3.8,9.1-3.8
				c7.1,0,12.9,5.8,12.9,12.9V14z"/>
			<path clip-path="url(#SVGID_4_)" fill="#D2D2D2" d="M13.8,14H1.2h-2.3V7.8h-6.5c2.3-2.3,5.4-3.7,8.9-3.7
				c6.9,0,12.6,5.6,12.6,12.6V14z"/>
			<path clip-path="url(#SVGID_4_)" fill="#D3D3D3" d="M13.5,14H1.2h-2.3V8h-6.3c2.2-2.2,5.3-3.6,8.7-3.6c6.8,0,12.2,5.5,12.2,12.2
				V14z"/>
			<path clip-path="url(#SVGID_4_)" fill="#D3D3D3" d="M13.1,14H1.2h-2.3V8.3h-6.1C-5,6.1-2.1,4.8,1.2,4.8c6.6,0,11.9,5.3,11.9,11.9
				V14z"/>
			<path clip-path="url(#SVGID_4_)" fill="#D4D4D4" d="M12.8,14H1.2h-2.3V8.5H-7c2.1-2.1,5-3.4,8.2-3.4c6.4,0,11.6,5.2,11.6,11.6V14
				z"/>
			<path clip-path="url(#SVGID_4_)" fill="#D5D5D5" d="M12.5,14H1.2h-2.3V8.7h-5.6c2-2,4.9-3.3,8-3.3c6.2,0,11.3,5,11.3,11.3V14z"/>
			<path clip-path="url(#SVGID_4_)" fill="#D6D6D6" d="M12.2,14H1.2h-2.3V9h-5.4c2-2,4.7-3.2,7.7-3.2c6,0,10.9,4.9,10.9,10.9V14z"/>
			<path clip-path="url(#SVGID_4_)" fill="#D7D7D7" d="M11.8,14H1.2h-2.3V9.2h-5.1c1.9-1.9,4.6-3.1,7.5-3.1
				c5.9,0,10.6,4.7,10.6,10.6V14z"/>
			<path clip-path="url(#SVGID_4_)" fill="#D7D7D7" d="M11.5,14H1.2h-2.3V9.4H-6c1.9-1.9,4.4-3,7.3-3c5.7,0,10.3,4.6,10.3,10.3V14z"
				/>
			<path clip-path="url(#SVGID_4_)" fill="#D8D8D8" d="M11.2,14H1.2h-2.3V9.7h-4.7c1.8-1.8,4.3-2.9,7-2.9c5.5,0,9.9,4.5,9.9,9.9V14z
				"/>
			<path clip-path="url(#SVGID_4_)" fill="#D9D9D9" d="M10.8,14H1.2h-2.3V9.9h-4.4c1.7-1.7,4.1-2.8,6.8-2.8c5.3,0,9.6,4.3,9.6,9.6
				V14z"/>
			<path clip-path="url(#SVGID_4_)" fill="#D9D9D9" d="M10.5,14H1.2h-2.3l-6.9,2.7c0-5.1,4.2-9.3,9.3-9.3s9.3,4.2,9.3,9.3V14z"/>
			<path clip-path="url(#SVGID_4_)" fill="#DADADA" d="M10.2,14h-9h-2.3l-6.6,2.7c0-4.9,4-9,9-9s9,4,9,9V14z"/>
			<path clip-path="url(#SVGID_4_)" fill="#DADADA" d="M9.9,14H1.2h-2.3l-6.3,2.7c0-4.8,3.9-8.6,8.6-8.6s8.6,3.9,8.6,8.6V14z"/>
			<path clip-path="url(#SVGID_4_)" fill="#DBDBDB" d="M9.5,14H1.2h-2.3l-5.9,2.7c0-4.6,3.7-8.3,8.3-8.3s8.3,3.7,8.3,8.3V14z"/>
			<path clip-path="url(#SVGID_4_)" fill="#DBDBDB" d="M9.2,14h-8h-2.3l-5.6,2.7c0-4.4,3.6-8,8-8s8,3.6,8,8V14z"/>
			<path clip-path="url(#SVGID_4_)" fill="#DBDBDB" d="M8.9,14H1.2h-2.3l-5.3,2.7c0-4.2,3.4-7.6,7.6-7.6s7.6,3.4,7.6,7.6V14z"/>
			<rect x="0.2" y="0.2" clip-path="url(#SVGID_4_)" fill="#B3B3B3" width="13.3" height="12.7"/>
			<path clip-path="url(#SVGID_4_)" fill="#B3B3B3" d="M14.5,13.8H1.2h-2.1V-0.8h2.1v-3c5.7,0,10.8,2.3,14.5,6h-1.2V13.8z"/>
			<path clip-path="url(#SVGID_4_)" fill="#B5B5B5" d="M14.5,13.8H1.2h-2.1V-0.8h2.1v-2.6c11.1,0,20.2,9,20.2,20.2L14.5,13.8z"/>
			<path clip-path="url(#SVGID_4_)" fill="#B6B6B6" d="M14.5,13.8H1.2h-2.1V-0.8h2.1v-2.3c10.9,0,19.8,8.9,19.8,19.8L14.5,13.8z"/>
			<path clip-path="url(#SVGID_4_)" fill="#B8B8B8" d="M14.5,13.8H1.2h-2.1V-0.8h2.1v-2c10.8,0,19.5,8.7,19.5,19.5L14.5,13.8z"/>
			<path clip-path="url(#SVGID_4_)" fill="#B9B9B9" d="M14.5,13.8H1.2h-2.1V-0.8h2.1v-1.6c10.6,0,19.2,8.6,19.2,19.2L14.5,13.8z"/>
			<path clip-path="url(#SVGID_4_)" fill="#BBBBBB" d="M14.5,13.8H1.2h-2.1V-0.7h-5.3c2.3-1,4.7-1.5,7.3-1.5
				c10.4,0,18.8,8.4,18.8,18.8L14.5,13.8z"/>
			<path clip-path="url(#SVGID_4_)" fill="#BCBCBC" d="M14.5,13.8H1.2h-2.1V-0.4H-6c2.2-0.9,4.6-1.5,7.2-1.5
				c10.2,0,18.5,8.3,18.5,18.5L14.5,13.8z"/>
			<path clip-path="url(#SVGID_4_)" fill="#BDBDBD" d="M14.5,13.8H1.2h-2.1V-0.1h-5C-3.7-1-1.3-1.5,1.2-1.5c10,0,18.2,8.1,18.2,18.2
				L14.5,13.8z"/>
			<path clip-path="url(#SVGID_4_)" fill="#BFBFBF" d="M14.5,13.8H1.2h-2.1V0.2h-4.9c2.1-0.9,4.5-1.4,6.9-1.4
				c9.9,0,17.8,8,17.8,17.8L14.5,13.8z"/>
			<path clip-path="url(#SVGID_4_)" fill="#C0C0C0" d="M14.5,13.8H1.2h-2.1V0.5h-4.7c2.1-0.9,4.4-1.4,6.8-1.4
				c9.7,0,17.5,7.8,17.5,17.5L14.5,13.8z"/>
			<path clip-path="url(#SVGID_4_)" fill="#C1C1C1" d="M14.5,13.8H1.2h-2.1v-13h-4.6C-3.4,0-1.1-0.5,1.2-0.5
				c9.5,0,17.2,7.7,17.2,17.2L14.5,13.8z"/>
			<path clip-path="url(#SVGID_4_)" fill="#C3C3C3" d="M14.5,13.8H1.2h-2.1V1.2h-4.5c2-0.9,4.2-1.3,6.6-1.3
				c9.3,0,16.9,7.5,16.9,16.9L14.5,13.8z"/>
			<path clip-path="url(#SVGID_4_)" fill="#C4C4C4" d="M14.5,13.8H1.2h-2.1V1.5h-4.4c2-0.8,4.2-1.3,6.4-1.3
				c9.1,0,16.5,7.4,16.5,16.5L14.5,13.8z"/>
			<path clip-path="url(#SVGID_4_)" fill="#C5C5C5" d="M14.5,13.8H1.2h-2.1V1.8h-4.2C-3.1,0.9-1,0.5,1.2,0.5
				c8.9,0,16.2,7.3,16.2,16.2L14.5,13.8z"/>
			<path clip-path="url(#SVGID_4_)" fill="#C7C7C7" d="M14.5,13.8H1.2h-2.1V2.1H-5c1.9-0.8,4-1.2,6.2-1.2c8.8,0,15.9,7.1,15.9,15.9
				L14.5,13.8z"/>
			<path clip-path="url(#SVGID_4_)" fill="#C8C8C8" d="M14.5,13.8H1.2h-2.1V2.4h-4C-3,1.6-0.9,1.1,1.2,1.1c8.6,0,15.5,7,15.5,15.5
				L14.5,13.8z"/>
			<path clip-path="url(#SVGID_4_)" fill="#C9C9C9" d="M14.5,13.8H1.2h-2.1V2.7h-3.8c1.8-0.8,3.8-1.2,5.9-1.2
				c8.4,0,15.2,6.8,15.2,15.2L14.5,13.8z"/>
			<path clip-path="url(#SVGID_4_)" fill="#CACACA" d="M14.5,13.8H1.2h-2.1V3h-3.7c1.8-0.8,3.7-1.2,5.8-1.2
				c8.2,0,14.9,6.7,14.9,14.9L14.5,13.8z"/>
			<path clip-path="url(#SVGID_4_)" fill="#CBCBCB" d="M14.5,13.8H1.2h-2.1V3.3h-3.6c1.7-0.7,3.7-1.1,5.7-1.1
				c8,0,14.6,6.5,14.6,14.6L14.5,13.8z"/>
			<path clip-path="url(#SVGID_4_)" fill="#CCCCCC" d="M14.5,13.8H1.2h-2.1V3.6h-3.5c1.7-0.7,3.6-1.1,5.5-1.1
				c7.9,0,14.2,6.4,14.2,14.2L14.5,13.8z"/>
			<path clip-path="url(#SVGID_4_)" fill="#CECECE" d="M14.5,13.8H1.2h-2.1V3.9h-3.3c1.7-0.7,3.5-1.1,5.4-1.1
				c7.7,0,13.9,6.2,13.9,13.9L14.5,13.8z"/>
			<path clip-path="url(#SVGID_4_)" fill="#CFCFCF" d="M14.5,13.8H1.2h-2.1V4.2h-3.2c1.6-0.7,3.4-1.1,5.3-1.1
				c7.5,0,13.6,6.1,13.6,13.6L14.5,13.8z"/>
			<path clip-path="url(#SVGID_4_)" fill="#D0D0D0" d="M14.5,13.8H1.2h-2.1V4.5h-3.1c1.6-0.7,3.3-1,5.2-1c7.3,0,13.2,5.9,13.2,13.2
				V13.8z"/>
			<path clip-path="url(#SVGID_4_)" fill="#D1D1D1" d="M14.1,13.8H1.2h-2.1v-9h-3c1.5-0.7,3.2-1,5-1c7.1,0,12.9,5.8,12.9,12.9V13.8z
				"/>
			<path clip-path="url(#SVGID_4_)" fill="#D2D2D2" d="M13.8,13.8H1.2h-2.1v-6h-6.8c2.3-2.3,5.4-3.7,8.9-3.7
				c6.9,0,12.6,5.6,12.6,12.6V13.8z"/>
			<path clip-path="url(#SVGID_4_)" fill="#D3D3D3" d="M13.5,13.8H1.2h-2.1V8h-6.6c2.2-2.2,5.3-3.6,8.7-3.6
				c6.8,0,12.2,5.5,12.2,12.2V13.8z"/>
			<path clip-path="url(#SVGID_4_)" fill="#D3D3D3" d="M13.1,13.8H1.2h-2.1V8.3h-6.4C-5,6.1-2.1,4.8,1.2,4.8
				c6.6,0,11.9,5.3,11.9,11.9V13.8z"/>
			<path clip-path="url(#SVGID_4_)" fill="#D4D4D4" d="M12.8,13.8H1.2h-2.1V8.5H-7c2.1-2.1,5-3.4,8.2-3.4c6.4,0,11.6,5.2,11.6,11.6
				V13.8z"/>
			<path clip-path="url(#SVGID_4_)" fill="#D5D5D5" d="M12.5,13.8H1.2h-2.1V8.7h-5.9c2-2,4.9-3.3,8-3.3c6.2,0,11.3,5,11.3,11.3V13.8
				z"/>
			<path clip-path="url(#SVGID_4_)" fill="#D6D6D6" d="M12.2,13.8H1.2h-2.1V9h-5.7c2-2,4.7-3.2,7.7-3.2c6,0,10.9,4.9,10.9,10.9V13.8
				z"/>
			<path clip-path="url(#SVGID_4_)" fill="#D7D7D7" d="M11.8,13.8H1.2h-2.1V9.2h-5.4c1.9-1.9,4.6-3.1,7.5-3.1
				c5.9,0,10.6,4.7,10.6,10.6V13.8z"/>
			<path clip-path="url(#SVGID_4_)" fill="#D7D7D7" d="M11.5,13.8H1.2h-2.1V9.4H-6c1.9-1.9,4.4-3,7.3-3c5.7,0,10.3,4.6,10.3,10.3
				V13.8z"/>
			<path clip-path="url(#SVGID_4_)" fill="#D8D8D8" d="M11.2,13.8H1.2h-2.1V9.7h-5c1.8-1.8,4.3-2.9,7-2.9c5.5,0,9.9,4.5,9.9,9.9
				V13.8z"/>
			<path clip-path="url(#SVGID_4_)" fill="#D9D9D9" d="M10.8,13.8H1.2h-2.1V9.9h-4.7c1.7-1.7,4.1-2.8,6.8-2.8c5.3,0,9.6,4.3,9.6,9.6
				V13.8z"/>
			<path clip-path="url(#SVGID_4_)" fill="#D9D9D9" d="M10.5,13.8H1.2h-2.1v-3.7h-4.5c1.7-1.7,4-2.7,6.6-2.7c5.1,0,9.3,4.2,9.3,9.3
				V13.8z"/>
			<path clip-path="url(#SVGID_4_)" fill="#DADADA" d="M10.2,13.8h-9h-2.1l-6.9,2.9c0-4.9,4-9,9-9s9,4,9,9V13.8z"/>
			<path clip-path="url(#SVGID_4_)" fill="#DADADA" d="M9.9,13.8H1.2h-2.1l-6.6,2.9c0-4.8,3.9-8.6,8.6-8.6s8.6,3.9,8.6,8.6V13.8z"/>
			<path clip-path="url(#SVGID_4_)" fill="#DBDBDB" d="M9.5,13.8H1.2h-2.1l-6.2,2.9c0-4.6,3.7-8.3,8.3-8.3s8.3,3.7,8.3,8.3V13.8z"/>
			<path clip-path="url(#SVGID_4_)" fill="#DBDBDB" d="M9.2,13.8h-8h-2.1l-5.9,2.9c0-4.4,3.6-8,8-8s8,3.6,8,8V13.8z"/>
			<path clip-path="url(#SVGID_4_)" fill="#DBDBDB" d="M8.9,13.8H1.2h-2.1l-5.6,2.9c0-4.2,3.4-7.6,7.6-7.6s7.6,3.4,7.6,7.6V13.8z"/>
		</g>
	</g>
</g>
</svg>
