<?xml version="1.0" encoding="utf-8"?>
<!-- Generator: Adobe Illustrator 18.0.0, SVG Export Plug-In . SVG Version: 6.00 Build 0)  -->
<!DOCTYPE svg PUBLIC "-//W3C//DTD SVG 1.1//EN" "http://www.w3.org/Graphics/SVG/1.1/DTD/svg11.dtd">
<svg version="1.1" id="Layer_1" xmlns="http://www.w3.org/2000/svg" xmlns:xlink="http://www.w3.org/1999/xlink" x="0px" y="0px"
	 width="23px" height="18.3px" viewBox="0 0 23 18.3" enable-background="new 0 0 23 18.3" xml:space="preserve">
<g>
	<g>
		<path fill="#383838" d="M22.9,10.2l-3.5-9.3c-0.1-0.3-0.4-0.6-0.7-0.8c-0.3-0.2-0.7-0.2-1,0L0.9,6.3C0.5,6.4,0.3,6.7,0.1,7
			C0,7.3,0,7.7,0.1,8.1l3.5,9.3c0.1,0.3,0.4,0.6,0.7,0.8c0.2,0.1,0.4,0.1,0.6,0.1c0.2,0,0.3,0,0.5-0.1L22.1,12h0
			C22.8,11.7,23.2,10.9,22.9,10.2z M16.8,1.9l-5.2,7.5L2.8,7.1L16.8,1.9z M4.6,16.3l-3-8.1l6.9,1.8L4.6,16.3z M6,16.5l3.9-6.2
			l1.8,0.5c0.1,0,0.1,0,0.2,0c0.2,0,0.4-0.1,0.6-0.3L13.5,9l6.9,2.2L6,16.5z M14.3,7.8l4.1-5.9l3,8.1L14.3,7.8z"/>
	</g>
</g>
</svg>
