<?xml version="1.0" encoding="utf-8"?>
<!-- Generator: Adobe Illustrator 18.0.0, SVG Export Plug-In . SVG Version: 6.00 Build 0)  -->
<!DOCTYPE svg PUBLIC "-//W3C//DTD SVG 1.1//EN" "http://www.w3.org/Graphics/SVG/1.1/DTD/svg11.dtd">
<svg version="1.1" id="Layer_1" xmlns="http://www.w3.org/2000/svg" xmlns:xlink="http://www.w3.org/1999/xlink" x="0px" y="0px"
	 width="21.1px" height="23.5px" viewBox="0 0 21.1 23.5" enable-background="new 0 0 21.1 23.5" xml:space="preserve">
<g>
	<path fill="#FFFFFF" d="M0,17.3c0,0.4,0.3,0.7,0.6,0.8c0.1,0,0.1,0,0.2,0c0.3,0,0.6-0.2,0.7-0.4c2.9-5.2,5.3-5.5,8.8-5.6v3.7
		c0,0.3,0.2,0.6,0.5,0.7l0,0c0.3,0.1,0.6,0.1,0.9-0.1l9.1-7.5c0.2-0.2,0.3-0.4,0.3-0.6c0-0.3-0.1-0.5-0.3-0.6l-9.1-7.5
		c-0.3-0.2-0.6-0.2-0.9-0.1c-0.3,0.1-0.5,0.4-0.5,0.7v3.7C-0.1,5,0,13,0,16.9V17.3z M11.8,10.7c-0.2-0.2-0.4-0.2-0.6-0.2
		c-4,0-6.7,0.3-9.5,4c0.1-1.3,0.3-3,1.1-4.4C4.2,7.5,7,6.2,11.2,6.1c0.4,0,0.8-0.4,0.8-0.8V2.6l7,5.7L12,14.1v-2.7
		C12,11.1,11.9,10.9,11.8,10.7z"/>
	<path fill="#FFFFFF" d="M20.1,11.3c-0.5,0-0.8,0.4-0.8,0.8v9.8H1.7v-1.7c0-0.5-0.4-0.8-0.8-0.8c-0.5,0-0.8,0.4-0.8,0.8v2.5
		c0,0.5,0.4,0.8,0.8,0.8h19.3c0.5,0,0.8-0.4,0.8-0.8V12.1C21,11.6,20.6,11.3,20.1,11.3z"/>
</g>
</svg>
