<?xml version="1.0" encoding="utf-8"?>
<!-- Generator: Adobe Illustrator 18.0.0, SVG Export Plug-In . SVG Version: 6.00 Build 0)  -->
<!DOCTYPE svg PUBLIC "-//W3C//DTD SVG 1.1//EN" "http://www.w3.org/Graphics/SVG/1.1/DTD/svg11.dtd">
<svg version="1.1" id="Layer_1" xmlns="http://www.w3.org/2000/svg" xmlns:xlink="http://www.w3.org/1999/xlink" x="0px" y="0px"
	 width="22.4px" height="27.5px" viewBox="0 0 22.4 27.5" enable-background="new 0 0 22.4 27.5" xml:space="preserve">
<g>
	<g>
		<path fill="#ffffff" d="M1.1,21.5c0.5,0.5,1.1,0.8,1.8,0.8h0l12.4,0v4.7c0,0.1,0.1,0.2,0.2,0.3c0.1,0.1,0.2,0.1,0.3,0l2.2-1.1
			c0.1-0.1,0.2-0.2,0.2-0.3v-3.7l3.8-3.3c0.1-0.1,0.1-0.2,0.1-0.3V15c0-0.2-0.2-0.3-0.3-0.3h-4.7l0-8.2l0-0.1c0-0.1,0-0.2-0.1-0.2
			l-5.8-5.7c-0.1-0.1-0.1-0.1-0.2-0.1l-0.1,0c0,0,0,0,0,0l-8,0c-1.4,0-2.6,1.2-2.6,2.6l0.1,16.7C0.3,20.4,0.6,21,1.1,21.5z
			 M17.6,21.7c-0.1,0.1-0.1,0.2-0.1,0.3v3.7L16,26.4v-4.4c0-0.1,0-0.2-0.1-0.3l-3.8-3.3V17h9.4v1.4L17.6,21.7z M21.4,16.3h-9.4v-1
			h9.4V16.3z M15.9,6l-2.7,0c-1.1,0-1.9-0.9-1.9-1.9l0-2.7L15.9,6z M1.5,1.5C1.8,1.2,2.3,1,2.8,1l7.8,0l0,3.1c0,1.4,1.2,2.6,2.6,2.6
			h0l3.1,0l0,8h-4.7c-0.2,0-0.3,0.2-0.3,0.3v3.6c0,0.1,0,0.2,0.1,0.3l3.2,2.7l-11.7,0h0c-1.1,0-1.9-0.9-1.9-1.9L0.9,2.9
			C0.9,2.4,1.1,1.9,1.5,1.5z"/>
		<path fill="#ffffff" d="M15.7,27.5c-0.1,0-0.2,0-0.3-0.1c-0.2-0.1-0.3-0.3-0.3-0.5v-4.5L3,22.5c0,0,0,0,0,0c-0.8,0-1.5-0.3-2-0.8
			c-0.5-0.5-0.8-1.3-0.8-2L0,2.9C0,1.3,1.3,0,2.8,0l8,0L11,0c0.1,0,0.3,0.1,0.4,0.2l5.8,5.7c0.1,0.1,0.2,0.3,0.2,0.4v0.1l0,8h4.4
			c0.3,0,0.6,0.3,0.6,0.6v3.6c0,0.2-0.1,0.3-0.2,0.4l-3.7,3.2v3.6c0,0.2-0.1,0.4-0.3,0.5l-2.2,1.1C15.8,27.5,15.7,27.5,15.7,27.5z
			 M15.6,22v5c0,0,0,0.1,0,0.1c0,0,0.1,0,0.1,0l2.2-1.1c0,0,0,0,0-0.1V22l3.9-3.3c0,0,0,0,0-0.1V15c0,0,0-0.1-0.1-0.1h-4.9l0-8.6
			c0,0,0,0,0-0.1L11,0.5l-0.2,0l-8,0c-1.3,0-2.4,1.1-2.3,2.4l0.1,16.7c0,0.6,0.3,1.2,0.7,1.7l0,0c0.4,0.4,1,0.7,1.7,0.7c0,0,0,0,0,0
			L15.6,22z M15.7,26.8v-4.9c0,0,0,0,0-0.1l-3.9-3.3v-1.8h9.9v1.8l-3.9,3.3c0,0,0,0,0,0.1v3.8L15.7,26.8z M12.3,18.3l3.7,3.2
			c0.1,0.1,0.2,0.3,0.2,0.4v4l1-0.5v-3.5c0-0.2,0.1-0.3,0.2-0.4l3.7-3.2v-1h-8.9V18.3z M2.9,21.8c-1.2,0-2.2-1-2.2-2.2L0.7,2.9
			c0-0.6,0.2-1.1,0.6-1.6c0.4-0.4,1-0.6,1.5-0.6l8,0l0,3.4c0,1.3,1.1,2.3,2.4,2.3l3.4,0l0,8.5h-5c0,0-0.1,0-0.1,0.1v3.6
			c0,0,0,0,0,0.1l3.7,3.2L2.9,21.8z M10.4,1.2l-7.5,0C2.4,1.2,2,1.4,1.7,1.7l0,0C1.3,2,1.2,2.5,1.2,2.9l0.1,16.7
			c0,0.9,0.8,1.7,1.7,1.7l11.1,0L11.3,19c-0.1-0.1-0.2-0.3-0.2-0.4V15c0-0.3,0.3-0.6,0.6-0.6h4.5l0-7.5l-2.9,0
			c-1.6,0-2.9-1.3-2.9-2.8L10.4,1.2z M21.7,16.6h-9.9v-1.5h9.9V16.6z M12.3,16.1h8.9v-0.5h-8.9V16.1z M13.2,6.2
			c-0.6,0-1.1-0.2-1.5-0.6c-0.4-0.4-0.6-1-0.6-1.5l0-3.3l5.5,5.4L13.2,6.2C13.2,6.2,13.2,6.2,13.2,6.2z M11.5,2l0,2.1
			c0,0.5,0.2,0.9,0.5,1.2c0.3,0.3,0.7,0.5,1.2,0.5c0,0,0,0,0,0l2.1,0L11.5,2z"/>
	</g>
	<g>
		<path fill="#ffffff" d="M9.5,12.6H8.3C8.2,12.6,8,12.8,8,13c0,0.2,0.2,0.3,0.3,0.3h1.1c0.2,0,0.3-0.1,0.3-0.3
			C9.8,12.8,9.7,12.6,9.5,12.6z"/>
		<path fill="#ffffff" d="M9.5,13.5H8.3c-0.3,0-0.6-0.3-0.6-0.6s0.3-0.6,0.6-0.6h1.1c0.3,0,0.6,0.3,0.6,0.6S9.8,13.5,9.5,13.5z
			 M8.3,12.9C8.3,12.9,8.3,12.9,8.3,12.9c-0.1,0.1,0,0.2,0,0.2h1.1c0,0,0.1,0,0.1-0.1c0,0,0-0.1-0.1-0.1H8.3z"/>
	</g>
	<g>
		<path fill="#ffffff" d="M4,10.5h9.4c0.2,0,0.3-0.2,0.3-0.3c0-0.2-0.2-0.3-0.3-0.3H4c-0.2,0-0.3,0.1-0.3,0.3
			C3.6,10.3,3.8,10.5,4,10.5z"/>
		<path fill="#ffffff" d="M13.4,10.7H4c-0.3,0-0.6-0.3-0.6-0.6S3.6,9.5,4,9.5h9.4c0.3,0,0.6,0.3,0.6,0.6S13.7,10.7,13.4,10.7z M4,10
			C3.9,10,3.9,10.1,4,10c-0.1,0.1,0,0.2,0,0.2h9.4c0,0,0.1,0,0.1-0.1s0-0.1-0.1-0.1H4z"/>
	</g>
	<g>
		<path fill="#ffffff" d="M4,13.3h2.9c0.2,0,0.3-0.1,0.3-0.3c0-0.2-0.2-0.3-0.3-0.3H4c-0.2,0-0.3,0.2-0.3,0.3
			C3.6,13.1,3.8,13.3,4,13.3z"/>
		<path fill="#ffffff" d="M6.9,13.5H4c-0.3,0-0.6-0.3-0.6-0.6s0.3-0.6,0.6-0.6h2.9c0.3,0,0.6,0.3,0.6,0.6S7.2,13.5,6.9,13.5z
			 M4,12.9C3.9,12.9,3.9,12.9,4,12.9C3.9,13,3.9,13,4,13h2.9C7,13,7,13,7,13c0,0,0-0.1-0.1-0.1H4z"/>
	</g>
</g>
</svg>
