<?xml version="1.0" encoding="utf-8"?>
<!-- Generator: Adobe Illustrator 18.0.0, SVG Export Plug-In . SVG Version: 6.00 Build 0)  -->
<!DOCTYPE svg PUBLIC "-//W3C//DTD SVG 1.1//EN" "http://www.w3.org/Graphics/SVG/1.1/DTD/svg11.dtd">
<svg version="1.1" id="Layer_1" xmlns="http://www.w3.org/2000/svg" xmlns:xlink="http://www.w3.org/1999/xlink" x="0px" y="0px"
	 width="71.1px" height="24.8px" viewBox="0 0 71.1 24.8" enable-background="new 0 0 71.1 24.8" xml:space="preserve">
<g opacity="0.7">
	<path fill="none" d="M5.2,16.4L5.2,16.4L5.2,16.4z"/>
	<path fill="none" d="M10.9,9.6C10.4,9.3,10,9.1,9.5,9C8.9,8.9,8.3,8.9,7.8,8.9H5.2v7.5H8c0.5,0,1.1-0.1,1.6-0.3
		c0.5-0.2,1-0.4,1.3-0.7s0.7-0.7,0.9-1.2c0.3-0.5,0.4-1.1,0.4-1.6c0-0.6-0.1-1.2-0.4-1.8C11.6,10.4,11.3,10,10.9,9.6z M10.3,13.6
		c-0.1,0.3-0.4,0.5-0.5,0.7c-0.3,0.2-0.5,0.4-0.9,0.4c-0.4,0.1-0.7,0.1-1.1,0.1H6.9v-4.4l0,0h1c0.4,0,0.7,0,1,0.2
		c0.3,0.1,0.6,0.2,0.8,0.4c0.3,0.2,0.4,0.4,0.5,0.7c0.2,0.3,0.2,0.6,0.2,1C10.4,12.9,10.4,13.3,10.3,13.6z"/>
	<polygon fill="none" points="18.5,14.1 18.5,14.1 15.3,8.9 13,8.9 13,16.4 14.7,16.4 14.7,11 14.7,11 18.1,16.4 20.2,16.4 
		20.2,8.9 18.5,8.9 	"/>
	<path fill="#7E7E7E" d="M9.7,10.9c-0.3-0.2-0.5-0.4-0.8-0.4c-0.4-0.1-0.6-0.2-1-0.2H6.9l0,0v4.4h0.9c0.4,0,0.7,0,1.1-0.1
		c0.3-0.1,0.6-0.2,0.9-0.4c0.3-0.2,0.4-0.4,0.5-0.7c0.2-0.4,0.2-0.7,0.2-1.1s-0.1-0.6-0.2-1C10.1,11.3,9.9,11.1,9.7,10.9z"/>
	<path fill="#7E7E7E" d="M12.4,0C5.6,0,0,5.6,0,12.4s5.6,12.4,12.4,12.4s12.4-5.6,12.4-12.4S19.2,0,12.4,0z M11.9,14.2
		c-0.2,0.4-0.5,0.9-0.9,1.2c-0.4,0.4-0.9,0.5-1.3,0.7c-0.5,0.2-1.1,0.3-1.6,0.3H5.2l0,0l0,0l0,0V8.9h2.5c0.6,0,1.2,0.1,1.7,0.2
		c0.5,0.1,1,0.4,1.4,0.6s0.7,0.7,1,1.2c0.3,0.5,0.4,1.2,0.4,1.8C12.2,13.2,12.1,13.7,11.9,14.2z M20.2,16.4h-2.1l-3.3-5.3l0,0v5.3
		h-1.7V8.9h2.2l3.2,5.2l0,0V8.9h1.7V16.4z"/>
	<path id="Finder_1_" fill="#878787" d="M29.7,18.1h1.8V14h4.4v-1.6h-4.4V9.7h4.8V8.1h-6.5L29.7,18.1L29.7,18.1z M37.8,18.1h1.7
		v-6.8h-1.7V18.1z M37.8,9.7c0.2,0.2,0.4,0.4,0.8,0.3c0.3,0,0.5-0.1,0.8-0.3c0.4-0.4,0.4-1,0.1-1.4c0,0,0,0-0.1-0.1
		C39.2,8.1,38.9,8,38.6,8c-0.3,0-0.5,0.1-0.8,0.3C37.4,8.7,37.4,9.3,37.8,9.7L37.8,9.7z M41.4,18.1h1.7v-3.7c0-0.2,0-0.4,0.1-0.6
		s0.2-0.4,0.3-0.5c0.1-0.2,0.3-0.3,0.4-0.4c0.3-0.1,0.4-0.2,0.7-0.2s0.5,0.1,0.7,0.2c0.2,0.2,0.3,0.4,0.4,0.5
		c0.1,0.2,0.1,0.4,0.2,0.6c0,0.3,0,0.4,0,0.6v3.5h1.7v-4.2c0-0.4,0-0.7-0.1-1c-0.1-0.4-0.3-0.6-0.4-0.9s-0.4-0.4-0.8-0.6
		s-0.8-0.3-1.2-0.3c-0.4,0-1,0.1-1.3,0.4c-0.4,0.3-0.5,0.5-0.7,0.9l0,0v-1.1h-1.6V18.1L41.4,18.1z M55,18.1h1.6V7.4h-1.7v4.8l0,0
		c-0.1-0.1-0.2-0.3-0.4-0.4c-0.2-0.1-0.4-0.3-0.4-0.4c-0.2-0.1-0.4-0.2-0.6-0.3c-0.3-0.1-0.5-0.1-0.9-0.1c-0.4,0-0.9,0.1-1.3,0.3
		c-0.4,0.2-0.7,0.4-1.1,0.8c-0.3,0.4-0.5,0.7-0.7,1.2c-0.2,0.4-0.3,0.9-0.3,1.4c0,0.4,0.1,1,0.3,1.4c0.2,0.4,0.4,0.8,0.7,1.2
		c0.3,0.4,0.6,0.6,1.1,0.8c0.4,0.2,0.9,0.3,1.4,0.3c0.4,0,0.9-0.1,1.3-0.3c0.4-0.2,0.8-0.5,1-0.9l0,0L55,18.1L55,18.1z M51.1,14
		c0.1-0.3,0.3-0.4,0.4-0.6c0.8-0.8,2-0.9,2.8-0.1l0.1,0.1c0.2,0.2,0.3,0.4,0.4,0.6c0.2,0.5,0.2,1.1,0,1.5c-0.1,0.3-0.3,0.4-0.4,0.6
		c-0.8,0.8-2,0.9-2.8,0.1l-0.1-0.1c-0.2-0.2-0.3-0.4-0.4-0.6C50.9,15,50.9,14.4,51.1,14L51.1,14z M65,15.3v-0.4
		c0-0.5-0.1-1.1-0.3-1.6c-0.2-0.4-0.4-0.8-0.6-1.2c-0.3-0.4-0.6-0.5-1-0.7c-0.4-0.2-0.9-0.3-1.3-0.3c-0.5,0-1,0.1-1.4,0.3
		s-0.8,0.4-1.2,0.7c-0.4,0.4-0.6,0.7-0.8,1.2c-0.4,1-0.4,2,0,2.9c0.2,0.4,0.4,0.8,0.8,1.2s0.7,0.5,1.2,0.7c0.4,0.2,1,0.3,1.4,0.3
		c0.5,0,1.1-0.1,1.5-0.4c0.5-0.3,1-0.6,1.3-1.1L63.5,16c-0.2,0.3-0.4,0.4-0.8,0.6s-0.7,0.3-1.1,0.3c-0.4,0-0.9-0.2-1.2-0.4
		s-0.5-0.7-0.6-1.2L65,15.3L65,15.3z M59.8,14.1c0-0.4,0.3-0.9,0.5-1.2c0.4-0.3,0.8-0.4,1.2-0.4s0.9,0.1,1.2,0.4
		c0.4,0.4,0.4,0.7,0.4,1.2H59.8L59.8,14.1z M66.6,18.1h1.7v-3.6c0-0.2,0-0.3,0.1-0.4c0.1-0.2,0.2-0.4,0.3-0.5
		c0.2-0.2,0.4-0.4,0.5-0.5c0.3-0.2,0.6-0.3,1-0.2c0.2,0,0.3,0,0.4,0s0.3,0.1,0.4,0.1v-1.7c-0.1,0-0.2-0.1-0.3-0.1
		c-0.1,0-0.2,0-0.3,0c-0.4,0-0.9,0.1-1.2,0.4c-0.4,0.3-0.6,0.5-0.8,0.9l0,0v-1.1h-1.7L66.6,18.1L66.6,18.1z"/>
</g>
</svg>
