<?xml version="1.0" encoding="utf-8"?>
<!-- Generator: Adobe Illustrator 18.0.0, SVG Export Plug-In . SVG Version: 6.00 Build 0)  -->
<!DOCTYPE svg PUBLIC "-//W3C//DTD SVG 1.1//EN" "http://www.w3.org/Graphics/SVG/1.1/DTD/svg11.dtd">
<svg version="1.1" id="Layer_1" xmlns="http://www.w3.org/2000/svg" xmlns:xlink="http://www.w3.org/1999/xlink" x="0px" y="0px"
	 width="34px" height="34px" viewBox="0 0 34 34" enable-background="new 0 0 34 34" xml:space="preserve">
<g>
	<g>
		<defs>
			<path id="SVGID_17_" d="M31.6,14.2H17v6h8.4c-0.8,3.8-4,6-8.4,6c-5.1,0-9.2-4.1-9.2-9.2s4.1-9.2,9.2-9.2c2.2,0,4.2,0.8,5.7,2.1
				l4.5-4.5C24.5,2.9,21,1.4,17,1.4C8.4,1.4,1.4,8.4,1.4,17s7,15.6,15.6,15.6c7.8,0,14.9-5.7,14.9-15.6
				C31.9,16.1,31.8,15.1,31.6,14.2z"/>
		</defs>
		<use xlink:href="#SVGID_17_"  overflow="visible" fill="#FFFFFF"/>
		<clipPath id="SVGID_2_">
			<use xlink:href="#SVGID_17_"  overflow="visible"/>
		</clipPath>
		<path clip-path="url(#SVGID_2_)" fill="#FFFFFF" d="M0,26.2V7.8L12.1,17L0,26.2z"/>
	</g>
	<g>
		<defs>
			<path id="SVGID_19_" d="M31.6,14.2H17v6h8.4c-0.8,3.8-4,6-8.4,6c-5.1,0-9.2-4.1-9.2-9.2s4.1-9.2,9.2-9.2c2.2,0,4.2,0.8,5.7,2.1
				l4.5-4.5C24.5,2.9,21,1.4,17,1.4C8.4,1.4,1.4,8.4,1.4,17s7,15.6,15.6,15.6c7.8,0,14.9-5.7,14.9-15.6
				C31.9,16.1,31.8,15.1,31.6,14.2z"/>
		</defs>
		<use xlink:href="#SVGID_19_"  overflow="visible" fill="#FFFFFF"/>
		<clipPath id="SVGID_4_">
			<use xlink:href="#SVGID_19_"  overflow="visible"/>
		</clipPath>
		<path clip-path="url(#SVGID_4_)" fill="#FFFFFF" d="M0,7.8L12.1,17l5-4.3l17-2.8V0H0V7.8z"/>
	</g>
	<g>
		<defs>
			<path id="SVGID_21_" d="M31.6,14.2H17v6h8.4c-0.8,3.8-4,6-8.4,6c-5.1,0-9.2-4.1-9.2-9.2s4.1-9.2,9.2-9.2c2.2,0,4.2,0.8,5.7,2.1
				l4.5-4.5C24.5,2.9,21,1.4,17,1.4C8.4,1.4,1.4,8.4,1.4,17s7,15.6,15.6,15.6c7.8,0,14.9-5.7,14.9-15.6
				C31.9,16.1,31.8,15.1,31.6,14.2z"/>
		</defs>
		<use xlink:href="#SVGID_21_"  overflow="visible" fill="#FFFFFF"/>
		<clipPath id="SVGID_6_">
			<use xlink:href="#SVGID_21_"  overflow="visible"/>
		</clipPath>
		<path clip-path="url(#SVGID_6_)" fill="#FFFFFF" d="M0,26.2L21.3,9.9l5.6,0.7L34,0v34H0V26.2z"/>
	</g>
	<g>
		<defs>
			<path id="SVGID_23_" d="M31.6,14.2H17v6h8.4c-0.8,3.8-4,6-8.4,6c-5.1,0-9.2-4.1-9.2-9.2s4.1-9.2,9.2-9.2c2.2,0,4.2,0.8,5.7,2.1
				l4.5-4.5C24.5,2.9,21,1.4,17,1.4C8.4,1.4,1.4,8.4,1.4,17s7,15.6,15.6,15.6c7.8,0,14.9-5.7,14.9-15.6
				C31.9,16.1,31.8,15.1,31.6,14.2z"/>
		</defs>
		<use xlink:href="#SVGID_23_"  overflow="visible" fill="#FFFFFF"/>
		<clipPath id="SVGID_8_">
			<use xlink:href="#SVGID_23_"  overflow="visible"/>
		</clipPath>
		<path clip-path="url(#SVGID_8_)" fill="#FFFFFF" d="M34,34l-22-17l-2.8-2.1L34,7.8V34z"/>
	</g>
</g>
</svg>
