<?xml version="1.0" encoding="utf-8"?>
<!-- Generator: Adobe Illustrator 18.0.0, SVG Export Plug-In . SVG Version: 6.00 Build 0)  -->
<!DOCTYPE svg PUBLIC "-//W3C//DTD SVG 1.1//EN" "http://www.w3.org/Graphics/SVG/1.1/DTD/svg11.dtd">
<svg version="1.1" id="Layer_1" xmlns="http://www.w3.org/2000/svg" xmlns:xlink="http://www.w3.org/1999/xlink" x="0px" y="0px"
	 width="20.7px" height="18.6px" viewBox="0 0 20.7 18.6" enable-background="new 0 0 20.7 18.6" xml:space="preserve">
<g>
	<g>
		<path fill="#383838" d="M9.3,0C4.2,0,0,4.2,0,9.3s4.1,9.3,9.3,9.3h7.2v-5.5H9.3c-2.1,0-3.8-1.7-3.8-3.8s1.7-3.8,3.8-3.8h7.2V0H9.3
			z M15.8,17.9h-2.4v-4.1h2.4V17.9z M4.8,9.3c0,2.5,2,4.5,4.5,4.5h3.4v4.1H9.3c-4.7,0-8.6-3.8-8.6-8.6s3.8-8.6,8.6-8.6h3.4v4.1H9.3
			C6.8,4.8,4.8,6.8,4.8,9.3z M15.8,4.8h-2.4V0.7h2.4V4.8z"/>
		<path fill="#383838" d="M16.5,18.6H9.3C4.2,18.6,0,14.4,0,9.3S4.2,0,9.3,0h7.2v5.6H9.3c-2.1,0-3.7,1.7-3.7,3.7S7.2,13,9.3,13h7.2
			V18.6z M9.3,0.1c-5.1,0-9.2,4.1-9.2,9.2s4.1,9.2,9.2,9.2h7.1v-5.4H9.3c-2.1,0-3.8-1.7-3.8-3.8s1.7-3.8,3.8-3.8h7.1V0.1H9.3z
			 M15.9,17.9h-2.5v-4.2h2.5V17.9z M13.5,17.8h2.3v-4h-2.3V17.8z M12.8,17.9H9.3c-4.8,0-8.6-3.9-8.6-8.6s3.9-8.6,8.6-8.6h3.5v4.2
			H9.3c-2.4,0-4.4,2-4.4,4.4s2,4.4,4.4,4.4h3.5V17.9z M9.3,0.8c-4.7,0-8.5,3.8-8.5,8.5s3.8,8.5,8.5,8.5h3.4v-4H9.3
			c-2.5,0-4.5-2-4.5-4.5s2-4.5,4.5-4.5h3.4v-4H9.3z M15.9,4.9h-2.5V0.7h2.5V4.9z M13.5,4.8h2.3v-4h-2.3V4.8z"/>
	</g>
	<g>
		<path fill="#383838" d="M18.5,1.8h0.3c0.2,0,0.3-0.2,0.3-0.3s-0.2-0.3-0.3-0.3h-0.3c-0.2,0-0.3,0.2-0.3,0.3S18.4,1.8,18.5,1.8z"/>
		<path fill="#383838" d="M18.9,1.8h-0.3c-0.2,0-0.4-0.2-0.4-0.4c0-0.2,0.2-0.4,0.4-0.4h0.3c0.2,0,0.4,0.2,0.4,0.4
			C19.3,1.6,19.1,1.8,18.9,1.8z M18.5,1.1c-0.2,0-0.3,0.1-0.3,0.3c0,0.2,0.1,0.3,0.3,0.3h0.3c0.2,0,0.3-0.1,0.3-0.3
			c0-0.2-0.1-0.3-0.3-0.3H18.5z"/>
	</g>
	<g>
		<path fill="#383838" d="M17.2,1.8h0.3c0.2,0,0.3-0.2,0.3-0.3s-0.2-0.3-0.3-0.3h-0.3c-0.2,0-0.3,0.2-0.3,0.3S17,1.8,17.2,1.8z"/>
		<path fill="#383838" d="M17.5,1.8h-0.3c-0.2,0-0.4-0.2-0.4-0.4C16.8,1.2,17,1,17.2,1h0.3c0.2,0,0.4,0.2,0.4,0.4
			C17.9,1.6,17.7,1.8,17.5,1.8z M17.2,1.1c-0.2,0-0.3,0.1-0.3,0.3c0,0.2,0.1,0.3,0.3,0.3h0.3c0.2,0,0.3-0.1,0.3-0.3
			c0-0.2-0.1-0.3-0.3-0.3H17.2z"/>
	</g>
	<g>
		<path fill="#383838" d="M19.9,1.8h0.3c0.2,0,0.3-0.2,0.3-0.3s-0.2-0.3-0.3-0.3h-0.3c-0.2,0-0.3,0.2-0.3,0.3S19.7,1.8,19.9,1.8z"/>
		<path fill="#383838" d="M20.3,1.8h-0.3c-0.2,0-0.4-0.2-0.4-0.4c0-0.2,0.2-0.4,0.4-0.4h0.3c0.2,0,0.4,0.2,0.4,0.4
			C20.7,1.6,20.5,1.8,20.3,1.8z M19.9,1.1c-0.2,0-0.3,0.1-0.3,0.3c0,0.2,0.1,0.3,0.3,0.3h0.3c0.2,0,0.3-0.1,0.3-0.3
			c0-0.2-0.1-0.3-0.3-0.3H19.9z"/>
	</g>
	<g>
		<path fill="#383838" d="M18.9,3.8h-0.3c-0.2,0-0.3,0.2-0.3,0.3c0,0.2,0.2,0.3,0.3,0.3h0.3c0.2,0,0.3-0.2,0.3-0.3
			C19.2,4,19.1,3.8,18.9,3.8z"/>
		<path fill="#383838" d="M18.9,4.6h-0.3c-0.2,0-0.4-0.2-0.4-0.4c0-0.2,0.2-0.4,0.4-0.4h0.3c0.2,0,0.4,0.2,0.4,0.4
			C19.3,4.4,19.1,4.6,18.9,4.6z M18.5,3.9c-0.2,0-0.3,0.1-0.3,0.3c0,0.2,0.1,0.3,0.3,0.3h0.3c0.2,0,0.3-0.1,0.3-0.3
			c0-0.2-0.1-0.3-0.3-0.3H18.5z"/>
	</g>
	<g>
		<path fill="#383838" d="M17.2,4.5h0.3c0.2,0,0.3-0.2,0.3-0.3c0-0.2-0.2-0.3-0.3-0.3h-0.3c-0.2,0-0.3,0.2-0.3,0.3
			C16.8,4.4,17,4.5,17.2,4.5z"/>
		<path fill="#383838" d="M17.5,4.6h-0.3c-0.2,0-0.4-0.2-0.4-0.4c0-0.2,0.2-0.4,0.4-0.4h0.3c0.2,0,0.4,0.2,0.4,0.4
			C17.9,4.4,17.7,4.6,17.5,4.6z M17.2,3.9c-0.2,0-0.3,0.1-0.3,0.3c0,0.2,0.1,0.3,0.3,0.3h0.3c0.2,0,0.3-0.1,0.3-0.3
			c0-0.2-0.1-0.3-0.3-0.3H17.2z"/>
	</g>
	<g>
		<path fill="#383838" d="M20.3,3.8h-0.3c-0.2,0-0.3,0.2-0.3,0.3c0,0.2,0.2,0.3,0.3,0.3h0.3c0.2,0,0.3-0.2,0.3-0.3
			C20.6,4,20.5,3.8,20.3,3.8z"/>
		<path fill="#383838" d="M20.3,4.6h-0.3c-0.2,0-0.4-0.2-0.4-0.4c0-0.2,0.2-0.4,0.4-0.4h0.3c0.2,0,0.4,0.2,0.4,0.4
			C20.7,4.4,20.5,4.6,20.3,4.6z M19.9,3.9c-0.2,0-0.3,0.1-0.3,0.3c0,0.2,0.1,0.3,0.3,0.3h0.3c0.2,0,0.3-0.1,0.3-0.3
			c0-0.2-0.1-0.3-0.3-0.3H19.9z"/>
	</g>
	<g>
		<path fill="#383838" d="M17.5,2.8c0,0.2,0.2,0.3,0.3,0.3h0.3c0.2,0,0.3-0.2,0.3-0.3s-0.2-0.3-0.3-0.3h-0.3
			C17.7,2.4,17.5,2.6,17.5,2.8z"/>
		<path fill="#383838" d="M18.2,3.2h-0.3c-0.2,0-0.4-0.2-0.4-0.4s0.2-0.4,0.4-0.4h0.3c0.2,0,0.4,0.2,0.4,0.4S18.4,3.2,18.2,3.2z
			 M17.9,2.5c-0.2,0-0.3,0.1-0.3,0.3s0.1,0.3,0.3,0.3h0.3c0.2,0,0.3-0.1,0.3-0.3s-0.1-0.3-0.3-0.3H17.9z"/>
	</g>
	<g>
		<path fill="#383838" d="M18.9,2.8c0,0.2,0.2,0.3,0.3,0.3h0.3c0.2,0,0.3-0.2,0.3-0.3s-0.2-0.3-0.3-0.3h-0.3
			C19,2.4,18.9,2.6,18.9,2.8z"/>
		<path fill="#383838" d="M19.6,3.2h-0.3c-0.2,0-0.4-0.2-0.4-0.4s0.2-0.4,0.4-0.4h0.3c0.2,0,0.4,0.2,0.4,0.4S19.8,3.2,19.6,3.2z
			 M19.2,2.5c-0.2,0-0.3,0.1-0.3,0.3s0.1,0.3,0.3,0.3h0.3c0.2,0,0.3-0.1,0.3-0.3s-0.1-0.3-0.3-0.3H19.2z"/>
	</g>
	<g>
		<path fill="#383838" d="M18.9,14.4h-0.3c-0.2,0-0.3,0.2-0.3,0.3s0.2,0.3,0.3,0.3h0.3c0.2,0,0.3-0.2,0.3-0.3S19.1,14.4,18.9,14.4z"
			/>
		<path fill="#383838" d="M18.9,15.2h-0.3c-0.2,0-0.4-0.2-0.4-0.4s0.2-0.4,0.4-0.4h0.3c0.2,0,0.4,0.2,0.4,0.4S19.1,15.2,18.9,15.2z
			 M18.5,14.5c-0.2,0-0.3,0.1-0.3,0.3s0.1,0.3,0.3,0.3h0.3c0.2,0,0.3-0.1,0.3-0.3s-0.1-0.3-0.3-0.3H18.5z"/>
	</g>
	<g>
		<path fill="#383838" d="M17.2,15.1h0.3c0.2,0,0.3-0.2,0.3-0.3s-0.2-0.3-0.3-0.3h-0.3c-0.2,0-0.3,0.2-0.3,0.3S17,15.1,17.2,15.1z"
			/>
		<path fill="#383838" d="M17.5,15.2h-0.3c-0.2,0-0.4-0.2-0.4-0.4s0.2-0.4,0.4-0.4h0.3c0.2,0,0.4,0.2,0.4,0.4S17.7,15.2,17.5,15.2z
			 M17.2,14.5c-0.2,0-0.3,0.1-0.3,0.3s0.1,0.3,0.3,0.3h0.3c0.2,0,0.3-0.1,0.3-0.3s-0.1-0.3-0.3-0.3H17.2z"/>
	</g>
	<g>
		<path fill="#383838" d="M20.3,14.4h-0.3c-0.2,0-0.3,0.2-0.3,0.3s0.2,0.3,0.3,0.3h0.3c0.2,0,0.3-0.2,0.3-0.3S20.5,14.4,20.3,14.4z"
			/>
		<path fill="#383838" d="M20.3,15.2h-0.3c-0.2,0-0.4-0.2-0.4-0.4s0.2-0.4,0.4-0.4h0.3c0.2,0,0.4,0.2,0.4,0.4S20.5,15.2,20.3,15.2z
			 M19.9,14.5c-0.2,0-0.3,0.1-0.3,0.3s0.1,0.3,0.3,0.3h0.3c0.2,0,0.3-0.1,0.3-0.3s-0.1-0.3-0.3-0.3H19.9z"/>
	</g>
	<g>
		<path fill="#383838" d="M18.9,17.2h-0.3c-0.2,0-0.3,0.2-0.3,0.3c0,0.2,0.2,0.3,0.3,0.3h0.3c0.2,0,0.3-0.2,0.3-0.3
			C19.2,17.3,19.1,17.2,18.9,17.2z"/>
		<path fill="#383838" d="M18.9,17.9h-0.3c-0.2,0-0.4-0.2-0.4-0.4s0.2-0.4,0.4-0.4h0.3c0.2,0,0.4,0.2,0.4,0.4S19.1,17.9,18.9,17.9z
			 M18.5,17.2c-0.2,0-0.3,0.1-0.3,0.3s0.1,0.3,0.3,0.3h0.3c0.2,0,0.3-0.1,0.3-0.3s-0.1-0.3-0.3-0.3H18.5z"/>
	</g>
	<g>
		<path fill="#383838" d="M17.5,17.2h-0.3c-0.2,0-0.3,0.2-0.3,0.3c0,0.2,0.2,0.3,0.3,0.3h0.3c0.2,0,0.3-0.2,0.3-0.3
			C17.9,17.3,17.7,17.2,17.5,17.2z"/>
		<path fill="#383838" d="M17.5,17.9h-0.3c-0.2,0-0.4-0.2-0.4-0.4s0.2-0.4,0.4-0.4h0.3c0.2,0,0.4,0.2,0.4,0.4S17.7,17.9,17.5,17.9z
			 M17.2,17.2c-0.2,0-0.3,0.1-0.3,0.3s0.1,0.3,0.3,0.3h0.3c0.2,0,0.3-0.1,0.3-0.3s-0.1-0.3-0.3-0.3H17.2z"/>
	</g>
	<g>
		<path fill="#383838" d="M20.3,17.2h-0.3c-0.2,0-0.3,0.2-0.3,0.3c0,0.2,0.2,0.3,0.3,0.3h0.3c0.2,0,0.3-0.2,0.3-0.3
			C20.6,17.3,20.5,17.2,20.3,17.2z"/>
		<path fill="#383838" d="M20.3,17.9h-0.3c-0.2,0-0.4-0.2-0.4-0.4s0.2-0.4,0.4-0.4h0.3c0.2,0,0.4,0.2,0.4,0.4S20.5,17.9,20.3,17.9z
			 M19.9,17.2c-0.2,0-0.3,0.1-0.3,0.3s0.1,0.3,0.3,0.3h0.3c0.2,0,0.3-0.1,0.3-0.3s-0.1-0.3-0.3-0.3H19.9z"/>
	</g>
	<g>
		<path fill="#383838" d="M18.5,16.2c0-0.2-0.2-0.3-0.3-0.3h-0.3c-0.2,0-0.3,0.2-0.3,0.3c0,0.2,0.2,0.3,0.3,0.3h0.3
			C18.4,16.5,18.5,16.3,18.5,16.2z"/>
		<path fill="#383838" d="M18.2,16.5h-0.3c-0.2,0-0.4-0.2-0.4-0.4c0-0.2,0.2-0.4,0.4-0.4h0.3c0.2,0,0.4,0.2,0.4,0.4
			C18.6,16.4,18.4,16.5,18.2,16.5z M17.9,15.9c-0.2,0-0.3,0.1-0.3,0.3c0,0.2,0.1,0.3,0.3,0.3h0.3c0.2,0,0.3-0.1,0.3-0.3
			c0-0.2-0.1-0.3-0.3-0.3H17.9z"/>
	</g>
	<g>
		<path fill="#383838" d="M19.9,16.2c0-0.2-0.2-0.3-0.3-0.3h-0.3c-0.2,0-0.3,0.2-0.3,0.3c0,0.2,0.2,0.3,0.3,0.3h0.3
			C19.8,16.5,19.9,16.3,19.9,16.2z"/>
		<path fill="#383838" d="M19.6,16.5h-0.3c-0.2,0-0.4-0.2-0.4-0.4c0-0.2,0.2-0.4,0.4-0.4h0.3c0.2,0,0.4,0.2,0.4,0.4
			C20,16.4,19.8,16.5,19.6,16.5z M19.2,15.9c-0.2,0-0.3,0.1-0.3,0.3c0,0.2,0.1,0.3,0.3,0.3h0.3c0.2,0,0.3-0.1,0.3-0.3
			c0-0.2-0.1-0.3-0.3-0.3H19.2z"/>
	</g>
</g>
</svg>
