<?xml version="1.0" encoding="utf-8"?>
<!-- Generator: Adobe Illustrator 18.0.0, SVG Export Plug-In . SVG Version: 6.00 Build 0)  -->
<!DOCTYPE svg PUBLIC "-//W3C//DTD SVG 1.1//EN" "http://www.w3.org/Graphics/SVG/1.1/DTD/svg11.dtd">
<svg version="1.1" id="Layer_1" xmlns="http://www.w3.org/2000/svg" xmlns:xlink="http://www.w3.org/1999/xlink" x="0px" y="0px"
	 width="116.9px" height="30.1px" viewBox="0 0 116.9 30.1" enable-background="new 0 0 116.9 30.1" xml:space="preserve">
<path opacity="0.7" fill="#767676" enable-background="new    " d="M10.3,11.9L5.8,7.4c0,0-1.9-1.8-3.3-3.8L0.1,0.3
	c0,0-0.8-0.5,1.6-0.2c0,0,5.7,0.5,11.6,3.8L10.3,11.9z"/>
<path opacity="0.7" fill="#ABABAB" enable-background="new    " d="M10.9,13v9l16.3-4.9c0,0-2.3-6.3-12.9-12.8L10.9,13z"/>
<path opacity="0.7" fill="#D4D4D4" enable-background="new    " d="M11.3,22.7l-5.9,5.9l10.4,1.4c0,0,9.9-6.8,11.4-11.6L11.3,22.7z"
	/>
<g opacity="0.7" enable-background="new    ">
	<path fill="#2F2F2F" d="M35.3,12.9c0,0.2,0,0.4,0,0.6c0,2.7,0,5.3,0.1,8c0,0.2-0.1,0.5-0.1,0.5c-0.3,0.1-0.6,0-0.9,0
		c0,0-0.1-0.2-0.1-0.3c0-3.2,0-6.5,0-9.7c0-0.3,0.1-0.4,0.4-0.4c0.3,0,0.7,0,1,0c0.3,0,0.4,0.1,0.5,0.3c0.7,1.8,1.4,3.7,2.1,5.5
		c0.3,0.9,0.6,1.8,0.9,2.7c0,0.1,0.1,0.2,0.2,0.4c0.1-0.3,0.2-0.5,0.3-0.7c0.6-1.6,1.2-3.2,1.8-4.8c0.4-1,0.8-2,1.1-3
		c0.1-0.3,0.3-0.5,0.6-0.4c0.3,0,0.6,0,0.8,0c0.4,0,0.4,0.1,0.4,0.5c0,1.6,0,3.2,0,4.8c0,1.6,0,3.2,0,4.7c0,0.5,0,0.5-0.6,0.5
		c-0.4,0-0.5-0.1-0.5-0.5c0-2.4,0-4.9,0-7.3c0-0.4,0-0.8,0.1-1.2c0,0-0.1,0-0.1,0C43.1,13,43,13.1,43,13.2c-0.8,2.2-1.6,4.3-2.4,6.5
		c-0.2,0.7-0.5,1.3-0.8,2c-0.1,0.4-0.4,0.2-0.6,0.3c-0.2,0-0.4,0-0.5-0.3c-1-2.6-2-5.2-3-7.8c-0.1-0.3-0.2-0.7-0.3-1
		C35.4,12.9,35.3,12.9,35.3,12.9z"/>
	<path fill="#2F2F2F" d="M78.1,15.2c0-0.2,0-0.3,0-0.5c0-1.1,0-2.2,0-3.3c0-0.3,0.1-0.5,0.5-0.4c0.1,0,0.1,0,0.2,0
		c0.4-0.1,0.5,0.1,0.5,0.5c0,2.7,0,5.4,0,8c0,0.7,0,1.4,0,2.1c0,0.3-0.1,0.4-0.4,0.4c-0.9,0-0.7,0.1-0.8-0.8c0-0.1,0-0.3-0.1-0.6
		c-0.2,0.2-0.3,0.2-0.3,0.3c-0.5,1-2.1,1.2-2.9,1.1c-1.4-0.3-2.1-1.2-2.3-2.9c-0.1-1.2-0.1-2.4,0.2-3.5c0.5-1.4,1.6-2,3-1.9
		c0.8,0.1,1.5,0.4,1.9,1.1C77.8,15,77.9,15,78.1,15.2z M73.7,17.8c0.1,0.6,0.1,1.2,0.2,1.7c0.3,1.1,0.7,1.5,1.7,1.7
		c1,0.1,1.9-0.4,2.2-1.4c0.1-0.5,0.2-1,0.3-1.5c0.1-0.8,0-1.7-0.3-2.5c-0.3-0.8-1.1-1.2-2.2-1.2c-0.8,0-1.3,0.5-1.5,1.3
		C73.8,16.6,73.8,17.3,73.7,17.8z"/>
	<path fill="#2F2F2F" d="M60.7,15.1c0-0.2,0-0.4,0-0.5c0-1.1,0-2.1,0-3.2c0-0.4,0.1-0.6,0.5-0.5c0.1,0,0.3,0,0.4,0
		c0.1,0,0.2,0.1,0.3,0.2c0,0.1,0,0.3,0,0.5c0,2.9,0,5.7,0,8.6c0,0.4,0,0.7,0,1.1c0,0.2,0,0.6,0,0.6c-0.3,0.1-0.6,0.1-0.9,0
		c-0.1,0-0.1-0.2-0.2-0.3c0-0.3,0-0.6,0-0.9c0,0-0.1,0-0.1-0.1c-0.1,0.1-0.2,0.2-0.3,0.3c-0.6,1-2.1,1.2-2.9,1
		c-1.3-0.3-1.9-1.1-2.2-2.4c-0.3-1.5-0.3-2.9,0.3-4.3c0.5-1.2,1.6-1.7,2.8-1.6c0.8,0.1,1.6,0.4,2.1,1.2C60.4,15,60.5,15,60.7,15.1z
		 M56.3,17.8c0.1,0.7,0.1,1.2,0.2,1.7c0,0.1,0.1,0.3,0.1,0.4c0.2,0.9,0.8,1.3,1.6,1.4c0.9,0.1,1.8-0.3,2.1-1.1c0.6-1.5,0.6-3,0-4.5
		c-0.3-0.8-1.2-1.1-2.2-1.1c-0.7,0.1-1.3,0.6-1.5,1.3C56.5,16.6,56.4,17.3,56.3,17.8z"/>
	<path fill="#2F2F2F" d="M82.7,20.7c0,0.4,0,0.6,0,0.9c0,0.3-0.1,0.4-0.4,0.4c-0.8,0-0.8,0-0.8-0.7c0-3.2,0-6.5,0-9.7
		c0-0.2,0-0.5,0.1-0.5c0.3-0.1,0.6,0,0.9,0c0,0,0.1,0.2,0.1,0.3c0,1.1,0,2.2,0,3.3c0,0.2,0,0.3,0,0.6c0.2-0.2,0.3-0.2,0.4-0.3
		c0.7-1,1.7-1.2,2.7-1.1c1.6,0.2,2.2,1.3,2.4,2.8c0.1,1.2,0.2,2.4-0.2,3.6c-0.5,1.5-1.8,2.1-3.3,1.9c-0.7-0.1-1.3-0.5-1.7-1.1
		C82.9,20.9,82.8,20.9,82.7,20.7z M87.1,18.1c-0.1-0.7-0.1-1.2-0.2-1.8c-0.2-1-0.8-1.6-1.7-1.6c-1-0.1-1.9,0.4-2.2,1.4
		c-0.2,0.5-0.2,1-0.3,1.5c-0.1,0.8,0,1.7,0.3,2.5c0.4,0.9,1.1,1.2,2.2,1.2c0.7,0,1.3-0.5,1.5-1.3C86.9,19.3,87,18.6,87.1,18.1z"/>
	<path fill="#2F2F2F" d="M47.9,15.9c-0.2,0-0.6-0.1-1-0.1c0.1-0.7,0.4-1.1,0.9-1.4c0.8-0.5,1.7-0.6,2.6-0.5c0.4,0,0.8,0.1,1.2,0.3
		c0.9,0.3,1.4,1,1.4,1.9c0.1,1.2,0,2.4,0,3.5c0,0.2,0,0.4,0,0.6c0.1,0.9,0.3,1.1,1.2,1.2c0.1,0.5,0.1,0.6-0.4,0.7
		C53,22.3,52,22,52,20.8c0-0.1-0.1-0.2-0.1-0.4c-0.2,0.2-0.3,0.3-0.4,0.4c-0.7,1.2-2.5,1.6-3.7,1.1c-0.6-0.2-0.9-0.7-1.1-1.3
		c-0.5-1.8,0.4-3.2,2.3-3.4c0.8-0.1,1.7-0.1,2.5-0.1c0.3,0,0.4-0.1,0.4-0.4c0-0.3,0-0.5-0.1-0.8c-0.1-0.7-0.6-1.2-1.4-1.2
		c-0.5,0-1.1,0-1.5,0.2C48.5,15,48.3,15.5,47.9,15.9z M51.8,18.7c0.1-0.8,0-0.8-0.7-0.8c-0.6,0-1.1,0-1.7,0.1
		c-0.9,0-1.5,0.5-1.7,1.3c-0.3,0.9,0.2,2,1.4,2C50.7,21.3,52,20,51.8,18.7z"/>
	<path fill="#2F2F2F" d="M108.8,20.3c-0.3,0.7-0.7,1.2-1.3,1.4c-1.1,0.5-2.3,0.5-3.5,0.1c-1.1-0.4-1.7-1.2-1.9-2.3
		c-0.1-0.8-0.2-1.6-0.2-2.4c0.1-1,0.4-2,1.3-2.7c0.8-0.6,1.7-0.7,2.6-0.7c0.3,0,0.7,0.1,1,0.2c1.2,0.4,1.8,1.3,2,2.5
		c0.1,0.4,0.1,0.7,0.1,1.1c0.1,0.4-0.1,0.5-0.5,0.5c-1.6,0-3.2,0-4.7,0c-0.6,0-0.7,0.1-0.6,0.7c0.1,0.4,0.1,0.7,0.3,1.1
		c0.3,0.8,0.9,1.3,1.7,1.4c1,0.1,1.8-0.1,2.4-1c0.1-0.1,0.3-0.2,0.4-0.2C108.3,20.1,108.5,20.2,108.8,20.3z M105.5,17.3
		c0.5,0,1,0,1.5,0c0.8,0,0.8,0,0.7-0.8c-0.1-0.7-0.5-1.4-1.2-1.6c-1.6-0.6-3,0.3-3.2,1.9c-0.1,0.5,0,0.5,0.5,0.5
		C104.3,17.3,104.9,17.3,105.5,17.3z"/>
	<path fill="#2F2F2F" d="M98.7,20.7c-0.1,0.1-0.2,0.2-0.3,0.3c-0.8,1.3-2.7,1.4-3.8,0.8c-0.5-0.3-0.8-0.8-0.9-1.4
		c-0.1-0.9-0.1-1.9-0.1-2.8c0-1.1,0-2.1,0-3.2c0-0.3,0.1-0.5,0.4-0.5c0.8,0,0.7-0.1,0.7,0.7c0,1.4,0,2.7,0,4.1
		c0,0.4,0.1,0.8,0.1,1.2c0.1,0.8,0.6,1.2,1.4,1.2c1.3,0.1,2.3-0.7,2.4-2.1c0.1-1.4,0-2.7,0-4.1c0-0.2,0-0.3,0-0.5
		c0-0.6,0-0.6,0.6-0.6c0.6,0,0.6,0,0.6,0.5c0,2.4,0,4.8,0,7.2c0,0.2-0.1,0.3-0.3,0.3c-0.8,0.1-0.8,0.1-0.8-0.8c0-0.2,0-0.3,0-0.5
		C98.7,20.7,98.7,20.7,98.7,20.7z"/>
	<path fill="#2F2F2F" d="M116.7,15.6c-0.3,0-0.5,0.1-0.8,0.1c-0.1,0-0.2-0.1-0.3-0.2c-0.3-0.6-0.9-0.8-1.5-0.9c-0.5,0-1.1,0-1.6,0.1
		c-0.5,0.1-0.7,0.5-0.8,0.9c0,0.4,0.1,0.8,0.5,1c0.4,0.2,0.8,0.3,1.3,0.5c0.6,0.2,1.2,0.3,1.7,0.5c1.1,0.4,1.7,1.2,1.6,2.3
		c-0.1,1-0.8,1.7-1.9,2c-1.1,0.2-2.1,0.2-3.1-0.1c-0.6-0.2-1.1-0.6-1.4-1.2c-0.2-0.4-0.1-0.5,0.3-0.6c0.4-0.1,0.6,0,0.8,0.4
		c0.2,0.5,0.7,0.6,1.2,0.7c0.8,0.2,1.5,0.1,2.2-0.2c0.4-0.2,0.7-0.6,0.7-1.1c0-0.5-0.2-0.9-0.6-1.1c-0.6-0.2-1.2-0.4-1.8-0.6
		c-0.4-0.1-0.9-0.3-1.3-0.4c-1.1-0.4-1.4-1-1.3-2.2c0.1-0.8,0.7-1.5,1.7-1.7c1-0.2,2.1-0.2,3.1,0.2
		C116.1,14.3,116.6,14.8,116.7,15.6z"/>
	<path fill="#2F2F2F" d="M90.1,16.4c0-1.7,0-3.4,0-5c0-0.5,0.2-0.5,0.6-0.5c0.3,0,0.6,0,0.6,0.5c0,3.4,0,6.7,0,10.1
		c0,0.4-0.1,0.5-0.5,0.5c-0.1,0-0.2,0-0.3,0c-0.3,0-0.4-0.1-0.4-0.4c0-1,0-2,0-3C90.1,17.9,90.1,17.2,90.1,16.4z"/>
	<path fill="#2F2F2F" d="M64.3,14c1.1-0.1,1.1-0.1,1.1,0.9c0,0.2,0,0.4,0,0.6c0,0,0.1,0,0.1,0c0.1-0.2,0.2-0.4,0.3-0.6
		c0.3-0.7,0.7-1.1,1.4-1.2c0.5-0.1,0.7,0.1,0.7,0.6c0,0.2,0,0.3,0,0.5c-0.1,0-0.1,0-0.1,0c-1.5,0-2.3,0.7-2.3,2.2c0,1.5,0,2.9,0,4.4
		c0,0.4-0.1,0.5-0.5,0.5c-0.9,0-0.7,0.1-0.8-0.8c0-2.3,0-4.7,0-7C64.3,14.1,64.3,14.1,64.3,14z"/>
	<path fill="#2F2F2F" d="M70.6,18c0,1.2,0,2.4,0,3.5c0,0.4-0.1,0.5-0.5,0.5c-0.7,0-0.7,0-0.7-0.7c0-2.3,0-4.5,0-6.8
		c0-0.2,0.1-0.5,0.1-0.5c0.3-0.1,0.6,0,0.9,0c0.1,0,0.1,0.3,0.1,0.4C70.6,15.6,70.6,16.8,70.6,18z"/>
	<path fill="#2F2F2F" d="M70,10.9c0.6,0,0.6,0,0.6,0.6c0,0.5,0,0.5-0.6,0.5c-0.6,0-0.6,0-0.6-0.6C69.4,10.9,69.4,10.9,70,10.9z"/>
</g>
</svg>
