<svg xmlns="http://www.w3.org/2000/svg" viewBox="0 0 31.3 31.3"><defs><style>.cls-1{fill:#0071eb;}.cls-2{fill:#fff;}</style></defs><title>Asset 5</title><g id="Layer_2" data-name="Layer 2"><g id="Layer_1-2" data-name="Layer 1"><path class="cls-1" d="M0,15.65A15.65,15.65,0,1,1,15.65,31.3,15.65,15.65,0,0,1,0,15.65Z"/><path class="cls-2" d="M1.17,15.65A14.48,14.48,0,1,1,15.65,30.13,14.49,14.49,0,0,1,1.17,15.65Z"/><path class="cls-1" d="M2.06,15.65a13.6,13.6,0,1,1,13.59,13.6A13.59,13.59,0,0,1,2.06,15.65Z"/><polygon class="cls-2" points="20.71 12.36 15.01 9.06 15.01 13.28 13.41 12.36 7.7 9.06 7.7 15.65 7.7 22.24 13.41 18.95 15.01 18.02 15.01 22.24 20.71 18.95 26.42 15.65 20.71 12.36"/></g></g></svg>