<?xml version="1.0" encoding="utf-8"?>
<!-- Generator: Adobe Illustrator 19.0.0, SVG Export Plug-In . SVG Version: 6.00 Build 0)  -->
<svg version="1.1" id="Layer_1" xmlns="http://www.w3.org/2000/svg" xmlns:xlink="http://www.w3.org/1999/xlink" x="0px" y="0px"
	 width="20.7463551px" height="20.746418px" viewBox="0 0 20.7463551 20.746418"
	 style="enable-background:new 0 0 20.7463551 20.746418;" xml:space="preserve">
<g id="XMLID_1055_">
	<path id="XMLID_1062_" style="fill:#283238;stroke:#283238;stroke-width:0.25;stroke-miterlimit:10;" d="M6.3159804,19.2540398
		c0.546824,0,0.9916959-0.4449997,0.9916959-0.9918251c0-0.5468235-0.4448719-0.9915676-0.9916959-0.9915676
		s-0.9918246,0.4447441-0.9918246,0.9915676C5.3241558,18.8090401,5.769156,19.2540398,6.3159804,19.2540398z M6.3159804,17.9316082
		c0.1823602,0,0.3306079,0.1485043,0.3306079,0.3306065c0,0.1823616-0.148376,0.3306084-0.3306079,0.3306084
		c-0.1823606,0-0.3306084-0.1482468-0.3306084-0.3306084C5.9853721,18.0801125,6.1336198,17.9316082,6.3159804,17.9316082z"/>
	<path id="XMLID_1061_" style="fill:#283238;stroke:#283238;stroke-width:0.25;stroke-miterlimit:10;" d="M7.7104845,2.1534717
		H4.9213476c-0.1826167,0-0.3306079,0.1479914-0.3306079,0.3306081s0.1479912,0.3306079,0.3306079,0.3306079h2.7891369
		c0.1826167,0,0.3306084-0.1479912,0.3306084-0.3306079S7.8931012,2.1534717,7.7104845,2.1534717z"/>
	<path id="XMLID_1057_" style="fill:#283238;stroke:#283238;stroke-width:0.25;stroke-miterlimit:10;" d="M12.1763868,13.9963713
		c-0.1826172,0-0.3306084,0.1477346-0.3306084,0.3303518v1.5763512H0.7861818V4.8432212h11.059597v1.5763516
		c0,0.1826167,0.1479912,0.3306079,0.3306084,0.3306079c0.1826162,0,0.3306084-0.1479912,0.3306084-0.3306079V2.2588866
		c0-1.1767492-0.9573278-2.1339481-2.1338205-2.1339481H2.2587857c-1.1766212,0-2.1338201,0.9571989-2.1338201,2.1339481v16.2287788
		c0,1.1764927,0.9571989,2.1336918,2.1338201,2.1336918h8.1143894c1.1764927,0,2.1338205-0.9571991,2.1338205-2.1336918v-4.1609421
		C12.5069952,14.1443624,12.3590031,13.9963713,12.1763868,13.9963713z M0.7861818,2.2588866
		c0-0.8120288,0.6605749-1.4727319,1.4726039-1.4727319h8.1143894c0.8119011,0,1.4726038,0.6607032,1.4726038,1.4727319v1.9231184
		H0.7861818V2.2588866z M11.8457785,18.4876652c0,0.8120289-0.6607027,1.4724751-1.4726038,1.4724751H2.2587857
		c-0.812029,0-1.4726039-0.6604462-1.4726039-1.4724751V16.564291h11.059597V18.4876652z"/>
	<path id="XMLID_1056_" style="fill:#283238;stroke:#283238;stroke-width:0.25;stroke-miterlimit:10;" d="M20.5372581,10.152956
		l-3.64464-4.0814323c-0.0913086-0.1020808-0.2360935-0.1374755-0.3644657-0.0887437
		c-0.127985,0.0489888-0.2126236,0.1718445-0.2126236,0.3090634V7.411397h-9.999548
		c-0.1826167,0-0.3306084,0.1477346-0.3306084,0.3303514s0.1479917,0.3306079,0.3306084,0.3306079h10.3301544
		c0.1826172,0,0.3304806-0.1479912,0.3304806-0.3306079V7.158247l2.8709564,3.2150288l-2.8709564,3.2147722v-0.5835009
		c0-0.1826172-0.1478634-0.3306084-0.3304806-0.3306084H6.3159804c-0.1826167,0-0.3306084,0.1479912-0.3306084,0.3306084
		c0,0.1826162,0.1479917,0.3306074,0.3306084,0.3306074h9.999548v1.119297c0,0.1372194,0.0846386,0.2600756,0.2126236,0.3090639
		c0.0384731,0.0146198,0.078228,0.0215445,0.1178551,0.0215445c0.0923347,0,0.182745-0.0387287,0.2466106-0.1102886
		l3.64464-4.0814323C20.6493416,10.4679184,20.6493416,10.2783766,20.5372581,10.152956z"/>
</g>
</svg>
