<?xml version="1.0" encoding="utf-8"?>
<!-- Generator: Adobe Illustrator 19.0.0, SVG Export Plug-In . SVG Version: 6.00 Build 0)  -->
<svg version="1.1" id="Layer_1" xmlns="http://www.w3.org/2000/svg" xmlns:xlink="http://www.w3.org/1999/xlink" x="0px" y="0px"
	 width="54.4102364px" height="55.3282089px" viewBox="0 0 54.4102364 55.3282089"
	 style="enable-background:new 0 0 54.4102364 55.3282089;" xml:space="preserve">
<g id="XMLID_743_">
	<path id="XMLID_845_" style="fill:#FFFFFF;" d="M53.4669418,6.1899424c0.0116539-0.146399,0.0192947-0.293983,0.0192947-0.4434109
		c0-3.0422332-2.4661789-5.5084209-5.5083542-5.5084209c-2.4358292,0-4.5010071,1.5817374-5.2280045,3.7736337
		c-0.0928612-0.0071125-0.1857185-0.0141592-0.2803535-0.0141592c-2.0040741,0-3.6286812,1.6246099-3.6286812,3.628684
		c0,2.0040078,1.6246071,3.6286178,3.6286812,3.6286178h8.6055794c1.7105637,0,3.0972252-1.3866711,3.0972252-3.0972233
		C54.1723289,7.4103918,53.9075851,6.7250247,53.4669418,6.1899424z"/>
	<path id="XMLID_842_" style="fill:#424242;" d="M51.0751686,11.4927597h-8.6057091
		c-2.131958,0-3.8664246-1.7345238-3.8664246-3.8664908c0-2.1320329,1.7344666-3.8665571,3.8664246-3.8665571
		c0.0391846,0,0.0777779,0.0011196,0.1155777,0.0027661c0.8293304-2.2578845,2.9735565-3.7622406,5.3928452-3.7622406
		c3.1684799,0,5.7461624,2.5777485,5.7461624,5.7462282c0,0.1144581-0.0042839,0.2355022-0.0130959,0.3679395
		c0.4515648,0.5823016,0.6992531,1.3040209,0.6992531,2.0432582C54.410202,9.9967012,52.9140854,11.4927597,51.0751686,11.4927597z
		 M42.4694595,4.2353921c-1.8696594,0-3.3907433,1.5211496-3.3907433,3.3908768
		c0,1.8696609,1.5210838,3.3908105,3.3907433,3.3908105h8.6057091c1.5766678,0,2.8593521-1.2826834,2.8593521-2.859416
		c0-0.6614609-0.2312889-1.3065238-0.6511879-1.8165808c-0.0391846-0.0475483-0.0582848-0.1085315-0.0534096-0.1698437
		c0.0124474-0.1573305,0.0185051-0.2962217,0.0185051-0.4247732c0-2.9061742-2.3643723-5.2706141-5.270546-5.2706141
		c-2.2757225,0-4.2859306,1.4511443-5.0022507,3.6109025C42.9411888,4.1904778,42.839386,4.258903,42.7317009,4.248827
		C42.6408844,4.2420435,42.5550728,4.2353921,42.4694595,4.2353921z"/>
	<path id="XMLID_841_" style="fill:#FFFFFF;" d="M13.407588,12.1775999c-0.1068182,0-0.2121143,0.0060587-0.3163738,0.0159369
		c-0.6951132-1.8471384-2.4732342-3.1638041-4.563448-3.1638041s-3.8683352,1.3166656-4.5635147,3.1638041
		c-0.1041846-0.0098782-0.2095547-0.0159369-0.3163738-0.0159369c-1.8257924,0-3.3059218,1.4801207-3.3059218,3.3059216
		s1.4801294,3.3059225,3.3059218,3.3059225h9.7597103c1.8258009,0,3.3059301-1.4801216,3.3059301-3.3059225
		S15.2333889,12.1775999,13.407588,12.1775999z"/>
	<path id="XMLID_838_" style="fill:#424242;" d="M13.407588,19.1315022H3.6478777
		c-2.011384,0-3.6479137-1.6364651-3.6479137-3.6479149s1.6365298-3.6479139,3.6479137-3.6479139
		c0.0302939,0,0.0609171,0.0004616,0.0918696,0.001318C4.560976,9.9431601,6.4537611,8.6878071,8.5277662,8.6878071
		c2.0740128,0,3.9667244,1.255353,4.7880182,3.1491842c0.0309525-0.0008564,0.0615759-0.001318,0.0918036-0.001318
		c2.0114498,0,3.6479139,1.6364641,3.6479139,3.6479139S15.4190378,19.1315022,13.407588,19.1315022z M3.6478777,12.5196571
		c-1.6343565,0-2.9639299,1.3296394-2.9639299,2.9639301s1.3295734,2.9639301,2.9639299,2.9639301h9.7597103
		c1.6344223,0,2.9639311-1.3296394,2.9639311-2.9639301s-1.3295088-2.9639301-2.9639311-2.9639301
		c-0.0960178,0-0.1906538,0.0055323-0.2843018,0.014225c-0.1555519,0.0154104-0.297802-0.0756683-0.3521338-0.2199593
		c-0.6622515-1.7598133-2.3675346-2.942132-4.2433863-2.942132s-3.5811357,1.1823187-4.2433872,2.942132
		c-0.0543313,0.1444883-0.1995444,0.2351065-0.3520019,0.2199593C3.838532,12.5251894,3.7438962,12.5196571,3.6478777,12.5196571z"
		/>
	<path id="XMLID_837_" style="fill:#FFFFFF;" d="M51.6859207,37.7681847
		c0.0006027-0.0173874,0.0011215-0.0348396,0.0014496-0.0522881c0.037735-1.8072319-1.3990517-3.3586731-3.2042389-3.4523239
		c-1.9515877-0.1012192-3.5656586,1.45121-3.5656586,3.3806686c0,0.0689545,0.0020409,0.1373787,0.0061226,0.2052765
		c0.0887756,1.4761047-0.4191742,2.924614-1.3057327,4.1081161c-0.7936249,1.0592995-1.2361794,2.3967094-1.1549873,3.8400192
		c0.1690598,3.005352,2.6537437,5.4198418,5.6625252,5.5088806c3.3115273,0.0979271,6.0268402-2.5573311,6.0268402-5.8468552
		c0-1.314888-0.4339943-2.5280952-1.1665115-3.5047417C52.0813904,40.7492371,51.6313934,39.2743835,51.6859207,37.7681847z"/>
	<path id="XMLID_834_" style="fill:#424242;" d="M48.3045273,51.5671272c-0.0621033,0-0.1244011-0.000988-0.1867599-0.0028305
		c-3.1391144-0.0928574-5.7362251-2.6194382-5.9124565-5.7522202c-0.0809364-1.4390945,0.347393-2.8629074,1.206028-4.0090065
		c0.8904419-1.1885757,1.3360252-2.5870323,1.2548256-3.9381409c-0.0043488-0.0730362-0.0066528-0.1465988-0.0066528-0.2206879
		c0-1.0090485,0.4031067-1.9473686,1.1351013-2.6424179c0.7314644-0.694519,1.690464-1.0476418,2.7018852-0.9958115
		c1.9423027,0.1006279,3.4893341,1.7674522,3.4487,3.7153473l-0.0015793,0.0562439
		c-0.0524902,1.4506836,0.3909302,2.8793678,1.2485046,4.0226364c0.7967949,1.0622635,1.2180786,2.3276901,1.2180786,3.6595039
		c0,1.6655083-0.6583023,3.2218246-1.8534622,4.3821449C51.4066353,50.9586143,49.9028625,51.5671272,48.3045273,51.5671272z
		 M48.3013,34.5168571c-0.8058739,0-1.5642853,0.3016243-2.1514587,0.8590965
		c-0.628334,0.5966568-0.9744759,1.4021454-0.9744759,2.2682877c0,0.0636864,0.001976,0.1271706,0.0057297,0.18993
		c0.0885086,1.4726791-0.3933601,2.992054-1.3568382,4.2782249c-0.7860603,1.0490265-1.1780396,2.3527832-1.1038857,3.6707687
		c0.1613503,2.8676453,2.5388947,5.1804543,5.4126663,5.2656059c1.5261536,0.043663,2.9705811-0.5150604,4.0643234-1.5769958
		c1.0942688-1.062458,1.6969223-2.4872589,1.6969223-4.0120316c0-1.219265-0.3855133-2.3776131-1.1148186-3.3499146
		c-0.9281769-1.2373734-1.4081383-2.7826271-1.3513718-4.3510628c0-0.0001297,0-0.0003281,0-0.0004616l0.0014496-0.047348
		c0.0348396-1.672554-1.2928238-3.1034164-2.9597168-3.1897507C48.4134636,34.5183716,48.3572121,34.5168571,48.3013,34.5168571z"/>
	<g id="XMLID_831_">
		<line id="XMLID_833_" style="fill:#5E35B1;" x1="48.3028259" y1="42.7944069" x2="48.3028259" y2="55.070488"/>
		<path id="XMLID_832_" style="fill:#424242;" d="M48.3028259,55.3284454c-0.1425247,0-0.2579689-0.1155128-0.2579689-0.2578926
			V42.7944717c0-0.1423798,0.1154442-0.2578926,0.2579689-0.2578926c0.142437,0,0.257885,0.1155128,0.257885,0.2578926v12.2760811
			C48.5607109,55.2129326,48.4452629,55.3284454,48.3028259,55.3284454z"/>
	</g>
	<g id="XMLID_828_">
		<line id="XMLID_830_" style="fill:#5E35B1;" x1="46.0459862" y1="46.4655685" x2="48.3028259" y2="47.9529991"/>
		<path id="XMLID_829_" style="fill:#424242;" d="M48.3025513,48.2110214c-0.0487328,0-0.0979919-0.0137634-0.1417198-0.0426712
			l-2.2568321-1.4874344c-0.1188622-0.0782356-0.1517906-0.238266-0.0733643-0.3572044
			c0.0783119-0.1188698,0.238533-0.1519279,0.357338-0.0733643l2.2568283,1.4874992
			c0.1188698,0.0782356,0.1517982,0.238266,0.0733757,0.3571396C48.4686432,48.1701927,48.386322,48.2110214,48.3025513,48.2110214z
			"/>
	</g>
	<g id="XMLID_825_">
		<line id="XMLID_827_" style="fill:#FFC107;" x1="45.4655266" y1="55.070488" x2="51.1400375" y2="55.070488"/>
		<path id="XMLID_826_" style="fill:#424242;" d="M51.1400375,55.3284454h-5.6744423
			c-0.1425133,0-0.2579613-0.1155128-0.2579613-0.2578926c0-0.1424484,0.115448-0.2579575,0.2579613-0.2579575h5.6744423
			c0.1424484,0,0.2578926,0.115509,0.2578926,0.2579575C51.3979301,55.2129326,51.282486,55.3284454,51.1400375,55.3284454z"/>
	</g>
	<path id="XMLID_824_" style="fill:#FFFFFF;" d="M9.4901905,37.7681847
		c0.0005922-0.0173874,0.0011196-0.0348396,0.0014486-0.0522881c0.0377359-1.8072319-1.3990517-3.3586731-3.2042398-3.4523239
		c-1.9515204-0.1012192-3.565659,1.45121-3.565659,3.3806686c0,0.0689545,0.0020416,0.1373787,0.0061247,0.2052765
		c0.0887742,1.4761047-0.4191015,2.924614-1.3057336,4.1081161c-0.7936346,1.0592995-1.2361891,2.3967094-1.1549883,3.8400192
		c0.1690532,3.005352,2.6537466,5.4198418,5.6625247,5.5088806c3.3115201,0.0979271,6.0268416-2.5573311,6.0268416-5.8468552
		c0-1.314888-0.4339924-2.5280952-1.1665125-3.5047417C9.8856573,40.7492371,9.4356613,39.2743835,9.4901905,37.7681847z"/>
	<path id="XMLID_821_" style="fill:#424242;" d="M6.1087971,51.5671272c-0.0621023,0-0.1244025-0.000988-0.1867685-0.0028305
		c-3.1391735-0.0928574-5.736218-2.6194382-5.9123096-5.7522202c-0.0810033-1.4390945,0.347318-2.8629074,1.2059529-4.0090065
		c0.8903776-1.1885757,1.3359615-2.5870323,1.2547606-3.9381409c-0.0043466-0.0730362-0.0066514-0.1465988-0.0066514-0.2206879
		c0-1.0090485,0.4031065-1.9473686,1.135108-2.6424179c0.7316639-0.694519,1.6901286-1.0476418,2.7018793-0.9958115
		c1.9423089,0.1006279,3.4893317,1.7674522,3.4486985,3.7153473l-0.0015726,0.0562439
		c-0.052496,1.4506836,0.3909149,2.8793678,1.2484961,4.0226364c0.7967958,1.0622635,1.2180786,2.3276901,1.2180786,3.6595039
		c0,1.6655083-0.6582994,3.2218246-1.8534517,4.3821449C9.2108936,50.9586143,7.7071304,51.5671272,6.1087971,51.5671272z
		 M6.1055703,34.5168571c-0.8058181,0-1.5642772,0.3016243-2.1514606,0.8590965
		c-0.6283352,0.5966568-0.9744761,1.4021454-0.9744761,2.2682877c0,0.0636864,0.0019758,0.1271706,0.0057297,0.18993
		c0.0885108,1.4725494-0.3933599,2.992054-1.3567064,4.2782249c-0.7860611,1.0490265-1.1781039,2.3527832-1.1039413,3.6707687
		c0.1612738,2.8676453,2.5387616,5.1804543,5.4125919,5.2656059c1.5263519,0.043663,2.9705811-0.5150604,4.0643234-1.5769958
		c1.0942688-1.062458,1.696929-2.4872589,1.696929-4.0120316c0-1.219265-0.3855324-2.3776131-1.1148252-3.3499146
		c-0.9281788-1.2373734-1.4081316-2.7826271-1.3513718-4.3510628c0-0.0001297,0-0.0003281,0-0.0004616l0.0014486-0.047348
		c0.0348387-1.672554-1.2928252-3.1034164-2.9597149-3.1897507C6.2177234,34.5183716,6.1614823,34.5168571,6.1055703,34.5168571z"/>
	<g id="XMLID_818_">
		<line id="XMLID_820_" style="fill:#5E35B1;" x1="6.1070848" y1="42.7944069" x2="6.1070848" y2="55.070488"/>
		<path id="XMLID_819_" style="fill:#424242;" d="M6.1070848,55.3284454c-0.1425128,0-0.2579589-0.1155128-0.2579589-0.2578926
			V42.7944717c0-0.1423798,0.1154461-0.2578926,0.2579589-0.2578926c0.1424475,0,0.2578936,0.1155128,0.2578936,0.2578926
			v12.2760811C6.3649783,55.2129326,6.2495322,55.3284454,6.1070848,55.3284454z"/>
	</g>
	<g id="XMLID_815_">
		<line id="XMLID_817_" style="fill:#5E35B1;" x1="3.8502543" y1="46.4655685" x2="6.1070848" y2="47.9529991"/>
		<path id="XMLID_816_" style="fill:#424242;" d="M6.1068215,48.2110214c-0.0487337,0-0.0979943-0.0137634-0.1417146-0.0426712
			l-2.2568388-1.4874344c-0.1188707-0.0782356-0.151799-0.238266-0.073364-0.3572044
			c0.0782373-0.1188698,0.2384658-0.1519279,0.3573365-0.0733643l2.2568305,1.4874992
			c0.1188707,0.0782356,0.1517987,0.238266,0.0733638,0.3571396C6.2729111,48.1701927,6.1905909,48.2110214,6.1068215,48.2110214z"
			/>
	</g>
	<g id="XMLID_812_">
		<line id="XMLID_814_" style="fill:#FFC107;" x1="3.2698624" y1="55.070488" x2="8.9443073" y2="55.070488"/>
		<path id="XMLID_813_" style="fill:#424242;" d="M8.9443073,55.3284454h-5.674511
			c-0.1424389,0-0.2578933-0.1155128-0.2578933-0.2578926c0-0.1424484,0.1154544-0.2579575,0.2578933-0.2579575h5.674511
			c0.1424475,0,0.2578936,0.115509,0.2578936,0.2579575C9.2022009,55.2129326,9.0867548,55.3284454,8.9443073,55.3284454z"/>
	</g>
	<rect id="XMLID_811_" x="8.0878458" y="37.3686256" style="fill:#F8F9F9;" width="38.1202126" height="17.8918476"/>
	<path id="XMLID_808_" style="fill:#424242;" d="M46.2080574,55.0248489H8.0879116
		c-0.1425047,0-0.2579594-0.1155128-0.2579594-0.2578926V36.875042c0-0.1424484,0.1154547-0.2579613,0.2579594-0.2579613h38.1201477
		c0.1424484,0,0.2578926,0.1155128,0.2578926,0.2579613v17.8919144
		C46.46595,54.9093361,46.3505058,55.0248489,46.2080574,55.0248489z M8.3458138,54.5089951h37.6042862V37.1329346H8.3458138
		V54.5089951z"/>
	<rect id="XMLID_807_" x="22.6540813" y="36.875042" style="fill:#ECEFF1;" width="9.4030323" height="17.8918476"/>
	<path id="XMLID_804_" style="fill:#424242;" d="M32.0571136,55.0248489h-9.4030323
		c-0.1425133,0-0.2579594-0.1155128-0.2579594-0.2578926V36.875042c0-0.1424484,0.1154461-0.2579613,0.2579594-0.2579613h9.4030323
		c0.1425209,0,0.2579575,0.1155128,0.2579575,0.2579613v17.8919144
		C32.3150711,54.9093361,32.1996346,55.0248489,32.0571136,55.0248489z M22.9120388,54.5089951h8.8871899V37.1329346h-8.8871899
		V54.5089951z"/>
	<path id="XMLID_803_" style="fill:#337D3E;" d="M30.4424744,47.9109154h-0.0530033
		c-0.2971382,0-0.5380192-0.2408791-0.5380192-0.5380173l0.0000019-2.1701546c0-0.2971382,0.2408791-0.5380173,0.5380173-0.5380173
		h0.0530033c0.2971401,0,0.5380192,0.2408791,0.5380192,0.5380173v2.1701546
		C30.9804935,47.6700363,30.7396145,47.9109154,30.4424744,47.9109154z"/>
	<path id="XMLID_800_" style="fill:#424242;" d="M30.4159737,48.1688766c-0.4535522,0-0.8224792-0.368927-0.8224792-0.8224831
		v-2.1172142c0-0.4535522,0.368927-0.8224792,0.8224792-0.8224792c0.4534855,0,0.8224144,0.368927,0.8224144,0.8224792v2.1172142
		C31.2383881,47.7999496,30.8694592,48.1688766,30.4159737,48.1688766z M30.4159737,44.922554
		c-0.169054,0-0.3066177,0.1375732-0.3066177,0.3066254v2.1172142c0,0.1691208,0.1375637,0.3066292,0.3066177,0.3066292
		c0.1690521,0,0.3065605-0.1375084,0.3065605-0.3066292v-2.1172142
		C30.7225342,45.0601273,30.5850258,44.922554,30.4159737,44.922554z"/>
	<g id="XMLID_797_">
		<line id="XMLID_799_" style="fill:#5E35B1;" x1="6.1070848" y1="55.070488" x2="48.3028259" y2="55.070488"/>
		<path id="XMLID_798_" style="fill:#424242;" d="M48.3028259,55.3284454H6.1070848
			c-0.1425128,0-0.2579589-0.1155128-0.2579589-0.2578926c0-0.1424484,0.1154461-0.2579575,0.2579589-0.2579575h42.1957397
			c0.142437,0,0.257885,0.115509,0.257885,0.2579575C48.5607109,55.2129326,48.4452629,55.3284454,48.3028259,55.3284454z"/>
	</g>
	<rect id="XMLID_796_" x="8.3949995" y="20.6914406" style="fill:#9BBD37;" width="37.7836189" height="5.3705182"/>
	<path id="XMLID_793_" style="fill:#424242;" d="M46.1786194,26.3198509H8.3949995
		c-0.1424475,0-0.2578936-0.1155109-0.2578936-0.2579575v-5.3705196c0-0.1423798,0.1154461-0.2578926,0.2578936-0.2578926
		h37.7836189c0.1425133,0,0.2579613,0.1155128,0.2579613,0.2578926v5.3705196
		C46.4365807,26.20434,46.3211327,26.3198509,46.1786194,26.3198509z M8.6529589,25.8039989h37.2677689v-4.8546658H8.6529589
		V25.8039989z"/>
	<path id="XMLID_790_" style="fill:#424242;" d="M46.2080574,48.1688766H33.6397705
		c-0.1424446,0-0.2578926-0.1155128-0.2578926-0.2579613V36.875042c0-0.1424484,0.115448-0.2579613,0.2578926-0.2579613h12.5682869
		c0.1424484,0,0.2578926,0.1155128,0.2578926,0.2579613v11.0358734
		C46.46595,48.0533638,46.3505058,48.1688766,46.2080574,48.1688766z M33.8977318,47.6530228h12.0523682V37.1329346H33.8977318
		V47.6530228z"/>
	<g id="XMLID_786_">
		<path id="XMLID_787_" style="fill:#424242;" d="M46.2080574,48.1688766H33.6397705
			c-0.1424446,0-0.2578926-0.1155128-0.2578926-0.2579613V36.875042c0-0.1424484,0.115448-0.2579613,0.2578926-0.2579613h12.5682869
			c0.1424484,0,0.2578926,0.1155128,0.2578926,0.2579613v11.0358734
			C46.46595,48.0533638,46.3505058,48.1688766,46.2080574,48.1688766z M33.8977318,47.6530228h12.0523682V37.1329346H33.8977318
			V47.6530228z"/>
	</g>
	<g id="XMLID_783_">
		<line id="XMLID_785_" style="fill:#ECEFF1;" x1="39.9239235" y1="36.875042" x2="39.9239235" y2="47.9109154"/>
		<path id="XMLID_784_" style="fill:#424242;" d="M39.9239235,48.1688766c-0.1424561,0-0.2579689-0.1155128-0.2579689-0.2579613
			V36.875042c0-0.1424484,0.1155128-0.2579613,0.2579689-0.2579613c0.1425056,0,0.2579498,0.1155128,0.2579498,0.2579613v11.0358734
			C40.1818733,48.0533638,40.0664291,48.1688766,39.9239235,48.1688766z"/>
	</g>
	<g id="XMLID_779_">
		<path id="XMLID_780_" style="fill:#424242;" d="M20.6561317,48.1688766H8.0879116
			c-0.1425047,0-0.2579594-0.1155128-0.2579594-0.2579613V36.875042c0-0.1424484,0.1154547-0.2579613,0.2579594-0.2579613
			h12.5682201c0.1424561,0,0.2578926,0.1155128,0.2578926,0.2579613v11.0358734
			C20.9140244,48.0533638,20.7985878,48.1688766,20.6561317,48.1688766z M8.3458138,47.6530228H20.39818V37.1329346H8.3458138
			V47.6530228z"/>
	</g>
	<g id="XMLID_776_">
		<line id="XMLID_778_" style="fill:#ECEFF1;" x1="14.3719883" y1="36.875042" x2="14.3719883" y2="47.9109154"/>
		<path id="XMLID_777_" style="fill:#424242;" d="M14.3719883,48.1688766c-0.1424475,0-0.2578936-0.1155128-0.2578936-0.2579613
			V36.875042c0-0.1424484,0.1154461-0.2579613,0.2578936-0.2579613c0.1425133,0,0.2579594,0.1155128,0.2579594,0.2579613v11.0358734
			C14.6299477,48.0533638,14.5145016,48.1688766,14.3719883,48.1688766z"/>
	</g>
	<path id="XMLID_775_" style="fill:#337D3E;" d="M8.5428143,40.4764595H8.2471857c-1.65732,0-3.0008426-1.3435211-3.000843-3.000843
		v-7.519186c0-0.5290909,0.4289131-0.958004,0.9580035-0.958004h4.3813071c0.5290909,0,0.958003,0.4289131,0.958003,0.958004
		v7.519186C11.5436563,39.1329384,10.2001333,40.4764595,8.5428143,40.4764595z"/>
	<path id="XMLID_772_" style="fill:#424242;" d="M8.3949995,40.7344208c-1.8783541,0-3.4065418-1.5281296-3.4065418-3.4065514
		v-8.3295097c0-0.1423798,0.1154375-0.2578926,0.257885-0.2578926h6.2973137c0.1425133,0,0.2579594,0.1155128,0.2579594,0.2578926
		v8.3295097C11.8016157,39.2062912,10.273428,40.7344208,8.3949995,40.7344208z M5.504302,29.256319v8.0715504
		c0,1.5939865,1.2967768,2.8906975,2.8906975,2.8906975c1.5939293,0,2.8907633-1.296711,2.8907633-2.8906975V29.256319H5.504302z"/>
	<path id="XMLID_771_" style="fill:#9BBD37;" d="M14.8400936,40.4764595h-0.2956257
		c-1.6573019,0-3.0008116-1.3435097-3.0008116-3.0008087v-7.5402203c0-0.5174923,0.4195118-0.9370041,0.937005-0.9370041h4.4232388
		c0.5174923,0,0.9370041,0.4195118,0.9370041,0.9370041v7.5402203
		C17.8409042,39.1329498,16.4973965,40.4764595,14.8400936,40.4764595z"/>
	<path id="XMLID_768_" style="fill:#424242;" d="M14.6922474,40.7344208c-1.8782883,0-3.4064846-1.5281296-3.4064846-3.4065514
		v-8.3295097c0-0.1423798,0.115447-0.2578926,0.2578936-0.2578926h6.2972479c0.1424484,0,0.2578945,0.1155128,0.2578945,0.2578926
		v8.3295097C18.0987988,39.2062912,16.57061,40.7344208,14.6922474,40.7344208z M11.8016157,29.256319v8.0715504
		c0,1.5939865,1.296711,2.8906975,2.8906317,2.8906975s2.8906975-1.296711,2.8906975-2.8906975V29.256319H11.8016157z"/>
	<path id="XMLID_767_" style="fill:#337D3E;" d="M21.1373425,40.4764595h-0.2956257
		c-1.6573029,0-3.0008125-1.3435097-3.0008125-3.0008125v-7.4525623c0-0.5659027,0.4587555-1.0246582,1.0246582-1.0246582h4.247942
		c0.5659027,0,1.0246582,0.4587555,1.0246582,1.0246582v7.4525585
		C24.1381626,39.1329498,22.7946491,40.4764595,21.1373425,40.4764595z"/>
	<path id="XMLID_764_" style="fill:#424242;" d="M20.9895706,40.7344208c-1.8784294,0-3.4066257-1.5281296-3.4066257-3.4065514
		v-8.3295097c0-0.1423798,0.1154461-0.2578926,0.2579594-0.2578926h6.2973137c0.1424484,0,0.2578945,0.1155128,0.2578945,0.2578926
		v8.3295097C24.3961124,39.2062912,22.8679161,40.7344208,20.9895706,40.7344208z M18.0987988,29.256319v8.0715504
		c0,1.5939865,1.2967758,2.8906975,2.8907719,2.8906975c1.5939121,0,2.8906879-1.296711,2.8906879-2.8906975V29.256319H18.0987988z"
		/>
	<path id="XMLID_763_" style="fill:#9BBD37;" d="M27.4346256,40.4764595h-0.2956295
		c-1.6573143,0-3.0008335-1.3435173-3.0008335-3.0008354v-7.4564533c0-0.5637417,0.4570026-1.0207443,1.0207443-1.0207443h4.2558155
		c0.5637417,0,1.0207443,0.4570026,1.0207443,1.0207443v7.4564495
		C30.4354668,39.1329384,29.0919437,40.4764595,27.4346256,40.4764595z"/>
	<path id="XMLID_760_" style="fill:#424242;" d="M27.2868099,40.7344208c-1.878355,0-3.4065514-1.5281296-3.4065514-3.4065514
		v-8.3295097c0-0.1423798,0.1154461-0.2578926,0.2579594-0.2578926h6.2972488c0.1425133,0,0.2579594,0.1155128,0.2579594,0.2578926
		v8.3295097C30.6934261,39.2062912,29.1652298,40.7344208,27.2868099,40.7344208z M24.3961124,29.256319v8.0715504
		c0,1.5939865,1.2967758,2.8906975,2.8906975,2.8906975c1.5939865,0,2.8907642-1.296711,2.8907642-2.8906975V29.256319H24.3961124z"
		/>
	<path id="XMLID_759_" style="fill:#337D3E;" d="M33.7319031,40.4764595h-0.2956238
		c-1.6573029,0-3.0008125-1.3435097-3.0008125-3.0008087v-7.4656773c0-0.5586624,0.4528847-1.0115471,1.0115471-1.0115471h4.2741547
		c0.5586624,0,1.0115471,0.4528847,1.0115471,1.0115471v7.4656773
		C36.7327156,39.1329498,35.3892059,40.4764595,33.7319031,40.4764595z"/>
	<path id="XMLID_756_" style="fill:#424242;" d="M33.5840569,40.7344208c-1.8782864,0-3.4064827-1.5281296-3.4064827-3.4065514
		v-8.3295097c0-0.1423798,0.1154461-0.2578926,0.2578926-0.2578926h6.2972488c0.1424484,0,0.2578926,0.1155128,0.2578926,0.2578926
		v8.3295097C36.9906082,39.2062912,35.4624138,40.7344208,33.5840569,40.7344208z M30.6934261,29.256319v8.0715504
		c0,1.5939865,1.296711,2.8906975,2.8906307,2.8906975c1.5939217,0,2.8906975-1.296711,2.8906975-2.8906975V29.256319H30.6934261z"
		/>
	<path id="XMLID_755_" style="fill:#9BBD37;" d="M40.0291901,40.4764595h-0.2956276
		c-1.6573219,0-3.0008469-1.3435249-3.0008469-3.0008469v-7.5347614c0-0.5204868,0.421936-0.9424248,0.9424248-0.9424248h4.4124641
		c0.5204849,0,0.9424248,0.4219379,0.9424248,0.9424248v7.5347691
		C43.0300293,39.1329384,41.6865082,40.4764595,40.0291901,40.4764595z"/>
	<path id="XMLID_752_" style="fill:#424242;" d="M39.8813705,40.7344208c-1.878418,0-3.4066162-1.5281296-3.4066162-3.4065514
		v-8.3295097c0-0.1423798,0.115448-0.2578926,0.2579613-0.2578926h6.2973137c0.1424484,0,0.2578926,0.1155128,0.2578926,0.2578926
		v8.3295097C43.2879219,39.2062912,41.7597275,40.7344208,39.8813705,40.7344208z M36.9906082,29.256319v8.0715504
		c0,1.5939865,1.2968445,2.8906975,2.8907623,2.8906975c1.5939217,0,2.8906975-1.296711,2.8906975-2.8906975V29.256319H36.9906082z"
		/>
	<path id="XMLID_751_" style="fill:#337D3E;" d="M46.3264656,40.4764595h-0.2956238
		c-1.6573029,0-3.0008125-1.3435097-3.0008125-3.0008087v-7.677248c0-0.4418144,0.3581619-0.7999763,0.7999763-0.7999763h4.6972923
		c0.4418182,0,0.7999802,0.3581619,0.7999802,0.7999763v7.677248
		C49.3272781,39.1329498,47.9837685,40.4764595,46.3264656,40.4764595z"/>
	<path id="XMLID_748_" style="fill:#424242;" d="M46.1786194,40.7344208c-1.8783531,0-3.4065514-1.5281296-3.4065514-3.4065514
		v-8.3295097c0-0.1423798,0.115448-0.2578926,0.2579613-0.2578926h6.2972488c0.1425209,0,0.2579575,0.1155128,0.2579575,0.2578926
		v8.3295097C49.5852356,39.2062912,48.0570412,40.7344208,46.1786194,40.7344208z M43.2879219,29.256319v8.0715504
		c0,1.5939865,1.2967758,2.8906975,2.8906975,2.8906975c1.5939865,0,2.8907738-1.296711,2.8907738-2.8906975V29.256319H43.2879219z"
		/>
	<polygon id="XMLID_747_" style="fill:#337D3E;" points="49.3272781,28.9984264 5.2463427,28.9984264 8.3949995,26.0619583 
		46.1786194,26.0619583 	"/>
	<path id="XMLID_744_" style="fill:#424242;" d="M49.3272781,29.256319H5.2463427
		c-0.1059628,0-0.2011251-0.0648022-0.2399144-0.1633892c-0.0389214-0.098587-0.0134349-0.2109375,0.0640121-0.2831154
		l3.1486568-2.9364681c0.0478115-0.044651,0.1105728-0.0693474,0.1759024-0.0693474h37.7836189
		c0.0653305,0,0.1281586,0.0246964,0.1759033,0.0693474l3.1486549,2.9364681
		c0.0775146,0.0721779,0.1029434,0.1845284,0.0640907,0.2831154C49.5284691,29.1915169,49.433239,29.256319,49.3272781,29.256319z
		 M5.9010863,28.7404671h42.77145l-2.5954666-2.4206161H8.496624L5.9010863,28.7404671z"/>
</g>
</svg>
