<?xml version="1.0" encoding="utf-8"?>
<!-- Generator: Adobe Illustrator 18.0.0, SVG Export Plug-In . SVG Version: 6.00 Build 0)  -->
<!DOCTYPE svg PUBLIC "-//W3C//DTD SVG 1.1//EN" "http://www.w3.org/Graphics/SVG/1.1/DTD/svg11.dtd">
<svg version="1.1" id="Layer_1" xmlns="http://www.w3.org/2000/svg" xmlns:xlink="http://www.w3.org/1999/xlink" x="0px" y="0px"
	 width="31.9px" height="31.9px" viewBox="0 0 31.9 31.9" enable-background="new 0 0 31.9 31.9" xml:space="preserve">
<g>
	<path fill="#606060" d="M0,31.9V16C0,7.2,7.2,0,16,0s16,7.2,16,16c0,8.3-6.2,15.1-14.5,15.9l0,0l0,0c-1,0.1-1.8,0.1-2.8,0L0,31.9z
		 M17.4,31.7l0,0.2L17.4,31.7L17.4,31.7z M17.4,31.6l-0.1,0.3L17.4,31.6z M17.4,31.2l0,0.3L17.4,31.2c7.9-0.7,13.9-7.3,13.9-15.2
		c0-8.4-6.9-15.3-15.3-15.3S0.7,7.5,0.7,16v1.4l0.1,0l0,0.1l-0.1,0v1.4l0.3-0.1L1,19L0.7,19v1.4l0.6-0.2l0,0.2l-0.6,0.2v10.7l10.8,0
		l-1.4-1.4l1.9,0.9L11.8,31l0.2-0.2L11.8,31l-0.1,0.2l1.5,0l0-0.2l0,0.2l0-0.2l0,0.2l0-0.2l0,0.2l1.5,0
		C15.7,31.3,16.5,31.3,17.4,31.2z M4.3,26.8l0.4-0.4l-0.2,0.2L4.3,26.8z M4.5,26.6l0.3-0.2l0,0L4.5,26.6z M3.3,25.8L3.3,25.8
		l0.2-0.3l0.3-0.2l-0.2,0.2L3.3,25.8z M2.5,24.6l-0.1-0.1L3,24.1l0.1,0.1L2.5,24.6z M1.8,23.3l-0.1-0.1l0.6-0.4L2.4,23L1.8,23.3z
		 M1.2,22l-0.1-0.2l0.6-0.2l0.1,0.2L1.2,22z"/>
	<path opacity="0.4" fill="#C5C5C5" d="M0,31.9V16C0,7.2,7.2,0,16,0s16,7.2,16,16c0,8.3-6.2,15.1-14.5,15.9l0,0l0,0
		c-1,0.1-1.8,0.1-2.8,0L0,31.9z M17.4,31.7l0,0.2L17.4,31.7L17.4,31.7z M17.4,31.6l-0.1,0.3L17.4,31.6z M17.4,31.2l0,0.3L17.4,31.2
		c7.9-0.7,13.9-7.3,13.9-15.2c0-8.4-6.9-15.3-15.3-15.3S0.7,7.5,0.7,16v1.4l0.1,0l0,0.1l-0.1,0v1.4l0.3-0.1L1,19L0.7,19v1.4l0.6-0.2
		l0,0.2l-0.6,0.2v10.7l10.8,0l-1.4-1.4l1.9,0.9L11.8,31l0.2-0.2L11.8,31l-0.1,0.2l1.5,0l0-0.2l0,0.2l0-0.2l0,0.2l0-0.2l0,0.2l1.5,0
		C15.7,31.3,16.5,31.3,17.4,31.2z M4.3,26.8l0.4-0.4l-0.2,0.2L4.3,26.8z M4.5,26.6l0.3-0.2l0,0L4.5,26.6z M3.3,25.8L3.3,25.8
		l0.2-0.3l0.3-0.2l-0.2,0.2L3.3,25.8z M2.5,24.6l-0.1-0.1L3,24.1l0.1,0.1L2.5,24.6z M1.8,23.3l-0.1-0.1l0.6-0.4L2.4,23L1.8,23.3z
		 M1.2,22l-0.1-0.2l0.6-0.2l0.1,0.2L1.2,22z"/>
	<g>
		<path opacity="7.000000e-002" fill="#606060" d="M31.6,16c0-8.6-7-15.6-15.6-15.6S0.3,7.3,0.3,16c0,0,0,0,0,0v15.6l14.3-0.1
			c0,0,0,0,0,0c0.4,0,0.9,0.1,1.3,0.1c0.5,0,1,0,1.4-0.1h0l0,0c0,0,0,0,0,0C25.4,30.8,31.6,24.1,31.6,16z M4.5,26.6
			C4.5,26.6,4.5,26.6,4.5,26.6C4.5,26.6,4.5,26.6,4.5,26.6z M0.4,17.4C0.4,17.5,0.4,17.5,0.4,17.4C0.4,17.5,0.4,17.5,0.4,17.4z
			 M0.6,18.9c0,0,0,0.1,0,0.1C0.6,19,0.6,18.9,0.6,18.9z M0.9,20.3c0,0.1,0,0.1,0,0.2C1,20.4,1,20.4,0.9,20.3z M1.4,21.7
			c0,0.1,0,0.1,0.1,0.2C1.5,21.8,1.4,21.7,1.4,21.7z M2,23c0,0,0,0.1,0.1,0.1C2.1,23.1,2,23.1,2,23z M2.7,24.3c0,0,0.1,0.1,0.1,0.1
			C2.8,24.4,2.8,24.3,2.7,24.3z M3.6,25.5C3.6,25.5,3.6,25.5,3.6,25.5C3.6,25.5,3.6,25.5,3.6,25.5z M13.2,31.4
			C13.2,31.4,13.2,31.4,13.2,31.4C13.2,31.4,13.2,31.4,13.2,31.4z M11.8,31C11.8,31,11.8,31,11.8,31C11.8,31,11.8,31,11.8,31z"/>
		<g>
			<circle fill="#606060" cx="11.9" cy="12" r="1.8"/>
			<circle fill="#606060" cx="20.3" cy="12" r="1.8"/>
			<path fill="#606060" d="M22.8,19.6c-1.1,2.7-3.8,4.4-6.8,4.4c-3.1,0-5.8-1.7-6.9-4.4c-0.2-0.5,0-1,0.5-1.2c0.1,0,0.2-0.1,0.3-0.1
				c0.4,0,0.7,0.2,0.8,0.6c0.8,2,2.9,3.3,5.2,3.3c2.3,0,4.3-1.3,5.2-3.3c0.2-0.5,0.7-0.7,1.2-0.5C22.8,18.6,23,19.1,22.8,19.6z"/>
		</g>
	</g>
</g>
</svg>
