<?xml version="1.0" encoding="utf-8"?>
<!-- Generator: Adobe Illustrator 18.0.0, SVG Export Plug-In . SVG Version: 6.00 Build 0)  -->
<!DOCTYPE svg PUBLIC "-//W3C//DTD SVG 1.1//EN" "http://www.w3.org/Graphics/SVG/1.1/DTD/svg11.dtd">
<svg version="1.1" id="Layer_1" xmlns="http://www.w3.org/2000/svg" xmlns:xlink="http://www.w3.org/1999/xlink" x="0px" y="0px"
	 width="32.4px" height="32.3px" viewBox="0 0 32.4 32.3" enable-background="new 0 0 32.4 32.3" xml:space="preserve">
<g>
	<path opacity="7.000000e-002" fill="#606060" d="M30.7,10c-1.7-3.9-4.5-6.7-8.4-8.4c-2-0.8-4-1.3-6.2-1.3C14,0.3,12,0.8,10,1.6
		C6.1,3.3,3.3,6.1,1.6,10c-0.8,2-1.2,4-1.2,6.1c0,2.1,0.4,4.2,1.2,6.2c1.7,3.9,4.5,6.7,8.4,8.4c2,0.8,4,1.3,6.1,1.3s4.2-0.4,6.2-1.3
		c3.9-1.7,6.8-4.5,8.4-8.4c0.8-2,1.3-4,1.3-6.2C32,14,31.6,12,30.7,10z"/>
	<path fill="#606060" d="M16.2,32.3c-2.2,0-4.3-0.4-6.3-1.3c-4-1.7-6.9-4.6-8.6-8.6c-0.8-2-1.3-4.1-1.3-6.3c0-2.2,0.4-4.3,1.3-6.3
		C3,5.9,5.9,3,9.9,1.3c4-1.7,8.6-1.7,12.6,0c4,1.7,6.9,4.6,8.6,8.6l0,0c0.9,2,1.3,4.1,1.3,6.3c0,2.2-0.4,4.3-1.3,6.3
		c-1.7,4-4.6,6.9-8.6,8.6C20.4,31.9,18.3,32.3,16.2,32.3z M16.2,0.7c-2.1,0-4.1,0.4-6,1.2c-3.8,1.6-6.6,4.4-8.2,8.2
		c-0.8,1.9-1.2,3.9-1.2,6c0,2.1,0.4,4.1,1.2,6c1.6,3.8,4.4,6.6,8.2,8.2c1.9,0.8,3.9,1.2,6,1.2c2.1,0,4.1-0.4,6-1.2
		c3.8-1.6,6.6-4.4,8.2-8.2c0.8-1.9,1.2-3.9,1.2-6c0-2.1-0.4-4.1-1.2-6l0,0c-1.6-3.8-4.4-6.6-8.2-8.2C20.3,1.1,18.2,0.7,16.2,0.7z"/>
	<path fill="#606060" d="M17.2,16V7c0-0.5-0.5-1-1-1c-0.5,0-1,0.4-1,1v9.1c0,0,0,0.1,0,0.1c0,0.3,0.1,0.6,0.3,0.8l5.2,5.2
		c0.3,0.3,1,0.3,1.3,0c0.4-0.4,0.4-1,0-1.3L17.2,16z"/>
</g>
</svg>
