<?xml version="1.0" encoding="utf-8"?>
<!-- Generator: Adobe Illustrator 19.0.0, SVG Export Plug-In . SVG Version: 6.00 Build 0)  -->
<svg version="1.1" id="Layer_1" xmlns="http://www.w3.org/2000/svg" xmlns:xlink="http://www.w3.org/1999/xlink" x="0px" y="0px"
	 width="24.219883px" height="20.1832809px" viewBox="0 0 24.219883 20.1832809"
	 style="enable-background:new 0 0 24.219883 20.1832809;" xml:space="preserve">
<g>
	<g>
		<path style="fill:#283238;" d="M3.5318272,20.1832962c-0.0650563,0-0.1305621-0.012804-0.1931477-0.038414
			c-0.188745-0.0778618-0.3113997-0.2621574-0.3113997-0.4661331v-3.5320549H1.5135039
			c-0.8347269-0.0000439-1.5137315-0.6790943-1.5137315-1.5138216V1.513747c0-0.8347269,0.6790046-1.5137315,1.5137315-1.5137315
			h21.1924191c0.8347263,0,1.513731,0.6790045,1.513731,1.5137315v13.1191254c0,0.8347273-0.6790028,1.513732-1.513731,1.513732
			H7.7774372l-3.8888326,3.8888321C3.7920084,20.1320324,3.6629286,20.1832962,3.5318272,20.1832962z M1.5135039,1.0092003
			c-0.278422,0-0.5045921,0.2261699-0.5045921,0.5045923v13.1191254c0,0.2779274,0.2261701,0.504591,0.5045921,0.504591h2.0183239
			c0.2789161,0,0.5045922,0.2256765,0.5045922,0.5045919v2.8185463l3.175323-3.1753244
			c0.0946193-0.0946188,0.2227106-0.1478148,0.3567767-0.1478148h15.1374493c0.2779293,0,0.5045929-0.2266655,0.5045929-0.5045919
			V1.5137908c0-0.2784219-0.2266636-0.5045922-0.504591-0.5045922H1.5135039V1.0092003z"/>
		<path style="fill:#283238;" d="M8.5776587,9.0824947c-0.5563049,0-1.0091844-0.4528351-1.0091844-1.0091848
			c0-0.5563049,0.4528346-1.0091844,1.0091844-1.0091844c0.5563049,0,1.0091848,0.4528341,1.0091848,1.0091844
			C9.5868425,8.6296597,9.1339636,9.0824947,8.5776587,9.0824947z"/>
		<path style="fill:#283238;" d="M16.6509533,9.0824947c-0.5567989,0-1.0091848-0.4528351-1.0091848-1.0091848
			c0-0.5563049,0.4523401-1.0091844,1.0091848-1.0091844s1.0091839,0.4528341,1.0091839,1.0091844
			S17.207798,9.0824947,16.6509533,9.0824947z"/>
		<path style="fill:#283238;" d="M12.6143064,9.0824947c-0.556304,0-1.0091848-0.4528351-1.0091848-1.0091848
			c0-0.5563049,0.4528351-1.0091844,1.0091848-1.0091844c0.5567989,0,1.0091848,0.4528341,1.0091848,1.0091844
			C13.6234894,8.6296597,13.1711493,9.0824947,12.6143064,9.0824947z"/>
	</g>
</g>
</svg>
