<?xml version="1.0" encoding="utf-8"?>
<!-- Generator: Adobe Illustrator 19.0.0, SVG Export Plug-In . SVG Version: 6.00 Build 0)  -->
<svg version="1.1" id="Layer_1" xmlns="http://www.w3.org/2000/svg" xmlns:xlink="http://www.w3.org/1999/xlink" x="0px" y="0px"
	 width="21.6875px" height="21.21875px" viewBox="0 0 21.6875 21.21875" style="enable-background:new 0 0 21.6875 21.21875;"
	 xml:space="preserve">
<g id="XMLID_171_">
	<path id="XMLID_175_" style="fill:#000;" d="M7.0997095,11.0659666h-5.211442
		c-1.0428615,0-1.8882679-0.8454065-1.8882679-1.8882675v-5.211442c0-1.0428615,0.8454063-1.8882678,1.8882679-1.8882678h5.211442
		c1.0428619,0,1.8882675,0.8454063,1.8882675,1.8882678v5.211442C8.987977,10.2205601,8.1425714,11.0659666,7.0997095,11.0659666z"
		/>
	<path id="XMLID_174_" style="fill:#000;" d="M14.7682524,10.5935669l-3.6850452-3.6850462
		c-0.7374144-0.7374144-0.7374144-1.9329996,0-2.670414l3.6850452-3.6850457c0.7374144-0.7374145,1.9329996-0.7374145,2.6704149,0
		l3.6850452,3.6850457c0.7374153,0.7374144,0.7374153,1.9329996,0,2.670414l-3.6850452,3.6850462
		C16.701252,11.3309813,15.5056667,11.3309813,14.7682524,10.5935669z"/>
	<path id="XMLID_173_" style="fill:#000;" d="M7.0997095,21.1774406h-5.211442
		c-1.0428615,0-1.8882679-0.8454056-1.8882679-1.8882675v-5.211441c0-1.0428619,0.8454063-1.8882685,1.8882679-1.8882685h5.211442
		c1.0428619,0,1.8882675,0.8454065,1.8882675,1.8882685v5.211441C8.987977,20.3320351,8.1425714,21.1774406,7.0997095,21.1774406z"
		/>
	<path id="XMLID_172_" style="fill:#000;" d="M17.710516,21.1774406h-5.211441
		c-1.0428619,0-1.8882685-0.8454056-1.8882685-1.8882675v-5.211441c0-1.0428619,0.8454065-1.8882685,1.8882685-1.8882685h5.211441
		c1.0428619,0,1.8882675,0.8454065,1.8882675,1.8882685v5.211441C19.5987835,20.3320351,18.7533779,21.1774406,17.710516,21.1774406
		z"/>
</g>
</svg>
