<?xml version="1.0" encoding="utf-8"?>
<!-- Generator: Adobe Illustrator 18.0.0, SVG Export Plug-In . SVG Version: 6.00 Build 0)  -->
<!DOCTYPE svg PUBLIC "-//W3C//DTD SVG 1.1//EN" "http://www.w3.org/Graphics/SVG/1.1/DTD/svg11.dtd">
<svg version="1.1" id="Layer_1" xmlns="http://www.w3.org/2000/svg" xmlns:xlink="http://www.w3.org/1999/xlink" x="0px" y="0px"
	 width="87.8px" height="19.1px" viewBox="0 0 87.8 19.1" enable-background="new 0 0 87.8 19.1" xml:space="preserve">
<g id="idea_01_2_" opacity="0.7">
	<path id="SupportHero_2_" fill-rule="evenodd" clip-rule="evenodd" fill="#3C3C3C" d="M0,14.7c0,0.7,0.2,0.9,0.9,1.1
		c0.8,0.2,1.6,0.3,2.4,0.3c2.8,0,4-1,4-2.9c0-1.4-0.6-2.1-1.9-2.9L3.2,9.1c-0.7-0.4-0.9-0.6-0.9-1c0-0.6,0.4-0.7,1.5-0.7
		c0.8,0,1.4,0.1,2,0.3c0.7,0.2,0.9,0,0.9-0.7V6.7c0-0.7-0.2-0.9-0.9-1.1c-0.6-0.2-1.3-0.3-2-0.3C1.3,5.4,0.2,6.3,0.2,8
		c0,1.2,0.5,2.1,1.6,2.7l2,1.2c1,0.6,1.3,0.8,1.3,1.3c0,0.6-0.5,0.9-1.7,0.9c-0.8,0-1.6-0.1-2.4-0.3c-0.7-0.2-0.9,0-0.9,0.7L0,14.7
		L0,14.7z M10.7,8.8c0-0.7-0.2-0.9-0.9-0.9H9.5c-0.7,0-0.9,0.2-0.9,0.9v4c0,2.1,1.2,3.2,3.6,3.2c2.5,0,3.6-1.1,3.6-3.2v-4
		c0-0.7-0.2-0.9-0.9-0.9h-0.3c-0.7,0-0.9,0.2-0.9,0.9v4c0,0.9-0.3,1.3-1.5,1.3s-1.5-0.4-1.5-1.3V8.8z M17.5,18.2
		c0,0.7,0.2,0.9,0.9,0.9h0.3c0.7,0,0.9-0.2,0.9-0.9v-3c0.4,0.6,1.2,0.9,2.2,0.9c2.2,0,3.3-1.3,3.3-3.6v-1.3c0-2.3-1.3-3.5-3.8-3.5
		c-2.3,0-3.8,1.1-3.8,3.5V18.2z M23,12.5c0,1.1-0.4,1.6-1.7,1.6c-1.4,0-1.7-0.5-1.7-1.6v-1.3c0-1.1,0.4-1.6,1.7-1.6
		c1.4,0,1.7,0.4,1.7,1.6V12.5z M26.5,18.2c0,0.7,0.2,0.9,0.9,0.9h0.3c0.7,0,0.9-0.2,0.9-0.9v-3c0.4,0.6,1.2,0.9,2.2,0.9
		c2.2,0,3.3-1.3,3.3-3.6v-1.3c0-2.3-1.3-3.5-3.8-3.5c-2.3,0-3.8,1.1-3.8,3.5V18.2z M32,12.5c0,1.1-0.4,1.6-1.7,1.6s-1.7-0.5-1.7-1.6
		v-1.3c0-1.1,0.4-1.6,1.7-1.6c1.4,0,1.7,0.4,1.7,1.6V12.5z M40.8,12.5c0,1.1-0.4,1.6-1.7,1.6s-1.7-0.5-1.7-1.6v-1.3
		c0-1.1,0.4-1.6,1.7-1.6s1.7,0.5,1.7,1.6V12.5z M39.1,16.1c2.5,0,3.8-1.2,3.8-3.5v-1.3c0-2.4-1.2-3.5-3.8-3.5
		c-2.5,0-3.8,1.3-3.8,3.5v1.3C35.3,14.9,36.5,16.1,39.1,16.1L39.1,16.1z M46.4,10.8c0-0.8,0.3-1.1,1.2-1.1h0.2
		c0.7,0,0.8-0.1,0.8-0.8V8.7c0-0.7-0.2-1-0.8-1h-0.2c-2.2,0-3.3,1-3.3,2.9V15c0,0.7,0.2,0.9,0.9,0.9h0.3c0.7,0,0.9-0.2,0.9-0.9V10.8
		L46.4,10.8z M49.2,9.1c0,0.6,0.2,0.8,0.8,0.8h0.6V13c0,2,1,3,3.1,3c0.4,0,0.7,0,1.1-0.1c0.7-0.1,0.9-0.4,0.9-1.1v-0.2
		c0-0.7-0.2-0.8-0.9-0.7c-0.4,0.1-0.7,0.1-1.1,0.1c-0.7,0-1-0.4-1-1.1V9.9h1.8c0.7,0,0.9-0.2,0.9-0.9V8.8c0-0.7-0.2-0.9-0.9-0.9
		h-1.8V6.7c0-0.7-0.1-0.8-0.8-0.8h-0.1c-0.7,0-0.9,0.2-1,0.8l-0.2,1.3L50,8.1C49.3,8.2,49.2,8.4,49.2,9.1L49.2,9.1L49.2,9.1z"/>
	
		<image overflow="visible" enable-background="new    " width="288" height="115" xlink:href="115EBB11.png"  transform="matrix(7.256066e-002 0 0 7.256066e-002 66.885 7.7235)">
	</image>
	<path id="Rounded_Rectangle_3_2_" fill-rule="evenodd" clip-rule="evenodd" fill="#A9A9A9" d="M57.7,11.9h1.5
		c0.2,0,0.4,0.2,0.4,0.4v3.3c0,0.2-0.2,0.4-0.4,0.4h-1.5c-0.2,0-0.4-0.2-0.4-0.4v-3.3C57.4,12.1,57.5,11.9,57.7,11.9z"/>
	<path id="Rounded_Rectangle_3_copy_2_" fill-rule="evenodd" clip-rule="evenodd" fill="#A9A9A9" d="M63.5,11.9H65
		c0.2,0,0.4,0.2,0.4,0.4v3.3c0,0.2-0.2,0.4-0.4,0.4h-1.5c-0.2,0-0.4-0.2-0.4-0.4v-3.3C63.2,12.1,63.3,11.9,63.5,11.9z"/>
	<path id="Rounded_Rectangle_3_copy_2_2_" fill-rule="evenodd" clip-rule="evenodd" fill="#A9A9A9" d="M58.6,11.9h5.8
		c0.2,0,0.3,0.1,0.3,0.3v1.2c0,0.2-0.1,0.3-0.3,0.3l0,0h-5.8c-0.2,0-0.3-0.1-0.3-0.3c0,0,0,0,0,0v-1.2
		C58.2,12.1,58.4,11.9,58.6,11.9L58.6,11.9z"/>
	<g>
		<path fill-rule="evenodd" clip-rule="evenodd" fill="#A9A9A9" d="M63.5,11.2H59c0,0-1.5,0.2-1.6-0.8V9.1c0,0-1.4-0.6-1.8-1.7
			c0,0,0.9,0.9,1.8,0.7c0,0-1.6,0-2.1-2.3c0,0,0.8,1,1.5,0.7c0,0-2.1-0.4-2.2-3.6c0,0,1.4,1.8,3.2,1.8c0,0-0.6-0.1-1-0.3
			c0,0,1.1-0.2,1-1.7c0,0,0.8,0,1.3,2c0,0-0.7-2.2,0.9-2.7c0,0-0.3,1,0.6,1.3c0,0-0.2-0.3,0-0.4c0,0,1-1.2,0.2-2.9
			c0,0,3.5,0.8,2,5.2c0,0,0.4-0.9,0.5-1.6c0,0,0.6-0.7,0.7-1.5c0,0,0.6,0.4,0.2,1.8c0,0,0.2-0.9,0.6-1.1c0,0-0.2,1.3,0.7,1.6
			c0,0-0.5,0.1-0.5,0.4c0,0,0.9-0.1,1.7-1.4c0,0,1.1,1.3-0.4,3.6c0,0,0.6-1.1,1.4-0.6c0,0-1,0.5-2.1,2.8v0.9c0,0,0.1,0.9-0.9,1.1
			L63.5,11.2L63.5,11.2z"/>
		<path id="Rounded_Rectangle_2_2_" fill-rule="evenodd" clip-rule="evenodd" fill="#FFFFFF" d="M58.2,5.5h6.5
			c0.2,0,0.4,0.2,0.4,0.4v4.6c0,0.2-0.2,0.4-0.4,0.4h-6.5c-0.2,0-0.4-0.2-0.4-0.4V5.9C57.8,5.7,58,5.5,58.2,5.5z"/>
		<circle fill="#A9A9A9" cx="61.5" cy="5.8" r="1"/>
		<circle fill-opacity="0" stroke="#A9A9A9" stroke-width="3" stroke-linejoin="round" cx="62.9" cy="8.3" r="0.7"/>
		
			<circle id="Ellipse_2_copy_2_" fill-opacity="0" stroke="#A9A9A9" stroke-width="3" stroke-linejoin="round" cx="59.8" cy="8.3" r="0.7"/>
		<path fill-rule="evenodd" clip-rule="evenodd" fill="#A9A9A9" d="M60.8,8.1H62v0.3h-1.3V8.1z"/>
	</g>
</g>
</svg>
