<?xml version="1.0" encoding="utf-8"?>
<!-- Generator: Adobe Illustrator 19.0.0, SVG Export Plug-In . SVG Version: 6.00 Build 0)  -->
<svg version="1.1" id="Layer_1" xmlns="http://www.w3.org/2000/svg" xmlns:xlink="http://www.w3.org/1999/xlink" x="0px" y="0px"
	 width="27.839817px" height="21.994421px" viewBox="0 0 27.839817 21.994421"
	 style="enable-background:new 0 0 27.839817 21.994421;" xml:space="preserve">
<g>
	<g id="XMLID_1233_">
		<path id="XMLID_1235_" style="fill:#283238;" d="M27.7233639,15.5644741l-5.0592594-5.6654949
			c-0.1268406-0.1420755-0.328083-0.1909018-0.5058899-0.1231689c-0.1778088,0.0678558-0.2953472,0.2384443-0.2953472,0.4287949
			v1.5539513h-1.9347153c-0.2534332,0-0.4588966,0.2054024-0.4588966,0.4588985
			c0,0.2534952,0.2054634,0.4588985,0.4588966,0.4588985h2.3936138c0.2534332,0,0.4588985-0.2054033,0.4588985-0.4588985v-0.8099861
			L26.7657948,15.8701l-3.9851303,4.4626312v-0.8099861c0-0.2534943-0.2054653-0.4588966-0.4588985-0.4588966H8.9826975v-6.3874359
			h9.1099234c0.2534351,0,0.4588985-0.2054024,0.4588985-0.4588976c0-0.2534962-0.2054634-0.4588985-0.4588985-0.4588985H8.5237989
			c-0.2534342,0-0.4588985,0.2054024-0.4588985,0.4588985v7.3052301c0,0.2534962,0.2054644,0.4588985,0.4588985,0.4588985
			h13.3391294v1.5539513c0,0.1902905,0.1174793,0.3608799,0.2953472,0.4287949
			c0.0532932,0.0203133,0.1086063,0.0301037,0.1634903,0.0301037c0.1282463,0,0.2536163-0.0537815,0.3423996-0.1532726
			l5.0592613-5.6654949C27.8788395,16.0016499,27.8788395,15.7385502,27.7233639,15.5644741z"/>
		<path id="XMLID_1234_" style="fill:#283238;" d="M8.9826975,9.7770948c0-0.2534962-0.2054644-0.4588985-0.4588985-0.4588985
			H6.1301861c-0.2534337,0-0.4588981,0.2054024-0.4588981,0.4588985v0.9058037L1.1083717,6.1245098L5.671288,1.5661209v0.9058039
			c0,0.2534952,0.2054644,0.4588983,0.4588981,0.4588983h13.3391304v6.387434h-9.1099253
			c-0.2534332,0-0.4588976,0.2054024-0.4588976,0.4588976c0,0.2534962,0.2054644,0.4588985,0.4588976,0.4588985h9.5688238
			c0.2534332,0,0.4588966-0.2054024,0.4588966-0.4588985V2.4718637c0-0.2534952-0.2054634-0.4588983-0.4588966-0.4588983H6.5890841
			V0.4590138c0-0.1855785-0.1117878-0.3528622-0.2831707-0.4239608C6.134469-0.0359843,5.9371428,0.0031749,5.8058362,0.1343587
			L0.1347117,5.7998543C0.0485612,5.8858829,0.0001628,6.0026875,0.0001628,6.1245098
			c0,0.1218219,0.0483985,0.2385659,0.1345489,0.3246551l5.6711245,5.6654954
			c0.0878024,0.0877419,0.2050967,0.134243,0.3244109,0.134243c0.0591674,0,0.118824-0.0114412,0.1756663-0.0349369
			c0.1713834-0.0710993,0.2831707-0.2383823,0.2831707-0.4239616v-1.5539513h1.9347148
			C8.7772331,10.2359924,8.9826975,10.0305281,8.9826975,9.7770948z"/>
	</g>
</g>
</svg>
