<?xml version="1.0" encoding="utf-8"?>
<!-- Generator: Adobe Illustrator 19.0.0, SVG Export Plug-In . SVG Version: 6.00 Build 0)  -->
<svg version="1.1" id="Layer_1" xmlns="http://www.w3.org/2000/svg" xmlns:xlink="http://www.w3.org/1999/xlink" x="0px" y="0px"
	 width="17.6571369px" height="17.6578827px" viewBox="0 0 17.6571369 17.6578827"
	 style="enable-background:new 0 0 17.6571369 17.6578827;" xml:space="preserve">
<g>
	<circle style="fill:#F3F2F2;" cx="8.8284483" cy="8.8293591" r="8.8285685"/>
	<g>
		<polygon style="fill:#293688;" points="6.5373125,10.5229063 7.2128768,6.5337515 8.3066034,6.5337515 7.6310763,10.5229063 		"/>
		<path style="fill:#293688;" d="M11.524744,6.6368766c-0.2167559-0.0808458-0.5563459-0.167429-0.9804316-0.167429
			c-1.0809469,0-1.8423491,0.5411816-1.8489065,1.3165178C8.6894083,8.3590384,9.2389355,8.6786947,9.6540794,8.869669
			c0.425725,0.1951475,0.5689001,0.320365,0.5668135,0.4947605c-0.0026455,0.2673864-0.340148,0.3896236-0.6546259,0.3896236
			c-0.4377213-0.0001488-0.6703854-0.060503-1.029645-0.2093782L8.3956823,9.4811163L8.242075,10.3741436
			c0.2555389,0.1113958,0.7280951,0.2080011,1.218646,0.2128811c1.1496468-0.0002604,1.8962955-0.5347366,1.9046783-1.3629389
			c0.0041723-0.453742-0.2873192-0.7990675-0.9183998-1.0838528c-0.3823957-0.1843061-0.6165867-0.3074002-0.6140537-0.494463
			c0-0.1657524,0.1983519-0.3430533,0.626461-0.3430533c0.3576956-0.0055885,0.6168489,0.0719414,0.8188505,0.1527867
			l0.0978727,0.0460114L11.524744,6.6368766L11.524744,6.6368766z"/>
		<path style="fill:#293688;" d="M13.3895216,6.5337515c-0.2620592,0-0.4513941,0.0800257-0.5665531,0.3397384l-1.6209736,3.6495652
			h1.1580305l0.2251377-0.6112967h1.3835783l0.1285334,0.6112967h1.0294971l-0.9006662-3.9891915h-0.8365479L13.3895216,6.5337515
			L13.3895216,6.5337515z M12.8924141,9.1135473c0.0903454-0.2297211,0.4356356-1.1149621,0.4356356-1.1149621
			c-0.006259,0.010469,0.0898981-0.2308388,0.1451111-0.3805709l0.074028,0.3437619c0,0,0.2092304,0.9522653,0.2531557,1.1518826
			h-0.9079304V9.1135473z"/>
		<path style="fill:#293688;" d="M4.5427351,9.2682714L4.4463906,8.7213898
			C4.2467728,8.0839014,3.6272418,7.3941426,2.9330122,7.0485554l0.9663479,3.4743509H5.057651L6.7947521,6.533751H5.6367216
			L4.5427351,9.2682714z"/>
	</g>
	<g>
		<path style="fill:#F7981D;" d="M1.743948,6.5337515v0.0644159C3.1163869,6.928256,4.0692105,7.7627549,4.4464283,8.721427
			L4.0498376,6.8741975C3.9836333,6.6217504,3.7830093,6.5425444,3.545614,6.5337892L1.743948,6.5337515L1.743948,6.5337515z"/>
		<path style="fill:#F7981D;" d="M8.8278522,17.6578522c3.407589,0,6.3622179-1.9315777,7.8339081-4.7585306H0.9940952
			C2.4658957,15.7262745,5.420413,17.6578522,8.8278522,17.6578522z"/>
	</g>
	<path style="fill:#293688;" d="M8.8278522,0.0000446c-3.3534923,0-6.2702322,1.869658-7.7647591,4.623589h15.5298157
		C15.098196,1.8698517,12.181345,0.0000446,8.8278522,0.0000446z"/>
</g>
</svg>
