<svg xmlns="http://www.w3.org/2000/svg" viewBox="0 0 242.55 55.03"><defs><style>.cls-1{fill:#555;}.cls-2{fill:#444;}</style></defs><title>Asset 14</title><g id="Layer_2" data-name="Layer 2"><g id="Layer_1-2" data-name="Layer 1"><path class="cls-1" d="M140.67,21.66h-9.54v1c3,0,3.46.64,3.46,4.43v6.83c0,3.79-.48,4.48-3.46,4.48-2.3-.32-3.84-1.55-6-3.89l-2.45-2.67c3.31-.59,5.07-2.67,5.07-5,0-2.94-2.51-5.18-7.2-5.18h-9.39v1c3,0,3.46.64,3.46,4.43v6.83c0,3.79-.48,4.48-3.46,4.48v1h10.61v-1c-3,0-3.46-.69-3.46-4.48V32h.9l5.92,7.41h15.52c7.63,0,10.94-4.05,10.94-8.9S148.3,21.66,140.67,21.66Zm-22.34,8.7v-7.1h2.18A3.28,3.28,0,0,1,124,26.84a3.26,3.26,0,0,1-3.47,3.52Zm22.5,7.41h-.37c-1.92,0-2.19-.48-2.19-2.93V23.26h2.56c5.55,0,6.57,4.06,6.57,7.2S146.38,37.77,140.83,37.77Z"/><path class="cls-1" d="M81.47,32.33l3.68-10.88c1.07-3.15.59-4.06-2.83-4.06V16.33h10v1.06c-3.36,0-4.16.8-5.49,4.7L80.78,40.33h-.7L74.64,23.64,69.09,40.33H68.4L62.48,22.09c-1.28-3.9-2.13-4.7-5.23-4.7V16.33H69.09v1.06c-3.14,0-4,.75-2.88,4.06l3.58,10.88,5.38-16h1Z"/><path class="cls-1" d="M99.6,40.12c-5.86,0-10.66-4.32-10.66-9.6S93.74,21,99.6,21s10.67,4.32,10.67,9.55S105.47,40.12,99.6,40.12Zm0-17.5c-4.9,0-6.61,4.43-6.61,7.9s1.71,7.89,6.61,7.89,6.67-4.37,6.67-7.89S104.56,22.62,99.6,22.62Z"/><path class="cls-2" d="M164.78,38.36v1.06H152.57V38.36c3.57,0,4.21-.91,4.21-6.24V23.58c0-5.33-.64-6.19-4.21-6.19V16.33h11c5.49,0,8.53,2.82,8.53,6.61s-3,6.56-8.53,6.56h-3v2.62C160.57,37.45,161.21,38.36,164.78,38.36Zm-1.17-20.11h-3v9.28h3c3,0,4.37-2.08,4.37-4.59S166.6,18.25,163.61,18.25Z"/><path class="cls-2" d="M208.79,34.41l-.27,1c-.48,1.76-1.07,2.4-4.85,2.4h-.75c-2.77,0-3.25-.64-3.25-4.43V30.89c4.16,0,4.48.37,4.48,3.15h1V26.09h-1c0,2.77-.32,3.15-4.48,3.15v-6h2.93c3.79,0,4.37.64,4.85,2.4l.27,1h.85l-.37-5H192.52v1c3,0,3.47.64,3.47,4.43v6.83c0,3.46-.41,4.34-2.77,4.46-2.24-.34-3.77-1.56-5.87-3.87l-2.46-2.67c3.31-.59,5.07-2.67,5.07-5,0-2.94-2.51-5.18-7.2-5.18h-9.39v1c3,0,3.47.64,3.47,4.43v6.83c0,3.79-.48,4.48-3.47,4.48v1H184v-1c-3,0-3.47-.69-3.47-4.48V32h.91l5.92,7.41h21.92l.32-5Zm-28.27-4v-7.1h2.18a3.27,3.27,0,0,1,3.47,3.58,3.26,3.26,0,0,1-3.47,3.52Z"/><path class="cls-2" d="M219.62,40.12a7.86,7.86,0,0,1-4.81-1.82,4,4,0,0,0-.85,1.82h-1V32.76H214a5.92,5.92,0,0,0,6,5.6c1.71,0,3.1-1,3.1-2.56,0-1.39-1.23-2.46-3.42-3.47l-3-1.44c-2.13-1-3.73-2.77-3.73-5.12,0-2.56,2.4-4.75,5.71-4.75a6.66,6.66,0,0,1,4.16,1.39,3.05,3.05,0,0,0,.69-1.44h1v6.29H223.4c-.37-2.5-1.76-4.58-4.58-4.58-1.5,0-2.89.85-2.89,2.18s1.12,2.14,3.69,3.31l2.93,1.44c2.56,1.23,3.57,3.2,3.57,4.8C226.12,37.77,223.19,40.12,219.62,40.12Z"/><path class="cls-2" d="M236,40.12a7.86,7.86,0,0,1-4.8-1.82,4,4,0,0,0-.85,1.82h-1V32.76h1.06a5.92,5.92,0,0,0,6,5.6c1.71,0,3.09-1,3.09-2.56,0-1.39-1.22-2.46-3.41-3.47l-3-1.44c-2.13-1-3.73-2.77-3.73-5.12,0-2.56,2.4-4.75,5.7-4.75a6.64,6.64,0,0,1,4.16,1.39,3,3,0,0,0,.7-1.44h1v6.29h-1.12c-.37-2.5-1.76-4.58-4.59-4.58-1.49,0-2.88.85-2.88,2.18S233.48,27,236,28.17L239,29.61c2.56,1.23,3.57,3.2,3.57,4.8C242.55,37.77,239.62,40.12,236,40.12Z"/><path class="cls-2" d="M3.91,27.52A23.61,23.61,0,0,0,17.22,48.76L6,17.91A23.48,23.48,0,0,0,3.91,27.52Z"/><path class="cls-2" d="M43.45,26.32a12.56,12.56,0,0,0-1.94-6.51c-1.2-1.94-2.32-3.59-2.32-5.53a4.08,4.08,0,0,1,4-4.19l.31,0A23.6,23.6,0,0,0,7.79,14.55l1.52,0c2.47,0,6.29-.3,6.29-.3a1,1,0,0,1,.16,1.94s-1.28.15-2.71.23L21.65,42l5.17-15.49L23.14,16.45c-1.27-.08-2.48-.23-2.48-.23a1,1,0,0,1,.15-1.94s3.9.3,6.22.3,6.29-.3,6.29-.3a1,1,0,0,1,.15,1.94s-1.28.15-2.7.23L39.3,41.82,41.66,34C42.68,30.69,43.45,28.35,43.45,26.32Z"/><path class="cls-2" d="M27.93,29.58,20.85,50.16a23.63,23.63,0,0,0,14.51-.38,1.23,1.23,0,0,1-.17-.32Z"/><path class="cls-2" d="M48.23,16.19a18.36,18.36,0,0,1,.16,2.43,22.21,22.21,0,0,1-1.8,8.45L39.38,47.92a23.61,23.61,0,0,0,8.85-31.73Z"/><path class="cls-2" d="M27.52,0A27.52,27.52,0,1,0,55,27.52,27.54,27.54,0,0,0,27.52,0Zm0,53.77A26.26,26.26,0,1,1,53.77,27.52,26.29,26.29,0,0,1,27.52,53.77Z"/></g></g></svg>